<svg xmlns="http://www.w3.org/2000/svg" width="645.194" height="646.752" viewBox="0 0 645.194 646.752">
  <g id="Access_control_system" data-name="Access control system" transform="translate(-2428.615 -185.719)">
    <path id="Path_102776" data-name="Path 102776" d="M2457.159,386.615c-13.962,31.022-34.628,90.413-26.322,164.281,10.657,94.776,63.42,169.5,114.743,211.483,170.308,139.327,482.075,49.318,523.361-81.926,7.491-23.81,5.384-46.774,2.793-75.032-8.242-89.873-51.654-116.587-80.85-212.013-26.57-86.844-.374-96.616-25.219-135.224-53.9-83.751-209.473-87.972-316.521-47.819C2608.027,225.788,2508.251,273.1,2457.159,386.615Z" transform="translate(-0.315)" fill="#faf0fd"/>
    <g id="Group_48045" data-name="Group 48045" transform="translate(2463.907 248.399)">
      <path id="Path_102777" data-name="Path 102777" d="M3054.42,717.953H2516.346a10.052,10.052,0,0,1-10.052-10.052V436.465a17.213,17.213,0,0,1,17.214-17.214h520.4a17.53,17.53,0,0,1,17.53,17.53V710.936A7.017,7.017,0,0,1,3054.42,717.953Z" transform="translate(-2481.302 -299.959)" fill="#915aa3"/>
      <g id="Group_48026" data-name="Group 48026" transform="translate(480.879 276.5)">
        <rect id="Rectangle_4134" data-name="Rectangle 4134" width="33.292" height="48.414" rx="3.187" fill="#e7c7ff"/>
        <rect id="Rectangle_4135" data-name="Rectangle 4135" width="33.292" height="48.414" rx="3.509" transform="translate(39.055)" fill="#e7c7ff"/>
        <rect id="Rectangle_4136" data-name="Rectangle 4136" width="33.292" height="48.414" rx="2.277" transform="translate(0.001 53.793)" fill="#e7c7ff"/>
        <rect id="Rectangle_4137" data-name="Rectangle 4137" width="33.292" height="48.414" rx="3.599" transform="translate(39.056 53.793)" fill="#e7c7ff"/>
      </g>
      <path id="Path_102778" data-name="Path 102778" d="M2719.685,408.087l-240.864-1.2a4.618,4.618,0,0,1-4.163-6.568l70.784-96.479a8.1,8.1,0,0,1,6.684-3.312c28.357.557,194.846-4.068,194.846-4.068Z" transform="translate(-2474.222 -272.848)" fill="#915aa3"/>
      <path id="Path_102779" data-name="Path 102779" d="M2933.21,407.025l240.865-1.2a4.618,4.618,0,0,0,4.163-6.568l-70.784-96.479a8.1,8.1,0,0,0-6.684-3.312c-28.357.557-194.847-4.068-194.847-4.068Z" transform="translate(-2569.533 -272.613)" fill="#915aa3"/>
      <g id="Group_48027" data-name="Group 48027" transform="translate(44.807 275.675)">
        <rect id="Rectangle_4138" data-name="Rectangle 4138" width="33.292" height="48.414" rx="3.187" transform="translate(39.056)" fill="#e7c7ff"/>
        <rect id="Rectangle_4139" data-name="Rectangle 4139" width="33.292" height="48.414" rx="3.509" transform="translate(0.001)" fill="#e7c7ff"/>
        <rect id="Rectangle_4140" data-name="Rectangle 4140" width="33.292" height="48.414" rx="2.277" transform="translate(39.055 53.793)" fill="#e7c7ff"/>
        <rect id="Rectangle_4141" data-name="Rectangle 4141" width="33.292" height="48.414" rx="3.599" transform="translate(0 53.793)" fill="#e7c7ff"/>
      </g>
      <g id="Group_48028" data-name="Group 48028" transform="translate(480.1 158.84)">
        <rect id="Rectangle_4142" data-name="Rectangle 4142" width="33.292" height="48.414" rx="3.187" fill="#e7c7ff"/>
        <rect id="Rectangle_4143" data-name="Rectangle 4143" width="33.292" height="48.414" rx="3.509" transform="translate(39.055)" fill="#e7c7ff"/>
        <rect id="Rectangle_4144" data-name="Rectangle 4144" width="33.292" height="48.414" rx="2.277" transform="translate(0.001 53.793)" fill="#e7c7ff"/>
        <rect id="Rectangle_4145" data-name="Rectangle 4145" width="33.292" height="48.414" rx="3.599" transform="translate(39.056 53.793)" fill="#e7c7ff"/>
      </g>
      <g id="Group_48029" data-name="Group 48029" transform="translate(44.027 158.015)">
        <rect id="Rectangle_4146" data-name="Rectangle 4146" width="33.292" height="48.414" rx="3.187" transform="translate(39.056)" fill="#e7c7ff"/>
        <rect id="Rectangle_4147" data-name="Rectangle 4147" width="33.292" height="48.414" rx="3.509" transform="translate(0.001)" fill="#e7c7ff"/>
        <rect id="Rectangle_4148" data-name="Rectangle 4148" width="33.292" height="48.414" rx="2.277" transform="translate(39.055 53.793)" fill="#e7c7ff"/>
        <rect id="Rectangle_4149" data-name="Rectangle 4149" width="33.292" height="48.414" rx="3.599" transform="translate(0 53.793)" fill="#e7c7ff"/>
      </g>
      <g id="Group_48044" data-name="Group 48044" transform="translate(123.703)">
        <path id="Path_102780" data-name="Path 102780" d="M2653.206,680.969l-1.672-304.338L2813.3,294.225l158.521,85.323,1.227,307.573c-.094,4.164-11.519,6.093-15.353,6.057l-295.912-2.807C2657.034,690.326,2653.206,686.13,2653.206,680.969Z" transform="translate(-2637.072 -272.355)" fill="#faf0fd"/>
        <g id="Group_48030" data-name="Group 48030" transform="translate(240.765 272.686)">
          <rect id="Rectangle_4150" data-name="Rectangle 4150" width="33.292" height="48.341" rx="3.187" transform="translate(39.056)" fill="#e7c7fe"/>
          <rect id="Rectangle_4151" data-name="Rectangle 4151" width="33.292" height="48.341" rx="3.509" transform="translate(0.001)" fill="#e7c7fe"/>
          <rect id="Rectangle_4152" data-name="Rectangle 4152" width="33.292" height="48.34" rx="2.277" transform="translate(39.055 53.712)" fill="#e7c7fe"/>
          <rect id="Rectangle_4153" data-name="Rectangle 4153" width="33.292" height="48.34" rx="3.599" transform="translate(0 53.712)" fill="#e7c7fe"/>
        </g>
        <g id="Group_48035" data-name="Group 48035" transform="translate(137.518 87.991)">
          <g id="Group_48031" data-name="Group 48031" transform="translate(39.056)">
            <rect id="Rectangle_4154" data-name="Rectangle 4154" width="33.292" height="39.117" rx="3.187" fill="#fff"/>
          </g>
          <g id="Group_48032" data-name="Group 48032" transform="translate(0.001)">
            <rect id="Rectangle_4155" data-name="Rectangle 4155" width="33.292" height="39.117" rx="3.509" fill="#fff"/>
          </g>
          <g id="Group_48033" data-name="Group 48033" transform="translate(39.055 43.463)">
            <rect id="Rectangle_4156" data-name="Rectangle 4156" width="33.292" height="39.117" rx="2.277" fill="#fff"/>
          </g>
          <g id="Group_48034" data-name="Group 48034" transform="translate(0 43.463)">
            <rect id="Rectangle_4157" data-name="Rectangle 4157" width="33.292" height="39.117" rx="3.599" fill="#fff"/>
          </g>
        </g>
        <g id="Group_48040" data-name="Group 48040" transform="translate(36.037 272.531)">
          <g id="Group_48036" data-name="Group 48036" transform="translate(39.056)">
            <rect id="Rectangle_4158" data-name="Rectangle 4158" width="33.292" height="48.414" rx="3.187" fill="#e7c7fe"/>
          </g>
          <g id="Group_48037" data-name="Group 48037" transform="translate(0.001)">
            <rect id="Rectangle_4159" data-name="Rectangle 4159" width="33.292" height="48.414" rx="3.509" fill="#e7c7fe"/>
          </g>
          <g id="Group_48038" data-name="Group 48038" transform="translate(39.055 53.793)">
            <rect id="Rectangle_4160" data-name="Rectangle 4160" width="33.292" height="48.414" rx="2.277" fill="#e7c7fe"/>
          </g>
          <g id="Group_48039" data-name="Group 48039" transform="translate(0 53.793)">
            <rect id="Rectangle_4161" data-name="Rectangle 4161" width="33.292" height="48.414" rx="3.599" fill="#e7c7fe"/>
          </g>
        </g>
        <g id="Group_48041" data-name="Group 48041">
          <path id="Path_102781" data-name="Path 102781" d="M2811.743,268.357l169.9,90.676c3.6,1.923,4.285,5.83,1.47,8.425l-14.282,13.168L2810.5,299.355a3.738,3.738,0,0,0-3.286-.01L2645.791,380.8l-9.241-11.01c-3.8-4.529-2.238-10.579,3.521-13.627l165.909-87.813A6.346,6.346,0,0,1,2811.743,268.357Z" transform="translate(-2633.305 -266.49)" fill="#915aa3"/>
          <path id="Path_102782" data-name="Path 102782" d="M2645.46,381.636a1.166,1.166,0,0,1-.9-.418l-9.241-11.01a9.329,9.329,0,0,1-2.181-7.878,11.221,11.221,0,0,1,6.05-7.533l165.91-87.813a7.506,7.506,0,0,1,6.86.01l169.9,90.677a6.828,6.828,0,0,1,3.781,5.048,6.109,6.109,0,0,1-2.069,5.268l-14.283,13.168a1.164,1.164,0,0,1-1.325.181l-158.329-81.271a2.56,2.56,0,0,0-2.226-.007l-161.427,81.454A1.16,1.16,0,0,1,2645.46,381.636ZM2808.523,268.5a5.021,5.021,0,0,0-2.328.553l-165.909,87.814a8.907,8.907,0,0,0-4.85,5.914,7.039,7.039,0,0,0,1.677,5.928l8.646,10.3,160.6-81.037a4.865,4.865,0,0,1,4.347.014l157.6,80.9,13.684-12.615a3.759,3.759,0,0,0,1.335-3.252,4.539,4.539,0,0,0-2.563-3.283l-169.9-90.676h0A5,5,0,0,0,2808.523,268.5Z" transform="translate(-2632.974 -266.159)"/>
        </g>
        <path id="Path_102783" data-name="Path 102783" d="M3062.725,694.052a1.169,1.169,0,0,1-1.169-1.16l-1.575-215.432a1.17,1.17,0,0,1,1.161-1.177h.008a1.168,1.168,0,0,1,1.169,1.161l1.575,215.431a1.169,1.169,0,0,1-1.16,1.177Z" transform="translate(-2727.249 -312.55)" fill="#e7c7ff"/>
        <path id="Path_102784" data-name="Path 102784" d="M2661.454,544.749a1.169,1.169,0,0,1,0-2.338l304.357-.5h0a1.169,1.169,0,0,1,0,2.338l-304.355.5Z" transform="translate(-2639.004 -327.041)" fill="#eaacff"/>
        <path id="Path_102785" data-name="Path 102785" d="M2772.867,803.494h-.013l-97.443-1.11a1.169,1.169,0,0,1,.013-2.338h.013l97.443,1.11a1.169,1.169,0,0,1-.012,2.338Z" transform="translate(-2642.088 -384.031)" fill="#e7c7ff"/>
        <path id="Path_102786" data-name="Path 102786" d="M2997.149,805.461h0l-73.632-.077a1.169,1.169,0,0,1,0-2.338h0l73.632.077a1.169,1.169,0,0,1,0,2.338Z" transform="translate(-2696.862 -384.693)" fill="#e7c7ff"/>
        <g id="Group_48043" data-name="Group 48043" transform="translate(115.7 237.512)">
          <rect id="Rectangle_4162" data-name="Rectangle 4162" width="88.698" height="182.892" rx="6" transform="translate(14.436)" fill="#fff"/>
          <rect id="Rectangle_4163" data-name="Rectangle 4163" width="79.306" height="171.333" rx="4" transform="translate(18.957 5.099)" fill="#e7c7fe"/>
          <rect id="Rectangle_4164" data-name="Rectangle 4164" width="114.852" height="15.947" rx="2.832" transform="translate(1.169 170.443)" fill="#eaacff"/>
          <path id="Path_102787" data-name="Path 102787" d="M2784.74,806.486a3.28,3.28,0,0,1-3.285-3.274V791.475a3.278,3.278,0,0,1,3.274-3.274l71.271.119a1.169,1.169,0,0,1,0,2.338h0l-71.269-.119a.937.937,0,0,0-.934.937v11.737a.937.937,0,0,0,.937.936l102.488-.957a1.187,1.187,0,0,1,1.179,1.158,1.169,1.169,0,0,1-1.158,1.18Z" transform="translate(-2781.455 -618.927)" fill="#e7c7ff"/>
          <path id="Path_102788" data-name="Path 102788" d="M2806.653,749.009h0a1.169,1.169,0,0,1-1.164-1.174l.372-78.071a1.169,1.169,0,0,1,1.169-1.163h.005a1.168,1.168,0,0,1,1.164,1.173l-.372,78.072A1.168,1.168,0,0,1,2806.653,749.009Z" transform="translate(-2786.76 -592.522)" fill="#915aa3"/>
          <g id="Group_48042" data-name="Group 48042" transform="translate(31.571 25.042)">
            <path id="Path_102789" data-name="Path 102789" d="M2825.824,638.5a1.169,1.169,0,0,1-.633-2.151l51.426-33.058a1.169,1.169,0,0,1,1.265,1.966l-51.426,33.058A1.167,1.167,0,0,1,2825.824,638.5Z" transform="translate(-2822.564 -603.103)" fill="#eaacff"/>
            <path id="Path_102790" data-name="Path 102790" d="M2823.142,667.46a1.169,1.169,0,0,1-.634-2.152l47.839-30.753a1.169,1.169,0,0,1,1.265,1.967l-47.839,30.753A1.166,1.166,0,0,1,2823.142,667.46Z" transform="translate(-2821.972 -610.006)" fill="#eaacff"/>
          </g>
        </g>
      </g>
      <g id="Group_48087" data-name="Group 48087" transform="translate(180.267 210.179)">
        <g id="Group_48103" data-name="Group 48103">
          <g id="Group_48102" data-name="Group 48102">
            <path id="Path_102888" data-name="Path 102888" d="M769.925,312.686c-65.227,0-118.1,52.724-118.1,117.761,0,16.257,7.38,38.994,18.454,63.957,27.907,62.92,79.262,139.969,94.963,162.99a5.666,5.666,0,0,0,9.361.009c21.922-32.141,113.422-169.71,113.422-226.956C888.024,365.41,835.147,312.686,769.925,312.686Z" transform="translate(-648.448 -309.31)" fill="#eaacff"/>
            <path id="Path_102889" data-name="Path 102889" d="M771.805,665.124a9.049,9.049,0,0,1-7.477-3.95c-15.254-22.366-67.2-100.248-95.261-163.523-12.438-28.042-18.744-50.021-18.744-65.328,0-66.8,54.5-121.137,121.477-121.137s121.475,54.342,121.475,121.137c0,57.266-87.264,189.648-114.009,228.858a9.023,9.023,0,0,1-7.459,3.943Zm0-347.186c-63.259,0-114.725,51.313-114.725,114.385,0,14.357,6.113,35.415,18.164,62.589,27.833,62.755,79.5,140.212,94.666,162.456a2.284,2.284,0,0,0,1.9,1,2.256,2.256,0,0,0,1.881-.995c18.843-27.624,112.837-168.3,112.837-225.054C886.524,369.251,835.06,317.938,771.8,317.938Z" transform="translate(-650.324 -311.186)" fill="#915aa3"/>
          </g>
        </g>
        <circle id="Ellipse_4835" data-name="Ellipse 4835" cx="54" cy="54" r="54" transform="translate(67.209 55.14)" fill="#e7c7ff"/>
      </g>
    </g>
    <g id="Group_48085" data-name="Group 48085" transform="translate(2492.808 191.942)">
      <g id="Group_48080" data-name="Group 48080" transform="translate(0 55.715)">
        <path id="Path_102841" data-name="Path 102841" d="M2527.942,273.54a1.169,1.169,0,0,1-1.156-1l-.865-6a1.169,1.169,0,0,1,2.313-.334l.865,6a1.168,1.168,0,0,1-.99,1.323A1.106,1.106,0,0,1,2527.942,273.54Z" transform="translate(-2514.534 -265.206)"/>
        <path id="Path_102842" data-name="Path 102842" d="M2531.83,300.481a1.168,1.168,0,0,1-1.155-1l-.866-6a1.168,1.168,0,1,1,2.313-.333l.867,6a1.169,1.169,0,0,1-.99,1.323A1.11,1.11,0,0,1,2531.83,300.481Z" transform="translate(-2515.392 -271.153)"/>
        <path id="Path_102843" data-name="Path 102843" d="M2512.478,286.855a1.169,1.169,0,0,1-.149-2.328l5.921-.765a1.168,1.168,0,0,1,.3,2.317l-5.921.766A1.237,1.237,0,0,1,2512.478,286.855Z" transform="translate(-2511.311 -269.3)"/>
        <path id="Path_102844" data-name="Path 102844" d="M2539.074,283.417a1.169,1.169,0,0,1-.148-2.328l5.921-.765a1.169,1.169,0,0,1,.3,2.318l-5.92.764A1.114,1.114,0,0,1,2539.074,283.417Z" transform="translate(-2517.183 -268.541)"/>
      </g>
      <path id="Path_102845" data-name="Path 102845" d="M2570.007,265.286a6.452,6.452,0,0,1-6.276-7.915,6.13,6.13,0,0,1,2.844-3.833,6.255,6.255,0,0,1,4.835-.665,6.432,6.432,0,0,1,4.634,7.7,6.132,6.132,0,0,1-2.843,3.834A6.236,6.236,0,0,1,2570.007,265.286ZM2569.774,255a3.909,3.909,0,0,0-2.006.55,3.817,3.817,0,0,0-1.767,2.384,4.088,4.088,0,0,0,2.96,4.881,3.957,3.957,0,0,0,3.046-.415,3.815,3.815,0,0,0,1.768-2.384,4.109,4.109,0,0,0-4-5.017Z" transform="translate(-2522.844 -206.721)"/>
      <g id="Group_48082" data-name="Group 48082" transform="translate(480.68 449.464)">
        <path id="Path_102846" data-name="Path 102846" d="M3244.9,783.148a6.454,6.454,0,0,1-6.276-7.915h0a6.136,6.136,0,0,1,2.843-3.834,6.264,6.264,0,0,1,4.836-.665,6.436,6.436,0,0,1,4.634,7.7,6.131,6.131,0,0,1-2.843,3.833A6.234,6.234,0,0,1,3244.9,783.148Zm-4.007-7.357a4.089,4.089,0,0,0,2.96,4.882,3.951,3.951,0,0,0,3.047-.414,3.819,3.819,0,0,0,1.767-2.384,4.089,4.089,0,0,0-2.959-4.882,3.945,3.945,0,0,0-3.047.415,3.814,3.814,0,0,0-1.768,2.383Z" transform="translate(-3152.525 -770.518)"/>
        <g id="Group_48081" data-name="Group 48081" transform="translate(0 28.542)">
          <path id="Path_102847" data-name="Path 102847" d="M3140.357,885.417a1.169,1.169,0,0,1-.619-2.161,180.178,180.178,0,0,0,67.487-75.444,1.169,1.169,0,0,1,2.111,1.006,182.529,182.529,0,0,1-68.361,76.421A1.157,1.157,0,0,1,3140.357,885.417Z" transform="translate(-3130.613 -807.147)"/>
          <path id="Path_102848" data-name="Path 102848" d="M3129.354,906.477a1.169,1.169,0,0,1-.535-2.209,189.612,189.612,0,0,0,87.938-92.947,1.169,1.169,0,1,1,2.141.939,191.969,191.969,0,0,1-89.012,94.089A1.167,1.167,0,0,1,3129.354,906.477Z" transform="translate(-3128.183 -807.914)"/>
        </g>
      </g>
      <g id="Group_48083" data-name="Group 48083" transform="translate(148.432)">
        <path id="Path_102849" data-name="Path 102849" d="M2735.677,236.782a1.169,1.169,0,0,1-.422-2.259c64.921-25.173,115.75-24.354,146.955-19.231,33.89,5.561,52.693,17.292,52.878,17.409a1.169,1.169,0,1,1-1.251,1.975c-.182-.115-18.679-11.631-52.146-17.1-30.894-5.047-81.232-5.827-145.592,19.127A1.165,1.165,0,0,1,2735.677,236.782Z" transform="translate(-2709.02 -197.834)"/>
        <path id="Path_102850" data-name="Path 102850" d="M2962.482,224.443a1.165,1.165,0,0,1-.715-.245c-.166-.129-17.021-12.988-49.319-21.249-29.815-7.625-79.271-12.779-145.545,5.977a1.168,1.168,0,1,1-.636-2.249c66.852-18.922,116.788-13.683,146.907-5.956,32.714,8.391,49.857,21.5,50.027,21.628a1.169,1.169,0,0,1-.718,2.092Z" transform="translate(-2715.844 -193.705)"/>
        <path id="Path_102851" data-name="Path 102851" d="M2724.436,256.84l-.056,0-21.467-1a1.168,1.168,0,0,1-.83-1.931l12.951-14.988a1.17,1.17,0,0,1,1.916.215l8.516,15.989a1.169,1.169,0,0,1-1.031,1.718Zm-19.011-3.225,17.014.793-6.75-12.672Z" transform="translate(-2701.799 -203.598)"/>
      </g>
      <g id="Group_48084" data-name="Group 48084" transform="translate(385.523 234.628)">
        <path id="Path_102852" data-name="Path 102852" d="M3022.841,503.157a1.169,1.169,0,0,1-1.157-1.015l-.8-6.007a1.169,1.169,0,1,1,2.317-.309l.8,6.007a1.17,1.17,0,0,1-1,1.314A1.187,1.187,0,0,1,3022.841,503.157Z" transform="translate(-3009.335 -494.812)"/>
        <path id="Path_102853" data-name="Path 102853" d="M3026.44,530.136a1.169,1.169,0,0,1-1.157-1.015l-.8-6.007a1.169,1.169,0,0,1,2.318-.309l.8,6.007a1.168,1.168,0,0,1-1.16,1.323Z" transform="translate(-3010.13 -500.768)"/>
        <path id="Path_102854" data-name="Path 102854" d="M3007.234,516.321a1.169,1.169,0,0,1-.136-2.33l5.928-.7a1.153,1.153,0,0,1,1.3,1.022,1.168,1.168,0,0,1-1.022,1.3l-5.929.7A1.049,1.049,0,0,1,3007.234,516.321Z" transform="translate(-3006.066 -498.889)"/>
        <path id="Path_102855" data-name="Path 102855" d="M3033.864,513.169a1.169,1.169,0,0,1-.135-2.329l5.929-.7a1.168,1.168,0,1,1,.275,2.32l-5.929.7A1.208,1.208,0,0,1,3033.864,513.169Z" transform="translate(-3011.946 -498.193)"/>
      </g>
    </g>
    <g id="Group_48086" data-name="Group 48086" transform="translate(2707.416 328.046)">
      <circle id="Ellipse_4834" data-name="Ellipse 4834" cx="13.139" cy="13.139" r="13.139" transform="translate(43.911 78.536)" fill="#ffc958"/>
      <path id="Path_102856" data-name="Path 102856" d="M2859.451,509.687a5.962,5.962,0,0,1-3.873-10.5c8.169-6.97,17.466-10.655,26.885-10.655s18.715,3.685,26.885,10.655a5.962,5.962,0,1,1-7.741,9.07c-6.065-5.176-12.507-7.8-19.144-7.8s-13.079,2.625-19.145,7.8A5.935,5.935,0,0,1,2859.451,509.687Z" transform="translate(-2825.869 -434.313)" fill="#ffc958"/>
      <path id="Path_102857" data-name="Path 102857" d="M2921.123,491.772a5.934,5.934,0,0,1-3.844-1.407c-10.376-8.764-21.472-13.209-32.976-13.209s-22.6,4.445-32.977,13.209a5.962,5.962,0,0,1-7.7-9.109c12.411-10.483,26.475-16.023,40.672-16.023s28.26,5.54,40.67,16.023a5.962,5.962,0,0,1-3.85,10.517Z" transform="translate(-2827.708 -437.893)" fill="#ffc958"/>
      <path id="Path_102858" data-name="Path 102858" d="M2936.771,473.918a5.94,5.94,0,0,1-3.884-1.441c-14.675-12.62-30.4-19.019-46.744-19.019s-32.07,6.4-46.745,19.019a5.962,5.962,0,1,1-7.775-9.041,95.341,95.341,0,0,1,25.813-16.131,74.291,74.291,0,0,1,57.414,0,95.356,95.356,0,0,1,25.813,16.131,5.962,5.962,0,0,1-3.891,10.482Z" transform="translate(-2829.547 -441.534)" fill="#ffc958"/>
    </g>
  </g>
</svg>
