<svg xmlns="http://www.w3.org/2000/svg" xmlns:xlink="http://www.w3.org/1999/xlink" width="98.018" height="98.019" viewBox="0 0 98.018 98.019">
  <defs>
    <linearGradient id="linear-gradient" x1="0.5" y1="1.633" x2="0.5" y2="0.654" gradientUnits="objectBoundingBox">
      <stop offset="0" stop-color="#dd83fa"/>
      <stop offset="1" stop-color="#f5e5fa"/>
    </linearGradient>
    <linearGradient id="linear-gradient-2" x1="0.5" y1="1" x2="0.5" gradientUnits="objectBoundingBox">
      <stop offset="0" stop-color="#915aa3"/>
      <stop offset="1" stop-color="#b93974"/>
    </linearGradient>
    <filter id="Path_101829" x="0" y="-0.001" width="98.018" height="98.019" filterUnits="userSpaceOnUse">
      <feOffset dx="10" dy="10" input="SourceAlpha"/>
      <feGaussianBlur stdDeviation="10" result="blur"/>
      <feFlood flood-color="#915aa3" flood-opacity="0.102"/>
      <feComposite operator="in" in2="blur"/>
      <feComposite in="SourceGraphic"/>
    </filter>
  </defs>
  <g id="Group_47998" data-name="Group 47998" transform="translate(-921.481 -8331.925)">
    <g id="connect" transform="translate(931 8341.443)">
      <g id="Group_47431" data-name="Group 47431" transform="translate(0 0)">
        <g id="Group_47430" data-name="Group 47430">
          <g id="Group_47997" data-name="Group 47997">
            <path id="Path_101828" data-name="Path 101828" d="M29.494,15.666A13.825,13.825,0,1,0,43.318,29.491,13.84,13.84,0,0,0,29.494,15.666ZM27.259,6.4l.506-.506v6.312a1.728,1.728,0,0,0,3.456,0V5.9l.506.506A1.728,1.728,0,1,0,34.172,3.96L30.717.506a1.734,1.734,0,0,0-2.448,0L24.815,3.96A1.728,1.728,0,1,0,27.259,6.4Zm4.469,46.174-.506.506V46.772a1.728,1.728,0,0,0-3.456,0v6.312l-.506-.506a1.728,1.728,0,1,0-2.444,2.444l3.454,3.454a1.732,1.732,0,0,0,2.448,0l3.454-3.454a1.728,1.728,0,0,0-2.444-2.444ZM5.9,31.219h6.312a1.728,1.728,0,1,0,0-3.456H5.9l.506-.506a1.728,1.728,0,1,0-2.444-2.444L.509,28.267a1.734,1.734,0,0,0,0,2.448l3.454,3.454a1.728,1.728,0,0,0,2.444-2.444Zm52.578-2.952-3.454-3.454a1.728,1.728,0,0,0-2.444,2.444l.506.506H46.775a1.728,1.728,0,1,0,0,3.456h6.312l-.506.506a1.728,1.728,0,0,0,2.444,2.444l3.454-3.454a1.734,1.734,0,0,0,0-2.448ZM42.934,18.492l4.384-4.382v.717a1.728,1.728,0,0,0,3.456,0V9.94a1.735,1.735,0,0,0-1.728-1.728H44.155a1.728,1.728,0,1,0,0,3.456h.718L40.49,16.049a1.728,1.728,0,0,0,2.444,2.444Zm-26.88,22-4.384,4.382v-.717a1.728,1.728,0,0,0-3.456,0v4.887a1.735,1.735,0,0,0,1.728,1.728h4.891a1.728,1.728,0,0,0,0-3.456h-.718L18.5,42.932a1.728,1.728,0,1,0-2.444-2.444Zm32.993,1.937a1.727,1.727,0,0,0-1.728,1.728v.717l-4.384-4.382a1.728,1.728,0,0,0-2.444,2.444l4.383,4.381h-.718a1.728,1.728,0,1,0,0,3.456h4.891a1.735,1.735,0,0,0,1.728-1.728V44.154a1.727,1.727,0,0,0-1.728-1.728ZM9.941,16.555a1.727,1.727,0,0,0,1.728-1.728V14.11l4.384,4.382A1.728,1.728,0,1,0,18.5,16.049l-4.383-4.381h.718a1.728,1.728,0,1,0,0-3.456H9.941A1.735,1.735,0,0,0,8.213,9.94v4.887A1.727,1.727,0,0,0,9.941,16.555Z" transform="translate(-0.003)" fill="url(#linear-gradient)"/>
          </g>
        </g>
      </g>
      <g id="Group_47433" data-name="Group 47433" transform="translate(10.481 10.481)">
        <g id="Group_47432" data-name="Group 47432">
          <g transform="matrix(1, 0, 0, 1, -20, -20)" filter="url(#Path_101829)">
            <path id="Path_101829-2" data-name="Path 101829" d="M109.989,90.977A19.009,19.009,0,1,0,129,109.986,19.043,19.043,0,0,0,109.989,90.977ZM116.9,115.17a5.14,5.14,0,0,1-3.456-1.348,5.176,5.176,0,1,1-3.456-9.021h3.456a1.711,1.711,0,0,1,1.728,1.728v3.456a1.728,1.728,0,1,0,3.456,0,8.641,8.641,0,1,0-8.641,8.641,8.767,8.767,0,0,0,2.869-.484,1.727,1.727,0,0,1,1.175,3.249,12.427,12.427,0,0,1-4.044.691,12.1,12.1,0,1,1,12.1-12.1A5.177,5.177,0,0,1,116.9,115.17Zm-8.641-5.184a1.728,1.728,0,0,0,3.456,0v-1.728h-1.728A1.711,1.711,0,0,0,108.261,109.986Z" transform="translate(-70.98 -70.98)" fill="url(#linear-gradient-2)"/>
          </g>
        </g>
      </g>
    </g>
  </g>
</svg>
