<svg xmlns="http://www.w3.org/2000/svg" xmlns:xlink="http://www.w3.org/1999/xlink" width="59.341" height="31.295" viewBox="0 0 59.341 31.295">
  <defs>
    <linearGradient id="linear-gradient" x1="0.5" y1="1" x2="0.5" gradientUnits="objectBoundingBox">
      <stop offset="0" stop-color="#915aa3"/>
      <stop offset="1" stop-color="#b93974"/>
    </linearGradient>
    <linearGradient id="linear-gradient-2" x1="0.5" y1="1.633" x2="0.5" y2="0.654" gradientUnits="objectBoundingBox">
      <stop offset="0" stop-color="#dd83fa"/>
      <stop offset="1" stop-color="#f5e5fa"/>
    </linearGradient>
  </defs>
  <g id="Group_47996" data-name="Group 47996" transform="translate(0 0)">
    <g id="Group_47995" data-name="Group 47995">
      <path id="Path_101842" data-name="Path 101842" d="M50.023,133.79l-1.912-.278a41.811,41.811,0,0,1-8.9-2.26l-5.285,3.477,1.947-4.9c-1.043-.521-2.121-1.078-3.129-1.669l-4.764,2.851,1.808-4.729a41.719,41.719,0,0,1-5.737-4.764,1.649,1.649,0,0,0-1.877-.383,1.734,1.734,0,0,0-1.078,1.6,5.208,5.208,0,0,1-5.216,5.216H10.118a10.1,10.1,0,0,1-7.162-2.955,1.649,1.649,0,0,0-1.877-.383A1.734,1.734,0,0,0,0,126.21V143.6l28.186,6.954L59.307,143.6a10.965,10.965,0,0,0-9.283-9.805Z" transform="translate(0 -120.993)" fill="url(#linear-gradient)"/>
      <g id="Group_47461" data-name="Group 47461" transform="translate(0 5.287)">
        <g id="Group_47460" data-name="Group 47460">
          <path id="Path_101843" data-name="Path 101843" d="M59.307,183.923H0V187.4a5.208,5.208,0,0,0,5.216,5.216H57.6a1.721,1.721,0,0,0,1.739-1.739v-6.015A8.473,8.473,0,0,0,59.307,183.923Zm-28.164-5.389a1.739,1.739,0,0,0,2.469-.209l5.6-6.745a35.661,35.661,0,0,1-3.338-1.426L30.934,176.1A1.717,1.717,0,0,0,31.143,178.533Zm-5.946-3.72a1.7,1.7,0,0,0,2.434-.209l5.111-6.12c-1.008-.591-2.017-1.217-2.955-1.878l-4.8,5.772a1.715,1.715,0,0,0,.208,2.434Z" transform="translate(0 -166.607)" fill="url(#linear-gradient-2)"/>
        </g>
      </g>
    </g>
  </g>
</svg>
