<svg xmlns="http://www.w3.org/2000/svg" xmlns:xlink="http://www.w3.org/1999/xlink" width="59.485" height="41.826" viewBox="0 0 59.485 41.826">
  <defs>
    <linearGradient id="linear-gradient" x1="0.5" y1="1" x2="0.5" gradientUnits="objectBoundingBox">
      <stop offset="0" stop-color="#915aa3"/>
      <stop offset="1" stop-color="#b93974"/>
    </linearGradient>
    <linearGradient id="linear-gradient-2" x1="0.5" y1="1.633" x2="0.5" y2="0.654" gradientUnits="objectBoundingBox">
      <stop offset="0" stop-color="#dd83fa"/>
      <stop offset="1" stop-color="#f5e5fa"/>
    </linearGradient>
  </defs>
  <g id="Group_48003" data-name="Group 48003" transform="translate(-1440 -8358.848)">
    <g id="customer-review" transform="translate(1440 8358.848)">
      <g id="Group_47435" data-name="Group 47435" transform="translate(0 0)">
        <g id="Group_47434" data-name="Group 47434">
          <g id="Group_48000" data-name="Group 48000">
            <g id="Group_48002" data-name="Group 48002">
              <path id="Path_101830" data-name="Path 101830" d="M7.779,96.074a8.645,8.645,0,0,0,12.281.044,3.507,3.507,0,0,0-.348-5.268,3.465,3.465,0,0,0,1.2-2.651V86.456a3.485,3.485,0,0,0-6.971,0,3.485,3.485,0,0,0-6.971,0V88.2a3.465,3.465,0,0,0,1.2,2.646,3.082,3.082,0,0,0-.341.309,3.433,3.433,0,0,0-.046,4.92ZM13.942,88.2a3.459,3.459,0,0,0,1.412,2.819c-.053.049-.1.1-.154.151a1.92,1.92,0,0,1-2.468.048c-.066-.069-.135-.134-.2-.2A3.458,3.458,0,0,0,13.942,88.2ZM45.544,76a13.92,13.92,0,0,0-3.94,27.278l2.546,3.394a1.741,1.741,0,0,0,2.788,0l2.546-3.394A13.92,13.92,0,0,0,45.544,76ZM35.087,107.369H1.743A1.743,1.743,0,0,0,0,109.112v6.971a1.743,1.743,0,0,0,1.743,1.743H35.087a3.485,3.485,0,0,0,3.485-3.485v-3.485A3.485,3.485,0,0,0,35.087,107.369Z" transform="translate(0 -76)" fill="url(#linear-gradient)"/>
            </g>
          </g>
        </g>
      </g>
      <g id="Group_47437" data-name="Group 47437" transform="translate(0 0)">
        <g id="Group_47436" data-name="Group 47436">
          <g id="Group_47999" data-name="Group 47999">
            <path id="Path_101831" data-name="Path 101831" d="M13.942,76A13.928,13.928,0,0,0,10,103.291l2.544,3.381a1.743,1.743,0,0,0,2.789,0l2.544-3.381A13.928,13.928,0,0,0,13.942,76Zm1.743,10.456a1.743,1.743,0,0,1,3.485,0V88.2a1.743,1.743,0,0,1-3.485,0Zm-6.971,0a1.743,1.743,0,0,1,3.485,0V88.2a1.743,1.743,0,0,1-3.485,0Zm10.143,8.4a6.9,6.9,0,0,1-9.829,0,1.725,1.725,0,0,1,2.44-2.44,3.65,3.65,0,0,0,4.949,0,1.725,1.725,0,1,1,2.44,2.44ZM43.081,96.4a3.557,3.557,0,0,1,4.925,0,1.743,1.743,0,0,0,2.464-2.464,7.131,7.131,0,0,0-9.854,0A1.743,1.743,0,0,0,43.081,96.4Zm5.948-6.46A1.742,1.742,0,0,0,50.772,88.2V86.456a1.743,1.743,0,0,0-3.485,0V88.2A1.742,1.742,0,0,0,49.029,89.942Zm-6.971,0A1.742,1.742,0,0,0,43.8,88.2V86.456a1.743,1.743,0,0,0-3.485,0V88.2A1.742,1.742,0,0,0,42.058,89.942Zm15.685,17.427H35.087v10.456H57.743a1.743,1.743,0,0,0,1.743-1.743v-6.971A1.743,1.743,0,0,0,57.743,107.369Z" transform="translate(0 -76)" fill="url(#linear-gradient-2)"/>
          </g>
        </g>
      </g>
    </g>
  </g>
</svg>
