<svg xmlns="http://www.w3.org/2000/svg" xmlns:xlink="http://www.w3.org/1999/xlink" width="66.408" height="42.307" viewBox="0 0 66.408 42.307">
  <defs>
    <linearGradient id="linear-gradient" x1="0.5" y1="1" x2="0.5" gradientUnits="objectBoundingBox">
      <stop offset="0" stop-color="#915aa3"/>
      <stop offset="1" stop-color="#b93974"/>
    </linearGradient>
    <linearGradient id="linear-gradient-2" x1="0.5" y1="1.633" x2="0.5" y2="0.654" gradientUnits="objectBoundingBox">
      <stop offset="0" stop-color="#dd83fa"/>
      <stop offset="1" stop-color="#f5e5fa"/>
    </linearGradient>
  </defs>
  <g id="badge" transform="translate(0 -92.908)">
    <g id="Group_47951" data-name="Group 47951" transform="translate(12.831 92.908)">
      <g id="Group_47950" data-name="Group 47950" transform="translate(0 0)">
        <path id="Path_102690" data-name="Path 102690" d="M136.811,96.823h-2.335c-9.917-.078-13.578-3.13-13.812-3.334a1.871,1.871,0,0,0-1.354-.581,1.916,1.916,0,0,0-1.386.594c-.033.033-3.529,3.242-13.8,3.321h-2.335l-2.863,2.983V109.2a28.243,28.243,0,0,0,1.955,10.324l5.13,4.54A28.349,28.349,0,0,0,118.5,135.043a1.946,1.946,0,0,0,1.6,0,28.348,28.348,0,0,0,12.489-10.983l4.352-3.5a28.256,28.256,0,0,0,2.386-11.362V99.936Z" transform="translate(-98.928 -92.908)" fill="url(#linear-gradient)"/>
      </g>
    </g>
    <g id="Group_47953" data-name="Group 47953" transform="translate(0 96.823)">
      <g id="Group_47952" data-name="Group 47952">
        <path id="Path_102691" data-name="Path 102691" d="M41.286,130.332a31.079,31.079,0,0,1-7.322-2.006,1.946,1.946,0,0,0-1.52,0,31.071,31.071,0,0,1-7.322,2.006,1.946,1.946,0,0,0-1.646,1.922v3.213a20.587,20.587,0,0,0,8.595,16.692,1.945,1.945,0,0,0,2.266,0,20.587,20.587,0,0,0,8.595-16.692v-3.213a1.946,1.946,0,0,0-1.646-1.922Zm-25.592-7.239H1.946A1.946,1.946,0,0,0,0,125.039a9.581,9.581,0,0,0,2.93,6.894,10.124,10.124,0,0,0,.964.828c0,.02,0,.04,0,.06a9.581,9.581,0,0,0,2.93,6.894,10.1,10.1,0,0,0,1.091.926,9.739,9.739,0,0,0,9.728,9.69h2.277a28.31,28.31,0,0,1-4.222-14.864Zm48.769,0H50.714v12.374a28.31,28.31,0,0,1-4.222,14.864h2.277A9.739,9.739,0,0,0,58.5,140.6v0a9.718,9.718,0,0,0,3.891-7.74,10.094,10.094,0,0,0,1.092-.925,9.582,9.582,0,0,0,2.93-6.894A1.946,1.946,0,0,0,64.463,123.093Z" transform="translate(0 -123.093)" fill="url(#linear-gradient-2)"/>
      </g>
    </g>
  </g>
</svg>
