<svg xmlns="http://www.w3.org/2000/svg" xmlns:xlink="http://www.w3.org/1999/xlink" width="57.234" height="46.95" viewBox="0 0 57.234 46.95">
  <defs>
    <linearGradient id="linear-gradient" x1="0.5" y1="1.633" x2="0.5" y2="0.654" gradientUnits="objectBoundingBox">
      <stop offset="0" stop-color="#dd83fa"/>
      <stop offset="1" stop-color="#f5e5fa"/>
    </linearGradient>
    <linearGradient id="linear-gradient-2" x1="0.5" y1="1" x2="0.5" gradientUnits="objectBoundingBox">
      <stop offset="0" stop-color="#915aa3"/>
      <stop offset="1" stop-color="#b93974"/>
    </linearGradient>
  </defs>
  <g id="browser" transform="translate(0 -46)">
    <g id="Group_47947" data-name="Group 47947" transform="translate(0 46)">
      <g id="Group_47946" data-name="Group 47946" transform="translate(0 0)">
        <path id="Path_102688" data-name="Path 102688" d="M28.617,61.091A13.414,13.414,0,1,0,42.031,74.505,13.428,13.428,0,0,0,28.617,61.091ZM55.557,46H50.415l-1.677,3.354L47.061,46H43.708l-1.677,3.354L40.354,46H37l-1.677,3.354L33.647,46H1.677A1.66,1.66,0,0,0,0,47.677v8.384a3.363,3.363,0,0,0,3.354,3.354H53.88a3.363,3.363,0,0,0,3.354-3.354V47.677A1.66,1.66,0,0,0,55.557,46Z" transform="translate(0 -46)" fill="url(#linear-gradient)"/>
      </g>
    </g>
    <g id="Group_47949" data-name="Group 47949" transform="translate(0 46)">
      <g id="Group_47948" data-name="Group 47948" transform="translate(0 0)">
        <path id="Path_102689" data-name="Path 102689" d="M26.94,74.505a1.677,1.677,0,0,0,3.354,0V72.828H28.617A1.66,1.66,0,0,0,26.94,74.505ZM0,56.061V91.273A1.66,1.66,0,0,0,1.677,92.95h53.88a1.66,1.66,0,0,0,1.677-1.677V56.061ZM35.324,79.535a4.987,4.987,0,0,1-3.354-1.308,5.022,5.022,0,1,1-3.354-8.753H31.97a1.66,1.66,0,0,1,1.677,1.677v3.354a1.677,1.677,0,0,0,3.354,0,8.384,8.384,0,1,0-8.384,8.384A8.507,8.507,0,0,0,31.4,82.42a1.676,1.676,0,0,1,1.14,3.152,12.058,12.058,0,0,1-3.924.671A11.737,11.737,0,1,1,40.354,74.505,5.023,5.023,0,0,1,35.324,79.535Zm6.707-26.828a1.66,1.66,0,0,0,1.677-1.677V46H40.354v5.03A1.66,1.66,0,0,0,42.031,52.707Zm6.707,0a1.66,1.66,0,0,0,1.677-1.677V46H47.061v5.03A1.66,1.66,0,0,0,48.738,52.707Zm-13.414,0A1.66,1.66,0,0,0,37,51.03V46H33.647v5.03A1.66,1.66,0,0,0,35.324,52.707Z" transform="translate(0 -46)" fill="url(#linear-gradient-2)"/>
      </g>
    </g>
  </g>
</svg>
