<svg id="customer-service" xmlns="http://www.w3.org/2000/svg" xmlns:xlink="http://www.w3.org/1999/xlink" width="67.163" height="67.427" viewBox="0 0 67.163 67.427">
  <defs>
    <linearGradient id="linear-gradient" x1="0.5" y1="1" x2="0.5" gradientUnits="objectBoundingBox">
      <stop offset="0" stop-color="#915aa3"/>
      <stop offset="1" stop-color="#b93974"/>
    </linearGradient>
    <linearGradient id="linear-gradient-3" x1="0.5" y1="1.633" x2="0.5" y2="0.654" gradientUnits="objectBoundingBox">
      <stop offset="0" stop-color="#dd83fa"/>
      <stop offset="1" stop-color="#f5e5fa"/>
    </linearGradient>
  </defs>
  <g id="Group_47465" data-name="Group 47465" transform="translate(7.902)">
    <g id="Group_47464" data-name="Group 47464">
      <path id="Path_101844" data-name="Path 101844" d="M86.68,0A25.71,25.71,0,0,0,61,25.68v4.214a1.975,1.975,0,1,0,3.951,0V25.68a21.729,21.729,0,1,1,43.458,0v4.214a1.975,1.975,0,1,0,3.951,0V25.68A25.71,25.71,0,0,0,86.68,0Zm23.7,47.673a1.974,1.974,0,0,0-1.975,1.975,9.888,9.888,0,0,1-9.877,9.877h-7.9a1.975,1.975,0,0,0,0,3.951h7.9A13.844,13.844,0,0,0,112.36,49.648,1.974,1.974,0,0,0,110.385,47.673Z" transform="translate(-61 0)" fill="url(#linear-gradient)"/>
    </g>
  </g>
  <path id="Path_101845" data-name="Path 101845" d="M10.877,212l4.235,12.024L10.877,235.7A9.881,9.881,0,0,1,1,225.828v-3.951A9.881,9.881,0,0,1,10.877,212Z" transform="translate(-1 -184.081)" fill="url(#linear-gradient)"/>
  <path id="Path_101846" data-name="Path 101846" d="M370.877,212v23.7h-7.9A1.956,1.956,0,0,1,361,233.729V213.975A1.956,1.956,0,0,1,362.975,212Z" transform="translate(-313.591 -184.081)" fill="url(#linear-gradient-3)"/>
  <path id="Path_101847" data-name="Path 101847" d="M85.877,213.975v19.754A1.956,1.956,0,0,1,83.9,235.7H76V212h7.9A1.956,1.956,0,0,1,85.877,213.975Z" transform="translate(-66.123 -184.081)" fill="url(#linear-gradient-3)"/>
  <path id="Path_101848" data-name="Path 101848" d="M445.877,221.614v3.951A10.109,10.109,0,0,1,436,235.7V212A9.659,9.659,0,0,1,445.877,221.614Z" transform="translate(-378.714 -184.081)" fill="url(#linear-gradient)"/>
  <g id="Group_47466" data-name="Group 47466" transform="translate(27.655 55.574)">
    <path id="Path_101849" data-name="Path 101849" d="M216.926,433.852a5.926,5.926,0,1,1,5.926-5.926A5.933,5.933,0,0,1,216.926,433.852Z" transform="translate(-211 -422)" fill="url(#linear-gradient-3)"/>
  </g>
</svg>
