<svg xmlns="http://www.w3.org/2000/svg" width="667.508" height="726.586" viewBox="0 0 667.508 726.586">
  <g id="Big_data_tools" data-name="Big data tools" transform="translate(-1336.495 -186.774)">
    <path id="Path_102341" data-name="Path 102341" d="M1816.623,244.211s-37.966-17.539-94.01,38.844c60.112,14.043,110.053,5.311,110.053,5.311Z" transform="translate(-48.115 -6.819)" fill="#1d1320"/>
    <g id="Group_47756" data-name="Group 47756" transform="translate(1500.226 270.963)">
      <path id="Rectangle_4010" data-name="Rectangle 4010" d="M7.745,0H110.331a0,0,0,0,1,0,0V598.077a0,0,0,0,1,0,0H8.142A8.142,8.142,0,0,1,0,589.935V7.745A7.745,7.745,0,0,1,7.745,0Z" fill="#724780"/>
      <rect id="Rectangle_4011" data-name="Rectangle 4011" width="309.18" height="528.74" transform="translate(77.619 46.551)" fill="#1d1320"/>
      <g id="Group_47740" data-name="Group 47740" transform="translate(62.682)">
        <rect id="Rectangle_4012" data-name="Rectangle 4012" width="339.055" height="93.101" fill="#915aa3"/>
        <rect id="Rectangle_4013" data-name="Rectangle 4013" width="325.16" height="79.206" rx="15.211" transform="translate(6.948 6.948)" fill="#fff1d5"/>
        <g id="Group_47738" data-name="Group 47738" transform="translate(35.494 34.867)">
          <circle id="Ellipse_4792" data-name="Ellipse 4792" cx="8.261" cy="8.261" r="8.261" transform="translate(0 17.825) rotate(-76.717)" fill="#e7c7ff"/>
          <circle id="Ellipse_4793" data-name="Ellipse 4793" cx="8.261" cy="8.261" r="8.261" transform="translate(26.402 17.825) rotate(-76.717)" fill="#fff"/>
          <circle id="Ellipse_4794" data-name="Ellipse 4794" cx="8.261" cy="8.261" r="8.261" transform="translate(51.059 11.683) rotate(-45)" fill="#fff"/>
        </g>
        <g id="Group_47739" data-name="Group 47739" transform="translate(130.152 19.316)">
          <rect id="Rectangle_4014" data-name="Rectangle 4014" width="13.548" height="54.469" fill="#fff"/>
          <rect id="Rectangle_4015" data-name="Rectangle 4015" width="13.548" height="54.469" transform="translate(19.8)" fill="#fff"/>
          <rect id="Rectangle_4016" data-name="Rectangle 4016" width="13.548" height="54.469" transform="translate(39.601)" fill="#fff"/>
          <rect id="Rectangle_4017" data-name="Rectangle 4017" width="13.548" height="54.469" transform="translate(59.401)" fill="#e7c7ff"/>
          <rect id="Rectangle_4018" data-name="Rectangle 4018" width="13.548" height="54.469" transform="translate(79.201)" fill="#e7c7ff"/>
          <rect id="Rectangle_4019" data-name="Rectangle 4019" width="13.548" height="54.469" transform="translate(99.002)" fill="#fff"/>
          <rect id="Rectangle_4020" data-name="Rectangle 4020" width="13.548" height="54.469" transform="translate(118.802)" fill="#fff"/>
          <rect id="Rectangle_4021" data-name="Rectangle 4021" width="13.548" height="54.469" transform="translate(138.603)" fill="#fff"/>
          <rect id="Rectangle_4022" data-name="Rectangle 4022" width="13.548" height="54.469" transform="translate(158.403)" fill="#e7c7ff"/>
        </g>
      </g>
      <g id="Group_47743" data-name="Group 47743" transform="translate(62.682 100.877)">
        <rect id="Rectangle_4023" data-name="Rectangle 4023" width="339.055" height="93.101" fill="#915aa3"/>
        <rect id="Rectangle_4024" data-name="Rectangle 4024" width="325.16" height="79.206" rx="15.211" transform="translate(6.948 6.948)" fill="#fff1d5"/>
        <g id="Group_47741" data-name="Group 47741" transform="translate(33.749 34.867)">
          <circle id="Ellipse_4795" data-name="Ellipse 4795" cx="8.261" cy="8.261" r="8.261" transform="translate(0 11.683) rotate(-45)" fill="#fff"/>
          <circle id="Ellipse_4796" data-name="Ellipse 4796" cx="8.261" cy="8.261" r="8.261" transform="translate(26.402 11.683) rotate(-45)" fill="#fff"/>
          <circle id="Ellipse_4797" data-name="Ellipse 4797" cx="8.261" cy="8.261" r="8.261" transform="translate(54.549 17.826) rotate(-76.718)" fill="#e7c7ff"/>
        </g>
        <g id="Group_47742" data-name="Group 47742" transform="translate(130.152 19.316)">
          <rect id="Rectangle_4025" data-name="Rectangle 4025" width="13.548" height="54.469" fill="#fff"/>
          <rect id="Rectangle_4026" data-name="Rectangle 4026" width="13.548" height="54.469" transform="translate(19.8)" fill="#fff"/>
          <rect id="Rectangle_4027" data-name="Rectangle 4027" width="13.548" height="54.469" transform="translate(39.601)" fill="#fff"/>
          <rect id="Rectangle_4028" data-name="Rectangle 4028" width="13.548" height="54.469" transform="translate(59.401)" fill="#e7c7ff"/>
          <rect id="Rectangle_4029" data-name="Rectangle 4029" width="13.548" height="54.469" transform="translate(79.201)" fill="#fff"/>
          <rect id="Rectangle_4030" data-name="Rectangle 4030" width="13.548" height="54.469" transform="translate(99.002)" fill="#fff"/>
          <rect id="Rectangle_4031" data-name="Rectangle 4031" width="13.548" height="54.469" transform="translate(118.802)" fill="#e7c7ff"/>
          <rect id="Rectangle_4032" data-name="Rectangle 4032" width="13.548" height="54.469" transform="translate(138.603)" fill="#fff"/>
          <rect id="Rectangle_4033" data-name="Rectangle 4033" width="13.548" height="54.469" transform="translate(158.403)" fill="#fff"/>
        </g>
      </g>
      <g id="Group_47746" data-name="Group 47746" transform="translate(62.682 201.754)">
        <rect id="Rectangle_4034" data-name="Rectangle 4034" width="339.055" height="93.101" fill="#915aa3"/>
        <rect id="Rectangle_4035" data-name="Rectangle 4035" width="325.16" height="79.206" rx="15.211" transform="translate(6.948 6.948)" fill="#fff1d5"/>
        <g id="Group_47744" data-name="Group 47744" transform="translate(37.171 38.289)">
          <circle id="Ellipse_4798" data-name="Ellipse 4798" cx="8.261" cy="8.261" r="8.261" fill="#fff"/>
          <circle id="Ellipse_4799" data-name="Ellipse 4799" cx="8.261" cy="8.261" r="8.261" transform="translate(26.402)" fill="#ecba53"/>
          <circle id="Ellipse_4800" data-name="Ellipse 4800" cx="8.261" cy="8.261" r="8.261" transform="translate(52.804)" fill="#e7c7ff"/>
        </g>
        <g id="Group_47745" data-name="Group 47745" transform="translate(130.152 19.316)">
          <rect id="Rectangle_4036" data-name="Rectangle 4036" width="13.548" height="54.469" fill="#fff"/>
          <rect id="Rectangle_4037" data-name="Rectangle 4037" width="13.548" height="54.469" transform="translate(19.8)" fill="#fff"/>
          <rect id="Rectangle_4038" data-name="Rectangle 4038" width="13.548" height="54.469" transform="translate(39.601)" fill="#e7c7ff"/>
          <rect id="Rectangle_4039" data-name="Rectangle 4039" width="13.548" height="54.469" transform="translate(59.401)" fill="#fff"/>
          <rect id="Rectangle_4040" data-name="Rectangle 4040" width="13.548" height="54.469" transform="translate(79.201)" fill="#fff"/>
          <rect id="Rectangle_4041" data-name="Rectangle 4041" width="13.548" height="54.469" transform="translate(99.002)" fill="#fff"/>
          <rect id="Rectangle_4042" data-name="Rectangle 4042" width="13.548" height="54.469" transform="translate(118.802)" fill="#e7c7ff"/>
          <rect id="Rectangle_4043" data-name="Rectangle 4043" width="13.548" height="54.469" transform="translate(138.603)" fill="#fff"/>
          <rect id="Rectangle_4044" data-name="Rectangle 4044" width="13.548" height="54.469" transform="translate(158.403)" fill="#fff"/>
        </g>
      </g>
      <g id="Group_47749" data-name="Group 47749" transform="translate(62.682 302.631)">
        <rect id="Rectangle_4045" data-name="Rectangle 4045" width="339.055" height="93.101" fill="#915aa3"/>
        <rect id="Rectangle_4046" data-name="Rectangle 4046" width="325.16" height="79.206" rx="15.211" transform="translate(6.948 6.948)" fill="#fff1d5"/>
        <g id="Group_47747" data-name="Group 47747" transform="translate(35.494 34.867)">
          <circle id="Ellipse_4801" data-name="Ellipse 4801" cx="8.261" cy="8.261" r="8.261" transform="translate(0 17.825) rotate(-76.717)" fill="#e7c7ff"/>
          <circle id="Ellipse_4802" data-name="Ellipse 4802" cx="8.261" cy="8.261" r="8.261" transform="translate(26.402 17.825) rotate(-76.717)" fill="#e7c7ff"/>
          <circle id="Ellipse_4803" data-name="Ellipse 4803" cx="8.261" cy="8.261" r="8.261" transform="translate(51.059 11.683) rotate(-45)" fill="#ecba53"/>
        </g>
        <g id="Group_47748" data-name="Group 47748" transform="translate(130.152 19.316)">
          <rect id="Rectangle_4047" data-name="Rectangle 4047" width="13.548" height="54.469" fill="#fff"/>
          <rect id="Rectangle_4048" data-name="Rectangle 4048" width="13.548" height="54.469" transform="translate(19.8)" fill="#fff"/>
          <rect id="Rectangle_4049" data-name="Rectangle 4049" width="13.548" height="54.469" transform="translate(39.601)" fill="#fff"/>
          <rect id="Rectangle_4050" data-name="Rectangle 4050" width="13.548" height="54.469" transform="translate(59.401)" fill="#e7c7ff"/>
          <rect id="Rectangle_4051" data-name="Rectangle 4051" width="13.548" height="54.469" transform="translate(79.201)" fill="#fff"/>
          <rect id="Rectangle_4052" data-name="Rectangle 4052" width="13.548" height="54.469" transform="translate(99.002)" fill="#fff"/>
          <rect id="Rectangle_4053" data-name="Rectangle 4053" width="13.548" height="54.469" transform="translate(118.802)" fill="#fff"/>
          <rect id="Rectangle_4054" data-name="Rectangle 4054" width="13.548" height="54.469" transform="translate(138.603)" fill="#fff"/>
          <rect id="Rectangle_4055" data-name="Rectangle 4055" width="13.548" height="54.469" transform="translate(158.403)" fill="#fff"/>
        </g>
      </g>
      <g id="Group_47752" data-name="Group 47752" transform="translate(63.094 403.49)">
        <rect id="Rectangle_4056" data-name="Rectangle 4056" width="339.055" height="93.101" fill="#915aa3"/>
        <rect id="Rectangle_4057" data-name="Rectangle 4057" width="325.16" height="79.206" rx="15.211" transform="translate(6.948 6.948)" fill="#fff1d5"/>
        <g id="Group_47750" data-name="Group 47750" transform="translate(37.171 38.289)">
          <circle id="Ellipse_4804" data-name="Ellipse 4804" cx="8.261" cy="8.261" r="8.261" transform="translate(0 0)" fill="#e7c7ff"/>
          <circle id="Ellipse_4805" data-name="Ellipse 4805" cx="8.261" cy="8.261" r="8.261" transform="translate(26.402)" fill="#ecba53"/>
          <circle id="Ellipse_4806" data-name="Ellipse 4806" cx="8.261" cy="8.261" r="8.261" transform="translate(52.804)" fill="#e7c7ff"/>
        </g>
        <g id="Group_47751" data-name="Group 47751" transform="translate(130.151 19.316)">
          <rect id="Rectangle_4058" data-name="Rectangle 4058" width="13.548" height="54.469" fill="#fff"/>
          <rect id="Rectangle_4059" data-name="Rectangle 4059" width="13.548" height="54.469" transform="translate(19.8)" fill="#fff"/>
          <rect id="Rectangle_4060" data-name="Rectangle 4060" width="13.548" height="54.469" transform="translate(39.601)" fill="#fff"/>
          <rect id="Rectangle_4061" data-name="Rectangle 4061" width="13.548" height="54.469" transform="translate(59.401)" fill="#e7c7ff"/>
          <rect id="Rectangle_4062" data-name="Rectangle 4062" width="13.548" height="54.469" transform="translate(79.202)" fill="#fff"/>
          <rect id="Rectangle_4063" data-name="Rectangle 4063" width="13.548" height="54.469" transform="translate(99.002)" fill="#fff"/>
          <rect id="Rectangle_4064" data-name="Rectangle 4064" width="13.548" height="54.469" transform="translate(118.802)" fill="#e7c7ff"/>
          <rect id="Rectangle_4065" data-name="Rectangle 4065" width="13.548" height="54.469" transform="translate(138.603)" fill="#e7c7ff"/>
          <rect id="Rectangle_4066" data-name="Rectangle 4066" width="13.548" height="54.469" transform="translate(158.403)" fill="#fff"/>
        </g>
      </g>
      <g id="Group_47755" data-name="Group 47755" transform="translate(63.094 504.367)">
        <rect id="Rectangle_4067" data-name="Rectangle 4067" width="339.055" height="93.101" fill="#915aa3"/>
        <rect id="Rectangle_4068" data-name="Rectangle 4068" width="325.16" height="79.206" rx="15.211" transform="translate(6.948 6.948)" fill="#fff1d5"/>
        <g id="Group_47753" data-name="Group 47753" transform="translate(33.749 34.867)">
          <circle id="Ellipse_4807" data-name="Ellipse 4807" cx="8.261" cy="8.261" r="8.261" transform="translate(0 11.683) rotate(-45)" fill="#e7c7ff"/>
          <circle id="Ellipse_4808" data-name="Ellipse 4808" cx="8.261" cy="8.261" r="8.261" transform="translate(28.607 18.515) rotate(-80.783)" fill="#ecba53"/>
          <circle id="Ellipse_4809" data-name="Ellipse 4809" cx="8.261" cy="8.261" r="8.261" transform="translate(54.549 17.825) rotate(-76.717)" fill="#e7c7ff"/>
        </g>
        <g id="Group_47754" data-name="Group 47754" transform="translate(130.151 19.316)">
          <rect id="Rectangle_4069" data-name="Rectangle 4069" width="13.548" height="54.469" fill="#fff"/>
          <rect id="Rectangle_4070" data-name="Rectangle 4070" width="13.548" height="54.469" transform="translate(19.8)" fill="#e7c7ff"/>
          <rect id="Rectangle_4071" data-name="Rectangle 4071" width="13.548" height="54.469" transform="translate(39.601)" fill="#e7c7ff"/>
          <rect id="Rectangle_4072" data-name="Rectangle 4072" width="13.548" height="54.469" transform="translate(59.401)" fill="#e7c7ff"/>
          <rect id="Rectangle_4073" data-name="Rectangle 4073" width="13.548" height="54.469" transform="translate(79.202)" fill="#fff"/>
          <rect id="Rectangle_4074" data-name="Rectangle 4074" width="13.548" height="54.469" transform="translate(99.002)" fill="#fff"/>
          <rect id="Rectangle_4075" data-name="Rectangle 4075" width="13.548" height="54.469" transform="translate(118.802)" fill="#e7c7ff"/>
          <rect id="Rectangle_4076" data-name="Rectangle 4076" width="13.548" height="54.469" transform="translate(138.603)" fill="#fff"/>
          <rect id="Rectangle_4077" data-name="Rectangle 4077" width="13.548" height="54.469" transform="translate(158.403)" fill="#e7c7ff"/>
        </g>
      </g>
    </g>
    <g id="Group_47767" data-name="Group 47767" transform="translate(1355.544 203.451)">
      <g id="Group_47763" data-name="Group 47763" transform="translate(0 159.512)">
        <g id="Group_47762" data-name="Group 47762" transform="translate(5.606)">
          <g id="Group_47761" data-name="Group 47761">
            <path id="Path_102349" data-name="Path 102349" d="M1370.371,559.66a1.349,1.349,0,0,1-.25-.024,1.314,1.314,0,0,1-1.042-1.538,286.382,286.382,0,0,1,56.983-123.939,1.314,1.314,0,0,1,2.054,1.639,283.744,283.744,0,0,0-56.456,122.8A1.314,1.314,0,0,1,1370.371,559.66Z" transform="translate(-1365.314 -393.655)" fill="#1d1320"/>
            <path id="Path_102350" data-name="Path 102350" d="M1437.369,399.467a1.314,1.314,0,0,1-.963-2.206c2.794-3.018,5.683-6.013,8.588-8.9a1.314,1.314,0,1,1,1.853,1.863c-2.879,2.865-5.744,5.834-8.513,8.825A1.311,1.311,0,0,1,1437.369,399.467Z" transform="translate(-1373.643 -387.975)" fill="#1d1320"/>
            <path id="Path_102351" data-name="Path 102351" d="M1366.1,504.5a1.328,1.328,0,0,1-.435-.074,1.314,1.314,0,0,1-.8-1.675c1.277-3.636,2.639-7.291,4.049-10.864a297.8,297.8,0,0,1,58.639-93.365,1.313,1.313,0,0,1,1.928,1.784,295.178,295.178,0,0,0-58.123,92.546c-1.4,3.542-2.749,7.165-4.014,10.77A1.314,1.314,0,0,1,1366.1,504.5Z" transform="translate(-1364.783 -389.233)" fill="#1d1320"/>
          </g>
        </g>
        <path id="Path_102352" data-name="Path 102352" d="M1363.237,595.316l-4.856-15.531,19.237,4.3Zm-.991-11.975,2.366,7.568,7.007-5.473Z" transform="translate(-1358.381 -411.819)" fill="#1d1320"/>
      </g>
      <g id="Group_47764" data-name="Group 47764" transform="translate(470.932)">
        <path id="Path_102353" data-name="Path 102353" d="M2015.906,249.335a1.309,1.309,0,0,1-.553-.123c-28-13.011-71.166-28.163-117.828-26.505a1.314,1.314,0,0,1-.095-2.625c47.189-1.678,90.773,13.617,119.029,26.749a1.313,1.313,0,0,1-.554,2.5Z" transform="translate(-1896.165 -207.576)" fill="#1d1320"/>
        <path id="Path_102354" data-name="Path 102354" d="M1999.392,228.481a1.308,1.308,0,0,1-.578-.134c-.437-.215-44.163-21.473-84.313-19.812a1.3,1.3,0,0,1-1.366-1.259,1.314,1.314,0,0,1,1.258-1.366c40.837-1.661,85.136,19.86,85.579,20.079a1.314,1.314,0,0,1-.581,2.492Z" transform="translate(-1898.275 -205.819)" fill="#1d1320"/>
      </g>
      <g id="Group_47765" data-name="Group 47765" transform="translate(606.784 232.133)">
        <path id="Path_102355" data-name="Path 102355" d="M2069.3,477.853a1.314,1.314,0,0,1-.949-2.222l4.134-4.322a1.314,1.314,0,0,1,1.9,1.816l-4.134,4.322A1.311,1.311,0,0,1,2069.3,477.853Z" transform="translate(-2053.377 -470.904)" fill="#1d1320"/>
        <path id="Path_102356" data-name="Path 102356" d="M2052.776,495.121a1.314,1.314,0,0,1-.949-2.222l4.134-4.32a1.314,1.314,0,1,1,1.9,1.816l-4.134,4.321A1.316,1.316,0,0,1,2052.776,495.121Z" transform="translate(-2051.323 -473.051)" fill="#1d1320"/>
        <path id="Path_102357" data-name="Path 102357" d="M2056.813,478.144a1.311,1.311,0,0,1-.922-.378l-4.2-4.136a1.313,1.313,0,1,1,1.844-1.871l4.2,4.135a1.314,1.314,0,0,1-.921,2.25Z" transform="translate(-2051.303 -470.963)" fill="#1d1320"/>
        <path id="Path_102358" data-name="Path 102358" d="M2073.584,494.672a1.307,1.307,0,0,1-.921-.378l-4.2-4.136a1.313,1.313,0,0,1,1.844-1.87l4.2,4.136a1.313,1.313,0,0,1-.922,2.249Z" transform="translate(-2053.388 -473.018)" fill="#1d1320"/>
      </g>
      <g id="Group_47766" data-name="Group 47766" transform="translate(339.378 681.245)">
        <path id="Path_102359" data-name="Path 102359" d="M1763.933,990.721a1.313,1.313,0,0,1-.949-2.222l4.134-4.322a1.314,1.314,0,0,1,1.9,1.817l-4.134,4.321A1.31,1.31,0,0,1,1763.933,990.721Z" transform="translate(-1748.01 -983.771)" fill="#1d1320"/>
        <path id="Path_102360" data-name="Path 102360" d="M1747.41,1007.99a1.313,1.313,0,0,1-.948-2.222l4.133-4.321a1.314,1.314,0,1,1,1.9,1.816l-4.134,4.321A1.314,1.314,0,0,1,1747.41,1007.99Z" transform="translate(-1745.956 -985.918)" fill="#1d1320"/>
        <path id="Path_102361" data-name="Path 102361" d="M1751.446,991.012a1.31,1.31,0,0,1-.922-.378l-4.2-4.136a1.313,1.313,0,1,1,1.844-1.87l4.2,4.135a1.314,1.314,0,0,1-.921,2.25Z" transform="translate(-1745.936 -983.831)" fill="#1d1320"/>
        <path id="Path_102362" data-name="Path 102362" d="M1768.218,1007.54a1.31,1.31,0,0,1-.922-.378l-4.2-4.135a1.314,1.314,0,0,1,1.844-1.871l4.2,4.136a1.314,1.314,0,0,1-.922,2.249Z" transform="translate(-1748.021 -985.885)" fill="#1d1320"/>
      </g>
      <path id="Path_102363" data-name="Path 102363" d="M2087.585,458.064a8.814,8.814,0,1,1,2.288-.3A8.86,8.86,0,0,1,2087.585,458.064Zm.021-14.962a6.165,6.165,0,1,0,3.076.826A6.168,6.168,0,0,0,2087.606,443.1Z" transform="translate(-1447.937 -234.989)" fill="#1d1320"/>
      <path id="Path_102364" data-name="Path 102364" d="M1718.012,1003.153a8.814,8.814,0,1,1,2.288-.3A8.856,8.856,0,0,1,1718.012,1003.153Zm.021-14.962a6.167,6.167,0,1,0,3.075.826A6.169,6.169,0,0,0,1718.033,988.191Z" transform="translate(-1401.995 -302.749)" fill="#1d1320"/>
    </g>
    <g id="Group_47770" data-name="Group 47770" transform="translate(1498.789 282.935)">
      <g id="Group_47768" data-name="Group 47768" transform="translate(0 101.998)">
        <path id="Path_102365" data-name="Path 102365" d="M1668.771,437.819l-11.69-9.938-13.4,10.068a63.474,63.474,0,0,0-9.652-4.6l-.685-16.725-15.093-2.761-6.571,15.421a64.379,64.379,0,0,0-10.642.863l-8.968-14.163-14.452,5.155,2.017,16.616a63.545,63.545,0,0,0-8.786,6.09l-14.845-7.779-9.937,11.69,10.067,13.4a63.471,63.471,0,0,0-4.6,9.651l-16.725.685-2.761,15.093,15.421,6.572a64.483,64.483,0,0,0,.862,10.641l-14.162,8.969,5.156,14.451,16.616-2.017a63.546,63.546,0,0,0,6.09,8.786l-7.779,14.844,11.69,9.938,13.4-10.067a63.6,63.6,0,0,0,9.652,4.6l.685,16.724,15.093,2.761,6.572-15.421a64.384,64.384,0,0,0,10.641-.862l8.969,14.162,14.451-5.155-2.017-16.617a63.623,63.623,0,0,0,8.786-6.09l14.844,7.778,9.938-11.69-10.067-13.4a63.656,63.656,0,0,0,4.6-9.652l16.724-.685,2.761-15.093-15.421-6.57a64.459,64.459,0,0,0-.862-10.642l14.162-8.969-5.155-14.452-16.617,2.018a63.476,63.476,0,0,0-6.09-8.786Zm-27.161,81.092a39.5,39.5,0,1,1-4.511-55.678A39.5,39.5,0,0,1,1641.61,518.911Z" transform="translate(-1523.215 -413.163)" fill="#ecba53"/>
        <path id="Path_102366" data-name="Path 102366" d="M1596,574.613a1.28,1.28,0,0,1-.237-.022l-15.094-2.761a1.314,1.314,0,0,1-1.076-1.238l-.649-15.86a65.324,65.324,0,0,1-8.278-3.944l-12.706,9.547a1.313,1.313,0,0,1-1.639-.049l-11.691-9.938a1.314,1.314,0,0,1-.313-1.61l7.378-14.078a65.2,65.2,0,0,1-5.225-7.534l-15.758,1.913a1.321,1.321,0,0,1-1.4-.863l-5.155-14.452a1.313,1.313,0,0,1,.534-1.552l13.432-8.506a65.871,65.871,0,0,1-.739-9.126l-14.627-6.232a1.313,1.313,0,0,1-.778-1.444l2.762-15.093a1.313,1.313,0,0,1,1.238-1.077l15.861-.648a65.2,65.2,0,0,1,3.943-8.278l-9.547-12.706a1.314,1.314,0,0,1,.049-1.64l9.938-11.691a1.313,1.313,0,0,1,1.61-.312l14.078,7.378a65.125,65.125,0,0,1,7.534-5.225l-1.912-15.759a1.314,1.314,0,0,1,.863-1.4l14.452-5.155a1.315,1.315,0,0,1,1.551.535l8.506,13.433a65.749,65.749,0,0,1,9.125-.74l6.233-14.627a1.314,1.314,0,0,1,1.445-.778l15.093,2.761a1.313,1.313,0,0,1,1.076,1.238l.649,15.861a64.94,64.94,0,0,1,8.278,3.944l12.705-9.548a1.312,1.312,0,0,1,1.64.05l11.691,9.938a1.314,1.314,0,0,1,.313,1.61l-7.377,14.078A65.223,65.223,0,0,1,1659,460.55l15.759-1.912a1.321,1.321,0,0,1,1.4.863l5.155,14.452a1.312,1.312,0,0,1-.534,1.551l-13.432,8.506a65.935,65.935,0,0,1,.74,9.126l14.626,6.231a1.314,1.314,0,0,1,.778,1.445l-2.761,15.093a1.315,1.315,0,0,1-1.238,1.076l-15.861.65a65.072,65.072,0,0,1-3.944,8.277l9.548,12.705a1.316,1.316,0,0,1-.049,1.641l-9.938,11.69a1.313,1.313,0,0,1-1.61.314l-14.078-7.378a65.266,65.266,0,0,1-7.534,5.225l1.913,15.758a1.314,1.314,0,0,1-.863,1.4l-14.452,5.156a1.317,1.317,0,0,1-1.551-.534l-8.506-13.432a66.011,66.011,0,0,1-9.125.739l-6.232,14.627A1.314,1.314,0,0,1,1596,574.613Zm-13.824-5.178,13.028,2.383,6.159-14.454a1.314,1.314,0,0,1,1.208-.8c.036,0,.092,0,.138,0a63.36,63.36,0,0,0,10.29-.843,1.312,1.312,0,0,1,1.324.592l8.407,13.275,12.473-4.45-1.89-15.574a1.312,1.312,0,0,1,.651-1.3,62.414,62.414,0,0,0,8.6-5.965,1.312,1.312,0,0,1,1.445-.15l13.914,7.291,8.577-10.091-9.436-12.557a1.315,1.315,0,0,1-.084-1.451,62.4,62.4,0,0,0,4.5-9.452,1.314,1.314,0,0,1,1.176-.85l15.675-.642,2.384-13.028-14.455-6.159a1.313,1.313,0,0,1-.8-1.211,63.2,63.2,0,0,0-.845-10.425,1.316,1.316,0,0,1,.593-1.325l13.276-8.406-4.449-12.474-15.574,1.891a1.317,1.317,0,0,1-1.3-.651,62.367,62.367,0,0,0-5.965-8.6,1.313,1.313,0,0,1-.149-1.445l7.291-13.914-10.091-8.578-12.558,9.437a1.31,1.31,0,0,1-1.45.084,62.476,62.476,0,0,0-9.452-4.5,1.313,1.313,0,0,1-.85-1.176l-.642-15.674-13.028-2.384-6.16,14.455a1.313,1.313,0,0,1-1.208.8h-.137a63.148,63.148,0,0,0-10.29.845,1.314,1.314,0,0,1-1.324-.593l-8.407-13.275-12.473,4.449,1.891,15.574a1.314,1.314,0,0,1-.651,1.3,62.54,62.54,0,0,0-8.6,5.966,1.318,1.318,0,0,1-1.445.149l-13.914-7.291-8.578,10.09,9.437,12.559a1.314,1.314,0,0,1,.084,1.45,62.519,62.519,0,0,0-4.5,9.452,1.315,1.315,0,0,1-1.176.851l-15.675.641-2.384,13.027,14.455,6.16a1.315,1.315,0,0,1,.8,1.211,63.234,63.234,0,0,0,.845,10.425,1.315,1.315,0,0,1-.594,1.325l-13.275,8.407,4.45,12.473,15.573-1.891a1.319,1.319,0,0,1,1.3.651,62.432,62.432,0,0,0,5.965,8.6,1.314,1.314,0,0,1,.15,1.446l-7.292,13.913,10.091,8.577,12.558-9.436a1.308,1.308,0,0,1,1.45-.085,62.488,62.488,0,0,0,9.452,4.5,1.312,1.312,0,0,1,.851,1.175Zm20.5-34.781a40.9,40.9,0,1,1,3.363-.137Q1604.345,534.654,1602.67,534.654Zm.095-78.986a38.167,38.167,0,1,0,24.7,9.075A38.116,38.116,0,0,0,1602.764,455.668Z" transform="translate(-1521.96 -413.063)" fill="#1d1320"/>
      </g>
      <g id="Group_47769" data-name="Group 47769" transform="translate(117.501 0)">
        <path id="Path_102367" data-name="Path 102367" d="M1790.012,330.72a1.848,1.848,0,0,0-2.13-.886l-12.013,3.457a1.841,1.841,0,0,1-1.917-.6,57.569,57.569,0,0,0-5.036-5.282,1.834,1.834,0,0,1-.507-1.934l3.967-11.85a1.847,1.847,0,0,0-.793-2.166l-9.359-5.68a1.846,1.846,0,0,0-2.288.3l-8.679,9.008a1.837,1.837,0,0,1-1.953.445,58.3,58.3,0,0,0-6.993-2.039,1.836,1.836,0,0,1-1.407-1.423l-2.491-12.269a1.848,1.848,0,0,0-1.771-1.479l-10.939-.238a1.847,1.847,0,0,0-1.833,1.4l-3.008,12.126a1.835,1.835,0,0,1-1.467,1.361,57.552,57.552,0,0,0-7.079,1.749,1.838,1.838,0,0,1-1.936-.527l-8.282-9.374a1.846,1.846,0,0,0-2.273-.4l-9.591,5.267a1.847,1.847,0,0,0-.886,2.13l3.46,12.026a1.837,1.837,0,0,1-.6,1.915,57.692,57.692,0,0,0-5.275,5.036,1.833,1.833,0,0,1-1.935.508l-11.839-3.971a1.848,1.848,0,0,0-2.168.794l-5.674,9.362a1.849,1.849,0,0,0,.3,2.287l9.009,8.69a1.835,1.835,0,0,1,.444,1.95,58.378,58.378,0,0,0-2.036,7,1.835,1.835,0,0,1-1.423,1.408l-12.257,2.488a1.849,1.849,0,0,0-1.479,1.772l-.235,10.949a1.848,1.848,0,0,0,1.4,1.833l12.12,3.014a1.834,1.834,0,0,1,1.36,1.466,57.656,57.656,0,0,0,1.75,7.088,1.837,1.837,0,0,1-.526,1.935l-9.367,8.285a1.848,1.848,0,0,0-.4,2.272l5.268,9.6a1.848,1.848,0,0,0,2.131.886l12.013-3.456a1.838,1.838,0,0,1,1.916.6,57.673,57.673,0,0,0,5.036,5.282,1.832,1.832,0,0,1,.507,1.934l-3.966,11.849a1.847,1.847,0,0,0,.792,2.166l9.359,5.681a1.847,1.847,0,0,0,2.289-.3l8.679-9.009a1.836,1.836,0,0,1,1.953-.444,58.332,58.332,0,0,0,6.992,2.039,1.836,1.836,0,0,1,1.408,1.423l2.49,12.268a1.847,1.847,0,0,0,1.77,1.479l10.941.238a1.848,1.848,0,0,0,1.833-1.4l3.008-12.126a1.835,1.835,0,0,1,1.467-1.361,57.328,57.328,0,0,0,7.078-1.748,1.837,1.837,0,0,1,1.936.527l8.282,9.374a1.847,1.847,0,0,0,2.273.4l9.591-5.266a1.848,1.848,0,0,0,.887-2.131l-3.461-12.025a1.842,1.842,0,0,1,.6-1.916,57.486,57.486,0,0,0,5.276-5.036,1.833,1.833,0,0,1,1.935-.507l11.839,3.971a1.849,1.849,0,0,0,2.167-.794l5.674-9.362a1.847,1.847,0,0,0-.3-2.287l-9.009-8.689a1.837,1.837,0,0,1-.443-1.951,58.484,58.484,0,0,0,2.035-7,1.837,1.837,0,0,1,1.423-1.409l12.257-2.488a1.848,1.848,0,0,0,1.48-1.771l.234-10.95a1.845,1.845,0,0,0-1.4-1.832l-12.12-3.014a1.836,1.836,0,0,1-1.36-1.467,57.639,57.639,0,0,0-1.75-7.087,1.837,1.837,0,0,1,.526-1.935l9.366-8.285a1.848,1.848,0,0,0,.4-2.272Zm-47.433,73.646a36.606,36.606,0,1,1,21.293-47.187A36.606,36.606,0,0,1,1742.578,404.365Z" transform="translate(-1656.328 -296.773)" fill="#ecba53"/>
        <path id="Path_102368" data-name="Path 102368" d="M1733.418,443.29h-.072l-10.94-.237a3.146,3.146,0,0,1-3.028-2.532l-2.491-12.269a.522.522,0,0,0-.408-.4,60.155,60.155,0,0,1-7.151-2.085.525.525,0,0,0-.562.121l-8.678,9.008a3.142,3.142,0,0,1-3.916.508l-9.359-5.68a3.144,3.144,0,0,1-1.357-3.7l3.967-11.852a.519.519,0,0,0-.151-.55,59.265,59.265,0,0,1-5.152-5.4.532.532,0,0,0-.547-.179l-12.013,3.457a3.146,3.146,0,0,1-3.646-1.518l-5.269-9.6a3.145,3.145,0,0,1,.678-3.888l9.367-8.285a.525.525,0,0,0,.143-.559,58.989,58.989,0,0,1-1.79-7.247.52.52,0,0,0-.384-.424l-12.12-3.014a3.145,3.145,0,0,1-2.4-3.136l.234-10.95a3.145,3.145,0,0,1,2.532-3.03l12.257-2.488a.52.52,0,0,0,.4-.408,59.923,59.923,0,0,1,2.082-7.155.523.523,0,0,0-.12-.56l-9.01-8.692a3.142,3.142,0,0,1-.509-3.912l5.674-9.363a3.146,3.146,0,0,1,3.71-1.358l11.838,3.971a.518.518,0,0,0,.551-.152,59.127,59.127,0,0,1,5.4-5.151.524.524,0,0,0,.178-.548L1687.9,312a3.145,3.145,0,0,1,1.517-3.646l9.591-5.266a3.145,3.145,0,0,1,3.891.677l8.281,9.375a.525.525,0,0,0,.559.144,59.021,59.021,0,0,1,7.24-1.789.52.52,0,0,0,.425-.384l3.008-12.126a3.142,3.142,0,0,1,3.065-2.4h.071l10.94.238a3.145,3.145,0,0,1,3.03,2.532l2.49,12.269a.525.525,0,0,0,.41.4,59.792,59.792,0,0,1,7.15,2.084.519.519,0,0,0,.56-.12l8.68-9.009a3.141,3.141,0,0,1,3.916-.509l9.358,5.68a3.145,3.145,0,0,1,1.358,3.7l-3.967,11.851a.518.518,0,0,0,.151.551,59.178,59.178,0,0,1,5.151,5.4.533.533,0,0,0,.547.179l12.014-3.458a3.143,3.143,0,0,1,3.646,1.518l5.269,9.6a3.147,3.147,0,0,1-.678,3.888l-9.366,8.286a.521.521,0,0,0-.144.558,59.318,59.318,0,0,1,1.79,7.248.519.519,0,0,0,.383.424l12.12,3.014a3.141,3.141,0,0,1,2.4,3.135l-.234,10.95a3.145,3.145,0,0,1-2.532,3.03l-12.259,2.488a.522.522,0,0,0-.4.41,60.071,60.071,0,0,1-2.083,7.155.523.523,0,0,0,.121.561l9.008,8.689a3.144,3.144,0,0,1,.51,3.913l-5.673,9.362a3.148,3.148,0,0,1-3.709,1.36L1773.659,410a.525.525,0,0,0-.552.151,59,59,0,0,1-5.4,5.152.522.522,0,0,0-.178.549l3.459,12.023a3.145,3.145,0,0,1-1.517,3.646l-9.591,5.266a3.141,3.141,0,0,1-3.89-.677l-8.282-9.374a.525.525,0,0,0-.558-.144,58.993,58.993,0,0,1-7.239,1.788.522.522,0,0,0-.426.384l-3.007,12.125A3.143,3.143,0,0,1,1733.418,443.29ZM1709.139,423.1a3.179,3.179,0,0,1,1.079.188,57.406,57.406,0,0,0,6.836,1.993,3.158,3.158,0,0,1,2.406,2.442l2.49,12.268a.531.531,0,0,0,.512.428l10.94.237a.581.581,0,0,0,.529-.4l3.008-12.126a3.16,3.16,0,0,1,2.509-2.337,56.373,56.373,0,0,0,6.917-1.708,3.158,3.158,0,0,1,3.315.912l8.281,9.373a.531.531,0,0,0,.657.114l9.591-5.266a.532.532,0,0,0,.257-.616l-3.46-12.024a3.161,3.161,0,0,1,1.011-3.284,56.237,56.237,0,0,0,5.155-4.921,3.158,3.158,0,0,1,3.32-.863l11.838,3.971a.528.528,0,0,0,.627-.231l5.673-9.361a.531.531,0,0,0-.086-.66l-9.009-8.689a3.161,3.161,0,0,1-.768-3.342,57.277,57.277,0,0,0,1.99-6.842,3.16,3.16,0,0,1,2.441-2.408l12.26-2.488a.531.531,0,0,0,.426-.512l.234-10.95a.528.528,0,0,0-.4-.528l-12.12-3.014a3.16,3.16,0,0,1-2.335-2.508,56.4,56.4,0,0,0-1.71-6.927,3.159,3.159,0,0,1,.911-3.315l9.365-8.284a.532.532,0,0,0,.115-.658l-5.269-9.6a.522.522,0,0,0-.615-.257l-12.014,3.457a3.162,3.162,0,0,1-3.285-1.012,56.371,56.371,0,0,0-4.922-5.162,3.157,3.157,0,0,1-.862-3.315l3.967-11.851a.529.529,0,0,0-.229-.624l-9.359-5.681a.527.527,0,0,0-.66.086l-8.68,9.009a3.159,3.159,0,0,1-3.343.769,57.179,57.179,0,0,0-6.837-1.992,3.159,3.159,0,0,1-2.406-2.444l-2.491-12.268a.53.53,0,0,0-.511-.428l-10.94-.238a.5.5,0,0,0-.529.4l-3.008,12.126a3.158,3.158,0,0,1-2.509,2.337,56.193,56.193,0,0,0-6.917,1.709,3.164,3.164,0,0,1-3.315-.909l-8.282-9.377a.528.528,0,0,0-.657-.113l-9.591,5.266a.532.532,0,0,0-.257.616l3.459,12.026a3.16,3.16,0,0,1-1.011,3.284,56.323,56.323,0,0,0-5.156,4.921,3.153,3.153,0,0,1-3.319.862l-11.839-3.97a.534.534,0,0,0-.627.229l-5.674,9.362a.537.537,0,0,0,.086.66l9.009,8.692a3.155,3.155,0,0,1,.768,3.34,57.476,57.476,0,0,0-1.99,6.841,3.156,3.156,0,0,1-2.443,2.408l-12.256,2.488a.533.533,0,0,0-.428.512l-.234,10.95a.53.53,0,0,0,.406.529l12.119,3.014a3.157,3.157,0,0,1,2.335,2.508,56.431,56.431,0,0,0,1.711,6.926,3.16,3.16,0,0,1-.909,3.314l-9.367,8.286a.538.538,0,0,0-.114.657l5.267,9.6a.534.534,0,0,0,.617.257l12.013-3.456a3.156,3.156,0,0,1,3.284,1.012,56.526,56.526,0,0,0,4.922,5.161,3.157,3.157,0,0,1,.862,3.315l-3.967,11.851a.538.538,0,0,0,.229.625l9.359,5.68a.534.534,0,0,0,.662-.086l8.678-9.009A3.142,3.142,0,0,1,1709.139,423.1Zm20.289-15.226a38.02,38.02,0,1,1,13.428-2.472A37.8,37.8,0,0,1,1729.428,407.879Zm-.022-73.235a35.294,35.294,0,1,0,33.05,22.812A35.133,35.133,0,0,0,1729.406,334.644Z" transform="translate(-1656.141 -296.586)" fill="#1d1320"/>
      </g>
    </g>
    <g id="Group_47780" data-name="Group 47780" transform="translate(1336.495 428.179)">
      <g id="Group_47773" data-name="Group 47773" transform="translate(0 246.703)">
        <g id="Group_47771" data-name="Group 47771" transform="translate(123.618 194.351)">
          <path id="Path_102369" data-name="Path 102369" d="M1479.294,969.7l.631,22.375h10.61l3.566-24.462Z" transform="translate(-1477.981 -966.299)" fill="#fff"/>
          <path id="Path_102370" data-name="Path 102370" d="M1490.35,993.2h-10.611a1.314,1.314,0,0,1-1.313-1.277l-.631-22.375a1.312,1.312,0,0,1,1.13-1.337l14.807-2.089a1.313,1.313,0,0,1,1.483,1.49l-3.566,24.463A1.313,1.313,0,0,1,1490.35,993.2Zm-9.333-2.627h8.2l3.149-21.6-11.908,1.68Z" transform="translate(-1477.794 -966.113)" fill="#1d1320"/>
        </g>
        <path id="Path_102371" data-name="Path 102371" d="M1533.352,1012.5H1478.3a4.489,4.489,0,0,1-4.65-5.122c.948-6.436,2.619-16.751,4.062-21.012,2.155-6.365,9.12,3.839,9.12,3.839l4.08-3.4s36.281,10.388,44.611,21.577A2.554,2.554,0,0,1,1533.352,1012.5Z" transform="translate(-1353.655 -774.019)" fill="#1d1320"/>
        <path id="Path_102372" data-name="Path 102372" d="M1530.445,1013.031h-51.918a1.314,1.314,0,1,1,0-2.627h51.918a1.314,1.314,0,0,1,0,2.627Z" transform="translate(-1354.104 -777.267)" fill="#fff"/>
        <g id="Group_47772" data-name="Group 47772" transform="translate(14.099 162.006)">
          <path id="Path_102373" data-name="Path 102373" d="M1385.084,941.317l-20.178,25.556-10.678-8,17.275-28.192Z" transform="translate(-1352.914 -929.363)" fill="#fff"/>
          <path id="Path_102374" data-name="Path 102374" d="M1364.719,968a1.306,1.306,0,0,1-.786-.263l-10.679-8a1.313,1.313,0,0,1-.332-1.737L1370.2,929.8a1.312,1.312,0,0,1,1.93-.348l13.582,10.641a1.315,1.315,0,0,1,.221,1.849L1365.751,967.5A1.311,1.311,0,0,1,1364.719,968Zm-8.932-9.652,8.7,6.52,18.567-23.517-11.383-8.918Z" transform="translate(-1352.728 -929.176)" fill="#1d1320"/>
        </g>
        <path id="Path_102375" data-name="Path 102375" d="M1384.048,1007.348c-9.248-4.318-33.039-16.41-46.485-32.2a4,4,0,0,1-.117-4.994c2.864-3.809,8.671-10.867,14.595-14.145,0,0,12.055,4.192,8.823,9.876l4.393-.707s19.418,21.817,22.271,39.571A2.46,2.46,0,0,1,1384.048,1007.348Z" transform="translate(-1336.628 -770.505)" fill="#1d1320"/>
        <path id="Path_102376" data-name="Path 102376" d="M1383.931,1006.018a1.3,1.3,0,0,1-.638-.166c-.285-.158-28.643-16.028-43.635-31.983a1.314,1.314,0,0,1,1.915-1.8c14.715,15.662,42.716,31.33,43,31.487a1.314,1.314,0,0,1-.64,2.462Z" transform="translate(-1336.96 -772.45)" fill="#fff"/>
        <path id="Path_102377" data-name="Path 102377" d="M1526.192,752.557s-9.878,66.863-15.53,102.024-17.8,91.8-17.8,91.8H1475.4s-5.751-38.466-7.134-59.787,5.653-27.346,7.05-44.506-7.326-72.631-7.326-72.631l25.872-25.287Z" transform="translate(-1352.957 -744.172)" fill="#915aa3"/>
        <path id="Path_102378" data-name="Path 102378" d="M1469.752,768.256s-30.968,89.107-84.858,158.107l-18.28-14.433s14.515-47.012,18.108-53.06,13.216-21.678,16.1-29.893c9.361-26.65,19.289-77.482,19.289-77.482Z" transform="translate(-1340.355 -745.082)" fill="#915aa3"/>
      </g>
      <g id="Group_47775" data-name="Group 47775" transform="translate(141.965 95.411)">
        <g id="Group_47774" data-name="Group 47774" transform="translate(0 11.403)">
          <path id="Path_102379" data-name="Path 102379" d="M1500.246,637.322s10.7,12.948,20.576,9.463c7.463-2.634,11.175-4.431,13.018-5.584a1.584,1.584,0,0,0,.014-2.664,9.3,9.3,0,0,1-4.1-6.7l11.406-17.208s6.436-2.314,7.258-3.864c.421-.794-1.073-4.9-1.7-6.861a4.462,4.462,0,0,1-.006-2.623l1.44-2.921c.286-.511.3-1.307-.228-1.573-5.487-2.777-5.3-5.251-7.836-8.128-2.9-3.3-10.924-5.214-14.123,3.972-.927,2.665-2.046,4.517-1.715,8.4a3.149,3.149,0,0,0-2.988.829c-1.271,1.449-.586,4.129,1.531,5.987a19.759,19.759,0,0,0,4.206,2.3c.514.127,1.095,1.887-1.7,4.684C1503.251,636.885,1500.246,637.322,1500.246,637.322Z" transform="translate(-1498.932 -584.612)" fill="#fff"/>
          <path id="Path_102380" data-name="Path 102380" d="M1517.092,648.512c-9.212,0-17.642-10.051-18.044-10.539a1.313,1.313,0,0,1,.657-2.1c.347-.148,4.537-2.211,24.479-22.167a5.427,5.427,0,0,0,1.738-2.69,20.792,20.792,0,0,1-4.181-2.372c-2.7-2.373-3.428-5.817-1.652-7.841a4.022,4.022,0,0,1,2.6-1.309,15.5,15.5,0,0,1,1.342-6.114c.168-.44.341-.89.507-1.367,1.843-5.293,5.06-6.956,7.433-7.421a9.877,9.877,0,0,1,8.917,3.013,18.668,18.668,0,0,1,1.955,2.763,11.417,11.417,0,0,0,5.486,5.06,2.06,2.06,0,0,1,1.039,1.257,2.785,2.785,0,0,1-.258,2.13l-1.406,2.86a3.738,3.738,0,0,0,.078,1.64c.1.3.212.649.339,1.03,1.4,4.192,1.8,5.856,1.274,6.848-.9,1.694-5.306,3.5-7.562,4.336l-10.886,16.424a7.961,7.961,0,0,0,3.451,5.31,2.918,2.918,0,0,1,1.3,2.478,2.861,2.861,0,0,1-1.349,2.389c-2.487,1.557-6.955,3.478-13.277,5.71A11.88,11.88,0,0,1,1517.092,648.512Zm-14.971-11.055c2.826,2.972,10.867,10.445,18.078,7.9,7.65-2.7,11.161-4.46,12.759-5.46a.232.232,0,0,0,.116-.2.3.3,0,0,0-.138-.256,10.555,10.555,0,0,1-4.666-7.622,1.311,1.311,0,0,1,.208-.9l11.406-17.208a1.317,1.317,0,0,1,.65-.51c2.913-1.048,5.815-2.47,6.464-3.152a32.178,32.178,0,0,0-1.367-4.879c-.13-.39-.25-.749-.348-1.056a5.578,5.578,0,0,1,.1-3.667l1.406-2.86,0,0a13.76,13.76,0,0,1-6.183-5.847,16.378,16.378,0,0,0-1.689-2.4,7.225,7.225,0,0,0-6.441-2.168c-2.434.476-4.322,2.448-5.456,5.705-.176.5-.356.978-.535,1.443a12.535,12.535,0,0,0-1.113,6.409,1.315,1.315,0,0,1-1.531,1.406,1.9,1.9,0,0,0-1.779.4c-.679.773-.266,2.661,1.411,4.133a19.842,19.842,0,0,0,3.683,2.015,1.891,1.891,0,0,1,1.294,1.4c.2.722.37,2.7-2.41,5.483C1511.286,630.328,1504.88,635.6,1502.121,637.457Zm-2.437-1.577Zm.178-.042h0Zm0,0h0Zm.005,0h0Zm26.618-24.615.01,0Z" transform="translate(-1498.746 -584.425)" fill="#1d1320"/>
        </g>
        <path id="Path_102381" data-name="Path 102381" d="M1538.37,589.409s10.091-8.03,7.269-14.488a5.849,5.849,0,0,0-2.737-3.131c-3.564-1.611-8.173,2.274-9.2,3.134-8.945,7.451-14.91,8.181-18.7,12.089-1.377,1.418-2.913,4.039-2.728,9.274a11.544,11.544,0,0,0,3.546,6.82c2.61,2.285,4.866,1.624,6.718,4.028,2.081,2.7.778,5.544,2.225,6.39,1.119.654,3.572-.07,9.335-5.78-3.447-3.852-5.149-7.653-3.932-9.559a3.21,3.21,0,0,1,2.343-1.449,3.107,3.107,0,0,1,2.248,1.449Z" transform="translate(-1500.425 -571.403)" fill="#1d1320"/>
      </g>
      <g id="Group_47779" data-name="Group 47779" transform="translate(50.878)">
        <g id="Group_47776" data-name="Group 47776" transform="translate(227.399 122.573)">
          <path id="Path_102382" data-name="Path 102382" d="M1665.738,621.683l12.566-7.471a7.334,7.334,0,0,0,2.759-2.919l3.135-6.019a.923.923,0,0,0-1.4-1.143l-6.988,5.676a8.363,8.363,0,0,1-3.374,1.652l-10.09,2.483-2.312-4.7a3.88,3.88,0,0,0-3.665-2.164l2.618,11.366-3.078,10.65,7.8,2.5Z" transform="translate(-1654.595 -602.607)" fill="#fff"/>
          <path id="Path_102383" data-name="Path 102383" d="M1663.518,632.724a1.293,1.293,0,0,1-.4-.063l-7.8-2.5a1.313,1.313,0,0,1-.86-1.616l2.983-10.323-2.542-11.034a1.314,1.314,0,0,1,1.218-1.607,5.153,5.153,0,0,1,4.906,2.9l1.846,3.753,9.064-2.23a7.107,7.107,0,0,0,2.86-1.4l6.987-5.675a2.236,2.236,0,0,1,3.394,2.768l-3.135,6.02a8.661,8.661,0,0,1-3.252,3.441l-12.069,7.174-1.917,9.346a1.313,1.313,0,0,1-1.286,1.049Zm-6.18-4.678,5.188,1.666,1.739-8.48a1.311,1.311,0,0,1,.615-.864l12.567-7.471a6.038,6.038,0,0,0,2.265-2.4l2.264-4.344-5.524,4.486a9.75,9.75,0,0,1-3.9,1.913l-10.075,2.479a1.314,1.314,0,0,1-1.493-.7l-2.312-4.7a2.566,2.566,0,0,0-.708-.879l2.121,9.206a1.317,1.317,0,0,1-.018.66Z" transform="translate(-1654.408 -602.421)" fill="#1d1320"/>
        </g>
        <g id="Group_47777" data-name="Group 47777" transform="translate(76.574)">
          <path id="Path_102384" data-name="Path 102384" d="M1489.178,488.454s3.679-4.385,7.661-3.994a51.348,51.348,0,0,0,7.3.19s-.2-3.227-2.394-3.108l-2.189.119-2.135-.781,8.338-16.931-5.47.927a4.448,4.448,0,0,0-2.779,1.671L1483.673,484.5Z" transform="translate(-1482.36 -462.635)" fill="#fff"/>
          <path id="Path_102385" data-name="Path 102385" d="M1488.989,489.581a1.309,1.309,0,0,1-.765-.246l-5.5-3.951a1.315,1.315,0,0,1-.274-1.87l13.838-17.956a5.745,5.745,0,0,1,3.6-2.163l5.47-.927a1.313,1.313,0,0,1,1.4,1.875l-7.693,15.62.509.186,1.919-.1c2.394-.128,3.638,2.155,3.777,4.336a1.313,1.313,0,0,1-1.231,1.394,52.39,52.39,0,0,1-7.51-.194c-2.673-.272-5.622,2.462-6.528,3.533A1.311,1.311,0,0,1,1488.989,489.581Zm-3.633-5.54,3.471,2.492c1.436-1.4,4.528-3.9,7.954-3.568a51.82,51.82,0,0,0,5.505.233c-.152-.312-.373-.571-.655-.532l-2.189.119a1.385,1.385,0,0,1-.523-.078l-2.136-.781a1.313,1.313,0,0,1-.727-1.814l7.2-14.626-2.937.5a3.131,3.131,0,0,0-1.959,1.177Z" transform="translate(-1482.173 -462.448)" fill="#1d1320"/>
        </g>
        <g id="Group_47778" data-name="Group 47778" transform="translate(93.789 202.118)">
          <path id="Path_102386" data-name="Path 102386" d="M1551.919,694.793l-7.752,58.754a197.116,197.116,0,0,1-40.835,1.4S1529.5,693.051,1551.919,694.793Z" transform="translate(-1502.018 -693.444)" fill="#b979ce"/>
          <path id="Path_102387" data-name="Path 102387" d="M1516.183,756.586c-4.24,0-8.69-.146-13.147-.519a1.313,1.313,0,0,1-1.1-1.821c1.084-2.562,26.765-62.763,49.9-60.948a1.312,1.312,0,0,1,1.2,1.481l-7.751,58.753a1.316,1.316,0,0,1-1.1,1.126A206.875,206.875,0,0,1,1516.183,756.586Zm-11.093-3a199.535,199.535,0,0,0,37.718-1.389l7.428-56.3C1531.323,696.77,1509.354,744.009,1505.09,753.59Z" transform="translate(-1501.832 -693.258)" fill="#1d1320"/>
        </g>
        <path id="Path_102388" data-name="Path 102388" d="M1622.785,606.32l12.979,9.161c-16.29,37.757-35.643,50.8-50.053,55.836-24.8,8.662-40.182-4.6-57.933,7.761-20.015,13.934-11.219,44.493-30.827,69-10.682,13.352-48.089,8.735-53.619,8.682-5.635-.053-37.653-.36-46.418-19.3-3.085-6.668-2.192-13.273-1.553-18.01,1.192-8.818,5.305-15.318,20.573-34.291,11.135-13.837,12.668-14.918,16.069-19.429,7.391-9.8,15.835-25.485,18.84-50.618a113.166,113.166,0,0,1-12.941-60.548c2.81-39.645,26.154-64.9,32.915-71.73l10.853,7.971a91.108,91.108,0,0,0,11.916,108.867c6.815,7.489,33.171,34.041,72.88,31.71C1596.72,629.6,1616.688,612.12,1622.785,606.32Z" transform="translate(-1394.729 -464.982)" fill="#eaacff"/>
      </g>
    </g>
    <g id="Group_47788" data-name="Group 47788" transform="translate(1691.03 186.774)">
      <g id="Group_47787" data-name="Group 47787">
        <g id="Group_47783" data-name="Group 47783">
          <path id="Path_102389" data-name="Path 102389" d="M1815.426,241.155c-28.586,0-20.318.581-45.281,5.225l43.9,31.709a124.37,124.37,0,0,0,28.5,15.371c7.24,2.767,13.078,8.57,14.308,16.326,2.079,13.1,112.406,3.934-.95-64.556C1845.666,239.043,1821.539,241.155,1815.426,241.155Z" transform="translate(-1745.053 -193.491)" fill="#eaacff"/>
          <g id="Group_47782" data-name="Group 47782">
            <g id="Group_47781" data-name="Group 47781" transform="translate(20.907 25.251)">
              <path id="Path_102390" data-name="Path 102390" d="M1814.554,264.862a5.5,5.5,0,0,1-2.221-1.13l-9.978-8.273a2.909,2.909,0,0,0-3.4.229l-7.135,6.06a2.684,2.684,0,0,1-3.237.143l-9.026-6.19-4.4,1.418a.672.672,0,0,1-.839-.414l-2.892-8.112c-1.236-2.826-5.469-7.448-4.364-8.5,0,0,12.933-28.677,27.159-21.963a9.466,9.466,0,0,1,4.565,4.806l1.911,4.364c1.919,4.382,11.683,14.406,21.938,17.008a61.792,61.792,0,0,0,7.661.8,3.221,3.221,0,0,1,2.879,4.11,38.544,38.544,0,0,1-4.152,9.358,13.381,13.381,0,0,1-14.353,6.313Z" transform="translate(-1765.555 -215.797)" fill="#fff"/>
              <path id="Path_102391" data-name="Path 102391" d="M1817.352,266.342a14.12,14.12,0,0,1-3.162-.359l-.131-.031a6.871,6.871,0,0,1-2.752-1.395l-9.9-8.208a1.59,1.59,0,0,0-1.8.159l-7.126,6.053a4.013,4.013,0,0,1-4.829.225l-8.494-5.825-3.788,1.22a1.978,1.978,0,0,1-2.478-1.222l-2.876-8.068a26.8,26.8,0,0,0-2.109-3.444c-1.819-2.689-3.274-4.843-2.146-6.267.962-2.08,9.006-18.885,19.531-22.764a11.641,11.641,0,0,1,9.3.339,10.761,10.761,0,0,1,5.207,5.468l1.912,4.364c1.847,4.216,11.485,13.832,21.058,16.261a57.58,57.58,0,0,0,7.421.764,4.492,4.492,0,0,1,3.4,1.895,4.543,4.543,0,0,1,.664,3.882,39.857,39.857,0,0,1-4.29,9.679A14.8,14.8,0,0,1,1817.352,266.342Zm-16.728-12.825a4.239,4.239,0,0,1,2.235.638,1.319,1.319,0,0,1,.146.106l9.977,8.274a4.166,4.166,0,0,0,1.69.864l-.307,1.277.349-1.268a12.052,12.052,0,0,0,13-5.7,37.409,37.409,0,0,0,4.012-9.037,1.934,1.934,0,0,0-.279-1.651,1.853,1.853,0,0,0-1.42-.791,56.614,56.614,0,0,1-7.9-.84c-10.951-2.779-20.818-13.185-22.818-17.754l-1.912-4.364a8.135,8.135,0,0,0-3.922-4.146,8.984,8.984,0,0,0-7.272-.249c-9.963,3.671-18.048,21.386-18.129,21.564-.012.028-.026.055-.04.081a19.689,19.689,0,0,0,2.053,3.448,27.415,27.415,0,0,1,2.357,3.9.689.689,0,0,1,.034.085l2.683,7.526,3.809-1.226a1.312,1.312,0,0,1,1.146.166l9.026,6.19a1.38,1.38,0,0,0,1.652-.067l7.126-6.053A4.212,4.212,0,0,1,1800.625,253.517Zm-32.843-12.66,0,0Z" transform="translate(-1765.366 -215.61)" fill="#1d1320"/>
            </g>
            <path id="Path_102392" data-name="Path 102392" d="M1742.912,225.006c3.336-6.3,8.841-3.459,12.033-21.35,1.919-10.756,10.558.349,11.294-2.387,2.716-10.11,2.612-9.768,6.261-13.293,2.416-2.334,8.651-1.022,12.174,1.831,4.649,3.766,9.3,14.326,14.763,24.562,2.831,5.3.447,13.641-9.562,12.031-3.132-.5-3.335-5.373-6.079-4.815-7.133,1.45-1.268,7.486-5.449,9.6-4.015,2.027-6.158,2.576-11.343,4.157-6.275,1.913-6.045,9.3-16.007,6.632C1745.8,240.581,1738.345,233.634,1742.912,225.006Z" transform="translate(-1741.491 -186.774)" fill="#1d1320"/>
          </g>
        </g>
        <g id="Group_47786" data-name="Group 47786" transform="translate(27.069 89.461)">
          <g id="Group_47785" data-name="Group 47785" transform="translate(0 9.716)">
            <g id="Group_47784" data-name="Group 47784">
              <path id="Path_102393" data-name="Path 102393" d="M1811.911,367.322s58.551-12.963,53.327-65.791l40.056,8.127s12.5,67.458-87.976,70.487c0,0-16.881,11.306-21.447,10.986s-16.877-6.611-16.83-8.673l-4.278-4.2a2.874,2.874,0,0,1-.848-1.784,2.675,2.675,0,0,1,3.036-2.9l18.706,2.638,1.273-.748a3.479,3.479,0,0,0,.792-5.364l-6.556-7.089a1.635,1.635,0,0,1,.377-2.524Z" transform="translate(-1772.589 -300.217)" fill="#fff"/>
              <path id="Path_102394" data-name="Path 102394" d="M1795.845,392.262c-.088,0-.172,0-.254-.008-3.96-.279-16.233-5.736-17.87-9.254l-4.066-3.992a4.2,4.2,0,0,1-1.235-2.6,3.989,3.989,0,0,1,4.527-4.32l18.252,2.575.879-.516a2.167,2.167,0,0,0,.491-3.34l-6.555-7.088a2.948,2.948,0,0,1,.681-4.551,1.3,1.3,0,0,1,1.077-.109l20.012,6.71a89.163,89.163,0,0,0,27.871-12.84c18.1-12.769,26.2-30.081,24.087-51.456a1.313,1.313,0,0,1,1.568-1.417l40.056,8.128a1.312,1.312,0,0,1,1.031,1.047,56.788,56.788,0,0,1-11.9,43.122c-14.534,18.019-40.421,27.744-76.95,28.906C1814.11,383.547,1800.7,392.261,1795.845,392.262Zm-15.688-10.148c.979,1.694,11.306,7.216,15.619,7.52,3.006.232,14.241-6.492,20.623-10.767a1.3,1.3,0,0,1,.692-.222c35.925-1.083,61.28-10.484,75.36-27.941,13.523-16.766,12.028-35.88,11.49-40.128l-37.431-7.595c1.974,26.865-12.64,43.156-25.408,52.143a89.571,89.571,0,0,1-29.094,13.294,1.327,1.327,0,0,1-.7-.038l-19.411-6.51a.333.333,0,0,0,.047.066l6.555,7.088a4.795,4.795,0,0,1-1.09,7.39l-1.273.747a1.323,1.323,0,0,1-.849.168l-18.707-2.638a1.362,1.362,0,0,0-1.546,1.475,1.569,1.569,0,0,0,.461.969l4.277,4.2A1.316,1.316,0,0,1,1780.157,382.115Zm.01.184v0Z" transform="translate(-1772.403 -300.031)" fill="#1d1320"/>
            </g>
          </g>
          <path id="Path_102395" data-name="Path 102395" d="M1855.927,293.377l56.011-4.442c21.189,29.607,3.249,88.92-52.537,92.3l-11.03-34.831C1869.747,332.948,1874.5,315.437,1855.927,293.377Z" transform="translate(-1781.847 -288.935)" fill="#eaacff"/>
        </g>
      </g>
    </g>
  </g>
</svg>
