<svg xmlns="http://www.w3.org/2000/svg" width="708.368" height="707.831" viewBox="0 0 708.368 707.831">
  <g id="Cross-platform_software" data-name="Cross-platform software" transform="translate(-1334.714 -188.094)">
    <path id="Path_102396" data-name="Path 102396" d="M1535.872,212.128c-42.768,14.767-81.736,37.261-113.706,68.84-84.826,83.79-98.138,205.765-77.454,314.566,4.1,21.589,5.961,43.517,10.107,65.1,13.33,69.376,51.693,135.141,110.325,178.76,58.773,43.725,151.617,68.624,224.839,48.691,22.493-6.123,41.976-20.943,48.883-42.888,15-47.658,32.621-82.014,80.892-106.636,35.663-18.191,75.492-28.357,110.3-48,88.939-50.184,127.308-155.019,108.58-249.4-14.15-71.315-57.351-147.2-118.978-190.838-46.113-32.651-105.826-46.963-161.557-56.195C1685.293,182.069,1605.479,188.093,1535.872,212.128Z" transform="translate(-0.206 0)" fill="#e7c7ff"/>
    <g id="Group_47802" data-name="Group 47802" transform="translate(1337.238 329.661)">
      <g id="Group_47797" data-name="Group 47797">
        <g id="Group_47790" data-name="Group 47790" transform="translate(155.555)">
          <path id="Path_102397" data-name="Path 102397" d="M1904.947,747.715c-14.023-10.022-28.539-19.366-43.288-28.276-29.938-18.087-60.981-34.256-92.238-49.921-16.442-8.241-33.32-15.7-50.035-23.368q-25.223-11.572-50.511-23-23.1-10.473-46.174-20.987c-51.219-108.707-107.757-231.949-100.82-231.949L2046.5,355.33a22.533,22.533,0,0,1,22.507,22.508v364.3a22.533,22.533,0,0,1-22.507,22.507H1929.175C1921.235,758.819,1912.953,753.436,1904.947,747.715Z" transform="translate(-1520.003 -354.05)" fill="#e7c7ff"/>
          <path id="Path_102398" data-name="Path 102398" d="M2046.282,765.71H1928.533l-.338-.249c-4.452-3.268-9.1-6.453-13.588-9.534-3.5-2.4-7.116-4.881-10.627-7.388h0c-12.9-9.217-27.029-18.449-43.206-28.222-31.552-19.064-64.287-35.908-92.149-49.873-12.714-6.372-25.909-12.375-38.67-18.18q-5.668-2.579-11.325-5.168c-16.592-7.612-33.359-15.223-50.507-23-15.11-6.852-30.735-13.937-46.175-20.989l-.427-.194-.2-.425c-106.089-225.159-102.5-230.823-101.144-232.955a1.729,1.729,0,0,1,1.483-.821l524.586-14.881a23.823,23.823,0,0,1,23.825,23.789v364.3A23.816,23.816,0,0,1,2046.282,765.71Zm-116.91-2.563h116.91a21.249,21.249,0,0,0,21.226-21.226V377.62a21.25,21.25,0,0,0-21.226-21.227l-523.958,14.863c-.182,5.513,13.586,43.937,101.113,229.715,15.3,6.985,30.774,14,45.743,20.791,17.151,7.777,33.92,15.39,50.517,23q5.649,2.592,11.318,5.163c12.783,5.815,26,11.829,38.757,18.222,27.906,13.986,60.7,30.861,92.325,49.97,16.234,9.808,30.42,19.075,43.371,28.33h0c3.49,2.494,7.1,4.97,10.587,7.362C1920.451,756.828,1924.992,759.941,1929.372,763.147ZM1521.734,371.273h0Z" transform="translate(-1519.781 -353.831)" fill="#1d1320"/>
        </g>
        <g id="Group_47792" data-name="Group 47792" transform="translate(117.48 1.272)">
          <g id="Group_47791" data-name="Group 47791">
            <rect id="Rectangle_4080" data-name="Rectangle 4080" width="573.823" height="406.772" rx="24.861" transform="translate(1.281 1.281)" fill="#fff"/>
            <path id="Path_102399" data-name="Path 102399" d="M2029.075,764.655H1497.722a22.541,22.541,0,0,1-22.516-22.517v-364.3a22.542,22.542,0,0,1,22.516-22.517h531.353a22.542,22.542,0,0,1,22.516,22.517v364.3A22.542,22.542,0,0,1,2029.075,764.655ZM1497.722,357.882a19.976,19.976,0,0,0-19.953,19.954v364.3a19.976,19.976,0,0,0,19.953,19.954h531.353a19.976,19.976,0,0,0,19.953-19.954v-364.3a19.976,19.976,0,0,0-19.953-19.954Z" transform="translate(-1475.206 -355.32)" fill="#1d1320"/>
          </g>
        </g>
        <g id="Group_47795" data-name="Group 47795" transform="translate(0 409.666)">
          <g id="Group_47793" data-name="Group 47793" transform="translate(446.028)">
            <path id="Path_102400" data-name="Path 102400" d="M1870.5,834.939h216.915a15.86,15.86,0,1,1,0,31.72H1864.018C1855.273,866.659,1870.5,834.939,1870.5,834.939Z" transform="translate(-1860.06 -833.658)" fill="#e7c7ff"/>
            <path id="Path_102401" data-name="Path 102401" d="M2087.2,867.721H1863.805a3.544,3.544,0,0,1-3.159-1.676c-3.681-5.85,6.42-27.582,8.482-31.879l.349-.727H2087.2a17.141,17.141,0,0,1,0,34.282ZM1871.093,836c-4.507,9.544-10.488,25.166-8.278,28.68a1.009,1.009,0,0,0,.99.477H2087.2a14.579,14.579,0,0,0,0-29.157Z" transform="translate(-1859.846 -833.439)" fill="#1d1320"/>
          </g>
          <g id="Group_47794" data-name="Group 47794">
            <path id="Path_102402" data-name="Path 102402" d="M1355.029,834.939h512.044a15.86,15.86,0,0,1,0,31.72H1355.029a15.86,15.86,0,1,1,0-31.72Z" transform="translate(-1337.888 -833.658)" fill="#e7c7ff"/>
            <path id="Path_102403" data-name="Path 102403" d="M1866.854,867.721H1354.81a17.141,17.141,0,0,1,0-34.282h512.044a17.141,17.141,0,1,1,0,34.282ZM1354.81,836a14.579,14.579,0,0,0,0,29.157h512.044a14.579,14.579,0,1,0,0-29.157Z" transform="translate(-1337.669 -833.439)" fill="#1d1320"/>
          </g>
        </g>
        <g id="Group_47796" data-name="Group 47796" transform="translate(139.26 17.928)">
          <path id="Path_102404" data-name="Path 102404" d="M1520.539,374.82h496.285a19.865,19.865,0,0,1,19.833,19.9V736.07a19.866,19.866,0,0,1-19.833,19.9H1520.539a19.866,19.866,0,0,1-19.834-19.9V394.717A19.866,19.866,0,0,1,1520.539,374.82Z" transform="translate(-1500.705 -374.82)" fill="#fff1d5"/>
        </g>
      </g>
      <g id="Group_47801" data-name="Group 47801" transform="translate(138.882 18.082)">
        <path id="Path_102405" data-name="Path 102405" d="M2036.68,406.889l.57-12.324c0-10.89-9.259-19.565-20.212-19.565H1520.752a19.722,19.722,0,0,0-19.921,19.565l-.57,15.172Z" transform="translate(-1500.262 -375)" fill="#eaacff"/>
        <g id="Group_47798" data-name="Group 47798" transform="translate(18.93 13.244)">
          <circle id="Ellipse_4810" data-name="Ellipse 4810" cx="6.406" cy="6.406" r="6.406" transform="translate(0 0.427)" fill="#e7c7ff"/>
          <circle id="Ellipse_4811" data-name="Ellipse 4811" cx="6.406" cy="6.406" r="6.406" transform="translate(20.5)" fill="#e7c7ff"/>
          <circle id="Ellipse_4812" data-name="Ellipse 4812" cx="6.406" cy="6.406" r="6.406" transform="translate(42.708 0.854)" fill="#e7c7ff"/>
        </g>
        <path id="Rectangle_4081" data-name="Rectangle 4081" d="M11.249,0h468.2A11.249,11.249,0,0,1,490.7,11.249V226.21a11.249,11.249,0,0,1-11.249,11.249H11.25A11.25,11.25,0,0,1,0,226.21V11.249A11.249,11.249,0,0,1,11.249,0Z" transform="translate(24.153 82)" fill="#eaacff"/>
        <g id="Group_47799" data-name="Group 47799" transform="translate(42.09 97.872)">
          <rect id="Rectangle_4082" data-name="Rectangle 4082" width="73.794" height="18.727" transform="translate(2.561)" fill="#e7c7ff"/>
          <rect id="Rectangle_4083" data-name="Rectangle 4083" width="262.23" height="18.727" transform="translate(121.626 0.832)" fill="#e7c7ff"/>
          <rect id="Rectangle_4084" data-name="Rectangle 4084" width="73.794" height="18.727" transform="translate(1.707 93.225)" fill="#e7c7ff"/>
          <rect id="Rectangle_4085" data-name="Rectangle 4085" width="262.23" height="18.727" transform="translate(120.772 94.057)" fill="#e7c7ff"/>
          <rect id="Rectangle_4086" data-name="Rectangle 4086" width="73.795" height="18.727" transform="translate(0 184.782)" fill="#e7c7ff"/>
          <rect id="Rectangle_4087" data-name="Rectangle 4087" width="262.23" height="18.727" transform="translate(119.065 185.614)" fill="#e7c7ff"/>
          <rect id="Rectangle_4088" data-name="Rectangle 4088" width="68.697" height="18.727" transform="translate(121.312 32.46)" fill="#e7c7ff"/>
          <rect id="Rectangle_4089" data-name="Rectangle 4089" width="244.117" height="18.727" transform="translate(199.531 33.293)" fill="#e7c7ff"/>
          <rect id="Rectangle_4090" data-name="Rectangle 4090" width="68.697" height="18.727" transform="translate(120.458 63.257)" fill="#e7c7ff"/>
          <rect id="Rectangle_4091" data-name="Rectangle 4091" width="244.117" height="18.727" transform="translate(198.677 64.089)" fill="#e7c7ff"/>
          <rect id="Rectangle_4092" data-name="Rectangle 4092" width="68.697" height="18.727" transform="translate(120.458 124.853)" fill="#e7c7ff"/>
          <rect id="Rectangle_4093" data-name="Rectangle 4093" width="244.117" height="18.727" transform="translate(198.677 125.685)" fill="#e7c7ff"/>
          <rect id="Rectangle_4094" data-name="Rectangle 4094" width="68.697" height="18.727" transform="translate(119.604 155.649)" fill="#e7c7ff"/>
          <rect id="Rectangle_4095" data-name="Rectangle 4095" width="244.117" height="18.727" transform="translate(197.823 156.482)" fill="#e7c7ff"/>
        </g>
        <g id="Group_47800" data-name="Group 47800" transform="translate(27.05 45.739)">
          <rect id="Rectangle_4096" data-name="Rectangle 4096" width="358.565" height="18.727" transform="translate(0 0.854)" fill="#eaacff"/>
          <rect id="Rectangle_4097" data-name="Rectangle 4097" width="55.228" height="18.727" transform="translate(429.938)" fill="#eaacff"/>
        </g>
        <rect id="Rectangle_4098" data-name="Rectangle 4098" width="491.147" height="18.727" transform="translate(22.778 337.865)" fill="#eaacff"/>
      </g>
    </g>
    <g id="Group_47808" data-name="Group 47808" transform="translate(1760.048 426.01)">
      <g id="Group_47803" data-name="Group 47803">
        <rect id="Rectangle_4099" data-name="Rectangle 4099" width="236.746" height="431.585" rx="26.003" transform="translate(238.028 432.867) rotate(180)" fill="#915aa3"/>
        <path id="Path_102406" data-name="Path 102406" d="M2048.482,900.777H1856.157a23.519,23.519,0,0,1-23.492-23.491V490.121a23.519,23.519,0,0,1,23.492-23.492h192.324a23.519,23.519,0,0,1,23.492,23.492V877.285A23.519,23.519,0,0,1,2048.482,900.777ZM1856.157,469.191a20.953,20.953,0,0,0-20.93,20.93V877.285a20.953,20.953,0,0,0,20.93,20.929h192.324a20.953,20.953,0,0,0,20.93-20.929V490.121a20.954,20.954,0,0,0-20.93-20.93Z" transform="translate(-1832.665 -466.629)" fill="#1d1320"/>
      </g>
      <rect id="Rectangle_4100" data-name="Rectangle 4100" width="388.955" height="213.268" rx="6.003" transform="translate(226.288 32.173) rotate(90)" fill="#fff1d5"/>
      <circle id="Ellipse_4813" data-name="Ellipse 4813" cx="5.986" cy="5.986" r="5.986" transform="translate(113.669 9.634)" fill="#eaacff"/>
      <g id="Group_47807" data-name="Group 47807" transform="translate(12.244 31.921)">
        <path id="Path_102407" data-name="Path 102407" d="M1847,534.75V509.379a5.655,5.655,0,0,1,5.477-5.379h203.012a5.285,5.285,0,0,1,5.053,5.379V534.75Z" transform="translate(-1847 -504)" fill="#e7c7ff"/>
        <g id="Group_47804" data-name="Group 47804" transform="translate(150.989 9.823)">
          <circle id="Ellipse_4814" data-name="Ellipse 4814" cx="6.406" cy="6.406" r="6.406" transform="translate(42.708 0.427)" fill="#eaacff"/>
          <circle id="Ellipse_4815" data-name="Ellipse 4815" cx="6.406" cy="6.406" r="6.406" transform="translate(22.208)" fill="#eaacff"/>
          <circle id="Ellipse_4816" data-name="Ellipse 4816" cx="6.406" cy="6.406" r="6.406" transform="translate(0 0.854)" fill="#eaacff"/>
        </g>
        <rect id="Rectangle_4101" data-name="Rectangle 4101" width="196.459" height="257.959" rx="5" transform="translate(204.37 337.397) rotate(180)" fill="#e7c7ff"/>
        <g id="Group_47805" data-name="Group 47805" transform="translate(14.745 105.563)">
          <rect id="Rectangle_4102" data-name="Rectangle 4102" width="30.46" height="18.727" transform="translate(182.069 18.727) rotate(180)" fill="#fff1d5"/>
          <rect id="Rectangle_4103" data-name="Rectangle 4103" width="108.242" height="18.727" transform="translate(132.922 19.56) rotate(180)" fill="#fff1d5"/>
          <rect id="Rectangle_4104" data-name="Rectangle 4104" width="30.46" height="18.727" transform="translate(182.422 111.953) rotate(180)" fill="#fff1d5"/>
          <rect id="Rectangle_4105" data-name="Rectangle 4105" width="108.242" height="18.727" transform="translate(133.275 112.785) rotate(180)" fill="#fff1d5"/>
          <rect id="Rectangle_4106" data-name="Rectangle 4106" width="30.46" height="18.727" transform="translate(183.126 203.509) rotate(180)" fill="#fff1d5"/>
          <rect id="Rectangle_4107" data-name="Rectangle 4107" width="108.242" height="18.727" transform="translate(133.979 204.342) rotate(180)" fill="#fff1d5"/>
          <rect id="Rectangle_4108" data-name="Rectangle 4108" width="28.356" height="18.727" transform="translate(133.052 51.188) rotate(180)" fill="#fff1d5"/>
          <rect id="Rectangle_4109" data-name="Rectangle 4109" width="100.765" height="18.727" transform="translate(100.765 52.02) rotate(180)" fill="#fff1d5"/>
          <rect id="Rectangle_4110" data-name="Rectangle 4110" width="28.356" height="18.727" transform="translate(133.404 81.984) rotate(180)" fill="#fff1d5"/>
          <rect id="Rectangle_4111" data-name="Rectangle 4111" width="100.765" height="18.727" transform="translate(101.118 82.816) rotate(180)" fill="#fff1d5"/>
          <rect id="Rectangle_4112" data-name="Rectangle 4112" width="28.356" height="18.727" transform="translate(133.404 143.581) rotate(180)" fill="#fff1d5"/>
          <rect id="Rectangle_4113" data-name="Rectangle 4113" width="100.765" height="18.727" transform="translate(101.118 144.413) rotate(180)" fill="#fff1d5"/>
          <rect id="Rectangle_4114" data-name="Rectangle 4114" width="28.356" height="18.727" transform="translate(133.757 174.377) rotate(180)" fill="#fff1d5"/>
          <rect id="Rectangle_4115" data-name="Rectangle 4115" width="100.765" height="18.727" transform="translate(101.47 175.209) rotate(180)" fill="#fff1d5"/>
        </g>
        <g id="Group_47806" data-name="Group 47806" transform="translate(7.057 48.301)">
          <rect id="Rectangle_4116" data-name="Rectangle 4116" width="143.93" height="18.727" transform="translate(196.458 19.582) rotate(180)" fill="#e7c7ff"/>
          <rect id="Rectangle_4117" data-name="Rectangle 4117" width="33.313" height="18.727" transform="translate(33.313 18.727) rotate(180)" fill="#e7c7ff"/>
        </g>
        <rect id="Rectangle_4118" data-name="Rectangle 4118" width="193.896" height="18.727" transform="translate(203.517 371.975) rotate(180)" fill="#e7c7ff"/>
      </g>
      <path id="Path_102408" data-name="Path 102408" d="M2055.83,894.311H1852.818a6.416,6.416,0,0,1-6.409-6.409V509.2a6.416,6.416,0,0,1,6.409-6.409H2055.83a6.416,6.416,0,0,1,6.409,6.409V887.9A6.416,6.416,0,0,1,2055.83,894.311ZM1852.818,505.357a3.851,3.851,0,0,0-3.846,3.846V887.9a3.85,3.85,0,0,0,3.846,3.846H2055.83a3.85,3.85,0,0,0,3.846-3.846V509.2a3.851,3.851,0,0,0-3.846-3.846Z" transform="translate(-1834.669 -471.903)" fill="#1d1320"/>
    </g>
    <g id="Group_47812" data-name="Group 47812" transform="translate(1524.41 368.094)">
      <g id="Group_47810" data-name="Group 47810" transform="translate(119.672)">
        <path id="Path_102409" data-name="Path 102409" d="M1745.24,490.8a38.274,38.274,0,0,0,6.442.012l4.689,8.931,8.932-2.393-.4-10.094a38.707,38.707,0,0,0,5.573-3.216l8.538,5.4,6.539-6.538-5.386-8.528a38.271,38.271,0,0,0,3.212-5.584l10.091.4,2.4-8.931-8.941-4.7a38.262,38.262,0,0,0,.012-6.441l8.931-4.689-2.392-8.932-10.094.4a38.777,38.777,0,0,0-3.217-5.573l5.4-8.539-6.538-6.54-8.527,5.387a38.249,38.249,0,0,0-5.585-3.213l.405-10.091-8.931-2.4-4.7,8.941a38.273,38.273,0,0,0-6.442-.012l-4.689-8.93-8.932,2.392.4,10.093a38.913,38.913,0,0,0-5.573,3.217l-8.539-5.4-6.539,6.538,5.387,8.528a38.394,38.394,0,0,0-3.212,5.584l-10.091-.4-2.394,8.931,8.94,4.7a38.269,38.269,0,0,0-.012,6.443l-8.93,4.689,2.392,8.931,10.094-.4a38.849,38.849,0,0,0,3.216,5.573l-5.4,8.539,6.537,6.54,8.528-5.387a38.214,38.214,0,0,0,5.585,3.213l-.4,10.091,8.931,2.4Zm-2.94-15.468a23.8,23.8,0,1,1,29.156-16.827A23.8,23.8,0,0,1,1742.3,475.332Z" transform="translate(-1697.506 -399.717)" fill="#915aa3"/>
        <g id="Group_47809" data-name="Group 47809">
          <path id="Path_102410" data-name="Path 102410" d="M1742.578,486.188a38.37,38.37,0,0,0,6.443.012l4.69,8.93,8.931-2.392-.4-10.094a38.844,38.844,0,0,0,5.573-3.217l8.538,5.4,6.54-6.537-5.387-8.528a38.272,38.272,0,0,0,3.213-5.585l10.091.4,2.4-8.931-8.941-4.7a38.3,38.3,0,0,0,.012-6.442l8.931-4.689-2.392-8.932-10.093.4a38.869,38.869,0,0,0-3.217-5.573l5.4-8.539-6.538-6.539-8.528,5.386a38.383,38.383,0,0,0-5.584-3.212l.4-10.091-8.931-2.394-4.7,8.94a38.373,38.373,0,0,0-6.443-.012l-4.688-8.93-8.932,2.392.4,10.094a38.762,38.762,0,0,0-5.573,3.217l-8.539-5.4-6.54,6.537,5.387,8.528a38.34,38.34,0,0,0-3.213,5.585l-10.091-.4-2.4,8.931,8.94,4.7a38.3,38.3,0,0,0-.012,6.442l-8.93,4.689,2.391,8.932,10.094-.4a38.825,38.825,0,0,0,3.216,5.573l-5.4,8.538,6.538,6.54,8.528-5.386a38.35,38.35,0,0,0,5.584,3.213l-.405,10.091,8.931,2.394Zm-2.94-15.469a23.8,23.8,0,1,1,29.156-16.827A23.8,23.8,0,0,1,1739.638,470.719Z" transform="translate(-1697.119 -399.044)" fill="#fff"/>
          <path id="Path_102411" data-name="Path 102411" d="M1753.49,496.193a1.28,1.28,0,0,1-1.134-.685l-4.3-8.188a40.151,40.151,0,0,1-4.955-.01l-4.307,8.2a1.286,1.286,0,0,1-1.466.642l-8.931-2.4a1.282,1.282,0,0,1-.948-1.29l.372-9.251a39.832,39.832,0,0,1-4.3-2.469l-7.819,4.939a1.283,1.283,0,0,1-1.591-.178l-6.538-6.539a1.285,1.285,0,0,1-.177-1.591l4.95-7.829a40.316,40.316,0,0,1-2.473-4.283l-9.256.368a1.276,1.276,0,0,1-1.288-.949l-2.392-8.932a1.28,1.28,0,0,1,.641-1.466l8.188-4.3a40.006,40.006,0,0,1,.01-4.955l-8.2-4.307a1.281,1.281,0,0,1-.641-1.467l2.394-8.931a1.265,1.265,0,0,1,1.289-.948l9.251.371a39.668,39.668,0,0,1,2.469-4.295l-4.939-7.819a1.281,1.281,0,0,1,.177-1.59l6.539-6.537a1.279,1.279,0,0,1,1.591-.177l7.831,4.949a40.417,40.417,0,0,1,4.283-2.472l-.368-9.256a1.281,1.281,0,0,1,.948-1.289l8.933-2.392a1.282,1.282,0,0,1,1.466.642l4.3,8.188a39.492,39.492,0,0,1,4.955.01l4.307-8.2a1.281,1.281,0,0,1,1.466-.642l8.931,2.394a1.282,1.282,0,0,1,.948,1.289l-.372,9.252a39.633,39.633,0,0,1,4.3,2.469l7.819-4.939a1.28,1.28,0,0,1,1.59.178l6.538,6.54a1.281,1.281,0,0,1,.177,1.59l-4.949,7.829a40.234,40.234,0,0,1,2.472,4.284l9.255-.368a1.285,1.285,0,0,1,1.289.95l2.393,8.931a1.283,1.283,0,0,1-.642,1.466l-8.188,4.3a39.818,39.818,0,0,1-.01,4.955l8.2,4.307a1.281,1.281,0,0,1,.642,1.466l-2.4,8.932a1.306,1.306,0,0,1-1.29.948l-9.25-.372a39.967,39.967,0,0,1-2.469,4.3l4.939,7.819a1.28,1.28,0,0,1-.178,1.59l-6.54,6.538a1.28,1.28,0,0,1-1.591.177l-7.829-4.949a40.406,40.406,0,0,1-4.283,2.472l.367,9.256a1.282,1.282,0,0,1-.949,1.289l-8.932,2.393A1.3,1.3,0,0,1,1753.49,496.193ZM1748.8,484.7a1.281,1.281,0,0,1,1.134.686l4.214,8.025,6.953-1.863-.361-9.07a1.28,1.28,0,0,1,.734-1.209,37.627,37.627,0,0,0,5.389-3.111,1.282,1.282,0,0,1,1.415-.03l7.672,4.85,5.091-5.088-4.841-7.663a1.283,1.283,0,0,1,.031-1.415,37.249,37.249,0,0,0,3.1-5.4,1.256,1.256,0,0,1,1.211-.736l9.066.364,1.865-6.953-8.033-4.22a1.282,1.282,0,0,1-.681-1.243,36.968,36.968,0,0,0,.011-6.227,1.282,1.282,0,0,1,.682-1.241l8.024-4.214-1.863-6.952-9.069.36a1.28,1.28,0,0,1-1.21-.734,37.533,37.533,0,0,0-3.111-5.389,1.282,1.282,0,0,1-.03-1.415l4.85-7.672-5.088-5.091-7.663,4.841a1.286,1.286,0,0,1-1.415-.032,37.127,37.127,0,0,0-5.4-3.1,1.282,1.282,0,0,1-.736-1.211l.365-9.067-6.952-1.864-4.221,8.033a1.293,1.293,0,0,1-1.243.681,37.082,37.082,0,0,0-6.228-.012,1.293,1.293,0,0,1-1.241-.681l-4.213-8.024-6.953,1.862.361,9.07a1.283,1.283,0,0,1-.734,1.21,37.785,37.785,0,0,0-5.39,3.11,1.279,1.279,0,0,1-1.414.03l-7.674-4.85-5.09,5.089,4.84,7.663a1.283,1.283,0,0,1-.031,1.415,37.126,37.126,0,0,0-3.1,5.4,1.3,1.3,0,0,1-1.211.736l-9.068-.364-1.864,6.952,8.033,4.221a1.282,1.282,0,0,1,.681,1.243,37.058,37.058,0,0,0-.012,6.227,1.281,1.281,0,0,1-.682,1.241l-8.023,4.214,1.861,6.952,9.071-.361a1.292,1.292,0,0,1,1.209.735,37.689,37.689,0,0,0,3.111,5.389,1.282,1.282,0,0,1,.03,1.415l-4.85,7.672,5.089,5.09,7.662-4.84a1.285,1.285,0,0,1,1.416.032,37.094,37.094,0,0,0,5.4,3.1,1.281,1.281,0,0,1,.736,1.211l-.365,9.067,6.953,1.865,4.22-8.033a1.287,1.287,0,0,1,1.243-.68,37.16,37.16,0,0,0,6.227.01C1748.73,484.7,1748.766,484.7,1748.8,484.7Zm-3.224-12.1a25.087,25.087,0,1,1,24.236-18.591A25.074,25.074,0,0,1,1745.577,472.6Zm.011-47.612a22.532,22.532,0,1,0,5.827.771A22.563,22.563,0,0,0,1745.588,424.984Z" transform="translate(-1696.899 -398.825)" fill="#1d1320"/>
        </g>
      </g>
      <g id="Group_47811" data-name="Group 47811" transform="translate(0 80.929)">
        <path id="Path_102412" data-name="Path 102412" d="M1638.449,649.891a65.543,65.543,0,0,0,11.024.021l8.024,15.282,15.285-4.093-.687-17.272a66.424,66.424,0,0,0,9.536-5.5l14.611,9.236,11.19-11.187-9.217-14.593a65.541,65.541,0,0,0,5.5-9.556l17.268.693,4.1-15.283-15.3-8.039a65.6,65.6,0,0,0,.02-11.023l15.283-8.025-4.093-15.284-17.272.687a66.437,66.437,0,0,0-5.5-9.536l9.236-14.611-11.187-11.19-14.593,9.218a65.618,65.618,0,0,0-9.556-5.5l.693-17.268-15.284-4.1-8.039,15.3a65.455,65.455,0,0,0-11.024-.021l-8.024-15.282-15.285,4.093.688,17.272a66.4,66.4,0,0,0-9.536,5.5L1591.69,520.6l-11.19,11.186,9.217,14.594a65.6,65.6,0,0,0-5.5,9.556l-17.268-.693-4.1,15.284,15.3,8.038a65.541,65.541,0,0,0-.02,11.025l-15.282,8.024,4.093,15.285,17.272-.688a66.45,66.45,0,0,0,5.5,9.536l-9.236,14.611,11.187,11.19,14.593-9.218a65.5,65.5,0,0,0,9.557,5.5l-.694,17.268,15.284,4.1Zm-5.031-26.469a40.733,40.733,0,1,1,49.891-28.795A40.733,40.733,0,0,1,1633.418,623.422Z" transform="translate(-1557.679 -494.941)" fill="#fff"/>
        <path id="Path_102413" data-name="Path 102413" d="M1652.723,658.363a1.281,1.281,0,0,1-1.134-.686l-7.633-14.535a67.006,67.006,0,0,1-9.54-.019l-7.646,14.55a1.286,1.286,0,0,1-1.466.642l-15.284-4.1a1.282,1.282,0,0,1-.948-1.29l.659-16.425a66.908,66.908,0,0,1-8.271-4.756l-13.88,8.769a1.283,1.283,0,0,1-1.59-.178l-11.187-11.19a1.283,1.283,0,0,1-.177-1.59l8.786-13.9a67.948,67.948,0,0,1-4.761-8.25l-16.43.654a1.294,1.294,0,0,1-1.289-.95l-4.093-15.284a1.282,1.282,0,0,1,.642-1.466l14.535-7.633a67.149,67.149,0,0,1,.019-9.54l-14.55-7.646a1.281,1.281,0,0,1-.641-1.467l4.1-15.282a1.269,1.269,0,0,1,1.289-.949l16.425.659a66.944,66.944,0,0,1,4.756-8.271l-8.768-13.88a1.278,1.278,0,0,1,.178-1.59l11.19-11.187a1.278,1.278,0,0,1,1.59-.177l13.9,8.785a68.152,68.152,0,0,1,8.25-4.762L1609.1,499a1.284,1.284,0,0,1,.949-1.289l15.285-4.093a1.283,1.283,0,0,1,1.467.642l7.632,14.535a67.385,67.385,0,0,1,9.54.019l7.646-14.55a1.279,1.279,0,0,1,1.466-.642l15.284,4.1a1.282,1.282,0,0,1,.948,1.29l-.659,16.423a67.135,67.135,0,0,1,8.27,4.757l13.88-8.768a1.281,1.281,0,0,1,1.59.178l11.187,11.19a1.284,1.284,0,0,1,.177,1.591l-8.786,13.9a67.876,67.876,0,0,1,4.762,8.25l16.43-.653a1.288,1.288,0,0,1,1.288.949l4.092,15.284a1.281,1.281,0,0,1-.641,1.466l-14.536,7.632a67.1,67.1,0,0,1-.019,9.539l14.551,7.647a1.283,1.283,0,0,1,.641,1.467l-4.1,15.283a1.255,1.255,0,0,1-1.289.948l-16.424-.659a67.15,67.15,0,0,1-4.756,8.271l8.767,13.88a1.279,1.279,0,0,1-.177,1.59l-11.19,11.187a1.281,1.281,0,0,1-1.591.177l-13.9-8.786a67.958,67.958,0,0,1-8.25,4.762l.654,16.431a1.283,1.283,0,0,1-.949,1.288l-15.285,4.093A1.3,1.3,0,0,1,1652.723,658.363Zm-8.024-17.845a1.283,1.283,0,0,1,1.134.686l7.548,14.376,13.3-3.564-.647-16.248a1.28,1.28,0,0,1,.734-1.209,65.41,65.41,0,0,0,9.353-5.4,1.283,1.283,0,0,1,1.415-.031l13.745,8.689,9.741-9.738-8.671-13.727a1.282,1.282,0,0,1,.031-1.416,64.442,64.442,0,0,0,5.39-9.369,1.3,1.3,0,0,1,1.211-.736l16.245.652,3.566-13.3-14.391-7.563a1.28,1.28,0,0,1-.68-1.243,64.53,64.53,0,0,0,.02-10.808,1.28,1.28,0,0,1,.682-1.241l14.374-7.548-3.563-13.3-16.248.647a1.277,1.277,0,0,1-1.209-.735,65.451,65.451,0,0,0-5.4-9.352,1.279,1.279,0,0,1-.031-1.415l8.689-13.746-9.738-9.74-13.727,8.671a1.282,1.282,0,0,1-1.416-.032,64.508,64.508,0,0,0-9.369-5.391,1.28,1.28,0,0,1-.735-1.211l.652-16.243-13.3-3.567-7.563,14.391a1.276,1.276,0,0,1-1.242.681,64.436,64.436,0,0,0-10.809-.021,1.294,1.294,0,0,1-1.242-.682L1625,496.355l-13.305,3.564.646,16.248a1.279,1.279,0,0,1-.734,1.209,65.328,65.328,0,0,0-9.352,5.4,1.279,1.279,0,0,1-1.414.03l-13.746-8.688-9.741,9.737,8.671,13.727A1.281,1.281,0,0,1,1586,539a64.4,64.4,0,0,0-5.39,9.369,1.3,1.3,0,0,1-1.211.735l-16.245-.652-3.567,13.3,14.392,7.561a1.283,1.283,0,0,1,.681,1.243,64.526,64.526,0,0,0-.02,10.809,1.283,1.283,0,0,1-.682,1.242l-14.375,7.548,3.563,13.3,16.249-.647a1.291,1.291,0,0,1,1.21.734,65.432,65.432,0,0,0,5.4,9.352,1.28,1.28,0,0,1,.031,1.415l-8.689,13.745,9.738,9.742,13.726-8.672a1.286,1.286,0,0,1,1.416.032,64.435,64.435,0,0,0,9.369,5.389,1.281,1.281,0,0,1,.735,1.211l-.652,16.245,13.3,3.566,7.563-14.39a1.286,1.286,0,0,1,1.242-.681,64.533,64.533,0,0,0,10.809.019C1644.628,640.52,1644.663,640.518,1644.7,640.518ZM1639.26,618a42.251,42.251,0,0,1-10.949-1.451h0A41.771,41.771,0,1,1,1639.26,618Zm-10.284-3.927a39.452,39.452,0,1,0-23.953-18.385A39.5,39.5,0,0,0,1628.976,614.073Z" transform="translate(-1556.796 -493.571)" fill="#1d1320"/>
      </g>
    </g>
    <path id="Path_102414" data-name="Path 102414" d="M1974.383,370.276l9.208-.256a2.02,2.02,0,0,1,1.737,3.14l-29.309,43.964a2.02,2.02,0,0,1-3.2.205L1916.177,375.2a2.02,2.02,0,0,1,1.468-3.345l10.529-.293c1.326-104.251-110.277-134.129-132.752-33.316l-42.991-.931C1776.552,182,1975.483,209.657,1974.383,370.276Z" transform="translate(-60.916 -6.729)" fill="#915aa3"/>
    <g id="Group_47837" data-name="Group 47837" transform="translate(1334.714 550.23)">
      <g id="Group_47813" data-name="Group 47813" transform="translate(15.822 30.724)">
        <path id="Path_102415" data-name="Path 102415" d="M1470.568,682.83v30.4c0,29.731,23.477,53.833,52.436,53.833h0c28.959,0,52.436,24.1,52.436,53.835h0a4.8,4.8,0,0,1-4.794,4.8h-138.8c-43.414,0-78.608-36.133-78.608-80.7V680.126c0-17.728,14-32.1,31.265-32.1h52.167C1455.391,648.026,1470.568,663.609,1470.568,682.83Z" transform="translate(-1353.237 -648.026)" fill="#915aa3"/>
        <rect id="Rectangle_4119" data-name="Rectangle 4119" width="12.578" height="146.452" transform="translate(113.898 308.597) rotate(180)" fill="#915aa3"/>
        <path id="Path_102416" data-name="Path 102416" d="M1528.158,1008.676l-55.666-4.888h-5.1l-56.829,4.888v3.877h117.6Z" transform="translate(-1361.596 -699.907)" fill="#915aa3"/>
      </g>
      <g id="Group_47833" data-name="Group 47833" transform="translate(31.257 0)">
        <g id="Group_47814" data-name="Group 47814" transform="translate(134.254 79.554)">
          <path id="Rectangle_4120" data-name="Rectangle 4120" d="M0,0H114.815a0,0,0,0,1,0,0V0a6.165,6.165,0,0,1-6.165,6.165H6.165A6.165,6.165,0,0,1,0,0V0A0,0,0,0,1,0,0Z" transform="translate(0 64.42)" fill="#1d1320"/>
          <path id="Path_102417" data-name="Path 102417" d="M1651.685,769.724h-65.7l20.873-61.443a6.866,6.866,0,0,1,5.764-3.088h55.537a3.447,3.447,0,0,1,3.319,4.6c-.327.858-.68,1.707-.966,2.579Z" transform="translate(-1536.868 -705.193)" fill="#1d1320"/>
          <ellipse id="Ellipse_4817" data-name="Ellipse 4817" cx="4.913" cy="4.272" rx="4.913" ry="4.272" transform="translate(89.023 36.149) rotate(-73.311)" fill="#fff"/>
        </g>
        <g id="Group_47824" data-name="Group 47824" transform="translate(28.848 134.904)">
          <g id="Group_47815" data-name="Group 47815" transform="translate(12.939 66.917)">
            <path id="Path_102418" data-name="Path 102418" d="M1434.766,849.835l-13.037,12.3,8.919,7.539,15.527-11.1Z" transform="translate(-1420.448 -848.553)" fill="#fff"/>
            <path id="Path_102419" data-name="Path 102419" d="M1430.429,870.734a1.276,1.276,0,0,1-.827-.3l-8.919-7.539a1.281,1.281,0,0,1-.052-1.91l13.037-12.3a1.28,1.28,0,0,1,1.658-.085l11.409,8.734a1.28,1.28,0,0,1-.033,2.059l-15.527,11.1A1.274,1.274,0,0,1,1430.429,870.734Zm-7-8.873,7.062,5.969,13.308-9.514-9.169-7.02Z" transform="translate(-1420.229 -848.335)" fill="#1d1320"/>
          </g>
          <g id="Group_47818" data-name="Group 47818" transform="translate(4.898 73.993)">
            <g id="Group_47816" data-name="Group 47816">
              <path id="Path_102420" data-name="Path 102420" d="M1422.136,858.485a99.1,99.1,0,0,0-8.486,8.254,5.387,5.387,0,0,0,.05,7.152,211.888,211.888,0,0,0,29.564,26.573,3.806,3.806,0,0,0,4.685-.376c6.955-5.427-3.4-17.024-11.686-32.763l-4.011.223a5.309,5.309,0,0,1-5.064-2.974l-2.737-5.616A1.488,1.488,0,0,0,1422.136,858.485Z" transform="translate(-1411.034 -856.837)" fill="#915aa3"/>
              <path id="Path_102421" data-name="Path 102421" d="M1445.065,902.155a4.784,4.784,0,0,1-2.768-.87,211.748,211.748,0,0,1-29.771-26.759,6.664,6.664,0,0,1-.054-8.854,100.819,100.819,0,0,1,8.6-8.371h0a2.77,2.77,0,0,1,4.308.877l2.738,5.617a4.01,4.01,0,0,0,3.841,2.256l4.832-.267.384.727c2.058,3.907,4.3,7.646,6.273,10.945,6.243,10.424,11.175,18.658,5.068,23.424A5.57,5.57,0,0,1,1445.065,902.155Zm-22.307-42.923a98.05,98.05,0,0,0-8.367,8.137,4.1,4.1,0,0,0,.046,5.45,208.72,208.72,0,0,0,29.356,26.386,2.532,2.532,0,0,0,3.149-.346c4.121-3.215.7-9.412-5.69-20.088-1.871-3.123-3.975-6.637-5.955-10.34l-3.193.178a6.581,6.581,0,0,1-6.287-3.693l-2.738-5.616a.2.2,0,0,0-.147-.114.186.186,0,0,0-.174.046Z" transform="translate(-1410.816 -856.618)" fill="#1d1320"/>
            </g>
            <g id="Group_47817" data-name="Group 47817" transform="translate(0 8.133)">
              <path id="Path_102422" data-name="Path 102422" d="M1414.087,867.641s-.3.327-.436.486a5.387,5.387,0,0,0,.05,7.152,211.892,211.892,0,0,0,29.564,26.573,3.806,3.806,0,0,0,4.685-.376,11.09,11.09,0,0,0,1.464-1.6l-.826-.647a305.88,305.88,0,0,1-33.109-30.12Z" transform="translate(-1411.034 -866.358)" fill="#fff"/>
              <path id="Path_102423" data-name="Path 102423" d="M1445.065,903.543a4.784,4.784,0,0,1-2.768-.87,211.748,211.748,0,0,1-29.771-26.759,6.664,6.664,0,0,1-.054-8.854l.444-.495a1.279,1.279,0,0,1,.935-.423,1.208,1.208,0,0,1,.946.4l1.392,1.467A305.546,305.546,0,0,0,1449.16,898l.825.647a1.282,1.282,0,0,1,.232,1.78,11.788,11.788,0,0,1-1.7,1.839A5.57,5.57,0,0,1,1445.065,903.543Zm-31.12-34.177a4.117,4.117,0,0,0,.492,4.841,208.72,208.72,0,0,0,29.356,26.386,2.532,2.532,0,0,0,3.149-.346,3.927,3.927,0,0,0,.42-.4,308.266,308.266,0,0,1-33.031-30.075Z" transform="translate(-1410.816 -866.139)" fill="#1d1320"/>
            </g>
            <path id="Path_102424" data-name="Path 102424" d="M1436.281,881.3a1.282,1.282,0,0,1-.111-2.558l7.568-.666a1.281,1.281,0,1,1,.224,2.552l-7.567.667C1436.357,881.3,1436.318,881.3,1436.281,881.3Z" transform="translate(-1414.343 -859.746)" fill="#1d1320"/>
            <path id="Path_102425" data-name="Path 102425" d="M1440.572,887.4a1.282,1.282,0,0,1-.215-2.545l7.29-1.246a1.281,1.281,0,0,1,.432,2.526l-7.289,1.246A1.259,1.259,0,0,1,1440.572,887.4Z" transform="translate(-1414.968 -860.552)" fill="#1d1320"/>
          </g>
          <path id="Path_102426" data-name="Path 102426" d="M1576.628,770.649a18.968,18.968,0,0,1,15.481,7.858,15.984,15.984,0,0,1,2.147,14.522c-2.808,9.2-6.347,15.636-59.075,25.9-46.251,9-80.649,26.512-88.4,30.677a4.792,4.792,0,0,1-3.677.365c-3.881-1.188-12.066-4.5-13.094-11.507a4.29,4.29,0,0,1,1.758-4.069l9.547-6.918-9.054-4.828a45.96,45.96,0,0,1-22.216-25.7c-3.318-9.941-4.963-26.954-4.963-26.954Z" transform="translate(-1405.081 -769.993)" fill="#1d1320"/>
          <g id="Group_47819" data-name="Group 47819" transform="translate(150.927 27.465)">
            <path id="Path_102427" data-name="Path 102427" d="M1671.513,983.786,1632.3,821.052l-39.218,162.734h-9.4l43.09-180.121,11.053-.016,43.093,180.137Z" transform="translate(-1582.053 -802.366)" fill="#fff"/>
            <path id="Path_102428" data-name="Path 102428" d="M1682.26,984.848h-12.033l-.236-.98L1632.018,826.3l-38.209,158.546h-12.033l43.7-182.681,13.076-.02Zm-10.015-2.562h6.767l-42.48-177.572-9.031.013-42.477,177.56h6.767l40.227-166.921Z" transform="translate(-1581.776 -802.147)" fill="#1d1320"/>
          </g>
          <g id="Group_47820" data-name="Group 47820" transform="translate(139.295 170.457)">
            <path id="Path_102429" data-name="Path 102429" d="M1571.183,972.58h0a43.76,43.76,0,0,1-1.526,17l22.57-.244a18.72,18.72,0,0,1-9.376-13.834l-.6-4.448Z" transform="translate(-1568.376 -969.771)" fill="#fff"/>
            <path id="Path_102430" data-name="Path 102430" d="M1569.438,990.641a1.281,1.281,0,0,1-1.229-1.643,42.3,42.3,0,0,0,1.482-16.5,1.282,1.282,0,0,1,1.1-1.406l11.072-1.528a1.3,1.3,0,0,1,.952.25,1.284,1.284,0,0,1,.494.85l.594,4.448A17.528,17.528,0,0,0,1592.636,988a1.281,1.281,0,0,1-.614,2.4l-22.57.244Zm2.916-17.177a44.771,44.771,0,0,1-1.233,14.6l16.93-.183a20.115,20.115,0,0,1-6.69-12.426l-.425-3.174Z" transform="translate(-1568.157 -969.552)" fill="#1d1320"/>
          </g>
          <g id="Group_47823" data-name="Group 47823" transform="translate(135.796 181.845)">
            <g id="Group_47821" data-name="Group 47821" transform="translate(0.458)">
              <path id="Path_102431" data-name="Path 102431" d="M1568.923,985.593c-.718,2.768-2.193,10.555-2.78,15.233a5.84,5.84,0,0,0,4.425,6.373c8.116,2,27.409,1.509,43.487,1.882a4.134,4.134,0,0,0,3.965-3.21c2.9-9.126-14.443-11.508-31.5-20.517a15.991,15.991,0,0,1-2.449,1.621,10.275,10.275,0,0,1-8.9-.169l-3.884-2.208A1.613,1.613,0,0,0,1568.923,985.593Z" transform="translate(-1564.816 -983.103)" fill="#915aa3"/>
              <path id="Path_102432" data-name="Path 102432" d="M1613.906,1010.145h-.1c-4.11-.1-8.491-.135-12.728-.173-12.782-.114-24.855-.223-31.036-1.746a7.119,7.119,0,0,1-5.389-7.777c.589-4.681,2.062-12.508,2.811-15.395h0a2.895,2.895,0,0,1,4.236-1.787l3.883,2.209a9.065,9.065,0,0,0,7.658.156,14.8,14.8,0,0,0,2.234-1.476l.66-.553.763.4a164.271,164.271,0,0,0,15.259,6.829c10.742,4.353,19.226,7.792,16.865,15.21A5.439,5.439,0,0,1,1613.906,1010.145Zm-43.64-24.7a.338.338,0,0,0-.132.026.318.318,0,0,0-.19.222h0c-.723,2.789-2.187,10.6-2.748,15.069a4.557,4.557,0,0,0,3.459,4.971c5.891,1.45,18.374,1.562,30.446,1.672,4.246.038,8.637.077,12.764.173.342.028,2-.068,2.714-2.317,1.566-4.918-4.511-7.652-15.386-12.058-4.534-1.838-9.647-3.91-14.765-6.557a18.3,18.3,0,0,1-1.968,1.235,11.448,11.448,0,0,1-10.143-.182l-3.884-2.208A.329.329,0,0,0,1570.266,985.448Zm-1.562-.073h0Z" transform="translate(-1564.597 -982.884)" fill="#1d1320"/>
            </g>
            <g id="Group_47822" data-name="Group 47822" transform="translate(0 15.288)">
              <path id="Path_102433" data-name="Path 102433" d="M1565.622,1005.558c-.015.08-.024.138-.027.163-.369,2.936,2.471,4.677,5.177,5.868,8.186,3.608,41.375.645,41.375.645s4.449.046,5.632-2.624a4.945,4.945,0,0,0,.295-1.459,4.861,4.861,0,0,0-.133-1.555l-.3-1.2c-4.517,1.8-24.846,3.162-39.6,1.335-6.189-.766-9.772-3.437-11.838-4.455C1566.205,1002.281,1565.918,1003.881,1565.622,1005.558Z" transform="translate(-1564.28 -1001)" fill="#fff"/>
              <path id="Path_102434" data-name="Path 102434" d="M1587.606,1014.44c-7.325,0-14.28-.446-17.57-1.9-1.771-.781-6.477-2.855-5.931-7.2.005-.04.016-.117.037-.228h0c.3-1.678.583-3.279.583-3.279a1.282,1.282,0,0,1,1.828-.924c.412.2.881.468,1.416.771a25.514,25.514,0,0,0,10.013,3.563c14.544,1.8,34.576.492,38.969-1.255a1.281,1.281,0,0,1,1.717.882l.3,1.2a6.137,6.137,0,0,1,.167,1.965,5.86,5.86,0,0,1-.4,1.874c-1.429,3.226-6.084,3.381-6.746,3.387C1610.77,1013.4,1598.76,1014.44,1587.606,1014.44Zm-20.673-10.4-.269,1.52v0l-.018.109c-.212,1.684,1.151,3.083,4.424,4.525,7.794,3.435,40.416.57,40.744.541.043,0,.081,0,.127-.005h.026c1.024,0,3.743-.331,4.42-1.861a3.8,3.8,0,0,0,.19-1.044,3.516,3.516,0,0,0-.073-1.023c-6.5,1.65-24.866,2.714-38.837.982A27.468,27.468,0,0,1,1566.934,1004.042Zm-1.531,1.3h0Z" transform="translate(-1564.061 -1000.782)" fill="#1d1320"/>
            </g>
            <path id="Path_102435" data-name="Path 102435" d="M1591.952,994.732a1.282,1.282,0,0,1-.794-2.288l4.8-3.779a1.282,1.282,0,1,1,1.586,2.013l-4.8,3.779A1.281,1.281,0,0,1,1591.952,994.732Z" transform="translate(-1567.941 -983.687)" fill="#1d1320"/>
            <path id="Path_102436" data-name="Path 102436" d="M1599.594,997.744a1.281,1.281,0,0,1-.787-2.293l4.2-3.26a1.281,1.281,0,0,1,1.571,2.024l-4.2,3.259A1.27,1.27,0,0,1,1599.594,997.744Z" transform="translate(-1569.056 -984.202)" fill="#1d1320"/>
          </g>
          <path id="Path_102437" data-name="Path 102437" d="M1519.155,816.3s18.473,3.922,28.253,16.248c9.571,12.063,13.022,29.066,17.446,112.392a6.788,6.788,0,0,1-5.227,7.06c-4.525.979-10.788,1.688-14.613-.613-6.52-3.922-9.56-75.7-24.229-88.024s-86.931-30.255-98.884-45.942,17.387-15.688,17.387-15.688Z" transform="translate(-1407.116 -774.622)" fill="#1d1320"/>
          <path id="Path_102438" data-name="Path 102438" d="M1465.728,855.22a1.281,1.281,0,0,1-.57-2.429c3.476-1.722,6.837-3.5,10.087-5.216,14.365-7.592,27.932-14.763,53.1-19.15a1.281,1.281,0,0,1,.441,2.524c-24.766,4.319-38.159,11.4-52.339,18.892-3.265,1.726-6.64,3.509-10.147,5.247A1.276,1.276,0,0,1,1465.728,855.22Z" transform="translate(-1413.738 -778.511)" fill="#caddff"/>
        </g>
        <g id="Group_47828" data-name="Group 47828" transform="translate(0 44.757)">
          <g id="Group_47825" data-name="Group 47825">
            <path id="Path_102439" data-name="Path 102439" d="M1375.68,682.111c2.9-6.38,10.661-10.477,16.62-12.783a39.372,39.372,0,0,1,12.667-2.575l15.56-.61a83.19,83.19,0,0,1,20.159,1.157,42.019,42.019,0,0,1,25.458,14.987c2.978,3.692,5.645,6.942,5.858,7.007,8.414,11.812,10.1,17.716,16.179,22.124,10.154,7.36,42.754,27.748,42.754,27.748,5.921-.886,3.191,4.661,4.271,7.119,2.092,4.762-9.68,2.562-9.68,2.562-4.271-.854-36.281-3.966-50.3-11.911-9.908-5.615-16.563-17.336-21.87-23.09a.824.824,0,0,0-1.425.622c1.115,12.93,11.771,28.287,15.021,32.7a3.522,3.522,0,0,0,2.437,1.414l23.453,2.671a2.669,2.669,0,0,1,1.021.343,5.459,5.459,0,0,1,2.768,4.115c.37,2.761.138,7.939-.712,9.608l-.8,1.582a3.861,3.861,0,0,1-3.378,2.112c-12.461.2-65.124.485-80.077-.41-13.926-.835-23.379-6.411-30.824-25.865C1377.876,735.009,1368.024,698.967,1375.68,682.111Z" transform="translate(-1371.529 -664.674)" fill="#fff"/>
            <path id="Path_102440" data-name="Path 102440" d="M1455.123,770.285c-17.381,0-35.775-.144-43.763-.621-13.349-.8-23.889-5.644-31.943-26.686-2.353-6.149-13.294-43.629-5.125-61.615h0c3.072-6.764,11.117-11.047,17.325-13.449a40.6,40.6,0,0,1,13.079-2.661l15.561-.61a83.95,83.95,0,0,1,20.429,1.175,43.281,43.281,0,0,1,26.235,15.446c3.9,4.829,5.124,6.254,5.51,6.668l.14.043.254.356c3.116,4.374,5.35,8,7.147,10.917,3.071,4.982,5.1,8.273,8.74,10.913,9.409,6.82,38.585,25.133,42.3,27.457a4.656,4.656,0,0,1,3.71.875c1.359,1.2,1.312,3.092,1.271,4.76a6.609,6.609,0,0,0,.171,2.3,2.98,2.98,0,0,1-.228,3.248c-2,2.52-8.819,1.471-10.862,1.09-.723-.144-2.292-.36-4.464-.658-10.307-1.412-34.444-4.718-46.234-11.4-7.281-4.126-12.83-11.407-17.288-17.257-1.384-1.815-2.706-3.551-3.935-5,1.707,12.276,11.542,26.44,14.614,30.613a2.25,2.25,0,0,0,1.549.9l23.452,2.67a3.822,3.822,0,0,1,1.483.488,6.74,6.74,0,0,1,3.433,5.074c.367,2.744.22,8.274-.84,10.359l-.8,1.581a5.134,5.134,0,0,1-4.5,2.814C1486.085,770.165,1471.029,770.284,1455.123,770.285Zm-29.645-103.261c-1.732,0-3.43.058-5.081.177l-15.6.612a37.991,37.991,0,0,0-12.256,2.491c-5.762,2.229-13.2,6.141-15.916,12.117h0c-7.281,16.03,1.93,51.136,5.185,59.64,7.588,19.828,16.991,24.283,29.7,25.045,15.231.911,68.6.594,79.979.407a2.574,2.574,0,0,0,2.257-1.413l.8-1.581c.642-1.262.958-6.062.583-8.857a4.175,4.175,0,0,0-2.1-3.155,1.432,1.432,0,0,0-.513-.195l-23.5-2.675a4.821,4.821,0,0,1-3.324-1.927c-3.292-4.475-14.123-20.1-15.265-33.352a2.1,2.1,0,0,1,3.642-1.6c1.57,1.7,3.259,3.918,5.047,6.263,4.317,5.664,9.69,12.714,16.515,16.581,11.36,6.437,35.156,9.7,45.318,11.09,2.217.3,3.819.523,4.6.68,3.386.631,7.664.72,8.367-.167.077-.1-.012-.4-.111-.623a8.046,8.046,0,0,1-.386-3.391c.027-1.11.058-2.368-.406-2.777a2.912,2.912,0,0,0-2.117-.2l-.467.07-.4-.251c-.326-.2-32.753-20.5-42.826-27.8-4.053-2.938-6.187-6.4-9.418-11.645-1.761-2.859-3.95-6.41-6.977-10.667-.62-.587-1.977-2.206-5.887-7.052a40.727,40.727,0,0,0-24.683-14.53A86.194,86.194,0,0,0,1425.479,667.024Z" transform="translate(-1371.308 -664.455)" fill="#1d1320"/>
          </g>
          <path id="Rectangle_4121" data-name="Rectangle 4121" d="M0,0H27.223a0,0,0,0,1,0,0V0A8.373,8.373,0,0,1,18.85,8.373H8.373A8.373,8.373,0,0,1,0,0V0A0,0,0,0,1,0,0Z" transform="translate(157.7 103.778) rotate(180)" fill="#915aa3"/>
          <g id="Group_47826" data-name="Group 47826" transform="translate(116.837 82.746)">
            <path id="Path_102441" data-name="Path 102441" d="M1510.165,770.93a4.173,4.173,0,0,1,2.285-2.043,16.146,16.146,0,0,0,2.082-.948l9.263-4.909c1.735-.849,4.216,1.129,6.017,1.72,5.436,1.784,16.691,5.984,15.764,9.931-1,4.257-10.673,2.242-14.107,1.384-.785-.2-7.891,2.375-10.138,2.545-3.1.235-3.822-.554-5.339-1.35a4.942,4.942,0,0,0-2.3-.532,4.224,4.224,0,0,1-3.3-1.543l-.019-.023a3.584,3.584,0,0,1-.394-3.874Z" transform="translate(-1508.31 -761.546)" fill="#fff"/>
            <path id="Path_102442" data-name="Path 102442" d="M1520.08,779.714a7.362,7.362,0,0,1-4.269-1.187c-.2-.115-.408-.233-.633-.352a3.666,3.666,0,0,0-1.713-.385,5.5,5.5,0,0,1-4.289-2.023,4.881,4.881,0,0,1-.553-5.282l.182-.354a5.43,5.43,0,0,1,2.992-2.667,14.67,14.67,0,0,0,1.915-.875l9.264-4.909c1.823-.894,3.824.11,5.433.919a13.245,13.245,0,0,0,1.583.717c11.889,3.9,17.478,7.751,16.611,11.441a4.022,4.022,0,0,1-1.89,2.541c-3.237,1.976-9.874.758-13.638-.174-.552.068-2.388.613-3.745,1.016a39.8,39.8,0,0,1-6.122,1.53C1520.8,779.7,1520.426,779.714,1520.08,779.714Zm4.46-15.832a.9.9,0,0,0-.4.08l-9.227,4.89a17.013,17.013,0,0,1-2.251,1.022,2.872,2.872,0,0,0-1.575,1.42h0l-.182.355a2.3,2.3,0,0,0,.252,2.488,2.957,2.957,0,0,0,2.325,1.087,6.23,6.23,0,0,1,2.885.679c.255.133.489.266.715.4a5.462,5.462,0,0,0,3.934.811,41.77,41.77,0,0,0,5.585-1.431c3.439-1.02,4.308-1.245,4.959-1.08,5.531,1.385,10.062,1.578,11.819.506a1.46,1.46,0,0,0,.729-.94c.371-1.577-4.139-4.884-14.916-8.42a14.56,14.56,0,0,1-1.934-.862A7.771,7.771,0,0,0,1524.54,763.882Zm-14.594,6.831h0Z" transform="translate(-1508.092 -761.328)" fill="#1d1320"/>
          </g>
          <g id="Group_47827" data-name="Group 47827" transform="translate(148.972 72.213)">
            <path id="Path_102443" data-name="Path 102443" d="M1548.413,754.557a4.172,4.172,0,0,1,2.742-1.37,16.183,16.183,0,0,0,2.259-.366l10.229-2.3c1.9-.362,3.77,2.2,5.352,3.244,4.774,3.152,14.526,10.168,12.592,13.731-2.086,3.843-10.886-.648-13.973-2.38-.706-.4-8.239.214-10.45-.214-3.057-.591-3.541-1.54-4.8-2.709a4.952,4.952,0,0,0-2.077-1.119,4.225,4.225,0,0,1-2.775-2.357l-.011-.027a3.583,3.583,0,0,1,.64-3.841Z" transform="translate(-1545.931 -749.214)" fill="#fff"/>
            <path id="Path_102444" data-name="Path 102444" d="M1578.271,770.068c-3.625,0-8.486-2.366-11.379-3.98-.552-.081-2.468-.038-3.885-.006a39.461,39.461,0,0,1-6.3-.137,7.856,7.856,0,0,1-4.907-2.522c-.163-.164-.332-.332-.518-.506a3.662,3.662,0,0,0-1.551-.823,5.5,5.5,0,0,1-3.6-3.08,4.883,4.883,0,0,1,.858-5.242l.271-.3a5.434,5.434,0,0,1,3.587-1.783,14.393,14.393,0,0,0,2.078-.339l10.229-2.3c1.99-.376,3.66,1.115,5,2.316a12.949,12.949,0,0,0,1.339,1.11c10.443,6.894,14.821,12.079,13.012,15.411a4.024,4.024,0,0,1-2.492,1.954A6.266,6.266,0,0,1,1578.271,770.068Zm-12.694-6.589a5.133,5.133,0,0,1,2.446.306c4.973,2.791,9.288,4.172,11.268,3.6a1.457,1.457,0,0,0,.952-.715c.772-1.422-2.707-5.8-12.172-12.049a14.569,14.569,0,0,1-1.64-1.341c-.917-.823-2.055-1.846-2.766-1.713l-10.189,2.288a17.041,17.041,0,0,1-2.44.393,2.872,2.872,0,0,0-1.894.957l0,0-.269.294a2.3,2.3,0,0,0-.41,2.467,2.955,2.955,0,0,0,1.956,1.66,6.232,6.232,0,0,1,2.605,1.416c.211.2.4.386.585.571a5.481,5.481,0,0,0,3.581,1.818,41.921,41.921,0,0,0,5.762.09C1564.06,763.5,1564.912,763.479,1565.578,763.479Zm-17.382-9.14h0Z" transform="translate(-1545.713 -748.997)" fill="#1d1320"/>
          </g>
          <path id="Path_102445" data-name="Path 102445" d="M1463.51,756.5a1.169,1.169,0,0,1-.172-.011c-1.38-.185-2.986-.347-4.846-.532-16.345-1.638-46.771-4.688-57.369-36.989a1.282,1.282,0,0,1,2.435-.8c10.078,30.716,39.424,33.659,55.19,35.238,1.883.189,3.508.352,4.932.543a1.281,1.281,0,0,1-.169,2.551Z" transform="translate(-1375.646 -672.159)" fill="#1d1320"/>
        </g>
        <g id="Group_47832" data-name="Group 47832" transform="translate(20.368)">
          <g id="Group_47831" data-name="Group 47831">
            <g id="Group_47829" data-name="Group 47829" transform="translate(10.156 28.788)">
              <path id="Path_102446" data-name="Path 102446" d="M1410.695,668.137l-2.152-20.877,18,5.992,1.567,12.234a7.006,7.006,0,0,1-2.114,5.532c-3.036,3.05-7.891,3.323-11.74,1.419l-.891-.441A4.859,4.859,0,0,1,1410.695,668.137Z" transform="translate(-1407.262 -645.979)" fill="#fff"/>
              <path id="Path_102447" data-name="Path 102447" d="M1419.143,674.721a12.815,12.815,0,0,1-5.672-1.354l-.892-.441a6.111,6.111,0,0,1-3.377-4.877l-2.151-20.877a1.281,1.281,0,0,1,1.679-1.346l18,5.993a1.279,1.279,0,0,1,.866,1.052l1.567,12.233a8.3,8.3,0,0,1-2.526,6.645A10.474,10.474,0,0,1,1419.143,674.721Zm-9.34-25.837,1.948,18.9h0a3.557,3.557,0,0,0,1.964,2.842l.892.442c3.587,1.777,7.808,1.292,10.264-1.174a5.791,5.791,0,0,0,1.748-4.485L1425.157,654Z" transform="translate(-1407.043 -645.76)" fill="#1d1320"/>
            </g>
            <path id="Path_102448" data-name="Path 102448" d="M1426.276,612.088c-4.5.423,1.8,4.166-15.428,1.859-6.86-.918-2.381,6.256-4.161,6.023-6.575-.863-6.35-.841-9.3.438-1.956.846-2.717,4.808-1.911,7.559,1.063,3.63,4.262,4.122,8.146,11.543,2.726,5.212,2.762,8.626,5.086,9.093,2.348.471,3.543-2.771,6.147-2.45,3.37.415,3.574,6.118,7.071,7.964,2.2,1.163,6.925,1.139,13.784-3.6a2.823,2.823,0,0,0,.974-3.464c-.7-1.588-1.6-3.589-2.621-5.428-4.855-8.766-8.475-10.365-7.64-12.954,1.28-3.969,8.567-2.916,9.265-6.122C1436.406,619.221,1432.438,611.509,1426.276,612.088Z" transform="translate(-1395.154 -612.057)" fill="#1d1320"/>
            <g id="Group_47830" data-name="Group 47830" transform="translate(16.674 10.892)">
              <path id="Path_102449" data-name="Path 102449" d="M1416.173,632.547l1.636,2.192a28,28,0,0,1,2.089,3.246c1.166,2.118,3.2,5.747,4.49,7.691,1.9,2.857,11.13-2.4,11.13-2.4l.3-1.989,1.069-.638a1.386,1.386,0,0,0,.507-.5,1.338,1.338,0,0,0-.178-1.566c-2.08-2.258-6.481-7.37-8.519-12.25A14.5,14.5,0,0,0,1416.173,632.547Z" transform="translate(-1414.892 -625.028)" fill="#fff"/>
              <path id="Path_102450" data-name="Path 102450" d="M1426.262,647.574a3.541,3.541,0,0,1-3.16-1.408c-1.331-2-3.418-5.737-4.544-7.784a26.845,26.845,0,0,0-1.994-3.1l-1.636-2.192a1.282,1.282,0,0,1-.016-1.509,15.692,15.692,0,0,1,13.7-6.742,1.279,1.279,0,0,1,1.052.781c1.993,4.771,6.453,9.895,8.279,11.875a2.622,2.622,0,0,1,.354,3.059,2.665,2.665,0,0,1-.97.977l-.55.328-.213,1.393a1.281,1.281,0,0,1-.634.92C1434.211,645.155,1429.614,647.574,1426.262,647.574Zm-8.7-15.24,1.059,1.42a29.3,29.3,0,0,1,2.185,3.395c1.107,2.011,3.155,5.674,4.434,7.6.609.916,4.836-.294,8.891-2.5l.209-1.368a1.281,1.281,0,0,1,.61-.905l1.069-.639.987-.968-.942.868c-2.26-2.453-6.253-7.152-8.425-11.866A13.176,13.176,0,0,0,1417.558,632.334Z" transform="translate(-1414.674 -624.809)" fill="#1d1320"/>
            </g>
            <path id="Path_102451" data-name="Path 102451" d="M1418.652,642.437s-3.926-5.276-5.932-2.968,2.46,8.005,5.932,2.968Z" transform="translate(-1397.642 -615.969)" fill="#fff"/>
          </g>
        </g>
      </g>
      <g id="Group_47836" data-name="Group 47836" transform="translate(0 148.847)">
        <g id="Group_47834" data-name="Group 47834" transform="translate(0 12.409)">
          <path id="Path_102452" data-name="Path 102452" d="M1424.451,982.5l-39.218-162.754L1346.016,982.5h-9.4l43.09-180.142,11.053-.016L1433.852,982.5Z" transform="translate(-1334.991 -801.063)" fill="#fff"/>
          <path id="Path_102453" data-name="Path 102453" d="M1435.2,983.566h-12.034L1384.956,825l-38.209,158.566h-12.034l43.7-182.7,13.075-.019ZM1425.183,981h6.768L1389.47,803.41l-9.031.012L1337.962,981h6.767l40.227-166.943Z" transform="translate(-1334.714 -800.844)" fill="#1d1320"/>
        </g>
        <g id="Group_47835" data-name="Group 47835" transform="translate(0.138)">
          <rect id="Rectangle_4122" data-name="Rectangle 4122" width="309.336" height="14.716" transform="translate(310.617 15.998) rotate(180)" fill="#fff"/>
          <path id="Path_102454" data-name="Path 102454" d="M1646.773,803.595h-311.9V786.316h311.9Zm-309.335-2.562h306.773V788.878H1337.438Z" transform="translate(-1334.875 -786.316)" fill="#1d1320"/>
        </g>
      </g>
    </g>
    <g id="Group_47839" data-name="Group 47839" transform="translate(1349.943 495.498)">
      <g id="Group_47838" data-name="Group 47838">
        <circle id="Ellipse_4818" data-name="Ellipse 4818" cx="22.94" cy="22.94" r="22.94" transform="matrix(1, -0.009, 0.009, 1, 1.085, 1.481)" fill="#fff"/>
        <path id="Path_102455" data-name="Path 102455" d="M1376.779,596.423c-.482,0-.964-.014-1.452-.043a24.221,24.221,0,1,1,25.617-22.74h0A24.254,24.254,0,0,1,1376.779,596.423Zm-.027-45.88a21.647,21.647,0,1,0,1.3.037Q1377.4,550.542,1376.752,550.543Zm22.912,23.021h0Z" transform="translate(-1352.543 -547.98)" fill="#1d1320"/>
      </g>
      <path id="Path_102456" data-name="Path 102456" d="M1389.64,559.166c-4.725,4.581-10.622,11.326-13.265,18.856l-10.559-12.355c-.291-.34-.915-.058-.728.328,4.435,9.129,8.835,16.665,11.944,23.362a.942.942,0,0,0,1.678-.057,188.588,188.588,0,0,1,12.03-29.556C1391.032,559.173,1390.124,558.7,1389.64,559.166Z" transform="translate(-1354.368 -549.584)" fill="#915aa3"/>
    </g>
    <g id="Group_47842" data-name="Group 47842" transform="translate(1343.916 230.527)">
      <g id="Group_47840" data-name="Group 47840" transform="translate(68.148 165.428)">
        <path id="Path_102457" data-name="Path 102457" d="M1447.78,444.636a1.281,1.281,0,0,1-.306-2.525l3.786-.934a1.281,1.281,0,1,1,.614,2.487l-3.786.934A1.277,1.277,0,0,1,1447.78,444.636Z" transform="translate(-1428.366 -432.856)" fill="#1d1320"/>
        <path id="Path_102458" data-name="Path 102458" d="M1426.551,449.878a1.281,1.281,0,0,1-.307-2.525l3.786-.935a1.281,1.281,0,0,1,.615,2.487l-3.786.935A1.28,1.28,0,0,1,1426.551,449.878Z" transform="translate(-1425.271 -433.62)" fill="#1d1320"/>
        <path id="Path_102459" data-name="Path 102459" d="M1442.458,459.085a1.28,1.28,0,0,1-1.241-.969l-.956-3.8a1.281,1.281,0,0,1,2.485-.626l.956,3.8a1.283,1.283,0,0,1-1.244,1.594Z" transform="translate(-1427.451 -434.546)" fill="#1d1320"/>
        <path id="Path_102460" data-name="Path 102460" d="M1437.1,437.8a1.281,1.281,0,0,1-1.242-.969l-.956-3.8a1.281,1.281,0,1,1,2.485-.626l.956,3.8a1.282,1.282,0,0,1-.929,1.555A1.324,1.324,0,0,1,1437.1,437.8Z" transform="translate(-1426.669 -431.442)" fill="#1d1320"/>
      </g>
      <g id="Group_47841" data-name="Group 47841" transform="translate(0 227.149)">
        <path id="Path_102461" data-name="Path 102461" d="M1362.635,509.572a1.281,1.281,0,0,1-1.086-1.959l2.065-3.308a1.281,1.281,0,1,1,2.173,1.356l-2.065,3.308A1.278,1.278,0,0,1,1362.635,509.572Z" transform="translate(-1347.801 -503.701)" fill="#1d1320"/>
        <path id="Path_102462" data-name="Path 102462" d="M1351.059,528.123a1.281,1.281,0,0,1-1.086-1.96l2.065-3.308a1.281,1.281,0,0,1,2.174,1.356l-2.064,3.308A1.279,1.279,0,0,1,1351.059,528.123Z" transform="translate(-1346.113 -506.407)" fill="#1d1320"/>
        <path id="Path_102463" data-name="Path 102463" d="M1368.775,524.094a1.273,1.273,0,0,1-.672-.191l-3.331-2.056a1.281,1.281,0,0,1,1.346-2.181l3.331,2.056a1.282,1.282,0,0,1-.675,2.372Z" transform="translate(-1348.211 -506.002)" fill="#1d1320"/>
        <path id="Path_102464" data-name="Path 102464" d="M1350.1,512.562a1.282,1.282,0,0,1-.672-.191l-3.33-2.056a1.281,1.281,0,1,1,1.346-2.181l3.33,2.056a1.281,1.281,0,0,1-.674,2.372Z" transform="translate(-1345.487 -504.32)" fill="#1d1320"/>
      </g>
      <path id="Path_102465" data-name="Path 102465" d="M1386.4,437.286a1.283,1.283,0,0,1-1.227-1.653,265.98,265.98,0,0,1,73.946-118.456c26.144-24.129,48.507-34.792,48.73-34.9a1.282,1.282,0,0,1,1.092,2.319c-.22.1-22.294,10.641-48.16,34.531a263.428,263.428,0,0,0-73.156,117.246A1.281,1.281,0,0,1,1386.4,437.286Z" transform="translate(-1351.266 -244.244)" fill="#1d1320"/>
      <path id="Path_102466" data-name="Path 102466" d="M1433.875,314.628a1.281,1.281,0,0,1-1.062-2c.1-.149,10.142-14.978,28.49-31.508,16.939-15.26,44.647-35.164,80.454-43.322a1.281,1.281,0,1,1,.568,2.5c-67.483,15.375-106.994,73.178-107.385,73.76A1.28,1.28,0,0,1,1433.875,314.628Z" transform="translate(-1358.19 -237.771)" fill="#1d1320"/>
    </g>
    <g id="Group_47843" data-name="Group 47843" transform="translate(1629.934 199.465)">
      <path id="Path_102467" data-name="Path 102467" d="M1724.511,302.633a1.281,1.281,0,0,1-1.224-.9l-30.369-98.664a1.281,1.281,0,1,1,2.449-.754l30.369,98.665a1.28,1.28,0,0,1-1.225,1.658Z" transform="translate(-1682.163 -201.406)" fill="#1d1320"/>
      <path id="Path_102468" data-name="Path 102468" d="M1706.813,324.757a1.283,1.283,0,0,1-1.081-.593l-25.194-39.509a1.281,1.281,0,0,1,2.161-1.378l25.194,39.509a1.282,1.282,0,0,1-1.08,1.971Z" transform="translate(-1680.337 -213.259)" fill="#1d1320"/>
    </g>
  </g>
</svg>
