<svg xmlns="http://www.w3.org/2000/svg" width="693.564" height="695.242" viewBox="0 0 693.564 695.242">
  <g id="Smart_home_2.0" data-name="Smart home 2.0" transform="translate(-241.858 -185.344)">
    <path id="Path_102272" data-name="Path 102272" d="M836.893,481.765c-14.187-83.912,108.676-129.218,97.327-191.634C921.122,218.1,737.236,167,581.711,191.6c-46.663,7.382-222.369,35.174-302.145,186.238-75.989,143.891-33.654,332.4,95.731,430.8,187.353,142.48,495.445,49.735,541.308-74.014,13.117-35.393,14.294-98.986-11.584-154.271C878.582,523.861,843.7,521.993,836.893,481.765Z" transform="translate(0 0)" fill="#e7c7ff"/>
    <g id="Group_47707" data-name="Group 47707" transform="translate(294.077 626.441)">
      <path id="Path_102277" data-name="Path 102277" d="M945.663,758.089H899.7V770.18L724.6,744.142a35.159,35.159,0,0,0-17.216,1.745L332.746,882.519V872.2H304.323v26.609h.014a7.834,7.834,0,0,0,6.592,7.505l254.421,45.2a48.23,48.23,0,0,0,28.331-3.55L941.15,790.594a7.51,7.51,0,0,0,4.4-8.225h.111Z" transform="translate(-304.323 -718.037)" fill="#1d1320"/>
      <g id="Group_47706" data-name="Group 47706" transform="translate(0.208)">
        <path id="Path_102278" data-name="Path 102278" d="M312.653,877.042,566,922.246a47.84,47.84,0,0,0,28.211-3.549l346-157.374a7.663,7.663,0,0,0-2.042-14.555l-213.591-31.9a34.862,34.862,0,0,0-17.143,1.745L311.311,861.694A7.979,7.979,0,0,0,312.653,877.042Z" transform="translate(-304.818 -713.236)" fill="#fff"/>
        <path id="Path_102279" data-name="Path 102279" d="M574.2,924.005a49.3,49.3,0,0,1-8.67-.771l-253.343-45.2a9.233,9.233,0,0,1-1.553-17.759L706.75,715.191a36.241,36.241,0,0,1,17.76-1.807l213.591,31.9a8.918,8.918,0,0,1,2.375,16.937l-346,157.375A48.892,48.892,0,0,1,574.2,924.005ZM719.191,715.5a33.715,33.715,0,0,0-11.579,2.048L311.5,862.626a6.725,6.725,0,0,0,1.131,12.935l253.343,45.2a46.384,46.384,0,0,0,27.472-3.456l346-157.374a6.41,6.41,0,0,0-1.707-12.174l-213.592-31.9A33.381,33.381,0,0,0,719.191,715.5Z" transform="translate(-304.572 -712.99)" fill="#1d1320"/>
      </g>
      <path id="Path_102280" data-name="Path 102280" d="M576.785,915.7a38.817,38.817,0,0,1-6.81-.6L320.613,870.6l392.32-143.689a25.789,25.789,0,0,1,12.684-1.291L934.5,756.816l-341.664,155.4a38.514,38.514,0,0,1-16.052,3.479Z" transform="translate(-306.995 -715.016)" fill="#eaacff"/>
    </g>
    <g id="Group_47721" data-name="Group 47721" transform="translate(280.457 317.976)">
      <path id="Path_102281" data-name="Path 102281" d="M376.942,404.9c-4.758,1.188-9.411-2.783-16.627-8.942-8.769-7.484-14.882-12.7-15.207-21.1-.284-7.373,4-14.226,8.942-17.884,2.837-2.1,7.138-3.07,15.738-5.007,9.843-2.218,11.108-1.342,16.811-3.577,6.64-2.6,7.678-4.868,10.731-4.292,4.941.932,9.4,8.219,9.3,15.022-.13,9-8.138,10.349-17.168,25.038C381.914,396.427,382.588,403.487,376.942,404.9Z" transform="translate(-297.391 -344)" fill="#1d1320"/>
      <g id="Group_47711" data-name="Group 47711" transform="translate(0 85.805)">
        <path id="Path_102282" data-name="Path 102282" d="M348.338,452.016c16.062-5.242,40.535-9,69.786.316a28.58,28.58,0,0,1,19.634,23.9l23.829,137.2c1.181,9.975-12.151,19.672-21.543,23.232-9.813,3.718-24.644,7.234-45.644,7.234-22.514,0-38.876,1.307-48.007-2.692-7.579-3.32-18.987-11.349-19.37-19.614l1.654-141.029A28.619,28.619,0,0,1,348.338,452.016Z" transform="translate(-294.426 -446.641)" fill="#915aa3"/>
        <path id="Path_102283" data-name="Path 102283" d="M479.206,512.263s-19.023-52.689-40.352-57.756L449.7,529.165Z" transform="translate(-312.77 -447.931)" fill="#915aa3"/>
        <path id="Path_102284" data-name="Path 102284" d="M289.5,533.443s7.609-28.3,13.449-44.213c11.8-32.163,37.059-35.192,37.059-35.192v79.168Z" transform="translate(-288.272 -447.854)" fill="#915aa3"/>
        <path id="Path_102285" data-name="Path 102285" d="M397.449,468.461c-20.868,0-39.169-8.539-40.052-8.957a1.254,1.254,0,0,1,1.073-2.266c.242.115,24.56,11.449,48.379,8.074a1.254,1.254,0,1,1,.352,2.483A69.582,69.582,0,0,1,397.449,468.461Z" transform="translate(-299.291 -448.359)" fill="#1d1320"/>
        <g id="Group_47708" data-name="Group 47708" transform="translate(83.775 24.424)">
          <path id="Path_102286" data-name="Path 102286" d="M394.9,563.865l93.416-.143a5.151,5.151,0,0,0,4.993-3.918l18.742-76.064a5.152,5.152,0,0,0-5.01-6.383l-93.415.143a5.15,5.15,0,0,0-4.993,3.918L389.9,557.482A5.15,5.15,0,0,0,394.9,563.865Z" transform="translate(-388.489 -476.103)" fill="#fff"/>
          <path id="Path_102287" data-name="Path 102287" d="M394.65,564.873a6.4,6.4,0,0,1-6.218-7.937l18.741-76.064a6.393,6.393,0,0,1,6.21-4.872l93.415-.143h.01a6.405,6.405,0,0,1,6.219,7.937l-18.742,76.064a6.393,6.393,0,0,1-6.209,4.872l-93.416.143Zm112.157-86.508H506.8l-93.416.143a3.89,3.89,0,0,0-3.778,2.964l-18.741,76.064a3.9,3.9,0,0,0,3.783,4.829h.007l93.415-.143a3.888,3.888,0,0,0,3.778-2.964l18.742-76.064a3.9,3.9,0,0,0-3.784-4.829Z" transform="translate(-388.243 -475.857)" fill="#1d1320"/>
        </g>
        <g id="Group_47709" data-name="Group 47709" transform="translate(171.475 59.174)">
          <path id="Path_102288" data-name="Path 102288" d="M522.379,521.977l-2.733,7.611-22.478-10.661s-12.336,10.715,17.625,24.373C527.278,548.99,522.379,521.977,522.379,521.977Z" transform="translate(-493.397 -517.672)" fill="#fff"/>
          <path id="Path_102289" data-name="Path 102289" d="M517.677,545.1a8.887,8.887,0,0,1-3.65-.906c-12.876-5.869-19.866-12.033-20.776-18.319a9.416,9.416,0,0,1,2.85-8.141,1.255,1.255,0,0,1,1.359-.186l21.228,10.068,2.265-6.309a1.254,1.254,0,0,1,2.414.2c.334,1.847,3.111,18.165-2.468,22.505A5.109,5.109,0,0,1,517.677,545.1ZM497.211,520.2a6.845,6.845,0,0,0-1.472,5.352c.557,3.7,4.361,9.532,19.328,16.355,2.8,1.278,3.923.407,4.292.12,2.541-1.977,2.771-8.991,2.215-15.037l-.994,2.77a1.252,1.252,0,0,1-1.717.709Z" transform="translate(-493.151 -517.426)" fill="#1d1320"/>
        </g>
        <g id="Group_47710" data-name="Group 47710" transform="translate(0 31.477)">
          <path id="Path_102290" data-name="Path 102290" d="M351.771,495.344s-41.954,23.637-50.606,31.052-18.035,13.046-5.8,29.212,64.194-48.738,64.194-48.738,10,1.641,13.473-11.984c0,0,16.886.578,17.489-4.722l-23.82-4.223a9.44,9.44,0,0,0-8.412,2.71Z" transform="translate(-288.272 -484.541)" fill="#fff"/>
          <path id="Path_102291" data-name="Path 102291" d="M300.518,559.2l-.133,0a7.6,7.6,0,0,1-6.262-3.082c-12.009-15.868-3.876-22.665,3.988-29.237.663-.554,1.333-1.113,2-1.683,8.465-7.256,47.415-29.28,50.649-31.1l6.392-6.564a10.683,10.683,0,0,1,9.529-3.07l23.82,4.223a1.255,1.255,0,0,1,1.027,1.377c-.642,5.627-13.343,5.928-17.784,5.858-3.32,11.389-11.339,12.077-13.858,12C355.277,513.617,317.863,559.2,300.518,559.2Zm64.29-72.4a8.178,8.178,0,0,0-5.863,2.476l-6.517,6.695a1.272,1.272,0,0,1-.283.217c-.419.236-41.946,23.661-50.406,30.912-.672.577-1.35,1.143-2.021,1.7-7.913,6.613-14.163,11.836-3.6,25.8a5.14,5.14,0,0,0,4.3,2.088h.115c16.9,0,57.4-50.344,57.806-50.854a1.254,1.254,0,0,1,1.182-.454c.358.055,8.927,1.223,12.054-11.057a1.248,1.248,0,0,1,1.258-.944c5.456.185,13.274-.528,15.559-2.53l-22.152-3.927A8.224,8.224,0,0,0,364.808,486.8Zm-13.279,8.3h0Z" transform="translate(-288.03 -484.295)" fill="#1d1320"/>
        </g>
      </g>
      <g id="Group_47717" data-name="Group 47717" transform="translate(47.704 221.252)">
        <g id="Group_47714" data-name="Group 47714" transform="translate(39.354 247.762)">
          <g id="Group_47712" data-name="Group 47712" transform="translate(11.127)">
            <path id="Path_102292" data-name="Path 102292" d="M420.891,906.54,406.98,948.047s15.153-1.293,16.6-1.01,19.172-37.853,19.172-37.853Z" transform="translate(-405.726 -905.286)" fill="#fff"/>
            <path id="Path_102293" data-name="Path 102293" d="M406.734,949.055a1.254,1.254,0,0,1-1.189-1.653L419.456,905.9a1.253,1.253,0,0,1,1.339-.847l21.863,2.643a1.255,1.255,0,0,1,.986,1.774c-.044.1-4.488,9.652-9.052,19.052-9.647,19.869-10.268,19.742-11.5,19.5-1.049-.159-10.138.507-16.255,1.028C406.8,949.053,406.77,949.055,406.734,949.055Zm14.775-41.393-12.98,38.73c4.248-.35,11.878-.935,14.385-.882,2.152-2.806,11.59-22.383,17.727-35.534Zm2.065,37.9h0Zm-.028,0,.028,0Z" transform="translate(-405.48 -905.04)" fill="#1d1320"/>
          </g>
          <g id="Group_47713" data-name="Group 47713" transform="translate(0 24.123)">
            <path id="Path_102294" data-name="Path 102294" d="M407.983,943.656s20.921-8.577,24.79,2.187c4.921,13.691,12.613,34.58,12.613,34.58a5.86,5.86,0,0,1-5.051,7.822c-7.646.615-19.049,1.113-24.363-.751-8.387-2.943-22.3-29.488-22.3-29.488l4.289-22.585S405.547,934.351,407.983,943.656Z" transform="translate(-392.416 -934.14)" fill="#915aa3"/>
            <path id="Path_102295" data-name="Path 102295" d="M427.768,989.812c-4.931,0-9.531-.352-12.457-1.379-8.753-3.07-22.421-28.987-23-30.089a1.254,1.254,0,0,1-.121-.816l4.29-22.585a1.253,1.253,0,0,1,1.057-1.007c.082-.012,7.955-1.009,11.008,7.826,3.617-1.309,13.93-4.557,20.373-1.692a8.6,8.6,0,0,1,4.786,5.105c4.863,13.529,12.534,34.362,12.611,34.571a7.114,7.114,0,0,1-6.128,9.505C436.354,989.559,431.942,989.812,427.768,989.812Zm-33.031-32.246c3.993,7.537,15.02,26.261,21.4,28.5,3.893,1.366,12.362,1.609,23.847.685a4.607,4.607,0,0,0,3.972-6.149c-.074-.2-7.748-21.041-12.614-34.579a6.1,6.1,0,0,0-3.443-3.662c-6.77-3.011-19.563,2.158-19.692,2.21a1.255,1.255,0,0,1-1.689-.843c-1.663-6.357-5.912-7.255-7.764-7.334Z" transform="translate(-392.17 -933.896)" fill="#1d1320"/>
          </g>
          <path id="Path_102296" data-name="Path 102296" d="M444.662,988.809H423.174a1.254,1.254,0,1,1,0-2.508h21.488a1.254,1.254,0,1,1,0,2.508Z" transform="translate(-397.05 -918.369)" fill="#1d1320"/>
        </g>
        <g id="Group_47715" data-name="Group 47715" transform="translate(24.946 256.878)">
          <path id="Path_102297" data-name="Path 102297" d="M376.436,918.527l4.727,41.752,19.014-5.215-1.464-37.619Z" transform="translate(-375.182 -916.191)" fill="#fff"/>
          <path id="Path_102298" data-name="Path 102298" d="M380.916,961.287a1.257,1.257,0,0,1-1.246-1.114l-4.727-41.752a1.255,1.255,0,0,1,1.185-1.394l22.278-1.082a1.253,1.253,0,0,1,1.313,1.2l1.464,37.619a1.253,1.253,0,0,1-.921,1.257l-19.014,5.216A1.251,1.251,0,0,1,380.916,961.287Zm-3.331-41.819L382,958.436l16.642-4.564-1.375-35.358Z" transform="translate(-374.936 -915.945)" fill="#1d1320"/>
        </g>
        <g id="Group_47716" data-name="Group 47716" transform="translate(21.204 286.547)">
          <path id="Path_102299" data-name="Path 102299" d="M378.635,996.861H408.72a6.666,6.666,0,0,0,6.6-7.637c-1-6.794-4.275-18.064-14.086-33.568a5.858,5.858,0,0,0-4.944-2.722h-9.15a3.082,3.082,0,0,0-3.065,2.761l-.691,6.6-3.983-5.261a89.671,89.671,0,0,0-7.443,33.032A6.676,6.676,0,0,0,378.635,996.861Z" transform="translate(-370.704 -951.681)" fill="#915aa3"/>
          <path id="Path_102300" data-name="Path 102300" d="M408.474,997.869H378.389a7.931,7.931,0,0,1-7.929-8.069,90.026,90.026,0,0,1,7.564-33.547,1.254,1.254,0,0,1,2.133-.22l2.067,2.73.36-3.444a4.326,4.326,0,0,1,4.313-3.885h9.15a7.069,7.069,0,0,1,6,3.305c9.956,15.735,13.253,27.2,14.267,34.055a7.92,7.92,0,0,1-7.842,9.074Zm-29.017-38.6a89.687,89.687,0,0,0-6.49,30.581,5.424,5.424,0,0,0,5.422,5.515h30.085a5.411,5.411,0,0,0,5.361-6.2c-.977-6.612-4.183-17.718-13.906-33.081a4.632,4.632,0,0,0-3.884-2.138H386.9a1.825,1.825,0,0,0-1.818,1.638l-.691,6.6a1.253,1.253,0,0,1-2.246.626Z" transform="translate(-370.458 -951.435)" fill="#1d1320"/>
        </g>
        <path id="Path_102301" data-name="Path 102301" d="M413.035,997.886H377.021a1.254,1.254,0,0,1,0-2.508h36.015a1.254,1.254,0,1,1,0,2.508Z" transform="translate(-350.126 -672.096)" fill="#1d1320"/>
        <path id="Path_102302" data-name="Path 102302" d="M442.706,617.133a6.975,6.975,0,0,0-4.368-4.022,107.2,107.2,0,0,0-88.84,12.776,7.016,7.016,0,0,0-3.213,5.405c-1.427,20.064-6.75,124.954,26.43,249.144l22.351-1.592L399.625,666.5s33.109,77.846,6.187,201.735l23.248,4.293S463.08,827.8,469.172,759.438C474.561,698.968,448.738,631.822,442.706,617.133Z" transform="translate(-345.094 -608.664)" fill="#1d1320"/>
        <path id="Path_102303" data-name="Path 102303" d="M380.352,810.067l-.055,0c-20.983-.905-23.355-29.394-23.376-29.682a1.254,1.254,0,0,1,2.5-.188c.02.266,2.228,26.556,20.984,27.365a1.254,1.254,0,0,1-.053,2.507Z" transform="translate(-347.034 -636.61)" fill="#fff"/>
        <path id="Path_102304" data-name="Path 102304" d="M412.25,695.012A1.254,1.254,0,0,1,411,693.8l-.787-26.562a1.255,1.255,0,0,1,.532-1.063l13.934-9.8a1.254,1.254,0,1,1,1.442,2.052l-13.381,9.408.767,25.888a1.253,1.253,0,0,1-1.216,1.29Z" transform="translate(-355.775 -616.452)" fill="#fff"/>
      </g>
      <g id="Group_47720" data-name="Group 47720" transform="translate(58.349 22.511)">
        <g id="Group_47718" data-name="Group 47718">
          <path id="Path_102305" data-name="Path 102305" d="M369.987,433.2a14.349,14.349,0,0,0,6.392-12.3l-.467-20.442c-.139-.129-.278-.258-.414-.386,0,0-8.189.546-9.381-3.624s4.6-4.971,4.6-4.971-5.468-11.508,8.677-11.373c3.8.035,5.157-6.261,11.39-7.673,0,0,3.082-.263,6.207,7.821l6.843,10.129-3.418,1.874a38.343,38.343,0,0,1,.687,12.6,3.328,3.328,0,0,1-2.284,2.787,21.125,21.125,0,0,1-4.046.877l1.1,13.681a20.184,20.184,0,0,0,8.541,14.894,101.1,101.1,0,0,0,9.135,5.688,168.49,168.49,0,0,1-54.221-3.171S364.929,436.55,369.987,433.2Z" transform="translate(-358.074 -371.174)" fill="#fff"/>
          <path id="Path_102306" data-name="Path 102306" d="M396.472,444.67a171.6,171.6,0,0,1-37.67-4.081,1.254,1.254,0,0,1-.323-2.323c.056-.03,5.615-3.077,10.569-6.358h0a13.025,13.025,0,0,0,5.83-11.228l-.447-19.573c-2.422.027-8.557-.331-9.767-4.562a4.415,4.415,0,0,1,.467-3.727,6.743,6.743,0,0,1,3.661-2.48c-.588-1.864-1.224-5.2.5-7.9,1.654-2.589,4.939-3.881,9.86-3.832h.019c1.148,0,2.087-.971,3.52-2.55,1.72-1.9,3.86-4.253,7.562-5.091a1.152,1.152,0,0,1,.17-.027c.663-.056,4.15.088,7.432,8.485l6.765,10.012a1.254,1.254,0,0,1-.436,1.8l-2.606,1.429a39.406,39.406,0,0,1,.517,12.092,4.594,4.594,0,0,1-3.145,3.837,22.03,22.03,0,0,1-3.086.757l1.007,12.508a18.877,18.877,0,0,0,8.012,13.967,100.609,100.609,0,0,0,9.008,5.609,1.254,1.254,0,0,1-.423,2.347A141.614,141.614,0,0,1,396.472,444.67Zm-33.91-5.833a172.936,172.936,0,0,0,46.736,2.839c-1.633-.984-3.7-2.289-5.852-3.8a21.38,21.38,0,0,1-9.071-15.819l-1.1-13.682a1.254,1.254,0,0,1,1.1-1.346,19.769,19.769,0,0,0,3.8-.824,2.08,2.08,0,0,0,1.425-1.738,37.143,37.143,0,0,0-.667-12.191,1.254,1.254,0,0,1,.622-1.367l2.213-1.213-6.073-8.988a1.184,1.184,0,0,1-.13-.25c-2.379-6.151-4.616-6.944-4.9-7.017-2.845.691-4.508,2.524-6.118,4.3-1.584,1.746-3.072,3.38-5.42,3.372-3.97-.04-6.567.862-7.724,2.674-1.725,2.7.17,6.866.19,6.908a1.254,1.254,0,0,1-.961,1.78c-.7.1-2.687.606-3.408,1.72a1.868,1.868,0,0,0-.155,1.664c.743,2.6,6.234,2.839,8.094,2.717a1.262,1.262,0,0,1,.942.339l.4.378a1.252,1.252,0,0,1,.4.893l.467,20.442A15.519,15.519,0,0,1,370.434,434h0C367.646,435.844,364.674,437.616,362.563,438.836Zm7.178-5.884h0Z" transform="translate(-357.828 -370.928)" fill="#1d1320"/>
        </g>
        <g id="Group_47719" data-name="Group 47719" transform="translate(22.903 31.524)">
          <path id="Path_102307" data-name="Path 102307" d="M399.264,414.7s-8.975.314-12.54-4.568Z" transform="translate(-385.47 -408.883)" fill="#fff"/>
          <path id="Path_102308" data-name="Path 102308" d="M398.649,415.718c-1.9,0-9.689-.3-13.183-5.087a1.254,1.254,0,0,1,2.026-1.479c3.125,4.28,11.4,4.055,11.484,4.054a1.254,1.254,0,0,1,.087,2.506C399.02,415.714,398.876,415.718,398.649,415.718Z" transform="translate(-385.224 -408.637)" fill="#1d1320"/>
        </g>
      </g>
    </g>
    <g id="Group_47724" data-name="Group 47724" transform="translate(473.994 209.617)">
      <path id="Path_102309" data-name="Path 102309" d="M904.722,394.711,733.812,224.545a34.885,34.885,0,0,0-24.619-10.162l-17.417,0,7.214,27.006L562.573,391.118c-2.081,2.284-.614,6.254,2.327,6.292l31.6.4.358,263.836c0,6.415,4.768,12.321,10.679,13.2l215.759,31.915,3.206,12,31.326-12.57v-.005c5.512-2.541,8.518-3.917,9.343-11.118V417.687l28.224-.178A13.343,13.343,0,0,0,904.722,394.711Z" transform="translate(-526.44 -214.38)" fill="#eaacff"/>
      <path id="Path_102310" data-name="Path 102310" d="M897.695,800.646a1.254,1.254,0,0,1-.467-2.418l16.214-6.506.042-.02c5.4-2.488,7.86-3.623,8.613-10.051v-38.8a1.254,1.254,0,1,1,2.508,0v38.875a1.341,1.341,0,0,1-.007.142c-.9,7.858-4.508,9.553-9.969,12.071a1.3,1.3,0,0,1-.153.074l-16.314,6.546A1.258,1.258,0,0,1,897.695,800.646Z" transform="translate(-581.364 -300.857)" fill="#fff"/>
      <path id="Path_102311" data-name="Path 102311" d="M879.281,393.3,692.57,216.747c-3.724-3.522-9.691-3.058-13.382,1.018L521.95,391.377a9.935,9.935,0,0,0-.067,12.892c2.591,2.973,39.6,2.133,39.6,2.133l.353,262.158c0,6.374,4.707,12.239,10.544,13.1l242.76,35.908c7.358,1.088,13.357-3.872,13.357-11.087V409.8s41.041,1.788,42.863,1.812a11.381,11.381,0,0,0,8.016-3.089A10.378,10.378,0,0,0,879.281,393.3Z" transform="translate(-519.542 -214.379)" fill="#fff"/>
      <g id="Group_47723" data-name="Group 47723" transform="translate(54.486 154.655)">
        <path id="Path_102312" data-name="Path 102312" d="M763.185,688.761c0,31.466-24.946,53.608-54.951,49.557-29.19-3.939-52.278-31.323-52.278-61.258s23.087-52.28,52.278-49.85C738.239,629.708,763.185,657.294,763.185,688.761Z" transform="translate(-596.405 -436.721)" fill="#eaacff"/>
        <path id="Path_102313" data-name="Path 102313" d="M755.056,595.476a12.9,12.9,0,0,1-6.49-1.751,95.683,95.683,0,0,0-42.453-13.1,80.879,80.879,0,0,0-39.795,7.352,12.957,12.957,0,0,1-11.026-23.452,106.482,106.482,0,0,1,52.4-9.767,121.356,121.356,0,0,1,53.878,16.552,12.959,12.959,0,0,1-6.515,24.168Z" transform="translate(-595.074 -424.83)" fill="#915aa3"/>
        <path id="Path_102314" data-name="Path 102314" d="M779.764,524.663a12.906,12.906,0,0,1-6.2-1.588c-23.015-12.571-47.341-19.337-72.3-20.107-23.844-.736-46.248,4.09-66.588,14.343a12.957,12.957,0,1,1-11.664-23.141c24.242-12.219,50.838-17.972,79.051-17.1,29.068.9,57.305,8.724,83.927,23.266a12.959,12.959,0,0,1-6.223,24.332Z" transform="translate(-589.831 -412.109)" fill="#915aa3"/>
        <path id="Path_102315" data-name="Path 102315" d="M805.432,452.235a12.9,12.9,0,0,1-5.9-1.428c-33-16.907-67.653-25.49-102.993-25.512h-.133c-33.328,0-64.477,7.667-92.59,22.79a12.958,12.958,0,1,1-12.278-22.822c31.927-17.175,67.21-25.883,104.867-25.883h.15c39.483.024,78.1,9.567,114.793,28.363a12.96,12.96,0,0,1-5.919,24.492Z" transform="translate(-584.72 -399.38)" fill="#915aa3"/>
        <g id="Group_47722" data-name="Group 47722" transform="translate(77.598 203.148)">
          <path id="Path_102316" data-name="Path 102316" d="M715.295,725a34.318,34.318,0,0,1-4.218-.262c-18.8-2.328-33.534-19.36-33.534-38.776,0-12.723,6.66-23.971,17.382-29.358a5.68,5.68,0,0,1,5.1,10.151c-6.963,3.5-11.12,10.678-11.12,19.206,0,13.555,10.573,25.893,23.57,27.5a20.014,20.014,0,0,0,15.966-4.714,21.484,21.484,0,0,0,6.987-16.429,28.621,28.621,0,0,0-12.383-23.151,5.68,5.68,0,1,1,6.451-9.35,40.132,40.132,0,0,1,17.292,32.5,32.686,32.686,0,0,1-10.823,24.94A30.872,30.872,0,0,1,715.295,725Z" transform="translate(-677.543 -644.62)" fill="#915aa3"/>
          <path id="Path_102317" data-name="Path 102317" d="M717.377,681.272a5.68,5.68,0,0,1-5.68-5.68V648.068a5.68,5.68,0,1,1,11.36,0v27.523A5.68,5.68,0,0,1,717.377,681.272Z" transform="translate(-683.145 -642.388)" fill="#915aa3"/>
        </g>
      </g>
    </g>
    <g id="Group_47727" data-name="Group 47727" transform="translate(484.355 273.565)">
      <path id="Path_102318" data-name="Path 102318" d="M726.927,330.711H578.87a9.872,9.872,0,0,0,0,19.743H726.927a9.872,9.872,0,0,0,0-19.743Z" transform="translate(-538.015 -297.41)" fill="#eaacff"/>
      <g id="Group_47726" data-name="Group 47726" transform="translate(0 0)">
        <g id="Group_47725" data-name="Group 47725" transform="translate(0 1.86)">
          <path id="Path_102319" data-name="Path 102319" d="M622.875,293.1H541.1a9.166,9.166,0,1,0,0,18.332h81.772a9.166,9.166,0,1,0,0-18.332Z" transform="translate(-531.936 -293.101)" fill="#eaacff"/>
        </g>
        <circle id="Ellipse_4791" data-name="Ellipse 4791" cx="9.166" cy="9.166" r="9.166" transform="matrix(0.23, -0.973, 0.973, 0.23, 107.992, 17.841)" fill="#eaacff"/>
      </g>
    </g>
    <g id="Group_47731" data-name="Group 47731" transform="translate(709.185 210.873)">
      <path id="Path_102320" data-name="Path 102320" d="M892.479,389.978a1.254,1.254,0,0,1-.064-2.506,85.182,85.182,0,0,0,9.817-1.081,1.254,1.254,0,0,1,.42,2.473,87.783,87.783,0,0,1-10.108,1.113Zm-10.022-.06-.08,0a87.651,87.651,0,0,1-10.094-1.234,1.254,1.254,0,0,1,.449-2.468,84.878,84.878,0,0,0,9.8,1.2,1.254,1.254,0,0,1-.079,2.505Zm29.751-3.289a1.254,1.254,0,0,1-.353-2.457,84.44,84.44,0,0,0,9.3-3.335,1.254,1.254,0,1,1,.983,2.307,86.671,86.671,0,0,1-9.574,3.433A1.264,1.264,0,0,1,912.208,386.629Zm-49.437-.3a1.257,1.257,0,0,1-.369-.056,86.7,86.7,0,0,1-9.536-3.552,1.254,1.254,0,1,1,1.012-2.294,84.288,84.288,0,0,0,9.259,3.448,1.254,1.254,0,0,1-.367,2.454Zm67.842-7.549a1.255,1.255,0,0,1-.624-2.342,84.911,84.911,0,0,0,8.266-5.4,1.254,1.254,0,1,1,1.492,2.016,87.776,87.776,0,0,1-8.511,5.561A1.247,1.247,0,0,1,930.613,378.782Zm-86.162-.529a1.255,1.255,0,0,1-.635-.174,87.735,87.735,0,0,1-8.447-5.668,1.254,1.254,0,0,1,1.516-2,85.174,85.174,0,0,0,8.2,5.5,1.255,1.255,0,0,1-.638,2.335ZM946.7,366.88a1.253,1.253,0,0,1-.858-2.169,85.345,85.345,0,0,0,6.8-7.163,1.254,1.254,0,0,1,1.916,1.619,88.139,88.139,0,0,1-7,7.374A1.248,1.248,0,0,1,946.7,366.88Zm-118.19-.729a1.25,1.25,0,0,1-.869-.35,87.931,87.931,0,0,1-6.91-7.459,1.254,1.254,0,0,1,1.936-1.6,85.257,85.257,0,0,0,6.712,7.245,1.254,1.254,0,0,1-.869,2.158Zm131.1-14.561a1.253,1.253,0,0,1-1.044-1.946,84.794,84.794,0,0,0,4.965-8.541,1.254,1.254,0,0,1,2.239,1.131,87.39,87.39,0,0,1-5.113,8.8A1.254,1.254,0,0,1,959.612,351.59Zm-143.827-.883a1.253,1.253,0,0,1-1.055-.575,87.2,87.2,0,0,1-5-8.85,1.254,1.254,0,0,1,2.252-1.1,84.817,84.817,0,0,0,4.857,8.595,1.255,1.255,0,0,1-1.052,1.934Zm152.858-16.984a1.256,1.256,0,0,1-1.178-1.685,84.192,84.192,0,0,0,2.841-9.463,1.254,1.254,0,1,1,2.44.578,86.744,86.744,0,0,1-2.926,9.747A1.254,1.254,0,0,1,968.643,333.724Zm-161.664-.983a1.255,1.255,0,0,1-1.183-.838,86.791,86.791,0,0,1-2.806-9.777,1.254,1.254,0,0,1,2.448-.548,84.2,84.2,0,0,0,2.724,9.492,1.254,1.254,0,0,1-1.183,1.67Zm166.286-18.494a1.23,1.23,0,0,1-.146-.008,1.254,1.254,0,0,1-1.1-1.39,85.9,85.9,0,0,0,.568-9.86,1.254,1.254,0,0,1,2.508,0,88.313,88.313,0,0,1-.585,10.15A1.254,1.254,0,0,1,973.264,314.247ZM802.6,313.215a1.255,1.255,0,0,1-1.246-1.125,88.7,88.7,0,0,1-.47-9.1q0-.528.006-1.053a1.255,1.255,0,0,1,1.254-1.24h.015a1.255,1.255,0,0,1,1.239,1.269q-.006.512-.006,1.024a85.835,85.835,0,0,0,.457,8.844,1.255,1.255,0,0,1-1.119,1.377C802.684,313.212,802.64,313.215,802.6,313.215ZM973.476,296.3a1.254,1.254,0,0,1-1.247-1.139,84.731,84.731,0,0,0-1.474-9.766,1.254,1.254,0,0,1,2.454-.518,87.269,87.269,0,0,1,1.516,10.055,1.254,1.254,0,0,1-1.134,1.363C973.553,296.3,973.514,296.3,973.476,296.3Zm-170.636-3.1a1.173,1.173,0,0,1-.161-.011,1.253,1.253,0,0,1-1.084-1.4,87.173,87.173,0,0,1,1.883-9.994,1.254,1.254,0,1,1,2.433.608,84.6,84.6,0,0,0-1.828,9.706A1.254,1.254,0,0,1,802.84,293.205Zm166.5-16.478a1.255,1.255,0,0,1-1.188-.853,84.4,84.4,0,0,0-3.708-9.154,1.254,1.254,0,0,1,2.266-1.076,86.783,86.783,0,0,1,3.819,9.426,1.254,1.254,0,0,1-1.188,1.656Zm-161.643-2.941a1.241,1.241,0,0,1-.445-.082,1.254,1.254,0,0,1-.727-1.617,86.818,86.818,0,0,1,4.162-9.284,1.254,1.254,0,1,1,2.224,1.159,84.228,84.228,0,0,0-4.042,9.015A1.256,1.256,0,0,1,807.693,273.786Zm153.058-15.131a1.253,1.253,0,0,1-1.063-.588,85.072,85.072,0,0,0-5.729-8.043,1.254,1.254,0,0,1,1.955-1.572,87.7,87.7,0,0,1,5.9,8.281,1.255,1.255,0,0,1-1.061,1.921ZM816.938,256.03a1.254,1.254,0,0,1-1.035-1.96,87.761,87.761,0,0,1,6.2-8.064,1.254,1.254,0,0,1,1.9,1.641,85.132,85.132,0,0,0-6.02,7.833A1.255,1.255,0,0,1,816.938,256.03Zm131.276-12.972a1.253,1.253,0,0,1-.88-.36,85.086,85.086,0,0,0-7.43-6.511,1.254,1.254,0,0,1,1.541-1.979,87.868,87.868,0,0,1,7.649,6.7,1.254,1.254,0,0,1-.879,2.148ZM830.039,240.9a1.254,1.254,0,0,1-.847-2.179,87.848,87.848,0,0,1,7.886-6.419,1.254,1.254,0,0,1,1.467,2.034,85.318,85.318,0,0,0-7.66,6.235A1.25,1.25,0,0,1,830.039,240.9Zm102.378-10.13a1.242,1.242,0,0,1-.649-.182,84.92,84.92,0,0,0-8.735-4.617,1.254,1.254,0,0,1,1.04-2.282,87.234,87.234,0,0,1,8.994,4.755,1.254,1.254,0,0,1-.65,2.327Zm-86.15-1.574a1.254,1.254,0,0,1-.612-2.35,87.109,87.109,0,0,1,9.154-4.418,1.254,1.254,0,1,1,.956,2.318,84.471,84.471,0,0,0-8.89,4.291A1.244,1.244,0,0,1,846.267,229.191Zm67.933-6.727a1.245,1.245,0,0,1-.383-.06,84.379,84.379,0,0,0-9.572-2.454,1.254,1.254,0,0,1,.48-2.462,86.8,86.8,0,0,1,9.857,2.528,1.254,1.254,0,0,1-.382,2.449Zm-49.438-.9a1.254,1.254,0,0,1-.338-2.462,86.816,86.816,0,0,1,9.936-2.165,1.254,1.254,0,0,1,.39,2.478,84.232,84.232,0,0,0-9.649,2.1A1.259,1.259,0,0,1,864.762,221.568Zm29.792-2.932c-.032,0-.064,0-.1,0a86.285,86.285,0,0,0-9.877-.176,1.254,1.254,0,1,1-.1-2.506,89.037,89.037,0,0,1,10.165.181,1.254,1.254,0,0,1-.093,2.5Z" transform="translate(-800.881 -215.882)" fill="#ecba53"/>
      <g id="Group_47728" data-name="Group 47728" transform="translate(13.767 13.766)">
        <path id="Path_102321" data-name="Path 102321" d="M890.688,232.349a73.339,73.339,0,1,0,73.34,73.34A73.34,73.34,0,0,0,890.688,232.349Zm0,132.959a59.619,59.619,0,1,1,59.62-59.619A59.619,59.619,0,0,1,890.688,365.308Z" transform="translate(-817.349 -232.349)" fill="#fff"/>
      </g>
      <g id="Group_47729" data-name="Group 47729" transform="translate(13.767 13.8)">
        <path id="Path_102322" data-name="Path 102322" d="M849.225,269.6l-9.707-9.706a73.631,73.631,0,0,0-8.87,11.486L842.5,278.3A59.86,59.86,0,0,1,849.225,269.6Z" transform="translate(-819.53 -236.9)" fill="#eaacff"/>
        <path id="Path_102323" data-name="Path 102323" d="M907.646,232.389v13.729a59.377,59.377,0,0,1,37.234,14.818l9.431-9.972A73.047,73.047,0,0,0,907.646,232.389Z" transform="translate(-832.16 -232.389)" fill="#fff"/>
        <path id="Path_102324" data-name="Path 102324" d="M955.915,268.11a59.71,59.71,0,0,1,15.236,56.737l13.128,4.019a73.425,73.425,0,0,0-18.93-70.731Z" transform="translate(-840.078 -236.612)" fill="#fff"/>
        <path id="Path_102325" data-name="Path 102325" d="M957.287,364.424l9.706,9.707a73.3,73.3,0,0,0,16.284-27.255l-13.123-4.019A59.578,59.578,0,0,1,957.287,364.424Z" transform="translate(-840.303 -250.509)" fill="#eaacff"/>
        <path id="Path_102326" data-name="Path 102326" d="M848.19,354.994a59.642,59.642,0,0,1-10.039-70.01L826.3,278.059a73.373,73.373,0,0,0,12.46,86.91Z" transform="translate(-817.349 -239.88)" fill="#915aa3"/>
        <path id="Path_102327" data-name="Path 102327" d="M946.109,372.287a59.388,59.388,0,0,1-38.463,15.932v13.729a73.072,73.072,0,0,0,48.17-19.954Z" transform="translate(-832.16 -255.336)" fill="#915aa3"/>
        <path id="Path_102328" data-name="Path 102328" d="M854.6,262.05a59.388,59.388,0,0,1,38.463-15.932V232.389a73.073,73.073,0,0,0-48.17,19.955Z" transform="translate(-821.866 -232.389)" fill="#eaacff"/>
        <path id="Path_102329" data-name="Path 102329" d="M893.355,402.167V388.437a59.368,59.368,0,0,1-37.234-14.818l-9.431,9.972A73.047,73.047,0,0,0,893.355,402.167Z" transform="translate(-822.162 -255.555)" fill="#eaacff"/>
      </g>
      <g id="Group_47730" data-name="Group 47730" transform="translate(38.872 38.871)">
        <path id="Path_102330" data-name="Path 102330" d="M901.416,370.888a47.979,47.979,0,0,1-17.881-3.423,1.254,1.254,0,0,1,.93-2.329,45.777,45.777,0,0,0,60.5-28.487,1.254,1.254,0,0,1,2.388.767A48.086,48.086,0,0,1,901.416,370.888Z" transform="translate(-853.181 -274.419)" fill="#1d1320"/>
        <path id="Path_102331" data-name="Path 102331" d="M958.606,305.664a1.254,1.254,0,0,1-1.219-.961,45.416,45.416,0,0,0-4.343-11.245,1.254,1.254,0,0,1,2.2-1.205,47.949,47.949,0,0,1,4.583,11.865,1.253,1.253,0,0,1-1.22,1.547Z" transform="translate(-864.687 -267.173)" fill="#1d1320"/>
        <path id="Path_102332" data-name="Path 102332" d="M865.41,347.855a1.245,1.245,0,0,1-.806-.294,48.249,48.249,0,0,1,45.71-82.9,1.254,1.254,0,0,1-.763,2.389,45.734,45.734,0,0,0-43.333,78.59,1.254,1.254,0,0,1-.807,2.215Z" transform="translate(-847.38 -262.38)" fill="#1d1320"/>
      </g>
    </g>
    <g id="Group_47734" data-name="Group 47734" transform="translate(666.35 735.856)">
      <g id="Group_47732" data-name="Group 47732">
        <path id="Path_102333" data-name="Path 102333" d="M978.439,860.612a1.254,1.254,0,0,1-.531-2.39l30.465-14.231a1.254,1.254,0,0,1,1.061,2.272l-30.465,14.231A1.246,1.246,0,0,1,978.439,860.612Z" transform="translate(-786.964 -843.873)" fill="#1d1320"/>
        <path id="Path_102334" data-name="Path 102334" d="M750.9,957.8a1.255,1.255,0,0,1-.532-2.391l129.729-60.6a1.254,1.254,0,1,1,1.061,2.272l-129.729,60.6A1.258,1.258,0,0,1,750.9,957.8Z" transform="translate(-749.64 -852.209)" fill="#1d1320"/>
      </g>
      <g id="Group_47733" data-name="Group 47733" transform="translate(42.835 27.586)">
        <path id="Path_102335" data-name="Path 102335" d="M973.1,887.993a1.254,1.254,0,0,1-.588-2.362l16.266-8.613a1.254,1.254,0,0,1,1.175,2.216l-16.266,8.614A1.255,1.255,0,0,1,973.1,887.993Z" transform="translate(-828.924 -876.871)" fill="#1d1320"/>
        <path id="Path_102336" data-name="Path 102336" d="M902.618,922.576a1.254,1.254,0,0,1-.588-2.362l42.659-22.589a1.254,1.254,0,1,1,1.174,2.216L903.2,922.429A1.246,1.246,0,0,1,902.618,922.576Z" transform="translate(-817.362 -880.251)" fill="#1d1320"/>
        <path id="Path_102337" data-name="Path 102337" d="M802.136,974.3a1.254,1.254,0,0,1-.588-2.362l56.91-30.135a1.254,1.254,0,1,1,1.174,2.216l-56.91,30.135A1.245,1.245,0,0,1,802.136,974.3Z" transform="translate(-800.88 -887.498)" fill="#1d1320"/>
      </g>
    </g>
    <g id="Group_47737" data-name="Group 47737" transform="translate(817.471 415.605)">
      <g id="Group_47735" data-name="Group 47735" transform="translate(0 83.008)">
        <path id="Path_102338" data-name="Path 102338" d="M979.559,573.7l-2.829-4.167-5.12,2.012a20.834,20.834,0,0,0-2.652-2.3l1.248-5.352-4.534-2.194-3.428,4.3a21.225,21.225,0,0,0-3.443-.659l-1.6-5.265-5.023.365-.816,5.434a20.971,20.971,0,0,0-3.313,1.158l-4.016-3.76-4.167,2.829,2.012,5.12a20.885,20.885,0,0,0-2.3,2.651l-5.351-1.247-2.194,4.534,4.3,3.428a21.153,21.153,0,0,0-.659,3.443l-5.266,1.6.366,5.024,5.434.816a20.837,20.837,0,0,0,1.158,3.313l-3.76,4.016,2.829,4.167,5.12-2.012a20.9,20.9,0,0,0,2.652,2.3l-1.247,5.351L947.5,610.8l3.429-4.3a21.123,21.123,0,0,0,3.443.659l1.6,5.266,5.023-.366.817-5.434a20.841,20.841,0,0,0,3.312-1.158l4.016,3.76L973.3,606.4l-2.012-5.119a20.9,20.9,0,0,0,2.3-2.652l5.351,1.247,2.2-4.534-4.3-3.429a21.213,21.213,0,0,0,.659-3.443l5.265-1.6-.366-5.023-5.433-.817a20.9,20.9,0,0,0-1.159-3.313Zm-15.692,23.279a12.966,12.966,0,1,1,3.447-18.01A12.966,12.966,0,0,1,963.867,596.979Z" transform="translate(-930.414 -560.08)" fill="#915aa3"/>
      </g>
      <g id="Group_47736" data-name="Group 47736" transform="translate(26.74)">
        <path id="Path_102339" data-name="Path 102339" d="M1046.5,484.093l-4.841-7.132L1032.9,480.4a35.7,35.7,0,0,0-4.537-3.934l2.134-9.157-7.758-3.755-5.868,7.364a36.273,36.273,0,0,0-5.891-1.127l-2.734-9.01-8.6.626-1.4,9.3a35.709,35.709,0,0,0-5.669,1.982l-6.872-6.435-7.132,4.841,3.443,8.762a35.708,35.708,0,0,0-3.934,4.537l-9.156-2.135-3.756,7.759,7.365,5.867a36.2,36.2,0,0,0-1.128,5.891l-9.01,2.734.626,8.6,9.3,1.4a35.727,35.727,0,0,0,1.981,5.669l-6.434,6.871,4.84,7.132,8.762-3.443a35.689,35.689,0,0,0,4.537,3.934l-2.134,9.157,7.758,3.755,5.868-7.364a36.261,36.261,0,0,0,5.89,1.127l2.734,9.01,8.6-.626,1.4-9.3a35.709,35.709,0,0,0,5.669-1.981l6.872,6.435,7.131-4.841-3.443-8.762a35.631,35.631,0,0,0,3.934-4.537l9.157,2.134,3.755-7.758-7.364-5.867a36.194,36.194,0,0,0,1.127-5.891l9.01-2.734-.626-8.6-9.3-1.4a35.711,35.711,0,0,0-1.981-5.669Zm-26.851,39.834a22.188,22.188,0,1,1,5.9-30.82A22.188,22.188,0,0,1,1019.646,523.927Z" transform="translate(-962.401 -460.785)" fill="#915aa3"/>
      </g>
    </g>
  </g>
</svg>
