<svg xmlns="http://www.w3.org/2000/svg" xmlns:xlink="http://www.w3.org/1999/xlink" width="680" height="680" viewBox="0 0 680 680">
  <defs>
    <clipPath id="clip-path">
      <path id="Path_102080" data-name="Path 102080" d="M1604.648,205.521c-14.81,4.617-80.519,26.071-146.133,83-15.895,13.792-80.143,69.537-107.592,144.484-46.723,127.567,9.186,321.642,170.22,399.634,187.571,90.845,424.506-20.972,478.545-170.614,23.967-66.37,25.047-176.43-35.329-249-48.592-58.409-131.687-86.162-128.468-141.409,1.55-26.608,21.628-33.965,16.059-50.723C1838.74,181.145,1709.31,172.9,1604.648,205.521Z" transform="translate(-1335 -185.35)" fill="none"/>
    </clipPath>
  </defs>
  <g id="Backup_server" data-name="Backup server" transform="translate(-1335 -185.35)">
    <path id="Path_102058" data-name="Path 102058" d="M1604.648,205.521c-14.81,4.617-80.519,26.071-146.133,83-15.895,13.792-80.143,69.537-107.592,144.484-46.723,127.567,9.186,321.642,170.22,399.634,187.571,90.845,424.506-20.972,478.545-170.614,23.967-66.37,25.047-176.43-35.329-249-48.592-58.409-131.687-86.162-128.468-141.409,1.55-26.608,21.628-33.965,16.059-50.723C1838.74,181.145,1709.31,172.9,1604.648,205.521Z" transform="translate(0)" fill="#e7c7ff"/>
    <g id="Group_47583" data-name="Group 47583" transform="translate(1378.162 201.087)">
      <g id="Group_47575" data-name="Group 47575">
        <path id="Path_102065" data-name="Path 102065" d="M1561.9,445.037H1434.931a47.3,47.3,0,0,1-32.865-13.194,46.177,46.177,0,0,1-14.364-32.348q-.02-.758-.02-1.521a58.539,58.539,0,0,1,8.6-30.611,1.229,1.229,0,0,1,2.1,1.284,56.085,56.085,0,0,0-8.233,29.328q0,.731.019,1.458a43.729,43.729,0,0,0,13.607,30.635,44.849,44.849,0,0,0,31.164,12.512H1561.9a1.229,1.229,0,0,1,0,2.458Z" transform="translate(-1387.683 -233.874)" fill="#1d1320"/>
        <path id="Path_102066" data-name="Path 102066" d="M1489.763,263.331a1.229,1.229,0,0,1-.916-2.047c2.018-2.264,4.136-4.49,6.294-6.619a1.229,1.229,0,1,1,1.726,1.75c-2.121,2.092-4.2,4.281-6.186,6.505A1.225,1.225,0,0,1,1489.763,263.331Z" transform="translate(-1405.909 -213.55)" fill="#1d1320"/>
        <path id="Path_102067" data-name="Path 102067" d="M1554.495,217.185a1.23,1.23,0,0,1-.456-2.371,142.559,142.559,0,0,1,53.136-10.256q1.163,0,2.323.019a1.229,1.229,0,0,1-.039,2.458q-1.14-.018-2.283-.019a140.113,140.113,0,0,0-52.224,10.08A1.224,1.224,0,0,1,1554.495,217.185Z" transform="translate(-1417.607 -204.558)" fill="#1d1320"/>
        <path id="Path_102068" data-name="Path 102068" d="M1693.165,225.425a1.218,1.218,0,0,1-.6-.156,140.411,140.411,0,0,0-44.58-15.75,1.229,1.229,0,0,1,.419-2.422,142.816,142.816,0,0,1,45.357,16.025,1.229,1.229,0,0,1-.6,2.3Z" transform="translate(-1434.542 -205.014)" fill="#1d1320"/>
        <path id="Path_102069" data-name="Path 102069" d="M1710.359,233.273a1.226,1.226,0,0,1-.66-.193c-2.352-1.5-4.778-2.952-7.211-4.308a1.228,1.228,0,1,1,1.2-2.147c2.477,1.38,4.946,2.854,7.338,4.382a1.228,1.228,0,0,1-.662,2.264Z" transform="translate(-1444.461 -208.518)" fill="#1d1320"/>
        <path id="Path_102070" data-name="Path 102070" d="M1808.1,345.716a1.223,1.223,0,0,1-.689-.212,56.877,56.877,0,0,0-22.244-9.007,1.229,1.229,0,0,1-.99-.957,139.852,139.852,0,0,0-12.4-34.95,1.229,1.229,0,1,1,2.187-1.121,142.341,142.341,0,0,1,12.448,34.755,59.274,59.274,0,0,1,22.381,9.245,1.229,1.229,0,0,1-.69,2.246Z" transform="translate(-1457.073 -221.59)" fill="#1d1320"/>
        <path id="Path_102071" data-name="Path 102071" d="M1792.726,444.171h-34.949a1.229,1.229,0,1,1,0-2.458h34.949a37.224,37.224,0,0,0,37.216-36.784v-.4a57.342,57.342,0,0,0-14.931-38.644q-.838-.924-1.714-1.807a1.229,1.229,0,0,1,1.748-1.729c.609.616,1.21,1.249,1.786,1.883a59.8,59.8,0,0,1,15.57,40.3v.411A39.689,39.689,0,0,1,1792.726,444.171Z" transform="translate(-1454.345 -233.008)" fill="#1d1320"/>
        <g id="Group_47574" data-name="Group 47574" transform="translate(5.634 5.634)">
          <path id="Path_102072" data-name="Path 102072" d="M1396.06,370.171a51.842,51.842,0,0,1,50.039-51.809,136.177,136.177,0,0,1,266.648,6.432,53.078,53.078,0,0,1,47.642,52.8q0,.186,0,.371a32.748,32.748,0,0,1-32.81,32.407H1436.445c-21.709,0-39.814-17.149-40.367-38.852Q1396.06,370.847,1396.06,370.171Z" transform="translate(-1394.831 -211.706)" fill="#fff"/>
          <path id="Path_102073" data-name="Path 102073" d="M1727.306,411.329H1436.174c-22.372,0-41.032-17.966-41.6-40.05-.012-.459-.018-.918-.018-1.379a53.073,53.073,0,0,1,50.284-53,137.407,137.407,0,0,1,268.674,6.5,54.111,54.111,0,0,1,47.828,53.919l0,.379A34.036,34.036,0,0,1,1727.306,411.329ZM1578.493,213.893a134.236,134.236,0,0,0-131.467,104.475,1.229,1.229,0,0,1-1.155.952,50.4,50.4,0,0,0-48.853,50.581q0,.661.017,1.317c.53,20.763,18.087,37.654,39.139,37.654h291.133a31.573,31.573,0,0,0,31.581-31.187l0-.362a51.664,51.664,0,0,0-46.537-51.575,1.229,1.229,0,0,1-1.086-1.005A134.727,134.727,0,0,0,1578.493,213.893Z" transform="translate(-1394.56 -211.435)" fill="#1d1320"/>
        </g>
      </g>
    </g>
    <g id="Group_47598" data-name="Group 47598" transform="translate(1335 185.35)">
      <g id="Group_47597" data-name="Group 47597" clip-path="url(#clip-path)">
        <g id="Group_47596" data-name="Group 47596" transform="translate(53.669 248.126)">
          <rect id="Rectangle_3955" data-name="Rectangle 3955" width="325.581" height="331.274" transform="translate(15.73 49.02)" fill="#1d1320"/>
          <g id="Group_47586" data-name="Group 47586">
            <rect id="Rectangle_3956" data-name="Rectangle 3956" width="357.041" height="98.04" fill="#915aa3"/>
            <rect id="Rectangle_3957" data-name="Rectangle 3957" width="342.409" height="83.407" rx="17.121" transform="translate(7.316 7.316)" fill="#fff1d5"/>
            <g id="Group_47584" data-name="Group 47584" transform="translate(36.476 37.653)">
              <circle id="Ellipse_4762" data-name="Ellipse 4762" cx="8.7" cy="8.7" r="8.7" transform="translate(0 6.658) rotate(-22.5)" fill="#ecba53"/>
              <circle id="Ellipse_4763" data-name="Ellipse 4763" cx="8.7" cy="8.7" r="8.7" transform="translate(27.802 6.658) rotate(-22.5)" fill="#e7c7ff"/>
              <circle id="Ellipse_4764" data-name="Ellipse 4764" cx="8.7" cy="8.7" r="8.7" transform="translate(55.605 6.658) rotate(-22.5)" fill="#ecba53"/>
            </g>
            <g id="Group_47585" data-name="Group 47585" transform="translate(137.056 20.341)">
              <rect id="Rectangle_3958" data-name="Rectangle 3958" width="14.266" height="57.359" fill="#e7c7ff"/>
              <rect id="Rectangle_3959" data-name="Rectangle 3959" width="14.266" height="57.359" transform="translate(20.851)" fill="#e7c7ff"/>
              <rect id="Rectangle_3960" data-name="Rectangle 3960" width="14.266" height="57.359" transform="translate(41.702)" fill="#e7c7ff"/>
              <rect id="Rectangle_3961" data-name="Rectangle 3961" width="14.266" height="57.359" transform="translate(62.552)" fill="#e7c7ff"/>
              <rect id="Rectangle_3962" data-name="Rectangle 3962" width="14.266" height="57.359" transform="translate(83.403)" fill="#fff"/>
              <rect id="Rectangle_3963" data-name="Rectangle 3963" width="14.266" height="57.359" transform="translate(104.254)" fill="#e7c7ff"/>
              <rect id="Rectangle_3964" data-name="Rectangle 3964" width="14.266" height="57.359" transform="translate(125.105)" fill="#fff"/>
              <rect id="Rectangle_3965" data-name="Rectangle 3965" width="14.266" height="57.359" transform="translate(145.955)" fill="#fff"/>
              <rect id="Rectangle_3966" data-name="Rectangle 3966" width="14.266" height="57.359" transform="translate(166.806)" fill="#e7c7ff"/>
            </g>
          </g>
          <g id="Group_47589" data-name="Group 47589" transform="translate(0 106.228)">
            <rect id="Rectangle_3967" data-name="Rectangle 3967" width="357.041" height="98.04" fill="#915aa3"/>
            <rect id="Rectangle_3968" data-name="Rectangle 3968" width="342.409" height="83.407" rx="17.121" transform="translate(7.316 7.316)" fill="#fff1d5"/>
            <g id="Group_47587" data-name="Group 47587" transform="translate(37.862 39.039)">
              <circle id="Ellipse_4765" data-name="Ellipse 4765" cx="8.7" cy="8.7" r="8.7" transform="matrix(0.16, -0.987, 0.987, 0.16, 0, 17.174)" fill="#e7c7ff"/>
              <circle id="Ellipse_4766" data-name="Ellipse 4766" cx="8.7" cy="8.7" r="8.7" transform="matrix(0.16, -0.987, 0.987, 0.16, 27.802, 17.174)" fill="#ecba53"/>
              <circle id="Ellipse_4767" data-name="Ellipse 4767" cx="8.7" cy="8.7" r="8.7" transform="matrix(0.16, -0.987, 0.987, 0.16, 55.605, 17.174)" fill="#e7c7ff"/>
            </g>
            <g id="Group_47588" data-name="Group 47588" transform="translate(137.056 20.341)">
              <rect id="Rectangle_3969" data-name="Rectangle 3969" width="14.266" height="57.359" fill="#e7c7ff"/>
              <rect id="Rectangle_3970" data-name="Rectangle 3970" width="14.266" height="57.359" transform="translate(20.851)" fill="#fff"/>
              <rect id="Rectangle_3971" data-name="Rectangle 3971" width="14.266" height="57.359" transform="translate(41.702)" fill="#e7c7ff"/>
              <rect id="Rectangle_3972" data-name="Rectangle 3972" width="14.266" height="57.359" transform="translate(62.552)" fill="#fff"/>
              <rect id="Rectangle_3973" data-name="Rectangle 3973" width="14.266" height="57.359" transform="translate(83.403)" fill="#fff"/>
              <rect id="Rectangle_3974" data-name="Rectangle 3974" width="14.266" height="57.359" transform="translate(104.254)" fill="#e7c7ff"/>
              <rect id="Rectangle_3975" data-name="Rectangle 3975" width="14.266" height="57.359" transform="translate(125.105)" fill="#e7c7ff"/>
              <rect id="Rectangle_3976" data-name="Rectangle 3976" width="14.266" height="57.359" transform="translate(145.955)" fill="#fff"/>
              <rect id="Rectangle_3977" data-name="Rectangle 3977" width="14.266" height="57.359" transform="translate(166.806)" fill="#fff"/>
            </g>
          </g>
          <g id="Group_47592" data-name="Group 47592" transform="translate(0 212.457)">
            <rect id="Rectangle_3978" data-name="Rectangle 3978" width="357.041" height="98.04" fill="#915aa3"/>
            <rect id="Rectangle_3979" data-name="Rectangle 3979" width="342.409" height="83.407" rx="17.121" transform="translate(7.316 7.316)" fill="#fff1d5"/>
            <g id="Group_47590" data-name="Group 47590" transform="translate(37.862 39.039)">
              <circle id="Ellipse_4768" data-name="Ellipse 4768" cx="8.7" cy="8.7" r="8.7" transform="matrix(0.16, -0.987, 0.987, 0.16, 0, 17.174)" fill="#ecba53"/>
              <circle id="Ellipse_4769" data-name="Ellipse 4769" cx="8.7" cy="8.7" r="8.7" transform="matrix(0.16, -0.987, 0.987, 0.16, 27.802, 17.174)" fill="#e7c7ff"/>
              <circle id="Ellipse_4770" data-name="Ellipse 4770" cx="8.7" cy="8.7" r="8.7" transform="matrix(0.16, -0.987, 0.987, 0.16, 55.605, 17.174)" fill="#e7c7ff"/>
            </g>
            <g id="Group_47591" data-name="Group 47591" transform="translate(137.056 20.341)">
              <rect id="Rectangle_3980" data-name="Rectangle 3980" width="14.266" height="57.359" fill="#fff"/>
              <rect id="Rectangle_3981" data-name="Rectangle 3981" width="14.266" height="57.359" transform="translate(20.851)" fill="#fff"/>
              <rect id="Rectangle_3982" data-name="Rectangle 3982" width="14.266" height="57.359" transform="translate(41.702)" fill="#e7c7ff"/>
              <rect id="Rectangle_3983" data-name="Rectangle 3983" width="14.266" height="57.359" transform="translate(62.552)" fill="#fff"/>
              <rect id="Rectangle_3984" data-name="Rectangle 3984" width="14.266" height="57.359" transform="translate(83.403)" fill="#e7c7ff"/>
              <rect id="Rectangle_3985" data-name="Rectangle 3985" width="14.266" height="57.359" transform="translate(104.254)" fill="#fff"/>
              <rect id="Rectangle_3986" data-name="Rectangle 3986" width="14.266" height="57.359" transform="translate(125.105)" fill="#e7c7ff"/>
              <rect id="Rectangle_3987" data-name="Rectangle 3987" width="14.266" height="57.359" transform="translate(145.955)" fill="#e7c7ff"/>
              <rect id="Rectangle_3988" data-name="Rectangle 3988" width="14.266" height="57.359" transform="translate(166.806)" fill="#e7c7ff"/>
            </g>
          </g>
          <g id="Group_47595" data-name="Group 47595" transform="translate(0 318.685)">
            <rect id="Rectangle_3989" data-name="Rectangle 3989" width="357.041" height="98.04" fill="#915aa3"/>
            <rect id="Rectangle_3990" data-name="Rectangle 3990" width="342.409" height="83.407" rx="17.121" transform="translate(7.316 7.316)" fill="#fff1d5"/>
            <g id="Group_47593" data-name="Group 47593" transform="translate(37.862 39.039)">
              <circle id="Ellipse_4771" data-name="Ellipse 4771" cx="8.7" cy="8.7" r="8.7" transform="matrix(0.16, -0.987, 0.987, 0.16, 0, 17.174)" fill="#fff"/>
              <circle id="Ellipse_4772" data-name="Ellipse 4772" cx="8.7" cy="8.7" r="8.7" transform="matrix(0.16, -0.987, 0.987, 0.16, 27.802, 17.174)" fill="#e7c7ff"/>
              <circle id="Ellipse_4773" data-name="Ellipse 4773" cx="8.7" cy="8.7" r="8.7" transform="matrix(0.16, -0.987, 0.987, 0.16, 55.605, 17.174)" fill="#e7c7ff"/>
            </g>
            <g id="Group_47594" data-name="Group 47594" transform="translate(137.056 20.341)">
              <rect id="Rectangle_3991" data-name="Rectangle 3991" width="14.266" height="57.359" fill="#e7c7ff"/>
              <rect id="Rectangle_3992" data-name="Rectangle 3992" width="14.266" height="57.359" transform="translate(20.851)" fill="#fff"/>
              <rect id="Rectangle_3993" data-name="Rectangle 3993" width="14.266" height="57.359" transform="translate(41.702)" fill="#e7c7ff"/>
              <rect id="Rectangle_3994" data-name="Rectangle 3994" width="14.266" height="57.359" transform="translate(62.552)" fill="#fff"/>
              <rect id="Rectangle_3995" data-name="Rectangle 3995" width="14.266" height="57.359" transform="translate(83.403)" fill="#e7c7ff"/>
              <rect id="Rectangle_3996" data-name="Rectangle 3996" width="14.266" height="57.359" transform="translate(104.254)" fill="#fff"/>
              <rect id="Rectangle_3997" data-name="Rectangle 3997" width="14.266" height="57.359" transform="translate(125.105)" fill="#e7c7ff"/>
              <rect id="Rectangle_3998" data-name="Rectangle 3998" width="14.266" height="57.359" transform="translate(145.955)" fill="#e7c7ff"/>
              <rect id="Rectangle_3999" data-name="Rectangle 3999" width="14.266" height="57.359" transform="translate(166.806)" fill="#fff"/>
            </g>
          </g>
        </g>
      </g>
    </g>
    <g id="Group_47613" data-name="Group 47613" transform="translate(1657.023 217.176)">
      <g id="Group_47602" data-name="Group 47602" transform="translate(66.204 197.047)">
        <g id="Group_47601" data-name="Group 47601" transform="translate(43.811 350.194)">
          <g id="Group_47599" data-name="Group 47599" transform="translate(3.812)">
            <path id="Path_102081" data-name="Path 102081" d="M1868.494,904.073l8.57,56.183,20.74-10.548-5.926-56.056Z" transform="translate(-1867.265 -892.424)" fill="#fff"/>
            <path id="Path_102082" data-name="Path 102082" d="M1876.793,961.215a1.229,1.229,0,0,1-1.214-1.044l-8.571-56.184a1.228,1.228,0,0,1,.714-1.308l23.385-10.42a1.228,1.228,0,0,1,1.721.993l5.927,56.056a1.229,1.229,0,0,1-.665,1.225l-20.74,10.548A1.223,1.223,0,0,1,1876.793,961.215Zm-7.215-56.671,8.173,53.576,18.471-9.394-5.659-53.533Z" transform="translate(-1866.995 -892.153)" fill="#1d1320"/>
          </g>
          <g id="Group_47600" data-name="Group 47600" transform="translate(0 39.547)">
            <path id="Path_102083" data-name="Path 102083" d="M1870.878,947.724c-2.37,5.417-4.617,15.659-6.893,29.007a10.431,10.431,0,0,0,10.389,12.088h76.294a5.64,5.64,0,0,0,3.817-9.861c-15.179-13.422-38.435-28.291-58.509-37.035l-7.66,10.817S1871.539,946.212,1870.878,947.724Z" transform="translate(-1862.611 -940.695)" fill="#915aa3"/>
            <path id="Path_102084" data-name="Path 102084" d="M1950.4,989.778H1874.1a11.8,11.8,0,0,1-9.038-4.184,11.469,11.469,0,0,1-2.56-9.34c2.544-14.917,4.762-24.226,6.979-29.293.469-1.076,1.113-2.541,18.113,4.015l7.107-10.034a1.229,1.229,0,0,1,1.493-.417c19.705,8.583,43.349,23.549,58.834,37.242a6.707,6.707,0,0,1,1.88,7.545A6.9,6.9,0,0,1,1950.4,989.778Zm-78.878-41.327c-2.065,4.994-4.167,13.995-6.592,28.216a9.017,9.017,0,0,0,2.016,7.342,9.342,9.342,0,0,0,7.16,3.312H1950.4a4.407,4.407,0,0,0,4.214-2.879,4.3,4.3,0,0,0-1.211-4.833c-15.071-13.328-37.966-27.878-57.271-36.427l-7.08,10a1.23,1.23,0,0,1-1.448.435C1881.2,951.123,1873.584,948.575,1871.518,948.451Zm-.91-1h0Z" transform="translate(-1862.341 -940.423)" fill="#1d1320"/>
          </g>
          <path id="Path_102085" data-name="Path 102085" d="M1950.094,992.135h-80.369a1.229,1.229,0,1,1,0-2.458h80.369a1.229,1.229,0,1,1,0,2.458Z" transform="translate(-1863.453 -909.778)" fill="#1d1320"/>
          <path id="Path_102086" data-name="Path 102086" d="M1914.328,969.493a1.229,1.229,0,0,1-1.058-1.853l7.831-13.274a1.229,1.229,0,1,1,2.117,1.249l-7.831,13.275A1.23,1.23,0,0,1,1914.328,969.493Z" transform="translate(-1871.514 -903.287)" fill="#1d1320"/>
          <path id="Path_102087" data-name="Path 102087" d="M1928.337,972.78a1.215,1.215,0,0,1-.6-.156,1.228,1.228,0,0,1-.474-1.672l5.075-9.089a1.229,1.229,0,1,1,2.146,1.2l-5.075,9.09A1.228,1.228,0,0,1,1928.337,972.78Z" transform="translate(-1874.046 -904.637)" fill="#1d1320"/>
        </g>
        <path id="Path_102088" data-name="Path 102088" d="M1919.428,464.71s57.8,87.546,77.531,143.15a28.058,28.058,0,0,1-7.374,29.977c-22.95,21.26-72.034,66.211-103.544,91.3l-9.416-23.9S1888,649.9,1930.668,624.973l-52.948-78.949-11.66-61.445Z" transform="translate(-1819.202 -464.71)" fill="#1d1320"/>
        <path id="Path_102089" data-name="Path 102089" d="M1808.866,489.959s17.114,130.859,19.735,164.279.206,70.605-1.089,97.893,29.669,90.736,29.669,90.736l29.846-5.276,5.536-307.38,8.028-56.9Z" transform="translate(-1808.866 -466.265)" fill="#1d1320"/>
        <path id="Path_102090" data-name="Path 102090" d="M1906.473,771.071h0a1.229,1.229,0,0,1-1.225-1.233l.156-47.344a1.228,1.228,0,0,1,1.229-1.225h0a1.229,1.229,0,0,1,1.225,1.232l-.156,47.344A1.23,1.23,0,0,1,1906.473,771.071Z" transform="translate(-1826.284 -511.076)" fill="#fff"/>
        <path id="Path_102091" data-name="Path 102091" d="M1910.227,595.432A1.229,1.229,0,0,1,1909,594.2V569.779a1.227,1.227,0,0,1,.549-1.023l14.392-9.569a1.229,1.229,0,1,1,1.36,2.047l-13.843,9.2V594.2A1.229,1.229,0,0,1,1910.227,595.432Z" transform="translate(-1826.962 -481.747)" fill="#fff"/>
        <path id="Path_102092" data-name="Path 102092" d="M1823.026,568.293a1.229,1.229,0,0,1-.793-2.169c.185-.157,15.746-13.683,20.976-46.8a1.229,1.229,0,1,1,2.427.383c-5.39,34.135-21.152,47.736-21.82,48.3A1.228,1.228,0,0,1,1823.026,568.293Z" transform="translate(-1811.203 -474.393)" fill="#fff"/>
      </g>
      <g id="Group_47607" data-name="Group 47607" transform="translate(0 71.144)">
        <path id="Path_102093" data-name="Path 102093" d="M1881.907,326.355a94.384,94.384,0,0,1,24.451,23.849c11.058,15.606,17.732,29.519,30.618,31.835,18.234,3.276,37.774-27.942,37.774-27.942l11.789,7.985s-6.935,65.31-44.971,74.8c-27.947,6.974-68.989-30.009-68.989-30.009Z" transform="translate(-1754.176 -313.803)" fill="#915aa3"/>
        <g id="Group_47603" data-name="Group 47603" transform="translate(219.346 9.77)">
          <path id="Path_102094" data-name="Path 102094" d="M1997.289,353.754a72.987,72.987,0,0,1,9.77-6.96c4.325-2.348,17.715-22.335,17.715-22.335s-.4,31.52-14.223,36.338Z" transform="translate(-1996.06 -323.23)" fill="#fff"/>
          <path id="Path_102095" data-name="Path 102095" d="M2010.281,361.755a1.23,1.23,0,0,1-.577-.143l-13.262-7.044a1.229,1.229,0,0,1-.219-2.023,73.286,73.286,0,0,1,9.978-7.1c2.978-1.616,11.966-14.006,17.281-21.939a1.229,1.229,0,0,1,2.25.7c-.017,1.322-.577,32.439-15.046,37.483A1.236,1.236,0,0,1,2010.281,361.755Zm-11.054-8.49,11.139,5.915c9.486-3.888,12.011-22.188,12.675-30.672-4.176,6.026-12.238,17.233-15.667,19.1A63.151,63.151,0,0,0,1999.228,353.265Z" transform="translate(-1995.789 -322.959)" fill="#1d1320"/>
        </g>
        <g id="Group_47606" data-name="Group 47606" transform="translate(205.866)">
          <g id="Group_47604" data-name="Group 47604">
            <path id="Path_102096" data-name="Path 102096" d="M1980.835,355.523h15.694l29.735-42.989h-15.307Z" transform="translate(-1979.607 -311.305)" fill="#1d1320"/>
            <path id="Path_102097" data-name="Path 102097" d="M1996.259,356.481h-15.694a1.229,1.229,0,0,1-1.007-1.934l30.122-42.989a1.23,1.23,0,0,1,1.007-.524h15.307a1.229,1.229,0,0,1,1.011,1.928l-29.735,42.989A1.231,1.231,0,0,1,1996.259,356.481Zm-13.332-2.458h12.688l28.035-40.531h-12.324Z" transform="translate(-1979.336 -311.034)" fill="#1d1320"/>
          </g>
          <g id="Group_47605" data-name="Group 47605" transform="translate(3.431)">
            <path id="Path_102098" data-name="Path 102098" d="M1985.025,355.523h15.694l29.735-42.989h-15.307Z" transform="translate(-1983.795 -311.305)" fill="#fff"/>
            <path id="Path_102099" data-name="Path 102099" d="M2000.449,356.481h-15.7a1.229,1.229,0,0,1-1.006-1.934l30.123-42.989a1.23,1.23,0,0,1,1.006-.524h15.307a1.228,1.228,0,0,1,1.01,1.928l-29.735,42.989A1.228,1.228,0,0,1,2000.449,356.481Zm-13.334-2.458H1999.8l28.035-40.531h-12.323Z" transform="translate(-1983.524 -311.034)" fill="#1d1320"/>
          </g>
        </g>
        <path id="Path_102100" data-name="Path 102100" d="M1788.621,464.415a10.556,10.556,0,0,0,9.483,9.065c5.508.51,13.854.453,25.469-1.707,23.866-4.438,47.418-19.481,62.61-21.2s13.213-14.551,9.711-28.581-40.105-97.171-40.105-97.171a162.591,162.591,0,0,0-53.21-6.834,71.45,71.45,0,0,0-64.125,46.254c-7.822,20.971-13.514,51.614-8.513,93.856,9.537,80.563,76.9,70.094,76.9,70.094L1817.768,511s-30.128-2-37.184-43.5c-2.58-15.172,3.23-37.733,3.23-37.733Z" transform="translate(-1728.058 -312.266)" fill="#915aa3"/>
        <path id="Path_102101" data-name="Path 102101" d="M1798.83,441.888a1.255,1.255,0,0,1-.372-.057,1.23,1.23,0,0,1-.8-1.543l11.958-37.763a1.229,1.229,0,1,1,2.342.742L1800,441.029A1.229,1.229,0,0,1,1798.83,441.888Z" transform="translate(-1740.626 -327.413)" fill="#1d1320"/>
        <path id="Path_102102" data-name="Path 102102" d="M1929.881,435.765a1.23,1.23,0,0,1-1.222-1.11c-1.95-20.115-22.9-66.561-23.116-67.028a1.229,1.229,0,0,1,2.239-1.014c.87,1.921,21.335,47.285,23.324,67.806A1.229,1.229,0,0,1,1930,435.76,1.187,1.187,0,0,1,1929.881,435.765Z" transform="translate(-1760.114 -320.948)" fill="#1d1320"/>
      </g>
      <g id="Group_47612" data-name="Group 47612" transform="translate(65.943)">
        <g id="Group_47608" data-name="Group 47608" transform="translate(0 36.906)">
          <path id="Path_102103" data-name="Path 102103" d="M1836.854,270.744l-26.807,40.1s22.432,9.646,36.16,11.725-3.032-12.448-3.032-12.448l10.849-24.679Z" transform="translate(-1808.818 -269.515)" fill="#fff"/>
          <path id="Path_102104" data-name="Path 102104" d="M1848.3,323.735a17.339,17.339,0,0,1-2.552-.224c-13.727-2.077-35.54-11.413-36.462-11.81a1.228,1.228,0,0,1-.536-1.812l26.807-40.1a1.229,1.229,0,0,1,1.82-.251l17.17,14.7a1.229,1.229,0,0,1,.326,1.428L1844.39,309.52c3.367,3,9.45,9.054,7.921,12.369C1851.643,323.338,1850.008,323.735,1848.3,323.735Zm-36.678-13.718c5.056,2.1,23.006,9.326,34.494,11.065,3.507.531,3.956-.215,3.959-.223.546-1.183-3.258-5.988-7.981-10.081a1.23,1.23,0,0,1-.32-1.423l10.482-23.845-15.426-13.2Z" transform="translate(-1808.547 -269.243)" fill="#1d1320"/>
        </g>
        <g id="Group_47611" data-name="Group 47611" transform="translate(20.517)">
          <g id="Group_47610" data-name="Group 47610">
            <path id="Path_102105" data-name="Path 102105" d="M1892.962,243.221c-7.458-6.593-16.764-.334-25.456-8.4-3.983-3.7-4.237-7.061-9.1-9.182-3.222-1.405-9.01-2.5-12.991.311-5.069,3.583-1.653,9.581-6.135,22.589-3.148,9.134-7.188,13.012-5.12,16.332,2.091,3.357,7.317,1.155,9.876,4.651,3.312,4.524-3.275,11.172-1.527,17.456,1.1,3.96,6.466,9.617,19.879,12.56a4.613,4.613,0,0,0,5.243-2.718c1.1-2.63,2.478-5.959,3.525-9.251,4.99-15.689,2.808-21.841,6.849-23.743,6.19-2.914,13.168,7.04,17.79,4.282C1900.589,265.239,1900.619,249.992,1892.962,243.221Z" transform="translate(-1833.589 -224.196)" fill="#1d1320"/>
            <g id="Group_47609" data-name="Group 47609" transform="translate(19.425 24.137)">
              <path id="Path_102106" data-name="Path 102106" d="M1865.387,255.415l2.747,1.094s-7.886,18.045-9.156,23.537,15.443,10.713,15.443,10.713l2.722-1.867,2.039.59a2.176,2.176,0,0,0,2.776-1.943c.348-5.039,1.485-16.078,5.014-24.011A24.018,24.018,0,0,0,1865.387,255.415Z" transform="translate(-1857.59 -253.934)" fill="#fff"/>
              <path id="Path_102107" data-name="Path 102107" d="M1866.315,255.29a3.883,3.883,0,0,0,1.226-.238.96.96,0,0,1,.769.009,1.254,1.254,0,0,1,.71,1.625l-.013.032-.008.02c-1.476,3.443-2.906,6.918-4.322,10.387s-2.8,6.961-3.976,10.461c-.278.855-.561,1.785-.736,2.537a2.148,2.148,0,0,0,.521,1.616,13.491,13.491,0,0,0,3.944,3.18A55.4,55.4,0,0,0,1874.5,289.3l-1.072.161c.916-.611,1.809-1.253,2.742-1.838l.095-.06a1.081,1.081,0,0,1,.922-.1c.6.21,1.191.477,1.784.723l.208.09a.85.85,0,0,0,.125.053.969.969,0,0,0,.271.058,1.021,1.021,0,0,0,.553-.116,1.271,1.271,0,0,0,.652-.909,1.4,1.4,0,0,0,.018-.143l.016-.233.033-.482.071-.963q.313-3.848.824-7.682a60.044,60.044,0,0,1,3.819-15.1l.146,1.241a18.626,18.626,0,0,0-1.943-1.978,23.168,23.168,0,0,0-2.248-1.755,23.543,23.543,0,0,0-5.039-2.633,22.5,22.5,0,0,0-5.518-1.317,23.235,23.235,0,0,0-2.847-.141c-.476-.01-.953.034-1.429.053l-.179.009c-.035,0-.012,0-.012-.01a.48.48,0,0,0,.084-.173A.778.778,0,0,0,1866.315,255.29Zm-2.439-.3a4.548,4.548,0,0,1,1.232-.921,3.343,3.343,0,0,1,.832-.254c.125-.022.272-.041.362-.048l.2-.013c.524-.029,1.047-.083,1.574-.08a25.906,25.906,0,0,1,3.157.112,24.794,24.794,0,0,1,11.721,4.418,25.535,25.535,0,0,1,2.471,1.966,19.6,19.6,0,0,1,2.233,2.34,1.19,1.19,0,0,1,.15,1.232l0,.01a47.374,47.374,0,0,0-2.478,7.033c-.673,2.418-1.218,4.885-1.655,7.374s-.776,5-.995,7.529l-.083.946-.038.474-.021.244a3.181,3.181,0,0,1-.046.331,3.084,3.084,0,0,1-1.524,2.095,3.459,3.459,0,0,1-1.271.415,3.519,3.519,0,0,1-.683.014c-.115-.01-.229-.028-.343-.048l-.252-.042c-.633-.108-1.271-.2-1.895-.342l1.017-.163c-.882.66-1.8,1.262-2.7,1.895a1.215,1.215,0,0,1-1.071.161,57.729,57.729,0,0,1-10.628-4.516,15.747,15.747,0,0,1-4.774-3.863,5.853,5.853,0,0,1-.85-1.611,4.129,4.129,0,0,1-.14-2.039c.247-1.081.528-1.946.828-2.881,1.229-3.626,2.627-7.126,4.05-10.623s2.924-6.949,4.441-10.406l.689,1.677a8.649,8.649,0,0,1-1.979-1.086C1864.775,255.851,1864.3,255.357,1863.876,254.987Z" transform="translate(-1857.299 -253.658)" fill="#1d1320"/>
            </g>
            <path id="Path_102108" data-name="Path 102108" d="M1857.687,268.686s1.87-10.651-3.157-10.476S1847.741,270.16,1857.687,268.686Z" transform="translate(-1836.642 -230.343)" fill="#fff"/>
          </g>
        </g>
      </g>
    </g>
    <g id="Group_47615" data-name="Group 47615" transform="translate(1335.505 218.12)">
      <path id="Path_102109" data-name="Path 102109" d="M2011.407,511.2a1.229,1.229,0,0,1-.869-2.1l103.756-103.755a1.229,1.229,0,1,1,1.738,1.738L2012.275,510.84A1.225,1.225,0,0,1,2011.407,511.2Z" transform="translate(-1457.525 -257.813)" fill="#1d1320"/>
      <path id="Path_102110" data-name="Path 102110" d="M2018.288,418.71a1.229,1.229,0,0,1-.869-2.1l101.956-101.956a1.229,1.229,0,0,1,1.738,1.738L2019.156,418.35A1.225,1.225,0,0,1,2018.288,418.71Z" transform="translate(-1458.769 -241.423)" fill="#1d1320"/>
      <circle id="Ellipse_4774" data-name="Ellipse 4774" cx="3.506" cy="3.506" r="3.506" transform="matrix(0.006, -1, 1, 0.006, 54.813, 83.355)" fill="#eaacff"/>
      <path id="Path_102111" data-name="Path 102111" d="M1436.417,313.668h-.021a7.752,7.752,0,0,1,.02-15.5h.022a7.752,7.752,0,0,1-.021,15.5Zm0-13.045a5.294,5.294,0,0,0-.014,10.588h.015a5.294,5.294,0,0,0,.014-10.588Z" transform="translate(-1352.432 -238.508)" fill="#1d1320"/>
      <g id="Group_47614" data-name="Group 47614" transform="translate(585.034 50.065)">
        <path id="Path_102112" data-name="Path 102112" d="M2054.549,292.5a1.23,1.23,0,0,1-.871-.362l-3.565-3.581a1.229,1.229,0,0,1,1.743-1.734l3.565,3.582a1.229,1.229,0,0,1-.872,2.1Z" transform="translate(-2049.712 -286.457)" fill="#1d1320"/>
        <path id="Path_102113" data-name="Path 102113" d="M2069.778,307.795a1.23,1.23,0,0,1-.872-.362l-3.564-3.581a1.229,1.229,0,0,1,1.743-1.734l3.564,3.581a1.229,1.229,0,0,1-.871,2.1Z" transform="translate(-2052.464 -289.221)" fill="#1d1320"/>
        <path id="Path_102114" data-name="Path 102114" d="M2050.931,307.745a1.229,1.229,0,0,1-.866-2.1l3.584-3.561a1.229,1.229,0,1,1,1.733,1.743l-3.584,3.561A1.227,1.227,0,0,1,2050.931,307.745Z" transform="translate(-2049.702 -289.216)" fill="#1d1320"/>
        <path id="Path_102115" data-name="Path 102115" d="M2066.243,292.53a1.229,1.229,0,0,1-.867-2.1l3.584-3.561a1.229,1.229,0,0,1,1.733,1.743l-3.584,3.561A1.227,1.227,0,0,1,2066.243,292.53Z" transform="translate(-2052.469 -286.466)" fill="#1d1320"/>
      </g>
      <circle id="Ellipse_4775" data-name="Ellipse 4775" cx="17.128" cy="17.128" r="17.128" transform="matrix(0.924, -0.383, 0.383, 0.924, 70.216, 13.109)" fill="#eaacff"/>
      <path id="Path_102116" data-name="Path 102116" d="M1390.656,959.04a1.229,1.229,0,0,1-.869-2.1l118.771-118.77a1.229,1.229,0,0,1,1.738,1.738l-118.771,118.77A1.226,1.226,0,0,1,1390.656,959.04Z" transform="translate(-1345.341 -336.034)" fill="#1d1320"/>
      <path id="Path_102117" data-name="Path 102117" d="M1336.845,995.688a1.229,1.229,0,0,1-.868-2.1l47.507-47.507a1.229,1.229,0,0,1,1.738,1.738l-47.507,47.507A1.223,1.223,0,0,1,1336.845,995.688Z" transform="translate(-1335.616 -355.536)" fill="#1d1320"/>
      <path id="Path_102118" data-name="Path 102118" d="M2065.648,666.386a11.542,11.542,0,1,1,11.541-11.542A11.555,11.555,0,0,1,2065.648,666.386Zm0-20.625a9.084,9.084,0,1,0,9.083,9.083A9.094,9.094,0,0,0,2065.648,645.761Z" transform="translate(-1465.464 -300.882)" fill="#1d1320"/>
      <circle id="Ellipse_4776" data-name="Ellipse 4776" cx="7.372" cy="7.372" r="7.372" transform="matrix(0.23, -0.973, 0.973, 0.23, 609, 321.435)" fill="#fff"/>
    </g>
    <path id="Path_102119" data-name="Path 102119" d="M2057.662,228.5a.725.725,0,0,0-.659-.62l-4.883-.4a.723.723,0,0,1-.62-.484,22.447,22.447,0,0,0-1.113-2.635.719.719,0,0,1,.082-.779l3.1-3.794a.724.724,0,0,0,.009-.9l-2.644-3.38a.723.723,0,0,0-.88-.208l-4.431,2.1a.72.72,0,0,1-.777-.108,22.764,22.764,0,0,0-2.282-1.716.721.721,0,0,1-.319-.717l.787-4.843a.723.723,0,0,0-.444-.788l-3.977-1.6a.724.724,0,0,0-.867.26l-2.783,4.028a.718.718,0,0,1-.726.295,22.748,22.748,0,0,0-2.838-.34.72.72,0,0,1-.637-.461l-1.737-4.585a.723.723,0,0,0-.778-.46l-4.246.6a.723.723,0,0,0-.62.658l-.4,4.888a.72.72,0,0,1-.483.62,22.542,22.542,0,0,0-2.632,1.115.718.718,0,0,1-.78-.083l-3.789-3.1a.724.724,0,0,0-.9-.009l-3.378,2.645a.725.725,0,0,0-.208.88l2.1,4.435a.72.72,0,0,1-.107.777,22.825,22.825,0,0,0-1.717,2.283.719.719,0,0,1-.716.319l-4.839-.786a.722.722,0,0,0-.787.444l-1.6,3.982a.722.722,0,0,0,.26.865l4.025,2.786a.719.719,0,0,1,.3.726,22.445,22.445,0,0,0-.341,2.84.72.72,0,0,1-.461.637l-4.582,1.739a.724.724,0,0,0-.46.777l.6,4.25a.724.724,0,0,0,.659.62l4.883.4a.718.718,0,0,1,.619.484,22.647,22.647,0,0,0,1.114,2.634.718.718,0,0,1-.082.779l-3.1,3.794a.723.723,0,0,0-.009.9l2.643,3.38a.723.723,0,0,0,.881.208l4.43-2.1a.721.721,0,0,1,.777.107,22.908,22.908,0,0,0,2.281,1.717.719.719,0,0,1,.32.717l-.788,4.843a.724.724,0,0,0,.444.787l3.978,1.6a.724.724,0,0,0,.866-.26l2.784-4.028a.719.719,0,0,1,.727-.295,22.417,22.417,0,0,0,2.837.34.72.72,0,0,1,.637.462l1.737,4.585a.723.723,0,0,0,.778.46l4.246-.6a.724.724,0,0,0,.62-.658l.4-4.888a.721.721,0,0,1,.484-.619,22.773,22.773,0,0,0,2.632-1.115.719.719,0,0,1,.781.082l3.789,3.1a.723.723,0,0,0,.9.009l3.378-2.645a.724.724,0,0,0,.208-.879l-2.1-4.435a.721.721,0,0,1,.108-.777,22.984,22.984,0,0,0,1.716-2.283.72.72,0,0,1,.717-.32l4.839.787a.724.724,0,0,0,.787-.444l1.6-3.982a.725.725,0,0,0-.26-.866l-4.025-2.785a.719.719,0,0,1-.3-.726,22.658,22.658,0,0,0,.341-2.841.721.721,0,0,1,.461-.637l4.582-1.739a.725.725,0,0,0,.46-.778Zm-27.6,20.423a14.347,14.347,0,1,1,14.347-14.346A14.347,14.347,0,0,1,2030.064,248.918Z" transform="translate(-120.517 -3.795)" fill="#eaacff"/>
  </g>
</svg>
