<svg xmlns="http://www.w3.org/2000/svg" width="666.409" height="667.754" viewBox="0 0 666.409 667.754">
  <g id="Global_network_connection" data-name="Global network connection" transform="translate(-2426.778 -186.655)">
    <path id="Path_102469" data-name="Path 102469" d="M2438.5,732.782c19.418,47.581,64.914,70.039,93.993,84.394,114.619,56.579,324.385,48.029,449.953-55.612,29.385-24.253,138.709-149.632,105.258-321.371-29.571-151.819-179.232-239.721-305.353-251.265-104.487-9.564-241.01,28.945-289.366,121.649-30.407,58.3,6.009,76.748-18.972,208.779C2452.394,633.631,2414.749,674.583,2438.5,732.782Z" transform="translate(-0.815 -0.168)" fill="#e7c7ff"/>
    <g id="Group_47845" data-name="Group 47845" transform="translate(2996.777 328.605)">
      <path id="Path_102470" data-name="Path 102470" d="M3208.468,490.937a1.205,1.205,0,0,1-1.188-1.014c-6.224-38.94-24.954-70.664-39.571-90.419-15.861-21.437-30.441-33.806-30.586-33.928a1.2,1.2,0,0,1,1.551-1.843c.148.124,14.9,12.635,30.929,34.281,14.793,19.981,33.751,52.08,40.055,91.528a1.2,1.2,0,0,1-1,1.379A1.18,1.18,0,0,1,3208.468,490.937Z" transform="translate(-3136.696 -363.45)" fill="#1d1320"/>
      <path id="Path_102471" data-name="Path 102471" d="M3232.383,499.142a1.2,1.2,0,0,1-1.2-1.092c-4.425-47.47-37.922-92.991-38.259-93.446a1.2,1.2,0,0,1,1.932-1.438c.341.459,34.237,46.506,38.724,94.66a1.2,1.2,0,0,1-1.086,1.311C3232.458,499.14,3232.421,499.142,3232.383,499.142Z" transform="translate(-3147.731 -371.182)" fill="#1d1320"/>
    </g>
    <g id="Group_47846" data-name="Group 47846" transform="translate(2497.848 209.299)">
      <path id="Path_102472" data-name="Path 102472" d="M2558.2,324.393a1.2,1.2,0,0,1-.922-1.978A261.282,261.282,0,0,1,2745.2,229.726a1.2,1.2,0,1,1,.108,2.406,258.87,258.87,0,0,0-186.188,91.831A1.2,1.2,0,0,1,2558.2,324.393Z" transform="translate(-2523.513 -217.787)" fill="#1d1320"/>
      <path id="Path_102473" data-name="Path 102473" d="M2552.639,352.511a1.2,1.2,0,0,1-.943-1.953c1.468-1.849,2.977-3.7,4.486-5.5a1.2,1.2,0,1,1,1.846,1.548c-1.5,1.782-2.991,3.614-4.446,5.446A1.2,1.2,0,0,1,2552.639,352.511Z" transform="translate(-2522.417 -240.435)" fill="#1d1320"/>
      <path id="Path_102474" data-name="Path 102474" d="M2516.5,323.6a1.2,1.2,0,0,1-.955-1.938,292.671,292.671,0,0,1,71.354-66.237,298.841,298.841,0,0,1,93.135-40.529,1.2,1.2,0,0,1,.576,2.34c-65,15.991-122.948,53.6-163.155,105.894A1.2,1.2,0,0,1,2516.5,323.6Z" transform="translate(-2515.294 -214.857)" fill="#1d1320"/>
      <path id="Path_102475" data-name="Path 102475" d="M2818.6,231.638a7.958,7.958,0,1,1,2.274-.333h0A7.993,7.993,0,0,1,2818.6,231.638Zm.008-13.487A5.537,5.537,0,1,0,2820.189,229h0a5.538,5.538,0,0,0-1.58-10.846Z" transform="translate(-2573.51 -215.032)" fill="#1d1320"/>
      <path id="Path_102476" data-name="Path 102476" d="M2702.114,274.7a1.207,1.207,0,0,1-.41-.072l-12.637-4.574a1.2,1.2,0,0,1-.2-2.169l10.7-6.349a1.2,1.2,0,0,1,1.8.826l1.938,10.924a1.2,1.2,0,0,1-1.185,1.415Zm-9.831-6.044,8.28,3-1.27-7.158Z" transform="translate(-2549.387 -224.023)" fill="#1d1320"/>
    </g>
    <g id="Group_47851" data-name="Group 47851" transform="translate(2491.448 316.191)">
      <g id="Group_47850" data-name="Group 47850" transform="translate(32.255)">
        <g id="Group_47848" data-name="Group 47848" transform="translate(1.204 1.204)">
          <ellipse id="Ellipse_4819" data-name="Ellipse 4819" cx="242.656" cy="244.299" rx="242.656" ry="244.299" fill="#fff"/>
          <g id="Group_47847" data-name="Group 47847" transform="translate(44.828 13.379)">
            <path id="Path_102477" data-name="Path 102477" d="M2793.092,374.626c-1,1.473,1.964,6.429,7.859,6.429s8.841-.989,11.3,5.44-.982,28.188,2.457,36.1,9.332,12.857,13.753,8.406,3.93-16.319,9.333-19.287,25.051-14.835,26.033-24.726-5.894-17.308-23.086-19.287S2800.459,363.746,2793.092,374.626Z" transform="translate(-2641.896 -366.151)" fill="#fff1d5"/>
            <path id="Path_102478" data-name="Path 102478" d="M2689.845,649.18a6.882,6.882,0,0,0-3.98,6.41c.389,8.295-3.1,28.962-10.432,35.563-9.336,8.407-5.9,23.556-6.041,29.671-.3,12.42,1.037,17.945,15.865,23.879s20.634,6.271,21.732,18.139,2.807,57.717,7.2,69.586,13.729,31.154,18.672,35.6,16.476,6.924,9.336-9.89-11.532-24.726-3.295-34.122,21.967-31.154,23.066-39.562,6.041-13.352,10.435-14.341,13.73-3.956,16.476-6.924-2.746-11.374-4.394-18.792-1.647-11.869,12.082-17.8,7.14-22.748-11.533-27.2-30.205-13.846-28.008-23.242-12.632-8.407-21.418-12.858-8.522-11.441-18.3-14.773C2704.088,644.027,2694.809,646.685,2689.845,649.18Z" transform="translate(-2617.455 -421.325)" fill="#fff1d5"/>
            <path id="Path_102479" data-name="Path 102479" d="M3036.075,586.306c-4.139-6.252-3.621-16.149,6.727-29.692,8.128-10.638-3.536-21.276-8.914-25.351a1.364,1.364,0,0,1,.686-2.442c6.665-.76,22.124,1.494,28.924,36.128,8.8,44.8,12.417,29.17,17.074,23.96s-4.056-14.937,4.657-25c5.491-6.345,8.279-15.6,9.7-23.147A244.467,244.467,0,0,0,2964.946,379.7c.094,7.8-1.774,34.972-33.385,23.767,0,0-19.661-9.377-15,28.649s20.7-2.6,23.8-4.167,11.383-3.646,7.761,21.878c0,0-.517,8.855-16.557,7.294s-19.144,6.25-19.144,10.418,1.553,15.105-7.243,22.919-6.209,28.128,5.691,21.357,20.179-28.128,31.044-30.212,20.7,11.981,31.043,8.334,5.692-21.357,10.866-21.357,16.039,10.418,14.487,18.232-17.592,11.459-13.452,20.836,12.935,6.25,15.522,12.5-12.935,13.543-25.353,5.73-14.487,3.646-20.7-1.563-6.726-16.147-15.522-12.5-13.97,10.939-25.353,16.148-20.7,11.98-20.7,19.273,4.139,15.106,2.069,26.567-5.691,42.713,31.561,36.462,32.6,13.022,32.6,15.106-.517,29.17,3.1,33.859,11.9,18.231,0,35.941-7.244,57.3,3.622,52.089,21.731-25.523,35.183-35.941,32.079-55.736,24.318-69.8,10.865-25.524,13.452-34.9S3040.215,592.556,3036.075,586.306Z" transform="translate(-2661.577 -368.822)" fill="#fff1d5"/>
            <path id="Path_102480" data-name="Path 102480" d="M2628.911,430.431c.218,8.678-.566,20.273-6.137,29.124-16.81,26.7-16.268,40.056-17.894,66.76s35.373,73.778,44.59,78.723,10.64-6.818,10.64-16.212-3.937-20.666-9.36-31.546-5.422-17.8-3.8-22.253,8.134-5.934,12.472-1.483,14.765,8.4,19.775,5.617c6.157-3.419,3.76-16.8,5.929-21.254s14.1-7.418,18.978-16.813,13.014-13.352,22.774-17.8,18.436-6.429,20.063-9.4-.543-9.891,2.168-17.8,9.218-17.308,6.507-21.265-10.844-10.384-26.027-.494-18.978,9.89-23.316,2.472,4.88-26.7,23.859-26.7,22.774-5.934,23.316-10.385-5.423-9.4-11.93-10.385-7.592,2.472-34.7,12.362c-18.095,6.6-34.908,2.9-43.5,1.138A263.523,263.523,0,0,0,2628.911,430.431Z" transform="translate(-2604.828 -370.688)" fill="#fff1d5"/>
            <path id="Path_102481" data-name="Path 102481" d="M3123.594,708.559c-3.666-.82-2.851,8.2-7.74,9.842s-6.924,4.1-5.7,13.124-.815,20.914-5.7,25.426-11.813,7.791-12.22,18.864-10.591,21.736-16.7,25.426-15.479,9.433-15.479,18.864c0,6.074-.16,13.838,1.243,19.809a244.392,244.392,0,0,0,66.914-117.67C3127.25,716.19,3125.689,709.027,3123.594,708.559Z" transform="translate(-2694.547 -433.626)" fill="#fff1d5"/>
          </g>
        </g>
        <g id="Group_47849" data-name="Group 47849">
          <path id="Path_102482" data-name="Path 102482" d="M2816.513,947.919a241.141,241.141,0,0,1-140.877-45.086,1.2,1.2,0,1,1,1.4-1.96,240.307,240.307,0,0,0,255.014,15.053,1.2,1.2,0,0,1,1.161,2.111A242.878,242.878,0,0,1,2816.513,947.919Z" transform="translate(-2572.652 -456.913)" fill="#915aa3"/>
          <path id="Path_102483" data-name="Path 102483" d="M2549.559,615.413a1.205,1.205,0,0,1-1.2-1.1c-.573-6.871-.864-13.876-.864-20.817A244.729,244.729,0,0,1,2618.918,419.9a242.674,242.674,0,0,1,329.895-13.88,246.174,246.174,0,0,1,82.639,144.258,1.2,1.2,0,0,1-2.373.418c-20.473-116.06-120.451-200.3-237.722-200.3-133.137,0-241.452,109.053-241.452,243.095,0,6.875.287,13.812.856,20.616a1.206,1.206,0,0,1-1.1,1.3C2549.626,615.411,2549.593,615.413,2549.559,615.413Z" transform="translate(-2547.496 -347.988)" fill="#915aa3"/>
        </g>
      </g>
      <path id="Path_102484" data-name="Path 102484" d="M2606.292,801.015c-1.635,0-3.267-.018-4.853-.055a1.205,1.205,0,0,1-1.177-1.232,1.223,1.223,0,0,1,1.232-1.177c3.1.071,6.308.071,9.582,0a1.23,1.23,0,0,1,1.229,1.18,1.206,1.206,0,0,1-1.18,1.229Q2608.677,801.014,2606.292,801.015Zm14.436-.438a1.2,1.2,0,0,1-.069-2.406c3.1-.181,6.315-.422,9.569-.719a1.2,1.2,0,1,1,.219,2.4c-3.28.3-6.525.541-9.648.723Zm-28.882-.084c-.031,0-.062,0-.092,0-3.33-.253-6.579-.6-9.656-1.039a1.2,1.2,0,1,1,.339-2.385c3.024.43,6.221.772,9.5,1.021a1.2,1.2,0,0,1-.09,2.405Zm48.073-1.651a1.2,1.2,0,0,1-.141-2.4c3.114-.374,6.316-.8,9.521-1.269a1.2,1.2,0,0,1,.348,2.384c-3.224.471-6.449.9-9.583,1.277A1.1,1.1,0,0,1,2639.918,798.842Zm-67.125-1.11a1.24,1.24,0,0,1-.269-.03,89.239,89.239,0,0,1-9.39-2.668,1.2,1.2,0,0,1,.792-2.276,86.232,86.232,0,0,0,9.134,2.594,1.2,1.2,0,0,1-.267,2.379Zm86.195-1.667a1.2,1.2,0,0,1-.2-2.391c3.091-.524,6.273-1.1,9.458-1.71a1.2,1.2,0,1,1,.453,2.366c-3.2.613-6.4,1.192-9.508,1.718A1.172,1.172,0,0,1,2658.987,796.065Zm18.93-3.62a1.2,1.2,0,0,1-.25-2.383c3.086-.654,6.244-1.354,9.387-2.08a1.2,1.2,0,1,1,.543,2.348c-3.158.728-6.33,1.432-9.429,2.088A1.224,1.224,0,0,1,2677.917,792.446ZM2554.688,791.3a1.2,1.2,0,0,1-.562-.14,47.02,47.02,0,0,1-8.219-5.457,1.2,1.2,0,0,1,1.546-1.848,44.57,44.57,0,0,0,7.8,5.176,1.2,1.2,0,0,1-.563,2.269Zm142.008-3.186a1.2,1.2,0,0,1-.29-2.373c3.06-.762,6.193-1.569,9.313-2.4a1.2,1.2,0,0,1,.619,2.327c-3.132.833-6.278,1.643-9.35,2.408A1.146,1.146,0,0,1,2696.7,788.112Zm18.624-4.952a1.2,1.2,0,0,1-.327-2.363c3.057-.863,6.165-1.766,9.237-2.682a1.2,1.2,0,0,1,.689,2.308c-3.084.919-6.2,1.824-9.271,2.691A1.188,1.188,0,0,1,2715.321,783.16Zm-175.105-4.271a1.2,1.2,0,0,1-1-.529,32.152,32.152,0,0,1-4.246-9.014,1.2,1.2,0,0,1,2.311-.678,29.788,29.788,0,0,0,3.929,8.341,1.2,1.2,0,0,1-1,1.88Zm193.575-1.232a1.2,1.2,0,0,1-.36-2.354c3.028-.948,6.11-1.937,9.16-2.937a1.2,1.2,0,0,1,.751,2.288c-3.062,1-6.154,2-9.191,2.947A1.2,1.2,0,0,1,2733.791,777.657Zm18.312-6a1.2,1.2,0,0,1-.39-2.344c3.031-1.038,6.087-2.106,9.083-3.174a1.2,1.2,0,0,1,.809,2.269c-3.005,1.071-6.071,2.142-9.112,3.184A1.182,1.182,0,0,1,2752.1,771.653Zm18.153-6.468a1.2,1.2,0,0,1-.417-2.334c2.984-1.1,6.013-2.247,9-3.394a1.2,1.2,0,0,1,.863,2.249c-3,1.151-6.038,2.3-9.031,3.4A1.192,1.192,0,0,1,2770.256,765.184ZM2534.78,760.7a1.2,1.2,0,0,1-1.2-1.192v-.252a47.125,47.125,0,0,1,1.038-9.567,1.2,1.2,0,0,1,2.359.491,44.719,44.719,0,0,0-.988,9.076v.229a1.2,1.2,0,0,1-1.192,1.216Zm253.472-2.422a1.2,1.2,0,0,1-.445-2.324c2.98-1.183,5.982-2.394,8.923-3.6a1.2,1.2,0,0,1,.915,2.228c-2.95,1.21-5.961,2.426-8.948,3.612A1.2,1.2,0,0,1,2788.252,758.282Zm17.83-7.313a1.2,1.2,0,0,1-.471-2.314c2.915-1.233,5.89-2.512,8.841-3.8a1.2,1.2,0,0,1,.964,2.208c-2.959,1.292-5.942,2.573-8.865,3.811A1.218,1.218,0,0,1,2806.082,750.969Zm17.664-7.707a1.2,1.2,0,0,1-.5-2.3q4.371-1.966,8.756-3.992a1.2,1.2,0,1,1,1.011,2.186q-4.4,2.032-8.779,4A1.2,1.2,0,0,1,2823.746,743.262ZM2538.5,741.908a1.2,1.2,0,0,1-1.128-1.626,88.967,88.967,0,0,1,3.94-8.932,1.2,1.2,0,0,1,2.15,1.086,86.679,86.679,0,0,0-3.834,8.688A1.2,1.2,0,0,1,2538.5,741.908Zm302.734-6.734a1.2,1.2,0,0,1-.518-2.292q4.363-2.074,8.668-4.178a1.2,1.2,0,1,1,1.057,2.164q-4.316,2.109-8.692,4.189A1.2,1.2,0,0,1,2841.238,735.174Zm17.315-8.462a1.2,1.2,0,0,1-.541-2.28q4.32-2.169,8.577-4.366a1.2,1.2,0,0,1,1.1,2.141q-4.269,2.2-8.6,4.378A1.19,1.19,0,0,1,2858.553,726.712ZM2547.107,724.7a1.205,1.205,0,0,1-1.025-1.836c1.623-2.638,3.428-5.362,5.365-8.094a1.2,1.2,0,1,1,1.965,1.393c-1.907,2.691-3.683,5.369-5.279,7.964A1.2,1.2,0,0,1,2547.107,724.7Zm328.573-6.826a1.2,1.2,0,0,1-.564-2.268c2.828-1.5,5.679-3.033,8.476-4.557a1.2,1.2,0,1,1,1.152,2.115c-2.8,1.529-5.665,3.066-8.5,4.569A1.19,1.19,0,0,1,2875.68,717.873Zm16.925-9.222a1.2,1.2,0,0,1-.59-2.255c2.795-1.566,5.611-3.164,8.369-4.751a1.2,1.2,0,1,1,1.2,2.087c-2.765,1.592-5.589,3.2-8.392,4.765A1.2,1.2,0,0,1,2892.605,708.651Zm16.7-9.616a1.2,1.2,0,0,1-.614-2.241c2.752-1.628,5.528-3.294,8.251-4.952a1.2,1.2,0,1,1,1.252,2.057c-2.731,1.664-5.516,3.335-8.276,4.968A1.2,1.2,0,0,1,2909.309,699.035Zm16.462-10.023a1.2,1.2,0,0,1-.64-2.225c2.708-1.7,5.44-3.432,8.119-5.163a1.2,1.2,0,1,1,1.307,2.025c-2.688,1.734-5.429,3.477-8.147,5.18A1.205,1.205,0,0,1,2925.771,689.012Zm16.195-10.451a1.2,1.2,0,0,1-.668-2.207c2.673-1.778,5.356-3.59,7.973-5.385a1.2,1.2,0,0,1,1.363,1.986c-2.626,1.8-5.318,3.62-8,5.4A1.2,1.2,0,0,1,2941.966,678.56Zm15.893-10.907a1.2,1.2,0,0,1-.7-2.187c2.625-1.86,5.251-3.753,7.8-5.623a1.2,1.2,0,0,1,1.425,1.943c-2.564,1.878-5.2,3.778-7.835,5.646A1.2,1.2,0,0,1,2957.858,667.654Zm15.545-11.4a1.205,1.205,0,0,1-.729-2.165c2.576-1.953,5.134-3.933,7.607-5.881a1.2,1.2,0,0,1,1.491,1.892c-2.483,1.958-5.054,3.946-7.641,5.909A1.2,1.2,0,0,1,2973.4,656.258Zm15.136-11.934a1.2,1.2,0,0,1-.764-2.136c2.512-2.06,4.991-4.137,7.368-6.171a1.2,1.2,0,1,1,1.566,1.83c-2.389,2.045-4.882,4.132-7.407,6.2A1.2,1.2,0,0,1,2988.539,644.324Zm14.638-12.537a1.2,1.2,0,0,1-.8-2.1c2.415-2.165,4.795-4.352,7.073-6.5a1.2,1.2,0,1,1,1.653,1.752c-2.293,2.163-4.688,4.364-7.119,6.543A1.2,1.2,0,0,1,3003.177,631.788Zm14.014-13.232a1.2,1.2,0,0,1-.85-2.057c2.3-2.3,4.553-4.616,6.686-6.887a1.2,1.2,0,0,1,1.755,1.65c-2.151,2.289-4.419,4.625-6.74,6.942A1.2,1.2,0,0,1,3017.191,618.556Zm13.182-14.057a1.2,1.2,0,0,1-.906-2c2.147-2.46,4.214-4.934,6.147-7.353a1.2,1.2,0,1,1,1.881,1.5c-1.953,2.446-4.044,4.947-6.214,7.433A1.2,1.2,0,0,1,3030.374,604.5Zm12-15.071a1.2,1.2,0,0,1-.978-1.905c1.921-2.683,3.713-5.352,5.325-7.936a1.2,1.2,0,0,1,2.043,1.275c-1.639,2.627-3.458,5.34-5.409,8.063A1.2,1.2,0,0,1,3042.376,589.429Zm10.142-16.362a1.2,1.2,0,0,1-1.07-1.756,88.415,88.415,0,0,0,3.915-8.649,1.2,1.2,0,0,1,2.247.867,91.139,91.139,0,0,1-4.022,8.886A1.2,1.2,0,0,1,3052.518,573.067Zm6.8-17.951a1.253,1.253,0,0,1-.265-.029,1.206,1.206,0,0,1-.911-1.44,45.841,45.841,0,0,0,1.16-9.271,1.221,1.221,0,0,1,1.223-1.185,1.207,1.207,0,0,1,1.185,1.224,48.3,48.3,0,0,1-1.218,9.76A1.205,1.205,0,0,1,3059.318,555.116Zm.083-19.056a1.2,1.2,0,0,1-1.164-.9,29.785,29.785,0,0,0-3.691-8.451,1.2,1.2,0,0,1,2.032-1.294,32.254,32.254,0,0,1,3.988,9.132,1.2,1.2,0,0,1-.858,1.471A1.186,1.186,0,0,1,3059.4,536.059Zm-10.12-16.047a1.2,1.2,0,0,1-.793-.3,43.319,43.319,0,0,0-7.688-5.323,1.2,1.2,0,0,1,1.16-2.111,45.68,45.68,0,0,1,8.116,5.622,1.2,1.2,0,0,1-.795,2.11Zm-16.686-9.4a1.2,1.2,0,0,1-.409-.071,84.437,84.437,0,0,0-9.1-2.687,1.2,1.2,0,1,1,.557-2.342,86.617,86.617,0,0,1,9.366,2.764,1.2,1.2,0,0,1-.41,2.337Zm-18.694-4.531a1.119,1.119,0,0,1-.179-.013c-3.012-.449-6.206-.812-9.492-1.079a1.2,1.2,0,0,1,.2-2.4c3.34.272,6.587.641,9.651,1.1a1.2,1.2,0,0,1-.175,2.4Z" transform="translate(-2512.497 -378.458)" fill="#915aa3"/>
      <path id="Path_102485" data-name="Path 102485" d="M2915.624,788.033q-1.732,0-3.48-.012a1.2,1.2,0,0,1,.007-2.409h.008q4.873.033,9.613-.026h.014A1.2,1.2,0,0,1,2921.8,788Q2918.74,788.033,2915.624,788.033Zm-13.106-.164h-.031c-3.168-.078-6.414-.185-9.649-.319a1.2,1.2,0,1,1,.1-2.407c3.222.133,6.456.24,9.611.317a1.2,1.2,0,0,1-.03,2.409Zm28.9-.092a1.2,1.2,0,0,1-.039-2.408c3.229-.107,6.459-.25,9.6-.426a1.2,1.2,0,0,1,.135,2.405c-3.16.177-6.407.321-9.655.428Zm-48.155-.7-.069,0c-3.167-.181-6.409-.39-9.633-.622a1.206,1.206,0,0,1-1.115-1.288,1.221,1.221,0,0,1,1.288-1.114c3.213.231,6.442.44,9.6.619a1.2,1.2,0,0,1-.068,2.407Zm67.393-.385a1.2,1.2,0,0,1-.1-2.4c3.242-.263,6.458-.57,9.56-.91a1.2,1.2,0,1,1,.263,2.394c-3.123.342-6.362.65-9.627.916C2950.724,786.692,2950.691,786.693,2950.658,786.693Zm-86.614-1c-.035,0-.07,0-.105,0-3.145-.272-6.379-.574-9.61-.9a1.2,1.2,0,0,1,.24-2.4c3.22.322,6.443.623,9.577.894a1.2,1.2,0,0,1-.1,2.4Zm105.769-1.115a1.2,1.2,0,0,1-.168-2.4c3.243-.462,6.429-.974,9.469-1.523a1.2,1.2,0,0,1,.428,2.371c-3.07.554-6.285,1.07-9.558,1.537A1.234,1.234,0,0,1,2969.813,784.581Zm-124.943-.8a1.1,1.1,0,0,1-.136-.008c-3.167-.36-6.39-.746-9.582-1.149a1.2,1.2,0,0,1,.3-2.39c3.183.4,6.4.788,9.552,1.146a1.2,1.2,0,0,1-.134,2.4Zm-19.118-2.416a1.316,1.316,0,0,1-.167-.011c-3.175-.441-6.388-.907-9.551-1.386a1.2,1.2,0,0,1,.361-2.382c3.151.478,6.356.943,9.52,1.383a1.2,1.2,0,0,1-.164,2.4Zm163.02-.222a1.2,1.2,0,0,1-.264-2.379c3.2-.723,6.322-1.513,9.277-2.349a1.2,1.2,0,0,1,.656,2.318c-3,.848-6.16,1.648-9.4,2.381A1.2,1.2,0,0,1,2988.772,781.14ZM2806.7,778.48a1.252,1.252,0,0,1-.2-.015c-3.118-.51-6.32-1.052-9.514-1.611a1.2,1.2,0,1,1,.415-2.373c3.185.557,6.377,1.1,9.488,1.606a1.2,1.2,0,0,1-.193,2.393Zm200.594-2.622a1.2,1.2,0,0,1-.4-2.339c3.118-1.11,6.09-2.31,8.833-3.566a1.2,1.2,0,0,1,1,2.191c-2.808,1.283-5.844,2.51-9.029,3.644A1.2,1.2,0,0,1,3007.292,775.858Zm-219.575-.7a1.157,1.157,0,0,1-.222-.021q-4.72-.882-9.475-1.824a1.2,1.2,0,0,1,.469-2.364q4.74.941,9.448,1.82a1.2,1.2,0,0,1-.219,2.389Zm-18.9-3.751a1.206,1.206,0,0,1-.249-.026q-4.7-.988-9.425-2.033a1.2,1.2,0,1,1,.521-2.352q4.714,1.043,9.4,2.027a1.2,1.2,0,0,1-.247,2.383Zm255.926-3.636a1.2,1.2,0,0,1-.627-2.234,56.465,56.465,0,0,0,7.631-5.514,1.2,1.2,0,1,1,1.578,1.819,58.905,58.905,0,0,1-7.957,5.752A1.2,1.2,0,0,1,3024.741,767.769ZM2750,767.241a1.194,1.194,0,0,1-.274-.031q-4.721-1.1-9.387-2.239a1.2,1.2,0,1,1,.573-2.34q4.653,1.137,9.36,2.233a1.2,1.2,0,0,1-.272,2.377Zm-18.723-4.577a1.2,1.2,0,0,1-.3-.038c-3.118-.8-6.259-1.622-9.335-2.447a1.2,1.2,0,1,1,.624-2.327c3.068.823,6.2,1.644,9.309,2.441a1.2,1.2,0,0,1-.3,2.371Zm-18.617-4.993a1.2,1.2,0,0,1-.326-.044c-3.071-.862-6.193-1.757-9.278-2.661a1.2,1.2,0,0,1,.678-2.312c3.075.9,6.188,1.794,9.251,2.653a1.2,1.2,0,0,1-.325,2.364Zm326.352-2.61a1.2,1.2,0,0,1-.983-1.9,28.643,28.643,0,0,0,4.059-8.235,1.2,1.2,0,0,1,2.307.693,31.062,31.062,0,0,1-4.4,8.929A1.2,1.2,0,0,1,3039.017,755.06Zm-344.847-2.813a1.19,1.19,0,0,1-.352-.053c-3.037-.929-6.137-1.9-9.213-2.882a1.2,1.2,0,1,1,.732-2.294c3.067.979,6.157,1.946,9.186,2.872a1.2,1.2,0,0,1-.353,2.357Zm-18.36-5.87a1.218,1.218,0,0,1-.381-.062c-3.038-1.013-6.112-2.061-9.137-3.113a1.2,1.2,0,1,1,.792-2.275c3.016,1.049,6.08,2.093,9.108,3.1a1.2,1.2,0,0,1-.381,2.347Zm-18.2-6.338a1.208,1.208,0,0,1-.411-.071c-3.04-1.1-6.085-2.235-9.051-3.36a1.2,1.2,0,0,1,.854-2.252c2.956,1.122,5.99,2.247,9.019,3.347a1.2,1.2,0,0,1-.411,2.336Zm386.782-3.074a1.2,1.2,0,0,1-1.2-1.146,33.482,33.482,0,0,0-1.8-9.091,1.2,1.2,0,0,1,2.282-.773,35.91,35.91,0,0,1,1.92,9.746,1.2,1.2,0,0,1-1.144,1.261Zm-404.8-3.762a1.183,1.183,0,0,1-.444-.085c-3.021-1.2-6.031-2.416-8.949-3.624a1.2,1.2,0,0,1,.922-2.226c2.907,1.2,5.905,2.419,8.915,3.611a1.2,1.2,0,0,1-.444,2.324Zm-17.809-7.377a1.194,1.194,0,0,1-.479-.1c-2.975-1.289-5.945-2.607-8.829-3.917a1.2,1.2,0,1,1,1-2.192c2.871,1.3,5.828,2.616,8.791,3.9a1.2,1.2,0,0,1-.48,2.309Zm416.74-7.02a1.206,1.206,0,0,1-1.044-.6,70.2,70.2,0,0,0-5.3-7.84,1.2,1.2,0,1,1,1.906-1.473,72.714,72.714,0,0,1,5.481,8.111,1.2,1.2,0,0,1-1.043,1.806Zm-434.288-.955a1.19,1.19,0,0,1-.518-.118c-2.908-1.386-5.829-2.815-8.68-4.244a1.2,1.2,0,0,1,1.079-2.153c2.838,1.423,5.744,2.843,8.637,4.224a1.2,1.2,0,0,1-.519,2.292ZM2587,709.2a1.2,1.2,0,0,1-.563-.141c-2.894-1.532-5.75-3.088-8.488-4.626a1.2,1.2,0,0,1,1.179-2.1c2.721,1.528,5.56,3.074,8.437,4.6A1.2,1.2,0,0,1,2587,709.2Zm439.849-5.677a1.2,1.2,0,0,1-.876-.378c-2.079-2.2-4.37-4.454-6.811-6.686a1.2,1.2,0,1,1,1.626-1.777c2.484,2.271,4.818,4.563,6.938,6.81a1.2,1.2,0,0,1-.877,2.031Zm-456.655-3.76a1.2,1.2,0,0,1-.617-.17c-2.82-1.683-5.59-3.394-8.231-5.083a1.2,1.2,0,1,1,1.3-2.029c2.621,1.676,5.369,3.373,8.168,5.044a1.2,1.2,0,0,1-.617,2.239Zm-16.231-10.393a1.2,1.2,0,0,1-.683-.214c-2.718-1.875-5.363-3.779-7.861-5.659a1.2,1.2,0,0,1,1.448-1.924c2.472,1.859,5.091,3.744,7.782,5.6a1.2,1.2,0,0,1-.685,2.2Zm-15.379-11.606a1.2,1.2,0,0,1-.77-.279c-2.569-2.141-5.016-4.3-7.273-6.431a1.2,1.2,0,0,1,1.653-1.753c2.219,2.093,4.629,4.224,7.161,6.333a1.2,1.2,0,0,1-.771,2.13Zm-13.97-13.245a1.2,1.2,0,0,1-.893-.4,93.668,93.668,0,0,1-6.181-7.539,1.2,1.2,0,0,1,1.945-1.423,90.924,90.924,0,0,0,6.021,7.343,1.2,1.2,0,0,1-.892,2.014Zm-11.226-15.57a1.2,1.2,0,0,1-1.066-.643,46.571,46.571,0,0,1-3.7-9.122,1.2,1.2,0,1,1,2.319-.648,44.267,44.267,0,0,0,3.51,8.647,1.2,1.2,0,0,1-1.065,1.766Zm-4.863-18.354h-.027a1.206,1.206,0,0,1-1.178-1.231,29.434,29.434,0,0,1,.7-5.736,28.932,28.932,0,0,1,1.23-4.073,1.2,1.2,0,1,1,2.248.862,26.655,26.655,0,0,0-1.765,9A1.2,1.2,0,0,1,2508.528,630.6Zm6.663-17.7a1.2,1.2,0,0,1-.94-1.957,44.37,44.37,0,0,1,7.04-6.935,1.2,1.2,0,0,1,1.5,1.884,41.948,41.948,0,0,0-6.658,6.555A1.2,1.2,0,0,1,2515.191,612.9Zm14.845-12.1a1.2,1.2,0,0,1-.6-2.251,89.684,89.684,0,0,1,8.749-4.332,1.2,1.2,0,0,1,.955,2.211,87.233,87.233,0,0,0-8.51,4.214A1.208,1.208,0,0,1,2530.036,600.8Z" transform="translate(-2507.323 -396.498)" fill="#915aa3"/>
      <path id="Path_102486" data-name="Path 102486" d="M2999.955,651.991c-1.966,0-3.995-.023-6.03-.071a1.2,1.2,0,0,1,.056-2.409c3.278.077,6.5.091,9.589.043h.018a1.2,1.2,0,0,1,.018,2.409Q3001.8,651.99,2999.955,651.991Zm13.261-.388a1.2,1.2,0,0,1-.074-2.406c3.307-.2,6.512-.493,9.526-.855a1.2,1.2,0,0,1,.288,2.392c-3.059.368-6.311.659-9.664.867Zm-28.891-.064-.067,0c-3.145-.175-6.391-.4-9.647-.676a1.2,1.2,0,0,1,.2-2.4c3.233.271,6.456.5,9.578.67a1.2,1.2,0,0,1-.066,2.408Zm-19.2-1.6c-.043,0-.088,0-.132-.006-3.145-.342-6.373-.731-9.594-1.155a1.2,1.2,0,1,1,.314-2.389c3.2.422,6.414.808,9.54,1.148a1.2,1.2,0,0,1-.128,2.4Zm67.2-.691a1.2,1.2,0,0,1-.233-2.386,91.024,91.024,0,0,0,9.222-2.3,1.2,1.2,0,0,1,.712,2.3,94.093,94.093,0,0,1-9.466,2.362A1.251,1.251,0,0,1,3032.327,649.248Zm-86.312-1.813a1.416,1.416,0,0,1-.182-.013c-3.14-.478-6.348-1-9.535-1.541a1.2,1.2,0,1,1,.406-2.374c3.172.542,6.366,1.058,9.491,1.533a1.2,1.2,0,0,1-.18,2.4Zm-19-3.241a1.2,1.2,0,0,1-.225-.021c-3.128-.59-6.316-1.218-9.474-1.865a1.2,1.2,0,1,1,.484-2.36c3.146.646,6.321,1.27,9.437,1.858a1.2,1.2,0,0,1-.222,2.388Zm123.623-.766a1.2,1.2,0,0,1-.527-2.287,39.344,39.344,0,0,0,7.88-4.975,1.2,1.2,0,1,1,1.537,1.855,41.743,41.743,0,0,1-8.363,5.286A1.2,1.2,0,0,1,3050.64,643.428Zm-142.5-3.1a1.215,1.215,0,0,1-.261-.028c-3.072-.678-6.238-1.4-9.411-2.148a1.2,1.2,0,0,1,.552-2.344c3.163.744,6.317,1.464,9.379,2.14a1.2,1.2,0,0,1-.258,2.381Zm-18.76-4.418a1.226,1.226,0,0,1-.292-.036c-3.085-.77-6.23-1.578-9.348-2.4a1.2,1.2,0,0,1,.614-2.329c3.109.821,6.244,1.625,9.318,2.393a1.2,1.2,0,0,1-.292,2.373Zm175.615-4.874a1.2,1.2,0,0,1-1.045-1.8,21.831,21.831,0,0,0,1.418-2.978,22.342,22.342,0,0,0,1.359-5.654,1.2,1.2,0,1,1,2.4.258,24.746,24.746,0,0,1-1.507,6.263,24.272,24.272,0,0,1-1.575,3.308A1.2,1.2,0,0,1,3064.993,631.033ZM2870.742,631a1.205,1.205,0,0,1-.322-.044c-3.118-.863-6.241-1.749-9.284-2.633a1.2,1.2,0,1,1,.671-2.313c3.033.881,6.148,1.764,9.256,2.625a1.2,1.2,0,0,1-.321,2.365Zm-18.509-5.366a1.23,1.23,0,0,1-.35-.051c-3.043-.922-6.145-1.879-9.219-2.847a1.2,1.2,0,0,1,.722-2.3q4.619,1.454,9.194,2.839a1.2,1.2,0,0,1-.348,2.357Zm-18.383-5.789a1.193,1.193,0,0,1-.375-.059q-4.56-1.491-9.155-3.049a1.2,1.2,0,0,1,.773-2.282q4.584,1.555,9.13,3.041a1.2,1.2,0,0,1-.374,2.349Zm-18.251-6.19a1.2,1.2,0,0,1-.4-.068q-4.53-1.589-9.088-3.243a1.2,1.2,0,0,1,.822-2.264q4.545,1.649,9.064,3.235a1.2,1.2,0,0,1-.4,2.34Zm251.682-1.286a1.2,1.2,0,0,1-1.174-.942,44.815,44.815,0,0,0-3.058-8.849,1.2,1.2,0,0,1,2.189-1,47.135,47.135,0,0,1,3.219,9.328,1.2,1.2,0,0,1-1.177,1.466Zm-269.8-5.286a1.2,1.2,0,0,1-.422-.076q-4.5-1.685-9.018-3.43a1.2,1.2,0,0,1,.868-2.247q4.509,1.741,8.995,3.422a1.2,1.2,0,0,1-.423,2.332Zm-17.978-6.943a1.207,1.207,0,0,1-.446-.085q-4.5-1.793-8.947-3.615a1.2,1.2,0,0,1,.914-2.229q4.432,1.817,8.923,3.605a1.2,1.2,0,0,1-.445,2.324Zm280-5.294a1.206,1.206,0,0,1-1.017-.557c-1.6-2.519-3.454-5.131-5.5-7.763a1.2,1.2,0,0,1,1.9-1.481c2.1,2.694,3.993,5.368,5.637,7.95a1.2,1.2,0,0,1-1.016,1.851Zm-297.835-2.02a1.193,1.193,0,0,1-.468-.1q-4.468-1.886-8.87-3.8a1.2,1.2,0,0,1,.961-2.208q4.39,1.909,8.847,3.791a1.2,1.2,0,0,1-.47,2.314ZM2744,585.134a1.213,1.213,0,0,1-.491-.1q-4.43-1.986-8.786-3.993a1.2,1.2,0,0,1,1.009-2.188q4.344,2,8.762,3.982a1.2,1.2,0,0,1-.493,2.3Zm303.747-5.526a1.2,1.2,0,0,1-.9-.4c-2.039-2.272-4.257-4.607-6.59-6.937a1.2,1.2,0,0,1,1.7-1.7c2.363,2.361,4.611,4.728,6.68,7.033a1.2,1.2,0,0,1-.9,2.009Zm-321.25-2.544a1.193,1.193,0,0,1-.516-.116c-2.922-1.387-5.847-2.8-8.694-4.191a1.2,1.2,0,1,1,1.058-2.164c2.839,1.39,5.756,2.8,8.669,4.179a1.2,1.2,0,0,1-.518,2.292Zm-17.312-8.472a1.2,1.2,0,0,1-.542-.129c-2.916-1.471-5.806-2.951-8.593-4.4a1.2,1.2,0,1,1,1.112-2.137c2.776,1.444,5.657,2.919,8.566,4.386a1.2,1.2,0,0,1-.544,2.279Zm-17.1-8.891a1.2,1.2,0,0,1-.569-.143c-2.843-1.525-5.695-3.079-8.477-4.62a1.2,1.2,0,1,1,1.167-2.108c2.772,1.536,5.615,3.085,8.448,4.6a1.2,1.2,0,0,1-.57,2.267Zm-16.861-9.341a1.2,1.2,0,0,1-.6-.159c-2.788-1.6-5.594-3.231-8.344-4.86a1.2,1.2,0,1,1,1.229-2.072c2.739,1.622,5.534,3.252,8.312,4.841a1.2,1.2,0,0,1-.6,2.25Zm-16.58-9.829a1.2,1.2,0,0,1-.63-.178c-2.754-1.692-5.508-3.416-8.187-5.125a1.2,1.2,0,0,1,1.3-2.031c2.667,1.7,5.41,3.418,8.153,5.1a1.2,1.2,0,0,1-.631,2.231Zm-16.248-10.373a1.2,1.2,0,0,1-.666-.2c-2.707-1.8-5.4-3.625-7.995-5.427a1.2,1.2,0,0,1,1.372-1.979c2.585,1.794,5.262,3.61,7.955,5.4a1.2,1.2,0,0,1-.667,2.207Zm-15.833-10.994a1.187,1.187,0,0,1-.707-.231c-2.647-1.924-5.255-3.87-7.75-5.782a1.2,1.2,0,0,1,1.465-1.912c2.479,1.9,5.07,3.833,7.7,5.746a1.2,1.2,0,0,1-.708,2.177Zm-15.3-11.729a1.2,1.2,0,0,1-.759-.269c-2.547-2.068-5.042-4.159-7.416-6.215a1.2,1.2,0,0,1,1.578-1.821c2.354,2.039,4.829,4.114,7.356,6.165a1.2,1.2,0,0,1-.76,2.14ZM2596.713,494.8a1.2,1.2,0,0,1-.824-.325c-2.43-2.275-4.76-4.557-6.924-6.782a1.2,1.2,0,1,1,1.727-1.68c2.139,2.2,4.442,4.453,6.844,6.7a1.2,1.2,0,0,1-.823,2.084Zm-13.41-13.831a1.2,1.2,0,0,1-.91-.415c-2.212-2.554-4.264-5.1-6.1-7.574a1.2,1.2,0,1,1,1.935-1.435c1.8,2.422,3.81,4.923,5.981,7.431a1.2,1.2,0,0,1-.91,1.993Zm-11.386-15.506a1.2,1.2,0,0,1-1.038-.593,64.586,64.586,0,0,1-4.369-8.768,1.2,1.2,0,0,1,2.237-.9,62.166,62.166,0,0,0,4.206,8.439,1.205,1.205,0,0,1-1.036,1.817Zm-6.848-17.841a1.205,1.205,0,0,1-1.191-1.034,30.883,30.883,0,0,1-.317-4.353,26.236,26.236,0,0,1,.6-5.65,1.2,1.2,0,1,1,2.352.519,23.83,23.83,0,0,0-.545,5.131,28.451,28.451,0,0,0,.294,4.012,1.205,1.205,0,0,1-1.023,1.363A1.245,1.245,0,0,1,2565.07,447.617Zm4.214-18.277a1.2,1.2,0,0,1-.972-1.913,30.727,30.727,0,0,1,7.176-6.926,1.2,1.2,0,0,1,1.39,1.968,28.368,28.368,0,0,0-6.62,6.377A1.2,1.2,0,0,1,2569.283,429.34Zm15.328-11.272a1.2,1.2,0,0,1-.474-2.312,71.977,71.977,0,0,1,9.259-3.182,1.2,1.2,0,0,1,.636,2.323,69.713,69.713,0,0,0-8.948,3.074A1.187,1.187,0,0,1,2584.611,418.068Zm18.505-5.2a1.2,1.2,0,0,1-.2-2.391c3.034-.527,6.273-.969,9.628-1.313a1.2,1.2,0,1,1,.246,2.4c-3.3.339-6.483.772-9.461,1.289A1.152,1.152,0,0,1,2603.116,412.866Zm19.153-2.014a1.2,1.2,0,0,1-.058-2.407c3.1-.149,6.363-.231,9.685-.245h0a1.2,1.2,0,0,1,0,2.409c-3.287.014-6.51.095-9.578.242Z" transform="translate(-2518.407 -359.855)" fill="#915aa3"/>
      <path id="Path_102487" data-name="Path 102487" d="M2590.788,584.444h0c-3.293,0-6.547-.056-9.671-.155a1.2,1.2,0,0,1,.038-2.408h.039c3.1.1,6.328.149,9.6.153a1.2,1.2,0,0,1,0,2.409Zm9.633-.119a1.2,1.2,0,0,1-.029-2.409c3.118-.078,6.35-.2,9.6-.352a1.2,1.2,0,0,1,.114,2.406c-3.271.157-6.52.276-9.657.355Zm-28.889-.515c-.028,0-.056,0-.084,0-3.329-.229-6.575-.527-9.65-.882a1.2,1.2,0,0,1,.278-2.393c3.037.352,6.247.646,9.539.874a1.2,1.2,0,0,1-.082,2.406Zm48.14-.4a1.2,1.2,0,0,1-.08-2.406c3.143-.214,6.368-.463,9.585-.74a1.2,1.2,0,1,1,.207,2.4c-3.231.279-6.471.529-9.629.744C2619.727,583.413,2619.7,583.414,2619.672,583.414Zm19.2-1.649a1.2,1.2,0,0,1-.121-2.4c3.137-.322,6.353-.679,9.559-1.056a1.2,1.2,0,1,1,.282,2.391c-3.218.381-6.447.737-9.6,1.061C2638.955,581.763,2638.914,581.765,2638.872,581.765Zm-86.468-.224a1.21,1.21,0,0,1-.214-.019c-3.386-.605-6.585-1.313-9.506-2.1a1.2,1.2,0,1,1,.627-2.325c2.856.77,5.986,1.462,9.3,2.055a1.2,1.2,0,0,1-.211,2.39Zm105.6-2.034a1.2,1.2,0,0,1-.156-2.4c3.13-.414,6.336-.861,9.529-1.326a1.2,1.2,0,0,1,.348,2.384c-3.2.467-6.42.915-9.56,1.331A1.226,1.226,0,0,1,2658.009,579.507Zm19.071-2.781a1.2,1.2,0,0,1-.187-2.394c3.131-.5,6.326-1.023,9.493-1.564a1.2,1.2,0,1,1,.406,2.374c-3.177.543-6.381,1.071-9.522,1.569A1.159,1.159,0,0,1,2677.08,576.727Zm-143.206-.337a1.2,1.2,0,0,1-.466-.094,42.272,42.272,0,0,1-8.662-4.775,1.2,1.2,0,0,1,1.427-1.941,39.876,39.876,0,0,0,8.169,4.495,1.2,1.2,0,0,1-.468,2.315Zm162.2-2.907a1.2,1.2,0,0,1-.215-2.389q4.694-.858,9.458-1.781a1.2,1.2,0,0,1,.459,2.365q-4.776.925-9.483,1.785A1.191,1.191,0,0,1,2696.077,573.483Zm18.92-3.668a1.2,1.2,0,0,1-.24-2.384q4.68-.959,9.417-1.98a1.2,1.2,0,1,1,.507,2.355q-4.75,1.024-9.441,1.985A1.2,1.2,0,0,1,2715,569.815Zm18.841-4.058a1.2,1.2,0,0,1-.265-2.379q4.663-1.055,9.376-2.167a1.2,1.2,0,0,1,.554,2.344q-4.724,1.114-9.4,2.172A1.229,1.229,0,0,1,2733.839,565.758Zm-214.76-1.087a1.2,1.2,0,0,1-1.066-.643,17.069,17.069,0,0,1-1.365-3.448,17.283,17.283,0,0,1-.605-4.564,19.171,19.171,0,0,1,.106-2,1.2,1.2,0,1,1,2.4.25,16.849,16.849,0,0,0-.093,1.745,14.613,14.613,0,0,0,1.693,6.889,1.2,1.2,0,0,1-1.065,1.766Zm233.515-3.343a1.2,1.2,0,0,1-.287-2.374q4.649-1.143,9.335-2.344a1.2,1.2,0,0,1,.6,2.333q-4.7,1.2-9.357,2.35A1.2,1.2,0,0,1,2752.593,561.327Zm18.67-4.783a1.2,1.2,0,0,1-.309-2.368q3.7-.986,7.432-2.007l1.857-.511a1.2,1.2,0,0,1,.642,2.323l-1.864.511q-3.731,1.022-7.447,2.011A1.185,1.185,0,0,1,2771.263,556.544Zm18.575-5.128a1.2,1.2,0,0,1-.33-2.362q4.65-1.33,9.242-2.689a1.2,1.2,0,1,1,.684,2.31q-4.6,1.362-9.265,2.7A1.211,1.211,0,0,1,2789.839,551.416Zm-269.52-5.163a1.2,1.2,0,0,1-1.065-1.766,50.2,50.2,0,0,1,5.514-8.168,1.2,1.2,0,1,1,1.868,1.521,47.818,47.818,0,0,0-5.25,7.771A1.2,1.2,0,0,1,2520.318,546.253Zm288-.307a1.2,1.2,0,0,1-.353-2.357q4.628-1.416,9.19-2.862a1.2,1.2,0,1,1,.728,2.3q-4.572,1.449-9.212,2.87A1.2,1.2,0,0,1,2808.322,545.946Zm18.374-5.823a1.2,1.2,0,0,1-.375-2.349q4.606-1.508,9.132-3.043a1.2,1.2,0,1,1,.773,2.282q-4.538,1.537-9.156,3.051A1.2,1.2,0,0,1,2826.7,540.122Zm18.258-6.187a1.2,1.2,0,0,1-.4-2.34q4.578-1.605,9.066-3.232a1.2,1.2,0,0,1,.821,2.265q-4.5,1.631-9.09,3.241A1.217,1.217,0,0,1,2844.953,533.935Zm-312.713-2.72a1.2,1.2,0,0,1-.839-2.068c2.181-2.116,4.621-4.3,7.253-6.479a1.2,1.2,0,0,1,1.539,1.853c-2.586,2.145-4.979,4.283-7.114,6.354A1.2,1.2,0,0,1,2532.24,531.215Zm330.834-3.85a1.2,1.2,0,0,1-.423-2.332c3.021-1.133,6.046-2.288,8.992-3.431a1.2,1.2,0,1,1,.872,2.245c-2.955,1.147-5.989,2.305-9.018,3.441A1.2,1.2,0,0,1,2863.074,527.365Zm17.969-6.977a1.2,1.2,0,0,1-.45-2.322c2.967-1.193,5.964-2.421,8.905-3.648a1.2,1.2,0,1,1,.927,2.224c-2.95,1.23-5.956,2.462-8.933,3.659A1.178,1.178,0,0,1,2881.043,520.388Zm-334.027-1.52a1.2,1.2,0,0,1-.716-2.173c2.484-1.835,5.15-3.711,7.921-5.576a1.2,1.2,0,0,1,1.346,2c-2.743,1.847-5.379,3.7-7.835,5.517A1.2,1.2,0,0,1,2547.017,518.868Zm351.815-5.9a1.2,1.2,0,0,1-.48-2.309c2.967-1.286,5.928-2.594,8.8-3.889a1.2,1.2,0,1,1,.99,2.2c-2.884,1.3-5.855,2.611-8.833,3.9A1.192,1.192,0,0,1,2898.832,512.964Zm17.575-7.923a1.2,1.2,0,0,1-.513-2.295c2.924-1.372,5.841-2.772,8.672-4.16a1.2,1.2,0,1,1,1.06,2.162c-2.843,1.395-5.773,2.8-8.708,4.178A1.2,1.2,0,0,1,2916.407,505.041Zm17.3-8.494a1.2,1.2,0,0,1-.551-2.275c2.9-1.489,5.757-3,8.5-4.484a1.2,1.2,0,1,1,1.146,2.118c-2.761,1.5-5.637,3.011-8.549,4.508A1.184,1.184,0,0,1,2933.71,496.547Zm16.949-9.183a1.2,1.2,0,0,1-.6-2.25c2.831-1.62,5.614-3.263,8.27-4.884a1.2,1.2,0,0,1,1.255,2.056c-2.675,1.632-5.478,3.287-8.329,4.919A1.2,1.2,0,0,1,2950.659,487.364Zm16.448-10.053a1.2,1.2,0,0,1-.661-2.21c2.758-1.811,5.42-3.634,7.912-5.417a1.2,1.2,0,1,1,1.4,1.958c-2.517,1.8-5.207,3.644-7.992,5.472A1.2,1.2,0,0,1,2967.107,477.311Zm15.647-11.247a1.2,1.2,0,0,1-.752-2.146c2.619-2.089,5.064-4.174,7.267-6.2a1.2,1.2,0,0,1,1.629,1.774c-2.243,2.061-4.731,4.183-7.393,6.308A1.207,1.207,0,0,1,2982.754,466.064Zm14.1-13.1a1.2,1.2,0,0,1-.9-2,57.292,57.292,0,0,0,5.7-7.49,1.2,1.2,0,1,1,2.04,1.28,59.883,59.883,0,0,1-5.94,7.809A1.2,1.2,0,0,1,2996.856,452.967Zm9.752-16.367a1.224,1.224,0,0,1-.3-.038,1.206,1.206,0,0,1-.865-1.468,18.227,18.227,0,0,0,.607-4.548,14.867,14.867,0,0,0-.519-3.927c-.028-.1-.06-.2-.095-.31a1.2,1.2,0,0,1,2.285-.762c.048.144.092.287.132.43a17.284,17.284,0,0,1,.606,4.569,20.615,20.615,0,0,1-.684,5.15A1.2,1.2,0,0,1,3006.609,436.6Zm-6.159-16.708a1.2,1.2,0,0,1-.715-.237,47.21,47.21,0,0,0-8.118-4.7,1.2,1.2,0,1,1,1.017-2.182,49.481,49.481,0,0,1,8.535,4.951,1.2,1.2,0,0,1-.718,2.172Zm-17.3-8.315a1.207,1.207,0,0,1-.369-.058,95.066,95.066,0,0,0-9.194-2.448,1.2,1.2,0,1,1,.5-2.355,97.424,97.424,0,0,1,9.428,2.511,1.2,1.2,0,0,1-.369,2.35Zm-47.572-2.851a1.2,1.2,0,0,1-.263-2.38,76.4,76.4,0,0,1,9.665-1.513,1.2,1.2,0,0,1,.222,2.4,74.121,74.121,0,0,0-9.359,1.465A1.209,1.209,0,0,1,2935.573,408.726Zm28.755-1.2c-.046,0-.093,0-.141-.007-3.18-.371-6.374-.586-9.494-.639a1.2,1.2,0,0,1,.041-2.409c3.2.055,6.473.275,9.732.654a1.2,1.2,0,0,1-.138,2.4Z" transform="translate(-2509.041 -359.121)" fill="#915aa3"/>
    </g>
    <g id="Group_47871" data-name="Group 47871" transform="translate(2426.778 447.984)">
      <g id="Group_47860" data-name="Group 47860">
        <g id="Group_47852" data-name="Group 47852">
          <path id="Path_102488" data-name="Path 102488" d="M2530.016,540.135c-6.892-7.459-17.14-9.029-24.84-6.925-9.747,2.662-14.662,11.095-18.128,17.041-6.127,10.513-3.168,14.32-7.984,20.427-8.529,10.815-29.22,3.655-39.293,11.961-24.206,19.959-11.012,52.948,10.444,68.521,14.309,10.385,33.773,4.379,39.068,2.744,16.072-4.959,42.7-14.676,45.281-37.88,1.733-15.6-14.193-28.111-5.636-41.117,2.178-3.312,3.983-4.211,5.6-8.353C2537.156,559.828,2537.747,548.5,2530.016,540.135Z" transform="translate(-2426.778 -516.118)" fill="#1d1320"/>
          <path id="Path_102489" data-name="Path 102489" d="M2519.146,537.989c3.662-2.971,1.345-11.731-1-16.457-.878-1.772-4.809-9.7-9.977-9.39-5.309.316-10.393,9.228-8.5,16.287C2502.041,537.255,2514.856,541.47,2519.146,537.989Z" transform="translate(-2441.065 -512.133)" fill="#1d1320"/>
        </g>
        <g id="Group_47853" data-name="Group 47853" transform="translate(14.202 75.951)">
          <path id="Path_102490" data-name="Path 102490" d="M2487.952,610.425a77.405,77.405,0,0,1,48,.218,19.658,19.658,0,0,1,13.5,16.44l16.389,94.369c.813,6.86-8.357,13.53-14.818,15.978-6.749,2.558-16.949,4.976-31.393,4.976-15.486,0-34.189-.088-40.469-2.838-.186-.082-.375-.167-.568-.257a21.233,21.233,0,0,1-12.045-21.174l3.338-13.871a184.253,184.253,0,0,0,5.079-46.732l-.54-27.469A19.683,19.683,0,0,1,2487.952,610.425Z" transform="translate(-2448.802 -606.728)" fill="#915aa3"/>
          <path id="Path_102491" data-name="Path 102491" d="M2582.806,652.085s-13.083-36.239-27.754-39.724l7.459,51.349Z" transform="translate(-2466.262 -607.838)" fill="#915aa3"/>
          <path id="Path_102492" data-name="Path 102492" d="M2451.134,672.712a17.566,17.566,0,0,1-5.966-18.688c1.8-6.172,4.063-13.606,6.037-18.984,6.752-18.4,20.747-22.509,26.2-23.812.858-.206,10.557-1.492,10.557-1.492l-5.837,56.289-24.935,10.213Z" transform="translate(-2444.467 -607.321)" fill="#915aa3"/>
        </g>
        <path id="Path_102493" data-name="Path 102493" d="M2474.5,738.546a1.191,1.191,0,0,1-.561-.139,1.2,1.2,0,0,1-.5-1.627c12.632-23.983,49.959-22.573,62.04-20.187,9.712,1.917,19.4,8.155,19.808,8.42a1.2,1.2,0,1,1-1.311,2.02c-.1-.063-9.716-6.252-18.964-8.077-14.617-2.887-48.383-2.052-59.442,18.947A1.2,1.2,0,0,1,2474.5,738.546Z" transform="translate(-2435.947 -552.186)" fill="#1d1320"/>
        <g id="Group_47857" data-name="Group 47857" transform="translate(74.173 96.077)">
          <g id="Group_47855" data-name="Group 47855">
            <g id="Group_47854" data-name="Group 47854">
              <path id="Path_102494" data-name="Path 102494" d="M2524.209,685.811l64.25-.1a3.544,3.544,0,0,0,3.435-2.7l10.9-45.334a3.543,3.543,0,0,0-3.445-4.39l-64.251.1a3.543,3.543,0,0,0-3.434,2.7l-10.9,45.334A3.543,3.543,0,0,0,2524.209,685.811Z" transform="translate(-2519.454 -632.09)" fill="#eaacff"/>
              <path id="Path_102495" data-name="Path 102495" d="M2523.908,686.72a4.747,4.747,0,0,1-4.609-5.882l10.9-45.327a4.74,4.74,0,0,1,4.6-3.619l64.25-.1h.008a4.746,4.746,0,0,1,4.608,5.882L2592.769,683a4.74,4.74,0,0,1-4.6,3.618l-64.25.1Zm75.153-52.517h0l-64.252.1a2.333,2.333,0,0,0-2.266,1.779l-10.9,45.327a2.339,2.339,0,0,0,2.27,2.9h0l64.251-.1a2.335,2.335,0,0,0,2.267-1.779l10.9-45.327a2.338,2.338,0,0,0-2.268-2.9Z" transform="translate(-2519.159 -631.794)" fill="#1d1320"/>
            </g>
            <path id="Path_102496" data-name="Path 102496" d="M2576.6,665.555a4.748,4.748,0,1,1-3.451-6.035A4.923,4.923,0,0,1,2576.6,665.555Z" transform="translate(-2528.634 -637.236)" fill="#fff"/>
          </g>
          <g id="Group_47856" data-name="Group 47856" transform="translate(59.55 20.977)">
            <path id="Path_102497" data-name="Path 102497" d="M2613.653,660.09l-.817,3.26a2.248,2.248,0,0,1-3.144,1.484l-10.868-5.155a2.662,2.662,0,0,0-3.671,1.554c-1.02,3.1-.161,8.6,13.678,14.206,8.454,3.426,8.756-5.856,7.377-11.518A6.971,6.971,0,0,0,2613.653,660.09Z" transform="translate(-2593.627 -658.216)" fill="#fff"/>
            <path id="Path_102498" data-name="Path 102498" d="M2611.809,677.092a10.051,10.051,0,0,1-3.73-.833c-14.249-5.775-15.679-11.724-14.37-15.7a3.841,3.841,0,0,1,2.136-2.326,3.884,3.884,0,0,1,3.194.061l10.869,5.155a1.043,1.043,0,0,0,1.459-.69l.818-3.259a1.2,1.2,0,0,1,1.845-.7,8.2,8.2,0,0,1,3.047,4.542c1.019,4.181,1.161,9.966-1.785,12.51A5.159,5.159,0,0,1,2611.809,677.092Zm-14.434-16.763a1.487,1.487,0,0,0-.581.119,1.414,1.414,0,0,0-.8.867c-1.4,4.237,3.215,8.752,12.987,12.712,2.138.866,3.732.868,4.735,0,1.889-1.632,1.943-6.324,1.02-10.117a5.405,5.405,0,0,0-.75-1.7l-.284,1.135a3.453,3.453,0,0,1-4.828,2.279l-10.868-5.155A1.478,1.478,0,0,0,2597.375,660.329Z" transform="translate(-2593.327 -657.92)" fill="#1d1320"/>
          </g>
        </g>
        <g id="Group_47858" data-name="Group 47858" transform="translate(15.898 97.258)">
          <path id="Path_102499" data-name="Path 102499" d="M2490.927,641.335s-28.856,16.257-34.806,21.357-12.405,8.973-3.99,20.092c7.153,9.451,19.748,1,41.954-30.847a7.411,7.411,0,0,1,4.517-2.815c2.225-.5,5.46-2.259,6.948-8.1,0,0,10.526,1.493,11.454-3.636l-15.808-2.516a6.5,6.5,0,0,0-5.786,1.864Z" transform="translate(-2446.878 -633.562)" fill="#fff"/>
          <path id="Path_102500" data-name="Path 102500" d="M2458.405,687.339c-2.929,0-5.463-1.387-7.535-4.124-8.456-11.175-2.735-15.955,2.8-20.579.456-.381.915-.764,1.37-1.155,5.813-4.981,32.344-19.993,34.848-21.407l4.361-4.479a7.683,7.683,0,0,1,6.86-2.21l15.787,2.512a1.2,1.2,0,0,1,1,1.4c-.933,5.159-8.85,4.979-11.758,4.728-1.822,5.844-5.478,7.5-7.568,7.971a6.178,6.178,0,0,0-3.791,2.329c-16.542,23.725-28.04,34.849-36.185,35.008Zm41.359-51.661a5.283,5.283,0,0,0-3.792,1.6l-4.482,4.6a1.206,1.206,0,0,1-.272.21c-.288.162-28.82,16.257-34.613,21.222-.464.4-.931.788-1.394,1.174-5.51,4.605-9.491,7.932-2.42,17.277,1.646,2.174,3.508,3.23,5.75,3.168,7.208-.14,18.413-11.254,34.256-33.977a8.565,8.565,0,0,1,5.241-3.3c2.033-.455,4.733-2.078,6.044-7.224a1.21,1.21,0,0,1,1.335-.9c2.1.3,7.651.519,9.518-1.506l-14.229-2.264A5.432,5.432,0,0,0,2499.764,635.678Zm-9.137,5.361h0Z" transform="translate(-2446.578 -633.266)" fill="#1d1320"/>
        </g>
        <g id="Group_47859" data-name="Group 47859" transform="translate(56.993 32.978)">
          <path id="Path_102501" data-name="Path 102501" d="M2530.615,582.8a4.026,4.026,0,0,0,4.657-.776,23.441,23.441,0,0,0,3.413-4.367l1.763.035a1.037,1.037,0,0,0,1.058-.992l.3-6.886a12.773,12.773,0,0,0,2.028-5.594c.211-2.559-2.07-7.156-4.377-8.284-3.127-1.526-8.77-2.35-11.718,2.081-1.266,1.9-3.323,3.269-4.567,3.049-1.172-.208-1.652-1.21-2.23-2.25-1.077-1.935-3.754-3.753-6.325-.695-2.605,3.1-.8,5.944.817,8.322.652.959-.053,3.62-.318,4.749l-3.812,16.242a12.942,12.942,0,0,1-7.969,9.128l-4.08,1.563s4.5,13.674,22.557,13.286c13.777-.3,12.721-11.6,12.721-11.6l-1.81-.8a10.822,10.822,0,0,1-6.187-12.291l1.214-5.36Z" transform="translate(-2498.056 -553.504)" fill="#fff"/>
          <path id="Path_102502" data-name="Path 102502" d="M2520.781,612.327c-18.1,0-22.912-13.979-22.959-14.122a1.2,1.2,0,0,1,.713-1.5l4.08-1.563a11.731,11.731,0,0,0,7.228-8.28l3.876-16.51c.587-2.451.553-3.279.421-3.542-1.49-2.19-4-5.879-.735-9.762a4.859,4.859,0,0,1,4.24-2.046,5.545,5.545,0,0,1,4.059,2.931l.114.2c.53.959.792,1.359,1.275,1.445.507.07,2.151-.722,3.353-2.53,3.093-4.651,9.036-4.554,13.25-2.5,2.886,1.409,5.292,6.527,5.049,9.465a13.85,13.85,0,0,1-2.038,5.854l-.29,6.58a2.256,2.256,0,0,1-2.24,2.143h-.047l-1.079-.022a24.738,24.738,0,0,1-3.218,4,5.22,5.22,0,0,1-6.052,1l-1.484-.743-.874,3.86a9.636,9.636,0,0,0,5.5,10.924l1.81.8a1.2,1.2,0,0,1,.712.989,12.314,12.314,0,0,1-2.9,8.667c-2.418,2.713-6.117,4.141-10.992,4.247C2521.29,612.325,2521.032,612.327,2520.781,612.327Zm-20.233-13.816c1.445,3.083,6.77,11.713,20.948,11.4,4.179-.089,7.29-1.247,9.246-3.44a9.768,9.768,0,0,0,2.313-6.16l-1.108-.489a12.049,12.049,0,0,1-6.875-13.658l1.214-5.36a1.2,1.2,0,0,1,1.714-.811l2.858,1.433h0a2.816,2.816,0,0,0,3.264-.549,22.336,22.336,0,0,0,3.238-4.143,1.232,1.232,0,0,1,1.054-.579l1.6.032.3-6.724a1.214,1.214,0,0,1,.177-.576,11.71,11.71,0,0,0,1.854-5.063c.181-2.187-1.932-6.236-3.705-7.1-2.37-1.157-7.55-2.3-10.187,1.666-1.323,1.99-3.791,3.922-5.779,3.567-1.662-.3-2.384-1.6-2.962-2.653l-.109-.2a3.213,3.213,0,0,0-2.184-1.7,2.632,2.632,0,0,0-2.166,1.2c-1.94,2.308-.854,4.3.891,6.87.836,1.227.419,3.362-.079,5.444l-.062.257-3.813,16.243a14.129,14.129,0,0,1-8.71,9.977Z" transform="translate(-2497.76 -553.206)" fill="#1d1320"/>
        </g>
      </g>
      <g id="Group_47870" data-name="Group 47870" transform="translate(43.461 174.108)">
        <g id="Group_47864" data-name="Group 47864" transform="translate(26.725 170.069)">
          <g id="Group_47861" data-name="Group 47861" transform="translate(7.653)">
            <path id="Path_102503" data-name="Path 102503" d="M2534.791,942.295l-9.567,28.547s10.422-.89,11.418-.695,13.186-26.035,13.186-26.035Z" transform="translate(-2524.02 -941.091)" fill="#fff"/>
            <path id="Path_102504" data-name="Path 102504" d="M2524.928,971.752a1.205,1.205,0,0,1-1.142-1.587l9.568-28.548a1.2,1.2,0,0,1,1.286-.813l15.037,1.818a1.2,1.2,0,0,1,.948,1.7c-.031.066-3.088,6.642-6.228,13.11-6.749,13.9-7.134,13.821-8.281,13.6-.7-.088-6.193.294-11.084.712C2525,971.75,2524.962,971.752,2524.928,971.752Zm10.4-28.439-8.676,25.882c3.057-.25,7.456-.584,9.229-.565,1.467-2.1,6.936-13.273,11.86-23.815Zm1.147,25.342c.038,0,.071.01.1.014C2536.539,968.663,2536.507,968.658,2536.474,968.655Z" transform="translate(-2523.724 -940.795)" fill="#1d1320"/>
          </g>
          <g id="Group_47863" data-name="Group 47863" transform="translate(0 16.571)">
            <g id="Group_47862" data-name="Group 47862">
              <path id="Path_102505" data-name="Path 102505" d="M2525.536,968.639s14.389-5.9,17.051,1.5c3.384,9.417,8.675,23.784,8.675,23.784a4.031,4.031,0,0,1-3.474,5.38c-5.259.423-13.1.765-16.757-.517-5.769-2.023-15.34-20.281-15.34-20.281l2.951-15.534S2523.861,962.239,2525.536,968.639Z" transform="translate(-2514.488 -961.732)" fill="#eaacff"/>
              <path id="Path_102506" data-name="Path 102506" d="M2539.035,1000.595a29.2,29.2,0,0,1-8.7-.967c-6.043-2.12-15.005-18.947-16.008-20.859a1.2,1.2,0,0,1-.117-.784l2.951-15.535a1.2,1.2,0,0,1,1.015-.968c2.006-.284,6.011.528,7.824,5.286,2.77-.969,9.586-2.98,13.946-1.041a6.25,6.25,0,0,1,3.476,3.709c3.345,9.3,8.62,23.631,8.672,23.775a5.235,5.235,0,0,1-4.508,7C2544.95,1000.422,2541.914,1000.595,2539.035,1000.595Zm-22.376-22.574c2.773,5.217,10.218,17.841,14.476,19.335,2.635.923,8.409,1.084,16.262.452a2.826,2.826,0,0,0,2.437-3.773c-.049-.134-5.329-14.469-8.676-23.782a3.875,3.875,0,0,0-2.187-2.324c-3.759-1.67-10.856.535-13.273,1.526a1.2,1.2,0,0,1-1.622-.809c-1.018-3.888-3.441-4.655-4.729-4.778Z" transform="translate(-2514.192 -961.433)" fill="#1d1320"/>
            </g>
            <path id="Path_102507" data-name="Path 102507" d="M2551.48,1001.4H2536.7a1.2,1.2,0,0,1,0-2.409h14.779a1.2,1.2,0,1,1,0,2.409Z" transform="translate(-2518.391 -968.835)" fill="#1d1320"/>
          </g>
        </g>
        <g id="Group_47868" data-name="Group 47868" transform="translate(14.242 176.338)">
          <g id="Group_47865" data-name="Group 47865" transform="translate(2.574)">
            <path id="Path_102508" data-name="Path 102508" d="M2503.351,950.848l3.251,28.717,13.078-3.587-1.007-25.874Z" transform="translate(-2502.146 -948.9)" fill="#fff"/>
            <path id="Path_102509" data-name="Path 102509" d="M2506.306,980.474a1.205,1.205,0,0,1-1.2-1.069l-3.251-28.718a1.205,1.205,0,0,1,1.138-1.338l15.323-.744a1.235,1.235,0,0,1,.873.315,1.211,1.211,0,0,1,.39.841l1.007,25.874a1.2,1.2,0,0,1-.885,1.208l-13.079,3.587A1.194,1.194,0,0,1,2506.306,980.474Zm-1.909-28.781,2.948,26.043,10.8-2.963-.923-23.7Z" transform="translate(-2501.851 -948.604)" fill="#1d1320"/>
          </g>
          <g id="Group_47867" data-name="Group 47867" transform="translate(0 20.407)">
            <g id="Group_47866" data-name="Group 47866">
              <path id="Path_102510" data-name="Path 102510" d="M2504.736,1005.731h20.692a4.585,4.585,0,0,0,4.541-5.256c-.692-4.674-2.943-12.423-9.688-23.084a4.03,4.03,0,0,0-3.4-1.872h-6.294a2.119,2.119,0,0,0-2.108,1.9l-.475,4.54L2506.1,980a1.43,1.43,0,0,0-2.385.546,72.588,72.588,0,0,0-3.569,20.511A4.593,4.593,0,0,0,2504.736,1005.731Z" transform="translate(-2498.94 -974.315)" fill="#eaacff"/>
              <path id="Path_102511" data-name="Path 102511" d="M2525.134,1006.64H2504.44a5.8,5.8,0,0,1-5.795-5.9,73.5,73.5,0,0,1,3.629-20.865,2.635,2.635,0,0,1,4.393-1.009l.111.114.207-1.983a3.317,3.317,0,0,1,3.306-2.977h6.294a5.2,5.2,0,0,1,4.417,2.431c6.878,10.87,9.159,18.807,9.861,23.552a5.788,5.788,0,0,1-5.73,6.637Zm-20.355-26.164a.317.317,0,0,0-.057.006.208.208,0,0,0-.16.145,71.079,71.079,0,0,0-3.508,20.157,3.387,3.387,0,0,0,3.386,3.447h20.693a3.383,3.383,0,0,0,3.349-3.876c-.669-4.515-2.863-12.1-9.515-22.617a2.842,2.842,0,0,0-2.382-1.31h-6.294a.912.912,0,0,0-.91.82l-.475,4.54a1.205,1.205,0,0,1-2.062.715l-1.9-1.958A.22.22,0,0,0,2504.779,980.475Z" transform="translate(-2498.645 -974.02)" fill="#1d1320"/>
            </g>
            <path id="Path_102512" data-name="Path 102512" d="M2526.219,1007.9h-20.956a1.2,1.2,0,0,1,0-2.409h20.956a1.2,1.2,0,0,1,0,2.409Z" transform="translate(-2499.712 -980.222)" fill="#1d1320"/>
          </g>
        </g>
        <g id="Group_47869" data-name="Group 47869">
          <path id="Path_102513" data-name="Path 102513" d="M2548.044,734.8a4.8,4.8,0,0,0-3-2.766,73.73,73.73,0,0,0-61.1,8.788,4.824,4.824,0,0,0-2.209,3.718c-.982,13.8-4.644,85.942,18.178,171.36l15.373-1.1,3.134-146.049s22.772,53.542,4.255,138.753l15.99,2.952s23.4-30.767,27.59-77.783C2569.954,791.09,2552.191,744.908,2548.044,734.8Z" transform="translate(-2480.907 -728.979)" fill="#1d1320"/>
          <path id="Path_102514" data-name="Path 102514" d="M2505.406,872.587h-.052c-14.733-.636-16.39-20.53-16.405-20.731a1.2,1.2,0,0,1,2.4-.181c.014.18,1.514,17.963,14.106,18.505a1.2,1.2,0,0,1-.052,2.408Z" transform="translate(-2482.491 -752.942)" fill="#e7c7ff"/>
          <path id="Path_102515" data-name="Path 102515" d="M2528.886,789.972a1.2,1.2,0,0,1-1.2-1.168l-.412-13.875a9.348,9.348,0,0,1,3.977-7.944l5.988-4.21a1.2,1.2,0,0,1,1.384,1.971l-5.987,4.209a6.948,6.948,0,0,0-2.955,5.9l.412,13.875a1.2,1.2,0,0,1-1.167,1.24Z" transform="translate(-2490.044 -735.597)" fill="#e7c7ff"/>
        </g>
      </g>
    </g>
    <g id="Group_47886" data-name="Group 47886" transform="translate(2828.716 593.349)">
      <g id="Group_47879" data-name="Group 47879" transform="translate(0 149.983)">
        <g id="Group_47872" data-name="Group 47872">
          <path id="Path_102516" data-name="Path 102516" d="M2948.034,941.356c-31.079-28.649-14.992-47.126-14.992-47.126s13.884-22.493,62.605,6.911,95.881,18.472,106.546,14.065,47.929-32.115,68.929-33.671c11.685-.866,25.672,7.921,13.4,31.668-25.374,49.111-94.281,54.714-94.281,54.714s-33.4,6.276-67.717.2C3022.527,968.114,2979.114,970,2948.034,941.356Z" transform="translate(-2927.676 -880.277)" fill="#915aa3"/>
          <path id="Path_102517" data-name="Path 102517" d="M3054.293,971.656a186.769,186.769,0,0,1-32.148-2.629c-2.753.079-45.009.77-75.223-27.081-16.383-15.1-19.668-27.483-19.539-35.211a22.38,22.38,0,0,1,4.392-13.517c.508-.77,4.332-6.112,13.763-8.033,12.992-2.648,29.962,2.275,50.436,14.631a133.335,133.335,0,0,0,66.946,19.539c18.861.392,33.087-3.311,38.517-5.556,3.136-1.3,8.917-4.834,15.609-8.932,16.353-10.01,38.748-23.719,53.692-24.826,5.544-.413,12.9,1.278,16.859,7.265,2.871,4.344,4.8,12.41-2.3,26.157-13.284,25.712-38.5,39.4-57.308,46.349a161.061,161.061,0,0,1-37.88,9.006A219.3,219.3,0,0,1,3054.293,971.656Zm-32.061-5.041a1.226,1.226,0,0,1,.209.018c33.707,5.971,66.953-.132,67.284-.194.042-.007.083-.013.125-.016a158.055,158.055,0,0,0,37.366-8.892c18.39-6.805,43.022-20.168,55.942-45.174,5.2-10.061,6.039-18.264,2.43-23.724-3.38-5.115-9.793-6.547-14.672-6.19-14.363,1.064-36.47,14.6-52.611,24.477-7.06,4.322-12.635,7.735-15.948,9.1-5.6,2.316-20.222,6.126-39.486,5.738a135.724,135.724,0,0,1-68.142-19.886c-47.158-28.46-60.825-7.526-60.958-7.31a1.222,1.222,0,0,1-.117.159c-.618.719-14.868,18.008,14.9,45.449,30.333,27.96,73.191,26.462,73.625,26.441Z" transform="translate(-2927.381 -879.982)" fill="#1d1320"/>
        </g>
        <g id="Group_47875" data-name="Group 47875" transform="translate(96.206 64.052)">
          <g id="Group_47873" data-name="Group 47873">
            <path id="Path_102518" data-name="Path 102518" d="M3052.6,961.258l19.521,11.469-14.31,7.8-9.11-5.833Z" transform="translate(-3047.499 -960.052)" fill="#fff"/>
            <path id="Path_102519" data-name="Path 102519" d="M3057.518,981.431a1.2,1.2,0,0,1-.649-.189l-9.11-5.833a1.2,1.2,0,0,1-.507-1.351l3.9-13.431a1.206,1.206,0,0,1,.711-.784,1.193,1.193,0,0,1,1.055.081l19.522,11.468a1.2,1.2,0,0,1-.034,2.1l-14.31,7.8A1.21,1.21,0,0,1,3057.518,981.431Zm-7.7-7.566,7.752,4.964,11.816-6.438-16.351-9.606Z" transform="translate(-3047.203 -959.756)" fill="#1d1320"/>
          </g>
          <g id="Group_47874" data-name="Group 47874" transform="translate(8.245 8.944)">
            <path id="Path_102520" data-name="Path 102520" d="M3059.9,977.559l2.918-2.952a3.228,3.228,0,0,1,3.969-.491l2.074,1.258,1.091-1.609a2.15,2.15,0,0,1,2.762-1.2c12.371,5.942,28.122,10.485,35.517,15.963,8.747,6.48,2.535,20.9-12.721,19.428-12.089-1.165-28.613-14.647-34.95-20.193a2.258,2.258,0,0,1,.584-3.767l.015-.006-1.614-2.321A3.228,3.228,0,0,1,3059.9,977.559Z" transform="translate(-3057.767 -971.192)" fill="#fff"/>
            <path id="Path_102521" data-name="Path 102521" d="M3097.418,1008.976q-1.117,0-2.315-.113c-12.392-1.195-29.045-14.725-35.628-20.486a3.465,3.465,0,0,1-.264-4.954l-.946-1.36a4.432,4.432,0,0,1,.486-5.645h0l2.918-2.952a4.414,4.414,0,0,1,5.45-.674l1.1.663.4-.588a3.605,3.605,0,0,1,1.989-1.781,3.016,3.016,0,0,1,2.341.1c4.817,2.314,10.167,4.421,15.34,6.458,8.1,3.19,15.752,6.2,20.371,9.624a10.669,10.669,0,0,1,3.721,12.663C3110.713,1004.261,3105.84,1008.976,3097.418,1008.976Zm-36.953-30.865a2.022,2.022,0,0,0-.222,2.577l1.614,2.321a1.2,1.2,0,0,1-.542,1.806,1.055,1.055,0,0,0-.255,1.75c6.41,5.609,22.58,18.774,34.274,19.9,8.51.827,13.287-3.473,14.794-7.4a8.215,8.215,0,0,0-2.906-9.864c-4.365-3.233-11.873-6.189-19.821-9.319-5.214-2.053-10.605-4.175-15.5-6.527a.605.605,0,0,0-.483-.006,1.222,1.222,0,0,0-.665.622,1.172,1.172,0,0,1-.1.169l-1.091,1.609a1.2,1.2,0,0,1-1.621.356l-2.075-1.258a2.015,2.015,0,0,0-2.488.307Z" transform="translate(-3057.472 -970.896)" fill="#1d1320"/>
          </g>
          <path id="Path_102522" data-name="Path 102522" d="M3100.822,1008.073a18.808,18.808,0,0,1-5.191-.77,1.2,1.2,0,1,1,.665-2.314c7.062,2.024,11.814-.9,13.737-4.011,1.477-2.391,1.453-5-.061-6.645a1.2,1.2,0,0,1,1.772-1.631c2.265,2.461,2.4,6.206.339,9.541A12.987,12.987,0,0,1,3100.822,1008.073Z" transform="translate(-3056.576 -966.173)" fill="#1d1320"/>
          <path id="Path_102523" data-name="Path 102523" d="M3092.74,1000.28a1.189,1.189,0,0,1-.684-.214,1.2,1.2,0,0,1-.305-1.676l7.208-10.412a1.2,1.2,0,0,1,1.981,1.371l-7.208,10.411A1.2,1.2,0,0,1,3092.74,1000.28Z" transform="translate(-3055.941 -965.216)" fill="#1d1320"/>
          <path id="Path_102524" data-name="Path 102524" d="M3083.471,996.8a1.2,1.2,0,0,1-1.087-1.721l4.941-10.391a1.2,1.2,0,0,1,2.175,1.035l-4.941,10.391A1.2,1.2,0,0,1,3083.471,996.8Z" transform="translate(-3054.114 -964.536)" fill="#1d1320"/>
        </g>
        <path id="Path_102525" data-name="Path 102525" d="M3111.594,953.4a1.2,1.2,0,0,1-.9-.408l-1.615-1.832a1.2,1.2,0,0,1,.121-1.712l8.134-6.962a228.949,228.949,0,0,1,40.766-27.869l5.856-3.134a1.2,1.2,0,0,1,1.137,2.123l-5.857,3.135a226.548,226.548,0,0,0-40.336,27.575l-7.206,6.168.807.914a1.2,1.2,0,0,1-.9,2Z" transform="translate(-2963.132 -886.162)" fill="#1d1320"/>
        <g id="Group_47878" data-name="Group 47878" transform="translate(76.173 68.031)">
          <g id="Group_47876" data-name="Group 47876" transform="translate(42.251)">
            <path id="Path_102526" data-name="Path 102526" d="M3106.979,966.213l-30.6,12.71,7.06,10.03,34.121-10.03Z" transform="translate(-3075.17 -965.008)" fill="#fff"/>
            <path id="Path_102527" data-name="Path 102527" d="M3083.138,989.862a1.2,1.2,0,0,1-.985-.511l-7.06-10.031a1.206,1.206,0,0,1,.523-1.806l30.6-12.71a1.207,1.207,0,0,1,1.388.343l10.575,12.71a1.2,1.2,0,0,1-.586,1.925l-34.121,10.032A1.205,1.205,0,0,1,3083.138,989.862Zm-5.209-10.7,5.7,8.1,31.535-9.27-8.836-10.619Z" transform="translate(-3074.874 -964.713)" fill="#1d1320"/>
          </g>
          <g id="Group_47877" data-name="Group 47877" transform="translate(0 9.432)">
            <path id="Path_102528" data-name="Path 102528" d="M3078.564,983.625l-2.392-3.392a3.228,3.228,0,0,0-3.834-1.138l-3.53,1.554-.281-1.025a2.256,2.256,0,0,0-2.528-1.636c-6.932,1.1-28.717,4.316-36.914,8.5-9.7,4.952-5.941,20.2,9.348,21.258,12.117.841,28.9-8.15,35.868-12.875,2.289-1.552.685-4.453.685-4.453l3.25-2.679A3.228,3.228,0,0,0,3078.564,983.625Z" transform="translate(-3022.548 -976.756)" fill="#fff"/>
            <path id="Path_102529" data-name="Path 102529" d="M3039.761,1008.711q-.866,0-1.706-.058c-9.874-.686-14.558-6.706-15.568-11.653a10.669,10.669,0,0,1,5.754-11.878c7.864-4.016,27.463-7.082,35.833-8.392l1.441-.226a3.458,3.458,0,0,1,3.775,2.192l2.265-1a4.431,4.431,0,0,1,5.3,1.546l2.392,3.392a4.432,4.432,0,0,1-.45,5.648.975.975,0,0,1-.1.089l-2.556,2.108a4.235,4.235,0,0,1-1.468,5.092C3067.777,1000.254,3052,1008.71,3039.761,1008.711Zm26.3-29.842a1.049,1.049,0,0,0-.166.014l-1.445.226c-7.546,1.18-27.59,4.316-35.11,8.158a8.215,8.215,0,0,0-4.49,9.251c.842,4.12,4.849,9.14,13.374,9.733,10.927.756,26.982-7.161,35.109-12.671,1.363-.925.351-2.795.308-2.874a1.2,1.2,0,0,1,.287-1.512l3.193-2.633a2.024,2.024,0,0,0,.166-2.536l-2.392-3.393a2.017,2.017,0,0,0-2.4-.713l-3.49,1.538a1.205,1.205,0,0,1-1.647-.785l-.281-1.025A1.052,1.052,0,0,0,3066.059,978.869Zm11.882,8.575h0Z" transform="translate(-3022.252 -976.461)" fill="#1d1320"/>
          </g>
          <path id="Path_102530" data-name="Path 102530" d="M3064.4,998.671a1.205,1.205,0,0,1-1.158-.874l-3.163-11.064a1.2,1.2,0,1,1,2.315-.662l3.164,11.063a1.205,1.205,0,0,1-.827,1.489A1.219,1.219,0,0,1,3064.4,998.671Z" transform="translate(-3029.699 -968.75)" fill="#1d1320"/>
          <path id="Path_102531" data-name="Path 102531" d="M3040.016,1006.926a1.183,1.183,0,0,1-.39-.065c-5.312-1.819-8.4-4.388-9.18-7.636-1.035-4.315,2.482-8,2.632-8.158a1.2,1.2,0,0,1,1.732,1.675c-.039.04-2.75,2.919-2.018,5.933.571,2.354,3.2,4.4,7.614,5.906a1.2,1.2,0,0,1-.39,2.344Z" transform="translate(-3023.83 -969.835)" fill="#1d1320"/>
        </g>
        <path id="Path_102532" data-name="Path 102532" d="M3039.236,949.784a1.221,1.221,0,0,1-.24-.023,1.2,1.2,0,0,1-.943-1.419l.424-2.1c-5.094-3.716-40.524-29.128-60.289-32.057a1.2,1.2,0,1,1,.353-2.381c21.822,3.232,60.358,31.745,61.988,32.956a1.205,1.205,0,0,1,.462,1.2l-.577,2.852A1.2,1.2,0,0,1,3039.236,949.784Z" transform="translate(-2937.192 -886.251)" fill="#1d1320"/>
      </g>
      <path id="Path_102533" data-name="Path 102533" d="M3140.8,847.914c-1.6-7.151-11.13-28.852-18.821-48.277-6.139-15.5-22.978-29.348-40.642-31.6a204.351,204.351,0,0,0-41.11-.931c-22.857,1.8-42.486,13.791-50.046,33.847-6.809,18.062-14.231,40.238-14.4,51.474-.179,11.966,7.052,23.4,14.943,32.282a60.181,60.181,0,0,0,39.49,19.608c21.909,2.029,56.095,4.063,71.623-1.01C3125.65,895.532,3144.664,865.222,3140.8,847.914Z" transform="translate(-2936.919 -707.63)" fill="#1d1320"/>
      <g id="Group_47883" data-name="Group 47883" transform="translate(72.297 113.57)">
        <g id="Group_47880" data-name="Group 47880" transform="translate(4.961)">
          <path id="Rectangle_4123" data-name="Rectangle 4123" d="M9.607,0H99.694A9.607,9.607,0,0,1,109.3,9.607V67.888A9.607,9.607,0,0,1,99.694,77.5H9.606A9.606,9.606,0,0,1,0,67.889V9.607A9.607,9.607,0,0,1,9.607,0Z" transform="translate(1.205 1.204)" fill="#eaacff"/>
          <path id="Path_102534" data-name="Path 102534" d="M3126.4,914.533h-93.874a8.928,8.928,0,0,1-8.918-8.917V843.547a8.928,8.928,0,0,1,8.918-8.917H3126.4a8.927,8.927,0,0,1,8.917,8.917v62.069A8.927,8.927,0,0,1,3126.4,914.533Zm-93.874-77.494a6.517,6.517,0,0,0-6.509,6.508v62.069a6.516,6.516,0,0,0,6.509,6.508H3126.4a6.516,6.516,0,0,0,6.509-6.508V843.547a6.516,6.516,0,0,0-6.509-6.508Z" transform="translate(-3023.604 -834.63)" fill="#1d1320"/>
        </g>
        <g id="Group_47881" data-name="Group 47881" transform="translate(0 77.868)">
          <path id="Path_102535" data-name="Path 102535" d="M3131.694,933.112H3023.78a4.856,4.856,0,0,0,0,9.712h107.913a4.856,4.856,0,1,0,0-9.712Z" transform="translate(-3017.721 -931.908)" fill="#eaacff"/>
          <path id="Path_102536" data-name="Path 102536" d="M3131.4,943.733H3023.485a6.06,6.06,0,0,1,0-12.121H3131.4a6.06,6.06,0,0,1,0,12.121Zm-107.913-9.712a3.652,3.652,0,0,0,0,7.3H3131.4a3.652,3.652,0,0,0,0-7.3Z" transform="translate(-3017.425 -931.612)" fill="#1d1320"/>
        </g>
        <g id="Group_47882" data-name="Group 47882" transform="translate(53.644 31.016)">
          <path id="Path_102537" data-name="Path 102537" d="M3095.481,878.882a5.622,5.622,0,1,1-5.623-5.622A5.622,5.622,0,0,1,3095.481,878.882Z" transform="translate(-3084.237 -873.26)" fill="#fff"/>
        </g>
      </g>
      <g id="Group_47885" data-name="Group 47885" transform="translate(100.719 0)">
        <g id="Group_47884" data-name="Group 47884" transform="translate(0 17.703)">
          <path id="Path_102538" data-name="Path 102538" d="M3084.3,751.268a9.953,9.953,0,0,0,10.9-8.91l1.506-15.006a9.474,9.474,0,0,0-8.383-10.363l-1.835-.2a9.538,9.538,0,0,0-8.129,3.086l-3.841,4.253a1.9,1.9,0,0,1-2.261.438c-1.027-.513-2.514-1.008-3.679-.389-1.981,1.051-4.263,8.974,3,11.06l-4.38,15.531a14.511,14.511,0,0,1-7.492,9.053c-2.642,1.316-5.239,2.831-5.353,3.747-.621,4.973,14.107,6.789,18.3,6.887,7.773.181,18.672-2.931,19.493-7.362.374-2.018-9.2-3-8.794-5.009A48.3,48.3,0,0,0,3084.3,751.268Z" transform="translate(-3053.119 -715.525)" fill="#fff"/>
          <path id="Path_102539" data-name="Path 102539" d="M3073.006,771.368c-.232,0-.46,0-.687-.007-2.827-.066-15-1.2-18.479-5.232a3.812,3.812,0,0,1-.989-3.009c.108-.867.671-2.016,6.012-4.676a13.331,13.331,0,0,0,6.87-8.3L3069.8,735.7a7.174,7.174,0,0,1-4.661-6.082c-.292-2.8.884-5.913,2.567-6.806,1.278-.678,2.932-.549,4.782.377a.7.7,0,0,0,.83-.168l3.841-4.253a10.773,10.773,0,0,1,9.156-3.476l1.835.2a10.715,10.715,0,0,1,9.449,11.68l-1.506,15.006a11.174,11.174,0,0,1-10.984,10.044c-.109,1.138-.343,3.036-.831,5.517a17.643,17.643,0,0,0,3.526,1.4c3,.978,5.595,1.823,5.216,3.868C3092.042,768.3,3080.941,771.367,3073.006,771.368Zm-17.773-7.844a1.444,1.444,0,0,0,.431,1.031c2.513,2.914,12.832,4.307,16.712,4.4,7.889.184,17.174-2.975,18.213-6.121a17.879,17.879,0,0,0-3.526-1.4c-3.011-.98-5.611-1.828-5.2-3.886a47.546,47.546,0,0,0,.932-6.624l.054-1.275,1.27.127a8.748,8.748,0,0,0,9.579-7.832l1.506-15.005a8.3,8.3,0,0,0-7.317-9.046l-1.835-.2a8.343,8.343,0,0,0-7.1,2.7l-3.841,4.253a3.119,3.119,0,0,1-3.693.707,3.091,3.091,0,0,0-2.576-.4c-.511.271-1.531,2.226-1.3,4.43.16,1.525.994,3.527,4.064,4.41l1.151.331-4.7,16.684a15.746,15.746,0,0,1-8.113,9.8C3056.215,762.454,3055.4,763.306,3055.233,763.524Z" transform="translate(-3052.823 -715.23)" fill="#1d1320"/>
        </g>
        <path id="Path_102540" data-name="Path 102540" d="M3090.256,759.421a1.173,1.173,0,0,1-.139-.008c-.807-.092-7.933-1.049-9.585-6.047a1.2,1.2,0,1,1,2.287-.756c1.2,3.64,7.313,4.381,7.573,4.41a1.2,1.2,0,0,1-.136,2.4Z" transform="translate(-3058.272 -704.732)" fill="#1d1320"/>
        <path id="Path_102541" data-name="Path 102541" d="M3069.781,719.752l-1.948-11.828a11.191,11.191,0,0,1,8.5-11.043l14.652-3.629a2.321,2.321,0,0,1,2.877,2.307h0a2.321,2.321,0,0,0,2.882,2.305l6.676-1.665a2.321,2.321,0,0,1,2.593,3.374l-.349.63a2.321,2.321,0,0,0,1.447,3.368l5.225,1.448a2.321,2.321,0,0,1,.98,3.959l-13.532,11.381s-2.167-9.845-11.9-8.385c-4.928.739-8.409,4.509-9.906,7.227-.576,1.046-1.7,2.916-3.5,1.261C3074.475,720.462,3075.655,716.439,3069.781,719.752Z" transform="translate(-3055.781 -693.182)" fill="#1d1320"/>
      </g>
    </g>
    <g id="Group_47898" data-name="Group 47898" transform="translate(2753.868 186.655)">
      <g id="Group_47891" data-name="Group 47891" transform="translate(0 101.175)">
        <g id="Group_47887" data-name="Group 47887" transform="translate(132.069 98.327)">
          <path id="Path_102542" data-name="Path 102542" d="M3005.812,436.631l-5.664,18.464,13.806.058,8.218-15.1Z" transform="translate(-2998.944 -435.426)" fill="#fff"/>
          <path id="Path_102543" data-name="Path 102543" d="M3013.658,456.061h0L2999.849,456a1.2,1.2,0,0,1-1.147-1.557l5.664-18.464a1.2,1.2,0,0,1,1.4-.826l16.36,3.417a1.2,1.2,0,0,1,.812,1.755l-8.219,15.1A1.2,1.2,0,0,1,3013.658,456.061ZM3001.48,453.6l11.464.047,7.1-13.05-13.7-2.861Z" transform="translate(-2998.648 -435.13)" fill="#1d1320"/>
        </g>
        <g id="Group_47888" data-name="Group 47888" transform="translate(55.663 131.393)">
          <path id="Path_102544" data-name="Path 102544" d="M2913.185,477.812l-8.2,27.229s9.429,10.02,8.882,9.274,16.443-29.219,16.443-29.219Z" transform="translate(-2903.782 -476.608)" fill="#fff"/>
          <path id="Path_102545" data-name="Path 102545" d="M2913.63,515.328c-.533,0-1.108-.6-2.326-1.86-.84-.873-1.954-2.041-3.064-3.212-2.218-2.339-4.426-4.685-4.426-4.685a1.2,1.2,0,0,1-.276-1.173l8.2-27.228a1.2,1.2,0,0,1,1.624-.76l17.127,7.284a1.2,1.2,0,0,1,.563,1.725c-5.949,9.97-15.477,26.3-16.264,28.591a1.205,1.205,0,0,1-.42.976A1.172,1.172,0,0,1,2913.63,515.328Zm.915-2.019Zm-8.5-8.883c2.283,2.425,5.367,5.684,7.07,7.451.992-2.085,3.131-5.928,7.431-13.349,3.138-5.415,6.345-10.83,7.729-13.158l-14.621-6.219Z" transform="translate(-2903.487 -476.312)" fill="#1d1320"/>
        </g>
        <g id="Group_47889" data-name="Group 47889" transform="translate(127.861 114.511)">
          <path id="Path_102546" data-name="Path 102546" d="M2993.408,471.845s-.2-9.929,5.6-16.559l12.472,1.964,3.836-1.964s24.272,8.957,25.353,16.559Z" transform="translate(-2993.407 -455.286)" fill="#915aa3"/>
          <path id="Path_102547" data-name="Path 102547" d="M3033.864,472.858h-37.681a1.2,1.2,0,0,1,0-2.409h37.681a1.2,1.2,0,0,1,0,2.409Z" transform="translate(-2993.717 -458.275)" fill="#1d1320"/>
          <path id="Path_102548" data-name="Path 102548" d="M3022.541,465.331a1.2,1.2,0,0,1-.942-1.953l3.807-4.795a1.2,1.2,0,1,1,1.887,1.5l-3.806,4.794A1.2,1.2,0,0,1,3022.541,465.331Z" transform="translate(-2998.912 -455.846)" fill="#1d1320"/>
          <path id="Path_102549" data-name="Path 102549" d="M3032.3,467.385a1.206,1.206,0,0,1-1.045-1.8l1.759-3.073a1.2,1.2,0,0,1,2.091,1.2l-1.758,3.074A1.2,1.2,0,0,1,3032.3,467.385Z" transform="translate(-3000.834 -456.59)" fill="#1d1320"/>
        </g>
        <g id="Group_47890" data-name="Group 47890" transform="translate(46.846 156.716)">
          <path id="Path_102550" data-name="Path 102550" d="M2892.5,517.454s3.09,21.632,10.5,33.981a3.348,3.348,0,0,0,5.623.148,37.571,37.571,0,0,0,2.781-4.911c3.936-8.116,3.577-32.744,3.577-32.744l-3.04-2.215a2.23,2.23,0,0,0-3.239.676l-.9,1.539-2.9-4.947a2.278,2.278,0,0,0-3.221-.753A34.083,34.083,0,0,0,2892.5,517.454Z" transform="translate(-2892.505 -507.85)" fill="#915aa3"/>
          <path id="Path_102551" data-name="Path 102551" d="M2907.237,553.2a1.2,1.2,0,0,1-1.077-.664c-7.1-14.142-10.483-33.708-10.516-33.9a1.2,1.2,0,1,1,2.374-.4c.034.193,3.359,19.412,10.3,33.228a1.2,1.2,0,0,1-1.076,1.745Z" transform="translate(-2893.12 -509.699)" fill="#1d1320"/>
          <path id="Path_102552" data-name="Path 102552" d="M2916.257,541.515h-6.1a1.2,1.2,0,0,1,0-2.409h6.1a1.2,1.2,0,0,1,0,2.409Z" transform="translate(-2895.746 -514.011)" fill="#1d1320"/>
          <path id="Path_102553" data-name="Path 102553" d="M2915.725,532.706h-7.667a1.2,1.2,0,1,1,0-2.409h7.667a1.2,1.2,0,1,1,0,2.409Z" transform="translate(-2895.333 -512.274)" fill="#1d1320"/>
        </g>
        <path id="Path_102554" data-name="Path 102554" d="M2932.87,321.234s66.241-17.513,106.978-2.463a10.549,10.549,0,0,1,6.886,9.54c.42,12.354-4.024,41.609-40.947,93.43l-20.854-.784,19.359-66.893-80.576,9.9Z" transform="translate(-2851.811 -312.666)" fill="#1d1320"/>
        <path id="Path_102555" data-name="Path 102555" d="M2840.35,326.254s-9.5,11.327-4.964,34.108a17.914,17.914,0,0,0,15.2,14.253l66.468,8.862s-23.024,42.808-20.75,72.434c0,0,8.08,7.214,18.09,10.3,0,0,40.776-64.587,57.85-98.789a16.426,16.426,0,0,0-4.548-20.32c-10.105-7.844-29.229-17.634-61.784-17.717C2851.538,329.246,2840.35,326.254,2840.35,326.254Z" transform="translate(-2834.16 -315.344)" fill="#1d1320"/>
        <path id="Path_102556" data-name="Path 102556" d="M2940.218,387.991a1.205,1.205,0,0,1-1.055-1.785l11.9-21.63a1.2,1.2,0,0,1,2.111,1.16l-11.9,21.63A1.2,1.2,0,0,1,2940.218,387.991Z" transform="translate(-2854.826 -322.774)" fill="#e7c7ff"/>
        <path id="Path_102557" data-name="Path 102557" d="M3001.075,360.205a1.2,1.2,0,0,1-1.2-1.077c-1.422-13.342-22.626-18.758-22.84-18.811a1.2,1.2,0,0,1,.579-2.338c.941.233,23.056,5.876,24.656,20.894a1.2,1.2,0,0,1-1.069,1.325A1.184,1.184,0,0,1,3001.075,360.205Z" transform="translate(-2862.14 -317.648)" fill="#e7c7ff"/>
      </g>
      <g id="Group_47895" data-name="Group 47895" transform="translate(0 33.308)">
        <path id="Path_102558" data-name="Path 102558" d="M2935.023,304.811a211.01,211.01,0,0,1-50.307,12.633,235.533,235.533,0,0,1-50.556,0s16.212-78.883,73.579-82.5c20.155-1.271,47.987,2.118,44.885,12.1C2944.765,272.352,2935.023,304.811,2935.023,304.811Z" transform="translate(-2834.16 -229.43)" fill="#915aa3"/>
        <g id="Group_47892" data-name="Group 47892" transform="translate(116.918 4.439)">
          <path id="Path_102559" data-name="Path 102559" d="M3027.233,256.207l4.538-7.754a7.386,7.386,0,0,0,.542-6.322l-2.61-6.963-6.862,20.18-2.531,18.55-21.386-11.544-17.645,21.5s20.078,14.721,39.555,16.812C3040.111,302.74,3043.966,283.609,3027.233,256.207Z" transform="translate(-2980.074 -233.964)" fill="#fff"/>
          <path id="Path_102560" data-name="Path 102560" d="M3023.31,301.732a27.175,27.175,0,0,1-2.9-.161c-19.574-2.1-39.309-16.43-40.139-17.038a1.2,1.2,0,0,1-.219-1.736l17.646-21.5a1.207,1.207,0,0,1,1.5-.3l19.855,10.719,2.3-16.827a1.139,1.139,0,0,1,.053-.226l6.862-20.179a1.2,1.2,0,0,1,1.121-.817,1.233,1.233,0,0,1,1.147.782l2.61,6.963a8.556,8.556,0,0,1-.63,7.353l-4.176,7.134c10.064,16.721,13.014,31.486,7.88,39.587C3033.612,299.6,3029.182,301.732,3023.31,301.732Zm-40.572-18.411c4.34,2.976,21.487,14.089,37.929,15.855,6.35.682,11.022-1.04,13.518-4.979,4.694-7.408,1.6-21.486-8.276-37.66a1.2,1.2,0,0,1-.011-1.236l4.538-7.754a6.158,6.158,0,0,0,.454-5.291l-1.427-3.807-5.739,16.88-2.516,18.434a1.206,1.206,0,0,1-1.766.9l-20.513-11.073Z" transform="translate(-2979.778 -233.668)" fill="#1d1320"/>
        </g>
        <path id="Path_102561" data-name="Path 102561" d="M2998.283,265.086l-22.616-22.153-13.715,40.587,19.8,10.291Z" transform="translate(-2859.347 -231.055)" fill="#915aa3"/>
        <g id="Group_47893" data-name="Group 47893" transform="translate(150.525)">
          <path id="Path_102562" data-name="Path 102562" d="M3022.911,257.284l-1.277-.491,9.382-26.893,9.656-1.761,1.277.491Z" transform="translate(-3021.634 -228.139)" fill="#5479f7"/>
          <path id="Path_102563" data-name="Path 102563" d="M3032.881,255.644l-9.656,1.761,9.382-26.893,9.656-1.761Z" transform="translate(-3021.948 -228.26)" fill="#1d1320"/>
        </g>
        <g id="Group_47894" data-name="Group 47894" transform="translate(68.255 17.885)">
          <path id="Path_102564" data-name="Path 102564" d="M2936.191,274.445l27.28,19.354,30.089-41.885,10.132.913s1.335,3.367-6.094,3.086c0,0,1.653,7.691-1.9,9.583-1.034.55-2.782,1.36-2.782,1.36s-.243,49.178-34.309,52.658c-26.228,2.679-37.934-13.924-37.934-13.924Z" transform="translate(-2919.466 -250.71)" fill="#fff"/>
          <path id="Path_102565" data-name="Path 102565" d="M2952.6,320.72c-22.541,0-32.75-14.084-33.207-14.732a1.2,1.2,0,0,1-.094-1.231l15.521-31.145a1.205,1.205,0,0,1,1.775-.446l26.3,18.662,29.391-40.913a1.216,1.216,0,0,1,1.086-.5l10.132.913a1.2,1.2,0,0,1,1.012.756,3.006,3.006,0,0,1-.375,2.756c-.887,1.255-2.666,1.91-5.414,1.987.339,2.587.536,7.68-2.762,9.432-.646.344-1.545.779-2.158,1.069a89.978,89.978,0,0,1-4.428,24.64c-5.813,17.134-16.515,26.971-30.948,28.445A57.674,57.674,0,0,1,2952.6,320.72Zm-30.805-15.57c2.313,2.793,13.928,15.165,36.4,12.87,32.589-3.329,33.225-50.985,33.227-51.465a1.2,1.2,0,0,1,.7-1.086c.017-.009,1.729-.8,2.722-1.332,2.248-1.195,1.671-6.5,1.292-8.266a1.2,1.2,0,0,1,.255-1.028,1.184,1.184,0,0,1,.967-.429c3.147.119,4.281-.455,4.674-.8l-8.181-.736-29.689,41.326a1.2,1.2,0,0,1-1.675.28l-26.131-18.541Z" transform="translate(-2919.17 -250.415)" fill="#1d1320"/>
        </g>
        <path id="Path_102566" data-name="Path 102566" d="M2938.888,273.186a1.2,1.2,0,0,1-.9-.4L2924.226,257.4a1.2,1.2,0,1,1,1.8-1.606l13.764,15.383a1.2,1.2,0,0,1-.9,2.007Z" transform="translate(-2851.851 -233.511)" fill="#1d1320"/>
        <path id="Path_102567" data-name="Path 102567" d="M2912.169,318.2a1.208,1.208,0,0,1-.861-.361l-24.15-24.622a1.205,1.205,0,0,1,1.721-1.688l22.966,23.415,1.074-2.157a1.2,1.2,0,1,1,2.157,1.074l-1.829,3.67a1.2,1.2,0,0,1-.89.652A1.139,1.139,0,0,1,2912.169,318.2Z" transform="translate(-2844.538 -240.562)" fill="#1d1320"/>
      </g>
      <g id="Group_47897" data-name="Group 47897" transform="translate(62.823)">
        <g id="Group_47896" data-name="Group 47896" transform="translate(0 4.623)">
          <path id="Path_102568" data-name="Path 102568" d="M2932.435,222.122l-18.529,6.3c27.792,8.285,40.317,1.57,40.317,1.57l-7.244-3.421,1.793-4.137c1.829.867,3.556,1.815,4.851,1.286,3-1.224,4.638-6.206,4.638-6.206l1.359.169a.719.719,0,0,0,.806-.691c.081-2.709-.021-4.726.751-7.025.761-2.265,1.346-2.241,2.049-7.753l-12.36-8.3-6.279,9.225s-1.078-2.5-3.391-1.646c-1.682.62-2.444,5.942-.874,6.995Z" transform="translate(-2912.701 -192.709)" fill="#fff"/>
          <path id="Path_102569" data-name="Path 102569" d="M2938.948,233.488c-6.424,0-14.929-1-25.683-4.2a1.2,1.2,0,0,1-.044-2.294l18.1-6.158,7.236-12.506a6.626,6.626,0,0,1-.523-3.821c.1-.867.586-3.751,2.45-4.439a3.57,3.57,0,0,1,3.754.714l5.337-7.84a1.205,1.205,0,0,1,1.668-.322l12.36,8.3a1.2,1.2,0,0,1,.523,1.151c-.54,4.231-1.04,5.393-1.569,6.622-.179.419-.349.814-.534,1.363a17.07,17.07,0,0,0-.659,5.388c-.008.413-.017.841-.03,1.289a1.921,1.921,0,0,1-2.159,1.85l-.415-.052c-.68,1.658-2.314,4.923-4.977,6.01-1.477.6-3.1-.026-4.7-.776l-.833,1.921,6.189,2.923a1.205,1.205,0,0,1,.055,2.151C2954.171,230.935,2949.217,233.488,2938.948,233.488Zm-21.277-5.469c17.86,4.7,28.626,2.888,33.163,1.55l-4.667-2.2a1.2,1.2,0,0,1-.59-1.568l1.794-4.137a1.2,1.2,0,0,1,.682-.649,1.215,1.215,0,0,1,.939.039l.509.244c1.262.607,2.69,1.287,3.371,1.016,2.04-.833,3.542-4.228,3.949-5.466a1.206,1.206,0,0,1,1.292-.82l.827.1q.008-.371.015-.729a19.131,19.131,0,0,1,.784-6.109c.217-.643.423-1.123.6-1.546a16.7,16.7,0,0,0,1.3-5.241l-10.745-7.22-5.607,8.235a1.2,1.2,0,0,1-2.1-.2c-.149-.33-.739-1.409-1.868-.992a4.451,4.451,0,0,0-.911,2.65,3.364,3.364,0,0,0,.3,2.218,1.2,1.2,0,0,1,.367,1.6l-7.888,13.635a1.2,1.2,0,0,1-.654.537Zm14.466-6.194h0Z" transform="translate(-2912.405 -192.413)" fill="#1d1320"/>
        </g>
        <path id="Path_102570" data-name="Path 102570" d="M2946.919,200.241s3.927-.337,3.649,1.437c-.389,2.474-.878,2.968-.423,3.949a1.732,1.732,0,0,0,1.453.9c1.155.015,1.533-1.907,3.58-4.043a11.877,11.877,0,0,1,2.289-1.881c3.968-2.349,8.467,2.963,13.285,1.436,3.207-1.016,5.746-4.806,5.117-7.361-.264-1.069-1.166-2.263-9.067-4.847-8-2.617-12-3.925-14.393-2.723C2946.793,189.924,2946.9,199.53,2946.919,200.241Z" transform="translate(-2919.207 -186.655)" fill="#1d1320"/>
        <path id="Path_102571" data-name="Path 102571" d="M2955.806,228.574a1.192,1.192,0,0,1-.69-.218l-3.168-2.219a5.486,5.486,0,0,1-2.294-5.291l.125-.87a1.2,1.2,0,0,1,2.384.341l-.125.87a3.089,3.089,0,0,0,1.291,2.978l3.167,2.219a1.2,1.2,0,0,1-.691,2.191Z" transform="translate(-2919.735 -193.018)" fill="#1d1320"/>
      </g>
    </g>
    <g id="Group_47901" data-name="Group 47901" transform="translate(2442.685 398.674)">
      <g id="Group_47899" data-name="Group 47899" transform="translate(0 36.099)">
        <path id="Path_102572" data-name="Path 102572" d="M2460.7,504.315a1.2,1.2,0,0,1-1.2-1.2v-6.227a1.2,1.2,0,0,1,2.409,0v6.227A1.2,1.2,0,0,1,2460.7,504.315Z" transform="translate(-2449.135 -495.679)" fill="#1d1320"/>
        <path id="Path_102573" data-name="Path 102573" d="M2460.7,522.38a1.2,1.2,0,0,1-1.2-1.2v-6.227a1.2,1.2,0,0,1,2.409,0v6.227A1.2,1.2,0,0,1,2460.7,522.38Z" transform="translate(-2449.135 -499.24)" fill="#1d1320"/>
        <path id="Path_102574" data-name="Path 102574" d="M2454.021,511h-6.226a1.2,1.2,0,0,1,0-2.409h6.226a1.2,1.2,0,0,1,0,2.409Z" transform="translate(-2446.59 -498.224)" fill="#1d1320"/>
        <path id="Path_102575" data-name="Path 102575" d="M2472.086,511h-6.227a1.2,1.2,0,0,1,0-2.409h6.227a1.2,1.2,0,0,1,0,2.409Z" transform="translate(-2450.151 -498.224)" fill="#1d1320"/>
      </g>
      <g id="Group_47900" data-name="Group 47900" transform="translate(44.819)">
        <path id="Path_102576" data-name="Path 102576" d="M2516.526,459.354a1.2,1.2,0,0,1-1.2-1.2v-6.227a1.2,1.2,0,0,1,2.409,0v6.227A1.2,1.2,0,0,1,2516.526,459.354Z" transform="translate(-2504.956 -450.719)" fill="#1d1320"/>
        <path id="Path_102577" data-name="Path 102577" d="M2516.526,477.42a1.2,1.2,0,0,1-1.2-1.2v-6.227a1.2,1.2,0,0,1,2.409,0v6.227A1.2,1.2,0,0,1,2516.526,477.42Z" transform="translate(-2504.956 -454.279)" fill="#1d1320"/>
        <path id="Path_102578" data-name="Path 102578" d="M2509.843,466.038h-6.228a1.2,1.2,0,0,1,0-2.409h6.228a1.2,1.2,0,0,1,0,2.409Z" transform="translate(-2502.411 -453.263)" fill="#1d1320"/>
        <path id="Path_102579" data-name="Path 102579" d="M2527.908,466.038h-6.226a1.2,1.2,0,0,1,0-2.409h6.226a1.2,1.2,0,1,1,0,2.409Z" transform="translate(-2505.972 -453.263)" fill="#1d1320"/>
      </g>
      <circle id="Ellipse_4820" data-name="Ellipse 4820" cx="5.888" cy="5.888" r="5.888" transform="translate(10.499 77.84)" fill="#caddff"/>
    </g>
    <g id="Group_47903" data-name="Group 47903" transform="translate(2923.245 194.976)">
      <g id="Group_47902" data-name="Group 47902">
        <path id="Path_102580" data-name="Path 102580" d="M3059.229,205.653a1.2,1.2,0,0,1-1.2-1.2v-6.227a1.2,1.2,0,1,1,2.409,0v6.227A1.2,1.2,0,0,1,3059.229,205.653Z" transform="translate(-3047.659 -197.018)" fill="#1d1320"/>
        <path id="Path_102581" data-name="Path 102581" d="M3059.229,223.719a1.2,1.2,0,0,1-1.2-1.2v-6.227a1.2,1.2,0,1,1,2.409,0v6.227A1.2,1.2,0,0,1,3059.229,223.719Z" transform="translate(-3047.659 -200.579)" fill="#1d1320"/>
        <path id="Path_102582" data-name="Path 102582" d="M3052.545,212.338h-6.227a1.2,1.2,0,0,1,0-2.409h6.227a1.2,1.2,0,0,1,0,2.409Z" transform="translate(-3045.114 -199.563)" fill="#1d1320"/>
        <path id="Path_102583" data-name="Path 102583" d="M3070.611,212.338h-6.226a1.2,1.2,0,0,1,0-2.409h6.226a1.2,1.2,0,0,1,0,2.409Z" transform="translate(-3048.675 -199.563)" fill="#1d1320"/>
      </g>
      <circle id="Ellipse_4821" data-name="Ellipse 4821" cx="5.888" cy="5.888" r="5.888" transform="translate(34.422 32.703) rotate(-45)" fill="#ecba53"/>
    </g>
  </g>
</svg>
