<svg id="medal" xmlns="http://www.w3.org/2000/svg" xmlns:xlink="http://www.w3.org/1999/xlink" width="51.36" height="67.427" viewBox="0 0 51.36 67.427">
  <defs>
    <linearGradient id="linear-gradient" x1="0.5" y1="1" x2="0.5" gradientUnits="objectBoundingBox">
      <stop offset="0" stop-color="#915aa3"/>
      <stop offset="1" stop-color="#b93974"/>
    </linearGradient>
    <linearGradient id="linear-gradient-2" x1="0.5" y1="1.633" x2="0.5" y2="0.654" gradientUnits="objectBoundingBox">
      <stop offset="0" stop-color="#dd83fa"/>
      <stop offset="1" stop-color="#f5e5fa"/>
    </linearGradient>
  </defs>
  <path id="Path_101852" data-name="Path 101852" d="M176.68,336.919h-23.7A1.975,1.975,0,0,0,151,338.894V358a1.975,1.975,0,0,0,3.071,1.644l10.757-7.171,10.757,7.171A1.975,1.975,0,0,0,178.655,358V338.894A1.975,1.975,0,0,0,176.68,336.919Z" transform="translate(-139.148 -292.549)" fill="url(#linear-gradient)"/>
  <path id="Path_101853" data-name="Path 101853" d="M86.68,51.492a25.746,25.746,0,1,1,25.68-25.68A25.709,25.709,0,0,1,86.68,51.492Z" transform="translate(-61)" fill="url(#linear-gradient-2)"/>
  <path id="Path_101854" data-name="Path 101854" d="M174.7,116.165l-6.047-3.179-6.047,3.179a1.976,1.976,0,0,1-2.866-2.082l1.155-6.734L156,102.58A1.975,1.975,0,0,1,157.1,99.21l6.761-.982,3.024-6.127a1.975,1.975,0,0,1,3.543,0l3.024,6.127,6.761.982a1.975,1.975,0,0,1,1.095,3.369l-4.892,4.769,1.155,6.734a1.975,1.975,0,0,1-2.866,2.082Z" transform="translate(-142.973 -79.016)" fill="url(#linear-gradient)"/>
</svg>
