<svg xmlns="http://www.w3.org/2000/svg" xmlns:xlink="http://www.w3.org/1999/xlink" width="572" height="572" viewBox="0 0 572 572">
  <defs>
    <linearGradient id="linear-gradient" x1="0.5" y1="1.633" x2="0.5" y2="0.654" gradientUnits="objectBoundingBox">
      <stop offset="0" stop-color="#dd83fa"/>
      <stop offset="1" stop-color="#f5e5fa"/>
    </linearGradient>
    <linearGradient id="linear-gradient-2" x1="0.5" y1="1" x2="0.5" gradientUnits="objectBoundingBox">
      <stop offset="0" stop-color="#915aa3"/>
      <stop offset="1" stop-color="#b93974"/>
    </linearGradient>
    <filter id="Subtraction_1" x="0" y="0" width="572" height="572" filterUnits="userSpaceOnUse">
      <feOffset dx="10" dy="10" input="SourceAlpha"/>
      <feGaussianBlur stdDeviation="10" result="blur"/>
      <feFlood flood-color="#915aa3" flood-opacity="0.102"/>
      <feComposite operator="in" in2="blur"/>
      <feComposite in="SourceGraphic"/>
    </filter>
  </defs>
  <g id="meeting" transform="translate(19.999 20.001)">
    <path id="Union_2" data-name="Union 2" d="M-1825-7596.687a45.05,45.05,0,0,1,45-45,45.049,45.049,0,0,1,45,45,45.049,45.049,0,0,1-45,45A45.05,45.05,0,0,1-1825-7596.687Zm-330,0a45.05,45.05,0,0,1,45-45,45.05,45.05,0,0,1,45,45,45.05,45.05,0,0,1-45,45A45.05,45.05,0,0,1-2155-7596.687Zm150-45a60.068,60.068,0,0,1,60-60,60.07,60.07,0,0,1,60,60,60.071,60.071,0,0,1-60,60A60.069,60.069,0,0,1-2005-7641.687Zm79.205-121.325c-10.2-5.132-103.51,0-103.51,0v-117.4s30.121-20.023,37.469-24.515,39.816-11.706,46.688-13.341,42.925,0,42.925,0l43.42,20.449,13.226,46.789s-9.879,51.784-13.226,56.469-17.314,31.554-17.314,31.554a297.146,297.146,0,0,1-32.264,2.281C-1915.74-7760.732-1922.394-7761.3-1925.794-7763.013Z" transform="translate(2201 7942.688)" fill="url(#linear-gradient)"/>
    <g id="Group_48132" data-name="Group 48132">
      <g id="Group_48131" data-name="Group 48131">
        <g transform="matrix(1, 0, 0, 1, -20, -20)" filter="url(#Subtraction_1)">
          <path id="Subtraction_1-2" data-name="Subtraction 1" d="M-1658-7407h-482a14.9,14.9,0,0,1-10.609-4.391A14.9,14.9,0,0,1-2155-7422v-16a88.392,88.392,0,0,1,1.875-18.116A88.35,88.35,0,0,1-2147.76-7473a90.066,90.066,0,0,1,8.468-15.287,91.811,91.811,0,0,1,11.182-13.324,92.549,92.549,0,0,1,13.508-11,92.06,92.06,0,0,1,15.446-8.308,91.047,91.047,0,0,1,17-5.252A90.965,90.965,0,0,1-2064-7528a88.193,88.193,0,0,1,20.2,2.337,88.121,88.121,0,0,1,18.531,6.635,90.739,90.739,0,0,1,16.41,10.368,93.47,93.47,0,0,1,13.832,13.537,105.628,105.628,0,0,1,15.841-25.412A105.843,105.843,0,0,1-1957-7540.417,104.039,104.039,0,0,1-1899-7558a104.037,104.037,0,0,1,58,17.583,105.849,105.849,0,0,1,22.194,19.883,105.6,105.6,0,0,1,15.839,25.412,93.5,93.5,0,0,1,13.833-13.537,90.751,90.751,0,0,1,16.41-10.368,88.119,88.119,0,0,1,18.531-6.635A88.189,88.189,0,0,1-1734-7528a90.966,90.966,0,0,1,18.159,1.832,91.065,91.065,0,0,1,17,5.252,92.077,92.077,0,0,1,15.447,8.308,92.589,92.589,0,0,1,13.509,11,91.842,91.842,0,0,1,11.182,13.324,90.08,90.08,0,0,1,8.468,15.287,88.355,88.355,0,0,1,5.365,16.883A88.4,88.4,0,0,1-1643-7438v16a14.9,14.9,0,0,1-4.391,10.608A14.9,14.9,0,0,1-1658-7407Zm-121-301h-285v-166a45.052,45.052,0,0,1,45-45h240a45.051,45.051,0,0,1,45,45v121A45.051,45.051,0,0,1-1779-7708Zm-146.681-61.2h14.389a43.233,43.233,0,0,0,13.42,8.281,42.482,42.482,0,0,0,15.445,2.922h30.638a16.453,16.453,0,0,0,10.545-3.843,16.769,16.769,0,0,0,3.679-4.342,17.261,17.261,0,0,0,2.087-5.545l6.622-45.462a17.054,17.054,0,0,0-3.542-13.886,16.381,16.381,0,0,0-12.747-6.1h-25.226v-28.013a16.805,16.805,0,0,0-4.86-11.883,16.381,16.381,0,0,0-11.733-4.922h-11.062a5.573,5.573,0,0,0-5.531,5.6v17.813a31.724,31.724,0,0,1-3.035,13.208,40.616,40.616,0,0,1-5.012,8.194h-52.8a5.573,5.573,0,0,0-5.531,5.6v67.975a5.573,5.573,0,0,0,5.531,5.6h33.188a5.573,5.573,0,0,0,5.531-5.6v-5.6Z" transform="translate(2175 7939)" fill="url(#linear-gradient-2)"/>
        </g>
      </g>
    </g>
  </g>
</svg>
