<svg xmlns="http://www.w3.org/2000/svg" width="635" height="635" viewBox="0 0 635 635">
  <g id="Access_control_system" data-name="Access control system" transform="translate(-2464.883 -191.219)">
    <circle id="Ellipse_4837" data-name="Ellipse 4837" cx="317" cy="317" r="317" transform="translate(2465.383 191.719)" fill="#faf0fd" stroke="rgba(0,0,0,0)" stroke-width="1"/>
    <g id="Group_48085" data-name="Group 48085" transform="translate(2492.808 191.942)">
      <g id="Group_48080" data-name="Group 48080" transform="translate(0 55.715)">
        <path id="Path_102841" data-name="Path 102841" d="M2527.942,273.54a1.169,1.169,0,0,1-1.156-1l-.865-6a1.169,1.169,0,0,1,2.313-.334l.865,6a1.168,1.168,0,0,1-.99,1.323A1.106,1.106,0,0,1,2527.942,273.54Z" transform="translate(-2514.534 -265.206)"/>
        <path id="Path_102842" data-name="Path 102842" d="M2531.83,300.481a1.168,1.168,0,0,1-1.155-1l-.866-6a1.168,1.168,0,1,1,2.313-.333l.867,6a1.169,1.169,0,0,1-.99,1.323A1.11,1.11,0,0,1,2531.83,300.481Z" transform="translate(-2515.392 -271.153)"/>
        <path id="Path_102843" data-name="Path 102843" d="M2512.478,286.855a1.169,1.169,0,0,1-.149-2.328l5.921-.765a1.168,1.168,0,0,1,.3,2.317l-5.921.766A1.237,1.237,0,0,1,2512.478,286.855Z" transform="translate(-2511.311 -269.3)"/>
        <path id="Path_102844" data-name="Path 102844" d="M2539.074,283.417a1.169,1.169,0,0,1-.148-2.328l5.921-.765a1.169,1.169,0,0,1,.3,2.318l-5.92.764A1.114,1.114,0,0,1,2539.074,283.417Z" transform="translate(-2517.183 -268.541)"/>
      </g>
      <path id="Path_102845" data-name="Path 102845" d="M2570.007,265.286a6.452,6.452,0,0,1-6.276-7.915,6.13,6.13,0,0,1,2.844-3.833,6.255,6.255,0,0,1,4.835-.665,6.432,6.432,0,0,1,4.634,7.7,6.132,6.132,0,0,1-2.843,3.834A6.236,6.236,0,0,1,2570.007,265.286ZM2569.774,255a3.909,3.909,0,0,0-2.006.55,3.817,3.817,0,0,0-1.767,2.384,4.088,4.088,0,0,0,2.96,4.881,3.957,3.957,0,0,0,3.046-.415,3.815,3.815,0,0,0,1.768-2.384,4.109,4.109,0,0,0-4-5.017Z" transform="translate(-2522.844 -206.721)"/>
      <g id="Group_48082" data-name="Group 48082" transform="translate(480.68 449.464)">
        <path id="Path_102846" data-name="Path 102846" d="M3244.9,783.148a6.454,6.454,0,0,1-6.276-7.915h0a6.136,6.136,0,0,1,2.843-3.834,6.264,6.264,0,0,1,4.836-.665,6.436,6.436,0,0,1,4.634,7.7,6.131,6.131,0,0,1-2.843,3.833A6.234,6.234,0,0,1,3244.9,783.148Zm-4.007-7.357a4.089,4.089,0,0,0,2.96,4.882,3.951,3.951,0,0,0,3.047-.414,3.819,3.819,0,0,0,1.767-2.384,4.089,4.089,0,0,0-2.959-4.882,3.945,3.945,0,0,0-3.047.415,3.814,3.814,0,0,0-1.768,2.383Z" transform="translate(-3152.525 -770.518)"/>
        <g id="Group_48081" data-name="Group 48081" transform="translate(0 28.542)">
          <path id="Path_102847" data-name="Path 102847" d="M3140.357,885.417a1.169,1.169,0,0,1-.619-2.161,180.178,180.178,0,0,0,67.487-75.444,1.169,1.169,0,0,1,2.111,1.006,182.529,182.529,0,0,1-68.361,76.421A1.157,1.157,0,0,1,3140.357,885.417Z" transform="translate(-3130.613 -807.147)"/>
          <path id="Path_102848" data-name="Path 102848" d="M3129.354,906.477a1.169,1.169,0,0,1-.535-2.209,189.612,189.612,0,0,0,87.938-92.947,1.169,1.169,0,1,1,2.141.939,191.969,191.969,0,0,1-89.012,94.089A1.167,1.167,0,0,1,3129.354,906.477Z" transform="translate(-3128.183 -807.914)"/>
        </g>
      </g>
      <g id="Group_48083" data-name="Group 48083" transform="translate(148.432)">
        <path id="Path_102849" data-name="Path 102849" d="M2735.677,236.782a1.169,1.169,0,0,1-.422-2.259c64.921-25.173,115.75-24.354,146.955-19.231,33.89,5.561,52.693,17.292,52.878,17.409a1.169,1.169,0,1,1-1.251,1.975c-.182-.115-18.679-11.631-52.146-17.1-30.894-5.047-81.232-5.827-145.592,19.127A1.165,1.165,0,0,1,2735.677,236.782Z" transform="translate(-2709.02 -197.834)"/>
        <path id="Path_102850" data-name="Path 102850" d="M2962.482,224.443a1.165,1.165,0,0,1-.715-.245c-.166-.129-17.021-12.988-49.319-21.249-29.815-7.625-79.271-12.779-145.545,5.977a1.168,1.168,0,1,1-.636-2.249c66.852-18.922,116.788-13.683,146.907-5.956,32.714,8.391,49.857,21.5,50.027,21.628a1.169,1.169,0,0,1-.718,2.092Z" transform="translate(-2715.844 -193.705)"/>
        <path id="Path_102851" data-name="Path 102851" d="M2724.436,256.84l-.056,0-21.467-1a1.168,1.168,0,0,1-.83-1.931l12.951-14.988a1.17,1.17,0,0,1,1.916.215l8.516,15.989a1.169,1.169,0,0,1-1.031,1.718Zm-19.011-3.225,17.014.793-6.75-12.672Z" transform="translate(-2701.799 -203.598)"/>
      </g>
      <g id="Group_48084" data-name="Group 48084" transform="translate(385.523 234.628)">
        <path id="Path_102852" data-name="Path 102852" d="M3022.841,503.157a1.169,1.169,0,0,1-1.157-1.015l-.8-6.007a1.169,1.169,0,1,1,2.317-.309l.8,6.007a1.17,1.17,0,0,1-1,1.314A1.187,1.187,0,0,1,3022.841,503.157Z" transform="translate(-3009.335 -494.812)"/>
        <path id="Path_102853" data-name="Path 102853" d="M3026.44,530.136a1.169,1.169,0,0,1-1.157-1.015l-.8-6.007a1.169,1.169,0,0,1,2.318-.309l.8,6.007a1.168,1.168,0,0,1-1.16,1.323Z" transform="translate(-3010.13 -500.768)"/>
        <path id="Path_102854" data-name="Path 102854" d="M3007.234,516.321a1.169,1.169,0,0,1-.136-2.33l5.928-.7a1.153,1.153,0,0,1,1.3,1.022,1.168,1.168,0,0,1-1.022,1.3l-5.929.7A1.049,1.049,0,0,1,3007.234,516.321Z" transform="translate(-3006.066 -498.889)"/>
        <path id="Path_102855" data-name="Path 102855" d="M3033.864,513.169a1.169,1.169,0,0,1-.135-2.329l5.929-.7a1.168,1.168,0,1,1,.275,2.32l-5.929.7A1.208,1.208,0,0,1,3033.864,513.169Z" transform="translate(-3011.946 -498.193)"/>
      </g>
    </g>
    <g id="Group_48143" data-name="Group 48143" transform="translate(2611.174 387.451)">
      <g id="Group_48121" data-name="Group 48121" transform="translate(0)">
        <g id="Group_48119" data-name="Group 48119" transform="translate(7.363)">
          <path id="Path_102890" data-name="Path 102890" d="M2094.553,523.816l-189.674,11.716c-7.8,0-16.148-5.318-17.172,2.574l-48.722,375.487c-1.023,7.892,7.744,5.622,15.545,5.622l187.593,8.668c7.8,0,14.957-6.4,15.981-14.29l48.722-375.487C2107.849,530.214,2102.355,523.816,2094.553,523.816Z" transform="translate(-1837.668 -522.579)"/>
          <path id="Path_102891" data-name="Path 102891" d="M2041.86,928.857l-187.65-8.668c-1.369,0-2.852.08-4.286.157-4.6.243-8.947.475-11.164-1.917-1.133-1.222-1.559-2.991-1.264-5.257l48.721-375.488a6.013,6.013,0,0,1,2.262-4.409c2.277-1.622,5.511-.959,9.256-.189a34.915,34.915,0,0,0,6.882.946l189.6-11.713.076,0a13.453,13.453,0,0,1,10.289,4.506,13.938,13.938,0,0,1,3.21,11.18L2059.068,913.49C2057.967,921.964,2050.248,928.857,2041.86,928.857Zm-187.592-11.142,187.65,8.669c7.132,0,13.75-5.928,14.7-13.213l48.721-375.488a11.494,11.494,0,0,0-2.615-9.227,11,11,0,0,0-8.392-3.666L1904.693,536.5h-.017a37.2,37.2,0,0,1-7.438-.995c-3.046-.625-5.922-1.217-7.321-.22a3.744,3.744,0,0,0-1.245,2.714L1839.949,913.49a3.907,3.907,0,0,0,.626,3.257c1.428,1.542,5.392,1.332,9.218,1.127C1851.259,917.8,1852.776,917.715,1854.268,917.715Z" transform="translate(-1837.406 -522.316)" fill="#6c4379"/>
        </g>
        <g id="Group_48120" data-name="Group 48120">
          <path id="Path_102892" data-name="Path 102892" d="M2085.671,523.816H1894.806c-7.8,0-14.957,6.4-15.981,14.29L1830.1,913.593c-1.024,7.892,4.47,14.29,12.272,14.29h190.866c7.8,0,14.956-6.4,15.98-14.29l48.722-375.487C2098.968,530.214,2093.473,523.816,2085.671,523.816Z" transform="translate(-1828.742 -522.579)" fill="#eaacff"/>
          <path id="Path_102893" data-name="Path 102893" d="M2032.978,928.857H1842.112a13.451,13.451,0,0,1-10.288-4.506,13.933,13.933,0,0,1-3.21-11.18l48.721-375.488c1.1-8.473,8.818-15.367,17.207-15.367h190.866a13.453,13.453,0,0,1,10.288,4.505A13.942,13.942,0,0,1,2098.907,538L2050.184,913.49C2049.085,921.963,2041.366,928.857,2032.978,928.857ZM1894.542,524.79c-7.191,0-13.809,5.927-14.754,13.212L1831.066,913.49a11.5,11.5,0,0,0,2.615,9.228,11.013,11.013,0,0,0,8.43,3.665h190.866c7.19,0,13.807-5.926,14.753-13.211l48.723-375.488a11.5,11.5,0,0,0-2.616-9.228,11.015,11.015,0,0,0-8.429-3.665Z" transform="translate(-1828.479 -522.316)"/>
        </g>
        <path id="Path_102894" data-name="Path 102894" d="M1956.907,523.816l-1.04,8.013c-1.1,8.515,4.824,15.418,13.241,15.418h80.237c8.417,0,16.137-6.9,17.242-15.418l1.04-8.013Z" transform="translate(-1850.771 -522.579)" fill="#915aa3"/>
        <path id="Path_102895" data-name="Path 102895" d="M2020.694,541.068a4.789,4.789,0,0,1-4.813-5.6,6.541,6.541,0,0,1,6.268-5.6,4.789,4.789,0,0,1,4.813,5.6A6.541,6.541,0,0,1,2020.694,541.068Z" transform="translate(-1861.299 -523.638)" fill="#eaacff"/>
      </g>
      <g id="Group_48122" data-name="Group 48122" transform="translate(33.844 64.958)">
        <ellipse id="Ellipse_4836" data-name="Ellipse 4836" cx="79.378" cy="69.719" rx="79.378" ry="69.719" transform="translate(0 109.404) rotate(-43.562)" fill="#e7c7ff"/>
      </g>
      <path id="Path_102896" data-name="Path 102896" d="M1972.347,713.871a17.418,17.418,0,0,0,13.78-2.357l.667-.445a5.891,5.891,0,0,0,1.27-8.171l-15.519-23.612a5.789,5.789,0,0,0-7.96-2.009l-1.879,1.255c-13.258,8.851-16.214,27.88-6.6,42.5l20.058,30.518c9.61,14.622,28.148,19.3,41.406,10.449l1.878-1.255a5.891,5.891,0,0,0,1.271-8.172l-15.52-23.612a5.789,5.789,0,0,0-7.96-2.009l-.667.445a17.684,17.684,0,0,0-7.528,11.87,18.672,18.672,0,0,1-3.525-3.994L1974.62,718.7A18.789,18.789,0,0,1,1972.347,713.871Z" transform="translate(-1849.846 -549.311)" fill="#915aa3"/>
    </g>
    <g id="Group_48144" data-name="Group 48144" transform="translate(2696.822 223.319)">
      <ellipse id="Ellipse_4834" data-name="Ellipse 4834" cx="16.4" cy="16.4" rx="16.4" ry="16.4" transform="translate(54.808 98.024)" fill="#ffc958"/>
      <path id="Path_102856" data-name="Path 102856" d="M2860.931,514.936a7.441,7.441,0,0,1-4.833-13.1c10.2-8.7,21.8-13.3,33.557-13.3s23.359,4.6,33.556,13.3a7.442,7.442,0,1,1-9.662,11.321c-7.571-6.461-15.61-9.737-23.894-9.737s-16.324,3.276-23.9,9.737A7.408,7.408,0,0,1,2860.931,514.936Z" transform="translate(-2819.016 -420.858)" fill="#ffc958"/>
      <path id="Path_102857" data-name="Path 102857" d="M2940.877,498.358a7.406,7.406,0,0,1-4.8-1.757c-12.951-10.939-26.8-16.487-41.158-16.487s-28.209,5.548-41.159,16.487a7.442,7.442,0,0,1-9.6-11.369c15.491-13.084,33.045-20,50.764-20s35.272,6.914,50.762,20a7.441,7.441,0,0,1-4.805,13.126Z" transform="translate(-2824.282 -431.109)" fill="#ffc958"/>
      <path id="Path_102858" data-name="Path 102858" d="M2963.377,481.954a7.413,7.413,0,0,1-4.848-1.8c-18.316-15.751-37.946-23.738-58.344-23.738s-40.028,7.987-58.344,23.738a7.442,7.442,0,1,1-9.7-11.285,118.994,118.994,0,0,1,32.217-20.134,92.726,92.726,0,0,1,71.661,0,119.019,119.019,0,0,1,32.218,20.134,7.441,7.441,0,0,1-4.856,13.083Z" transform="translate(-2829.548 -441.534)" fill="#ffc958"/>
    </g>
  </g>
</svg>
