<svg xmlns="http://www.w3.org/2000/svg" xmlns:xlink="http://www.w3.org/1999/xlink" width="847.045" height="851.409" viewBox="0 0 847.045 851.409">
  <defs>
    <filter id="Path_102152" x="49.294" y="0" width="544.666" height="596.241" filterUnits="userSpaceOnUse">
      <feOffset dy="40" input="SourceAlpha"/>
      <feGaussianBlur stdDeviation="48" result="blur"/>
      <feFlood flood-color="#663e72" flood-opacity="0.2"/>
      <feComposite operator="in" in2="blur"/>
      <feComposite in="SourceGraphic"/>
    </filter>
  </defs>
  <g id="Proxy_server" data-name="Proxy server" transform="translate(0 4.363)">
    <path id="Path_102120" data-name="Path 102120" d="M424.4,912.586c162.224,94.639,360.093,25.5,468.388-83.2,141.884-142.414,153.621-376.429,53.429-515.158C904.558,256.543,817.583,176.63,724.723,187.4c-78.706,9.13-89.2,74.833-220.248,177.784C355.89,481.914,291.676,458.5,257,532.14,205.331,641.88,283.617,830.457,424.4,912.586Z" transform="translate(-170.276 -123.828)" fill="#faf0fd"/>
    <g id="Group_47625" data-name="Group 47625" transform="translate(0)">
      <g id="Group_47620" data-name="Group 47620">
        <g id="Group_47619" data-name="Group 47619">
          <circle id="Ellipse_4777" data-name="Ellipse 4777" cx="299.476" cy="299.476" r="299.476" transform="translate(423.523 847.045) rotate(-135)" fill="#fff"/>
          <path id="Path_102125" data-name="Path 102125" d="M668.288,852.9a300.868,300.868,0,1,0-212.745-88.122A298.9,298.9,0,0,0,668.288,852.9Zm0-598.951c164.364,0,298.085,133.72,298.085,298.085S832.652,850.115,668.288,850.115,370.2,716.4,370.2,552.032,503.924,253.947,668.288,253.947Z" transform="translate(-244.766 -128.509)" fill="#1d1320"/>
        </g>
        <path id="Path_102126" data-name="Path 102126" d="M450.3,667.135c19.08-41.145,62.13-33.934,71.48-62.763C542.388,540.837,352.294,447.208,370.1,396.9c13.932-39.36,139.427-7.789,162.14-54.046,7.367-15,2.265-34.847-10.267-56.814,98.807,48.934,166.753,150.779,166.753,268.508,0,126.885-78.914,235.333-190.338,278.959a248.377,248.377,0,0,1-27.168-42.592C456.465,761.537,430.5,709.827,450.3,667.135Z" transform="translate(34.275 -131.03)" fill="#faf0fd"/>
        <path id="Path_102127" data-name="Path 102127" d="M708.406,557.944A298.733,298.733,0,0,1,809.922,333.25c26.047-1.748,41.65,4.744,51.542,13,20,16.69,11.64,36.3,36.611,71.48,29.292,41.27,55.661,35.248,76.711,67.994,21.781,33.88,24.528,88.511,1.744,123.783-37.888,58.653-122.522,26.855-162.14,76.711-12.918,16.259-21.93,42.355-14.918,86.761A298.571,298.571,0,0,1,708.406,557.944Z" transform="translate(-584.36 -134.421)" fill="#faf0fd"/>
        <path id="Path_102128" data-name="Path 102128" d="M668.288,852.9a300.868,300.868,0,1,0-212.745-88.122A298.9,298.9,0,0,0,668.288,852.9Zm0-598.951c164.364,0,298.085,133.72,298.085,298.085S832.652,850.115,668.288,850.115,370.2,716.4,370.2,552.032,503.924,253.947,668.288,253.947Z" transform="translate(-244.766 -128.509)" fill="#1d1320"/>
      </g>
      <ellipse id="Ellipse_4778" data-name="Ellipse 4778" cx="15.713" cy="15.713" rx="15.713" ry="15.713" transform="translate(171.101 335.208)" fill="#ecba53"/>
      <g id="Group_47621" data-name="Group 47621" transform="translate(82.033 236.161)">
        <path id="Path_102129" data-name="Path 102129" d="M325.025,723.936a1.394,1.394,0,0,0,.562-.12c3.4-1.5,6.819-3.038,10.171-4.575a1.392,1.392,0,1,0-1.16-2.53c-3.341,1.531-6.751,3.064-10.137,4.559a1.392,1.392,0,0,0,.563,2.665Zm20.245-9.273a1.384,1.384,0,0,0,.6-.135c3.357-1.595,6.734-3.227,10.042-4.856a1.392,1.392,0,1,0-1.23-2.5c-3.294,1.623-6.661,3.251-10.005,4.839a1.392,1.392,0,0,0,.6,2.65Zm19.978-9.836a1.4,1.4,0,0,0,.632-.152c3.286-1.677,6.616-3.406,9.9-5.14a1.392,1.392,0,0,0-1.3-2.461c-3.271,1.727-6.59,3.45-9.865,5.121a1.392,1.392,0,0,0,.634,2.632Zm19.688-10.4a1.389,1.389,0,0,0,.667-.172c3.252-1.779,6.53-3.606,9.745-5.427a1.392,1.392,0,1,0-1.372-2.421c-3.2,1.815-6.469,3.634-9.709,5.407a1.393,1.393,0,0,0,.67,2.613Zm19.372-10.98a1.385,1.385,0,0,0,.7-.192c3.192-1.874,6.414-3.8,9.577-5.721a1.392,1.392,0,0,0-1.446-2.379c-3.15,1.915-6.36,3.833-9.54,5.7a1.392,1.392,0,0,0,.706,2.592Zm19.027-11.571a1.378,1.378,0,0,0,.74-.214c3.138-1.977,6.3-4,9.392-6.023a1.392,1.392,0,0,0-1.521-2.33c-3.082,2.011-6.229,4.03-9.354,6a1.392,1.392,0,0,0,.743,2.569ZM441.98,659.7a1.386,1.386,0,0,0,.778-.239c3.074-2.081,6.164-4.213,9.186-6.335a1.392,1.392,0,1,0-1.6-2.278c-3.009,2.114-6.087,4.237-9.145,6.308a1.391,1.391,0,0,0,.781,2.544Zm18.218-12.8a1.382,1.382,0,0,0,.819-.267c3.015-2.2,6.028-4.442,8.954-6.661a1.392,1.392,0,0,0-1.682-2.218c-2.912,2.21-5.911,4.441-8.913,6.63a1.392,1.392,0,0,0,.822,2.516Zm17.741-13.459a1.382,1.382,0,0,0,.861-.3c2.931-2.313,5.855-4.668,8.693-7a1.392,1.392,0,1,0-1.768-2.149c-2.823,2.322-5.733,4.666-8.649,6.968a1.392,1.392,0,0,0,.864,2.484Zm17.193-14.148a1.386,1.386,0,0,0,.906-.336c2.837-2.436,5.659-4.914,8.39-7.367a1.392,1.392,0,0,0-1.86-2.071c-2.715,2.439-5.523,4.9-8.343,7.325a1.392,1.392,0,0,0,.906,2.448ZM511.7,604.4a1.392,1.392,0,0,0,.954-.379c2.733-2.574,5.436-5.185,8.036-7.758a1.392,1.392,0,0,0-1.959-1.978c-2.581,2.558-5.268,5.151-7.985,7.709a1.392,1.392,0,0,0,.955,2.4Zm15.818-15.67a1.388,1.388,0,0,0,1.006-.43c2.6-2.713,5.157-5.464,7.611-8.181a1.391,1.391,0,0,0-2.064-1.867c-2.437,2.7-4.979,5.429-7.557,8.122a1.392,1.392,0,0,0,1,2.354Zm14.921-16.525a1.389,1.389,0,0,0,1.061-.492c2.436-2.87,4.821-5.779,7.091-8.644a1.391,1.391,0,1,0-2.181-1.727c-2.251,2.841-4.616,5.725-7.031,8.571a1.392,1.392,0,0,0,1.06,2.292Zm13.811-17.46a1.389,1.389,0,0,0,1.123-.569c2.238-3.051,4.4-6.131,6.433-9.156a1.391,1.391,0,0,0-2.31-1.552c-2.01,2.994-4.152,6.042-6.367,9.062a1.392,1.392,0,0,0,1.121,2.214Zm12.4-18.484a1.39,1.39,0,0,0,1.19-.669c1.966-3.237,3.84-6.506,5.572-9.717a1.392,1.392,0,0,0-2.45-1.321c-1.709,3.17-3.559,6.4-5.5,9.593a1.39,1.39,0,0,0,1.188,2.114Zm10.534-19.6a1.393,1.393,0,0,0,1.263-.8c1.607-3.45,3.088-6.921,4.4-10.317a1.392,1.392,0,0,0-2.6-1.006c-1.292,3.34-2.75,6.753-4.331,10.147a1.393,1.393,0,0,0,1.261,1.98Zm7.992-20.746a1.392,1.392,0,0,0,1.331-.991c1.1-3.66,2.036-7.324,2.774-10.892a1.391,1.391,0,0,0-2.725-.564c-.722,3.487-1.635,7.072-2.714,10.654a1.393,1.393,0,0,0,1.333,1.793Zm4.449-21.754A1.392,1.392,0,0,0,593,472.916a97.738,97.738,0,0,0,.512-9.88c0-.465,0-.93-.01-1.392a1.392,1.392,0,1,0-2.783.042c.007.449.01.9.01,1.35a95.15,95.15,0,0,1-.5,9.6,1.391,1.391,0,0,0,1.242,1.526C591.523,474.164,591.571,474.166,591.619,474.166Zm-.393-22.2a1.406,1.406,0,0,0,.205-.015,1.392,1.392,0,0,0,1.174-1.58,80.443,80.443,0,0,0-2.425-11.056,1.392,1.392,0,0,0-2.669.789,77.554,77.554,0,0,1,2.341,10.673A1.392,1.392,0,0,0,591.226,451.967Zm-6.3-21.278a1.373,1.373,0,0,0,.583-.129,1.391,1.391,0,0,0,.68-1.846,78.737,78.737,0,0,0-5.475-9.907,1.392,1.392,0,1,0-2.332,1.519,75.849,75.849,0,0,1,5.281,9.555A1.391,1.391,0,0,0,584.93,430.689Zm-12.079-18.606a1.392,1.392,0,0,0,1.05-2.3,90.091,90.091,0,0,0-7.935-8.041,1.391,1.391,0,1,0-1.856,2.073A87.646,87.646,0,0,1,571.8,411.6,1.389,1.389,0,0,0,572.851,412.083Zm-16.511-14.854a1.392,1.392,0,0,0,.808-2.525c-2.974-2.118-6.166-4.16-9.486-6.069a1.392,1.392,0,1,0-1.387,2.413c3.242,1.865,6.358,3.857,9.259,5.923A1.387,1.387,0,0,0,556.341,397.229Zm-19.249-11.122a1.392,1.392,0,0,0,.591-2.652c-3.3-1.543-6.776-3.016-10.341-4.379a1.391,1.391,0,1,0-.994,2.6c3.5,1.339,6.92,2.786,10.156,4.3A1.385,1.385,0,0,0,537.092,386.107Zm-20.767-7.974a1.392,1.392,0,0,0,.413-2.721c-2.06-.64-4.187-1.263-6.321-1.849a1.391,1.391,0,1,0-.736,2.684c2.1.578,4.2,1.191,6.231,1.823A1.4,1.4,0,0,0,516.325,378.133Z" transform="translate(89.466 -373.514)" fill="#ecba53"/>
        <path id="Path_102130" data-name="Path 102130" d="M970.735,802q1.6,0,3.218-.013a1.393,1.393,0,0,0,1.38-1.4,1.362,1.362,0,0,0-1.4-1.38c-3.73.029-7.453.007-11.092-.067a1.363,1.363,0,0,0-1.42,1.362,1.392,1.392,0,0,0,1.363,1.42C965.4,801.974,968.073,802,970.735,802Zm14.33-.25h.048c3.656-.125,7.408-.3,11.15-.522a1.392,1.392,0,1,0-.164-2.778c-3.719.22-7.448.394-11.082.519a1.392,1.392,0,0,0,.047,2.782Zm-33.38-.225a1.392,1.392,0,0,0,.07-2.781c-3.728-.191-7.449-.443-11.06-.749a1.392,1.392,0,0,0-.235,2.774c3.642.307,7.394.561,11.153.754Zm55.6-1.084c.039,0,.077,0,.116,0,3.664-.3,7.4-.654,11.111-1.043a1.392,1.392,0,0,0-.291-2.768c-3.688.387-7.4.737-11.049,1.037a1.392,1.392,0,0,0,.113,2.779Zm-77.776-.805a1.392,1.392,0,0,0,.166-2.774c-3.708-.45-7.4-.973-10.966-1.554a1.392,1.392,0,1,0-.447,2.747c3.6.586,7.332,1.115,11.077,1.571A1.507,1.507,0,0,0,929.5,799.636Zm99.911-1.513a1.392,1.392,0,0,0,.175-.01c3.637-.458,7.357-.966,11.057-1.508a1.392,1.392,0,0,0-.4-2.754c-3.681.54-7.383,1.044-11,1.5a1.392,1.392,0,0,0,.172,2.772Zm-121.878-2.078a1.392,1.392,0,0,0,.284-2.754c-3.669-.767-7.291-1.619-10.768-2.531a1.392,1.392,0,0,0-.706,2.692c3.522.924,7.19,1.786,10.9,2.563A1.447,1.447,0,0,0,907.537,796.045Zm-21.519-5.671a1.392,1.392,0,0,0,.429-2.715c-3.562-1.155-7.057-2.412-10.387-3.737a1.391,1.391,0,0,0-1.029,2.586c3.385,1.347,6.938,2.625,10.557,3.8A1.415,1.415,0,0,0,886.018,790.374Zm-20.656-8.256a1.392,1.392,0,0,0,.611-2.643c-3.368-1.641-6.624-3.4-9.682-5.235a1.391,1.391,0,1,0-1.431,2.387c3.125,1.873,6.454,3.674,9.892,5.349A1.378,1.378,0,0,0,865.362,782.118Zm-19.037-11.47a1.391,1.391,0,0,0,.831-2.508,96.337,96.337,0,0,1-8.413-7.026,1.391,1.391,0,0,0-1.906,2.028,99.126,99.126,0,0,0,8.658,7.23A1.389,1.389,0,0,0,846.325,770.648Zm-16.141-15.234a1.392,1.392,0,0,0,1.074-2.276,78.623,78.623,0,0,1-6.339-8.893,1.391,1.391,0,0,0-2.374,1.452,81.306,81.306,0,0,0,6.563,9.208A1.39,1.39,0,0,0,830.183,755.414Zm-11.545-18.923a1.392,1.392,0,0,0,1.279-1.939,75.571,75.571,0,0,1-3.551-10.327,1.392,1.392,0,1,0-2.69.712,78.51,78.51,0,0,0,3.682,10.709A1.392,1.392,0,0,0,818.638,736.491Zm-5.7-21.444a1.456,1.456,0,0,0,.167-.01,1.391,1.391,0,0,0,1.216-1.547,85.394,85.394,0,0,1-.6-10.13l0-.8a1.392,1.392,0,0,0-1.38-1.4h-.012a1.391,1.391,0,0,0-1.391,1.38l0,.826a88.415,88.415,0,0,0,.615,10.461A1.393,1.393,0,0,0,812.937,715.047Zm.149-22.21a1.391,1.391,0,0,0,1.379-1.221c.437-3.534,1.077-7.175,1.9-10.823a1.392,1.392,0,1,0-2.714-.614c-.845,3.737-1.5,7.47-1.949,11.1a1.39,1.39,0,0,0,1.21,1.551A1.363,1.363,0,0,0,813.085,692.837Zm4.857-21.694a1.392,1.392,0,0,0,1.326-.969c1.084-3.4,2.346-6.89,3.749-10.368a1.391,1.391,0,1,0-2.581-1.041c-1.429,3.542-2.714,7.1-3.819,10.564a1.392,1.392,0,0,0,1.326,1.815Zm8.286-20.644a1.39,1.39,0,0,0,1.254-.789c1.557-3.236,3.266-6.539,5.078-9.817a1.391,1.391,0,0,0-2.435-1.347c-1.839,3.325-3.571,6.674-5.151,9.957a1.393,1.393,0,0,0,1.253,2Zm10.748-19.487a1.393,1.393,0,0,0,1.184-.657c1.906-3.073,3.943-6.191,6.05-9.271a1.391,1.391,0,1,0-2.3-1.572c-2.131,3.113-4.19,6.267-6.118,9.374a1.392,1.392,0,0,0,1.181,2.125Z" transform="translate(-810.941 -391.252)" fill="#ecba53"/>
      </g>
      <g id="Group_47622" data-name="Group 47622" transform="translate(74.908 210.162)">
        <path id="Path_102131" data-name="Path 102131" d="M318.81,740.705a1.39,1.39,0,0,0,.969-.393,86.189,86.189,0,0,0,7.593-8.379,1.392,1.392,0,0,0-2.183-1.727,83.246,83.246,0,0,1-7.347,8.107,1.392,1.392,0,0,0,.969,2.392Zm13.735-17.434a1.392,1.392,0,0,0,1.205-.693,76.785,76.785,0,0,0,4.377-8.8q.292-.7.571-1.4a1.392,1.392,0,0,0-2.587-1.026q-.267.674-.549,1.344a73.854,73.854,0,0,1-4.218,8.476,1.392,1.392,0,0,0,1.2,2.09Zm8.186-20.618a1.392,1.392,0,0,0,1.354-1.075,80.712,80.712,0,0,0,1.79-11.175,1.392,1.392,0,1,0-2.772-.249,78,78,0,0,1-1.728,10.789,1.392,1.392,0,0,0,1.037,1.673A1.458,1.458,0,0,0,340.731,702.654Zm2.025-22.1h.055a1.393,1.393,0,0,0,1.337-1.444,100.42,100.42,0,0,0-1.089-11.23,1.392,1.392,0,1,0-2.752.421,97.043,97.043,0,0,1,1.059,10.917A1.393,1.393,0,0,0,342.756,680.55Zm-3.308-21.973a1.373,1.373,0,0,0,.345-.044,1.393,1.393,0,0,0,1-1.693c-.9-3.531-2-7.153-3.253-10.766a1.392,1.392,0,1,0-2.629.915c1.231,3.538,2.3,7.085,3.184,10.54A1.393,1.393,0,0,0,339.448,658.577Zm-7.262-21.022a1.393,1.393,0,0,0,1.277-1.945c-1.442-3.34-3.049-6.754-4.778-10.15a1.392,1.392,0,1,0-2.48,1.264c1.7,3.343,3.284,6.7,4.7,9.99A1.39,1.39,0,0,0,332.185,637.555Zm-10.068-19.843a1.393,1.393,0,0,0,1.2-2.091c-1.829-3.149-3.8-6.358-5.864-9.541a1.392,1.392,0,0,0-2.336,1.514c2.038,3.145,3.988,6.316,5.794,9.425A1.39,1.39,0,0,0,322.118,617.712Z" transform="translate(354.063 -364.28)" fill="#ecba53"/>
        <path id="Path_102132" data-name="Path 102132" d="M720.739,786.91h.013c3.755-.033,7.513-.121,11.17-.26a1.392,1.392,0,0,0-.106-2.782c-3.63.138-7.36.225-11.09.259a1.392,1.392,0,0,0,.013,2.783Zm-11.131-.049a1.391,1.391,0,0,0,.023-2.782c-3.64-.065-7.373-.178-11.093-.337a1.391,1.391,0,1,0-.119,2.78c3.743.16,7.5.274,11.163.339Zm33.375-.8c.032,0,.065,0,.1,0,3.761-.26,7.509-.583,11.138-.959a1.392,1.392,0,0,0-.287-2.769c-3.6.374-7.314.694-11.044.952a1.392,1.392,0,0,0,.095,2.78Zm-55.619-.14a1.392,1.392,0,0,0,.09-2.78c-3.634-.24-7.358-.528-11.07-.856a1.391,1.391,0,0,0-.245,2.772c3.732.33,7.477.62,11.131.861C687.3,785.917,687.333,785.918,687.365,785.918Zm-22.18-1.956a1.391,1.391,0,0,0,.149-2.775c-3.626-.4-7.336-.841-11.026-1.32a1.392,1.392,0,0,0-.358,2.76c3.708.482,7.437.928,11.082,1.327A1.425,1.425,0,0,0,665.185,783.962Zm99.939-.212a1.423,1.423,0,0,0,.2-.014c3.747-.531,7.463-1.136,11.044-1.8a1.391,1.391,0,1,0-.5-2.737c-3.544.654-7.222,1.252-10.93,1.779a1.391,1.391,0,0,0,.193,2.769ZM643.1,781.1a1.391,1.391,0,0,0,.2-2.767c-3.619-.54-7.31-1.125-10.97-1.74a1.392,1.392,0,0,0-.461,2.745c3.677.617,7.386,1.205,11.021,1.747A1.305,1.305,0,0,0,643.1,781.1Zm143.905-1.406a1.389,1.389,0,0,0,.317-.037c3.7-.861,7.344-1.812,10.843-2.825a1.391,1.391,0,0,0-.775-2.673c-3.452,1-7.052,1.937-10.7,2.788a1.392,1.392,0,0,0,.315,2.747Zm-165.864-2.278a1.392,1.392,0,0,0,.253-2.76c-3.586-.666-7.254-1.381-10.9-2.125a1.392,1.392,0,0,0-.556,2.727c3.666.746,7.351,1.464,10.952,2.133A1.325,1.325,0,0,0,621.145,777.417Zm-21.819-4.439a1.392,1.392,0,0,0,.3-2.752c-3.573-.788-7.216-1.623-10.83-2.481a1.392,1.392,0,1,0-.643,2.708c3.628.861,7.287,1.7,10.873,2.491A1.4,1.4,0,0,0,599.326,772.978Zm-21.663-5.143a1.392,1.392,0,0,0,.341-2.74c-3.561-.9-7.177-1.853-10.749-2.818a1.391,1.391,0,1,0-.725,2.687c3.586.969,7.216,1.92,10.789,2.828A1.374,1.374,0,0,0,577.663,767.835Zm-21.5-5.806a1.392,1.392,0,0,0,.381-2.73c-3.545-1.014-7.132-2.069-10.661-3.134a1.392,1.392,0,1,0-.805,2.664c3.543,1.069,7.143,2.127,10.7,3.145A1.375,1.375,0,0,0,556.167,762.029ZM534.85,755.6a1.392,1.392,0,0,0,.42-2.718c-3.517-1.116-7.073-2.272-10.569-3.436a1.391,1.391,0,1,0-.879,2.64c3.508,1.168,7.077,2.329,10.607,3.449A1.378,1.378,0,0,0,534.85,755.6Zm-21.127-7.031a1.392,1.392,0,0,0,.458-2.706c-3.485-1.214-7.008-2.468-10.471-3.728a1.392,1.392,0,1,0-.952,2.616c3.475,1.263,7.011,2.521,10.507,3.74A1.409,1.409,0,0,0,513.723,748.565ZM492.8,740.957a1.392,1.392,0,0,0,.494-2.694c-3.443-1.3-6.931-2.653-10.367-4.008a1.392,1.392,0,0,0-1.021,2.589c3.448,1.359,6.948,2.713,10.4,4.022A1.4,1.4,0,0,0,492.8,740.957Zm-20.714-8.166a1.392,1.392,0,0,0,.529-2.68q-3.436-1.407-6.875-2.851-1.7-.711-3.383-1.429a1.391,1.391,0,1,0-1.088,2.561q1.694.719,3.394,1.434,3.45,1.447,6.9,2.86A1.392,1.392,0,0,0,472.082,732.791Zm-20.49-8.707a1.392,1.392,0,0,0,.562-2.665c-3.391-1.495-6.8-3.024-10.14-4.549a1.392,1.392,0,0,0-1.156,2.533c3.348,1.528,6.771,3.063,10.173,4.563A1.384,1.384,0,0,0,451.593,724.085Zm-20.251-9.246a1.392,1.392,0,0,0,.6-2.651c-3.346-1.583-6.716-3.2-10.013-4.818a1.392,1.392,0,0,0-1.224,2.5c3.309,1.62,6.689,3.246,10.047,4.833A1.387,1.387,0,0,0,431.341,714.839Zm-19.994-9.787a1.392,1.392,0,0,0,.63-2.634c-3.282-1.663-6.605-3.375-9.877-5.09a1.392,1.392,0,1,0-1.291,2.466c3.282,1.72,6.617,3.439,9.911,5.107A1.391,1.391,0,0,0,411.347,705.052Z" transform="translate(-179.974 -370.91)" fill="#ecba53"/>
        <path id="Path_102133" data-name="Path 102133" d="M1053.888,635.594a1.391,1.391,0,0,0,.772-2.55q-2.206-1.465-4.385-2.938a1.391,1.391,0,1,0-1.558,2.305q2.187,1.481,4.4,2.951A1.391,1.391,0,0,0,1053.888,635.594Zm-13.563-9.257a1.392,1.392,0,0,0,.8-2.532c-3.038-2.129-6.079-4.3-9.041-6.456a1.392,1.392,0,0,0-1.637,2.251c2.974,2.164,6.029,4.346,9.081,6.485A1.381,1.381,0,0,0,1040.325,626.337Zm-18-13.1a1.392,1.392,0,0,0,.841-2.5c-2.966-2.241-5.925-4.524-8.8-6.782a1.392,1.392,0,0,0-1.72,2.188c2.886,2.269,5.859,4.562,8.838,6.813A1.384,1.384,0,0,0,1022.321,613.235Zm-17.5-13.765A1.391,1.391,0,0,0,1005.7,597c-2.871-2.351-5.737-4.749-8.517-7.125a1.391,1.391,0,1,0-1.808,2.115c2.8,2.39,5.676,4.8,8.562,7.163A1.389,1.389,0,0,0,1004.82,599.469ZM987.9,585a1.392,1.392,0,0,0,.928-2.429c-2.778-2.483-5.533-5-8.191-7.493a1.391,1.391,0,1,0-1.9,2.031c2.672,2.5,5.444,5.039,8.238,7.537A1.385,1.385,0,0,0,987.9,585Zm-16.245-15.227a1.392,1.392,0,0,0,.977-2.382c-2.663-2.625-5.289-5.279-7.8-7.89a1.391,1.391,0,1,0-2,1.93c2.53,2.629,5.173,5.3,7.853,7.942A1.388,1.388,0,0,0,971.651,569.773Zm-15.432-16.046a1.392,1.392,0,0,0,1.03-2.328c-2.5-2.755-4.97-5.555-7.33-8.323a1.391,1.391,0,1,0-2.117,1.805c2.379,2.79,4.864,5.612,7.386,8.388A1.389,1.389,0,0,0,956.219,553.727Zm-14.438-16.947a1.392,1.392,0,0,0,1.088-2.258c-2.329-2.929-4.6-5.888-6.736-8.8a1.391,1.391,0,0,0-2.241,1.649c2.161,2.937,4.448,5.925,6.8,8.881A1.391,1.391,0,0,0,941.781,536.781ZM928.6,518.842a1.392,1.392,0,0,0,1.153-2.169c-2.09-3.1-4.1-6.239-5.97-9.318a1.391,1.391,0,1,0-2.378,1.445c1.893,3.115,3.924,6.287,6.04,9.427A1.389,1.389,0,0,0,928.6,518.842Zm-11.536-19.031a1.392,1.392,0,0,0,1.225-2.05c-1.776-3.3-3.438-6.628-4.941-9.878a1.391,1.391,0,0,0-2.526,1.167c1.526,3.3,3.213,6.676,5.016,10.029A1.389,1.389,0,0,0,917.066,499.811Zm-9.306-20.2a1.393,1.393,0,0,0,1.3-1.888c-1.333-3.5-2.518-7.009-3.519-10.437a1.392,1.392,0,0,0-2.672.781c1.023,3.5,2.23,7.08,3.591,10.647A1.39,1.39,0,0,0,907.76,479.606Zm-6.191-21.348a1.375,1.375,0,0,0,.266-.026,1.392,1.392,0,0,0,1.1-1.631,102.883,102.883,0,0,1-1.525-10.864,1.391,1.391,0,0,0-2.773.235,105.563,105.563,0,0,0,1.566,11.159A1.392,1.392,0,0,0,901.569,458.258Zm-1.817-22.125a1.392,1.392,0,0,0,1.39-1.34,80.507,80.507,0,0,1,1.145-10.872,1.392,1.392,0,1,0-2.741-.482,83.305,83.305,0,0,0-1.185,11.249,1.391,1.391,0,0,0,1.338,1.444Zm3.88-21.846a1.391,1.391,0,0,0,1.32-.955c.594-1.793,1.267-3.589,2-5.34.672-1.6,1.408-3.193,2.189-4.737A1.392,1.392,0,0,0,906.659,402c-.811,1.6-1.575,3.256-2.272,4.916-.762,1.816-1.462,3.681-2.078,5.542a1.394,1.394,0,0,0,1.322,1.829Zm10-19.791a1.39,1.39,0,0,0,1.138-.589,80.215,80.215,0,0,1,6.909-8.475,1.392,1.392,0,0,0-2.035-1.9A82.954,82.954,0,0,0,912.5,392.3a1.391,1.391,0,0,0,1.135,2.193Zm15.118-16.257a1.387,1.387,0,0,0,.892-.324,102.34,102.34,0,0,1,8.795-6.564,1.391,1.391,0,1,0-1.545-2.315,104.793,104.793,0,0,0-9.035,6.743,1.392,1.392,0,0,0,.893,2.459Zm18.454-12.38a1.382,1.382,0,0,0,.661-.168c3.136-1.694,6.467-3.321,9.9-4.832a1.392,1.392,0,0,0-1.122-2.548c-3.5,1.543-6.9,3.2-10.1,4.932a1.392,1.392,0,0,0,.662,2.616Zm20.337-9a1.379,1.379,0,0,0,.471-.083c3.366-1.212,6.9-2.362,10.5-3.418a1.392,1.392,0,1,0-.783-2.671c-3.657,1.072-7.245,2.24-10.664,3.471a1.392,1.392,0,0,0,.472,2.7Zm21.345-6.284a1.367,1.367,0,0,0,.321-.038c3.507-.828,7.15-1.6,10.827-2.287a1.392,1.392,0,1,0-.512-2.736c-3.721.7-7.407,1.475-10.955,2.314a1.392,1.392,0,0,0,.319,2.747Z" transform="translate(-898.359 -345.489)" fill="#ecba53"/>
      </g>
      <g id="Group_47623" data-name="Group 47623" transform="translate(377.535 92.191)">
        <path id="Path_102134" data-name="Path 102134" d="M424.59,358.724a1.389,1.389,0,0,0,1.072-.5c2.357-2.846,4.764-5.707,7.154-8.5a1.392,1.392,0,0,0-2.116-1.809c-2.4,2.806-4.815,5.679-7.182,8.536a1.392,1.392,0,0,0,1.072,2.279ZM439.06,341.8a1.392,1.392,0,0,0,1.044-.47c2.445-2.769,4.943-5.55,7.424-8.266a1.391,1.391,0,1,0-2.055-1.877c-2.492,2.727-5,5.519-7.456,8.3a1.392,1.392,0,0,0,1.043,2.313Zm277.854-9.013.085,0a1.392,1.392,0,0,0,1.305-1.473c-.226-3.785-.534-7.539-.916-11.156a1.391,1.391,0,1,0-2.767.29c.376,3.577.68,7.288.9,11.032A1.392,1.392,0,0,0,716.914,332.787Zm-262.833-7.424a1.39,1.39,0,0,0,1.011-.435c2.555-2.7,5.149-5.391,7.708-8a1.392,1.392,0,0,0-1.986-1.95c-2.572,2.62-5.177,5.323-7.744,8.035a1.392,1.392,0,0,0,1.01,2.349Zm260.485-14.708a1.446,1.446,0,0,0,.217-.017,1.394,1.394,0,0,0,1.16-1.591c-.59-3.759-1.28-7.468-2.051-11.022a1.392,1.392,0,1,0-2.72.591c.76,3.5,1.44,7.155,2.021,10.863A1.392,1.392,0,0,0,714.566,310.656Zm-244.883-1.179a1.39,1.39,0,0,0,.974-.4c2.657-2.605,5.352-5.194,8.008-7.7a1.392,1.392,0,1,0-1.908-2.026c-2.67,2.514-5.378,5.115-8.048,7.733a1.392,1.392,0,0,0,.974,2.386ZM485.9,294.216a1.389,1.389,0,0,0,.932-.358c2.759-2.489,5.56-4.959,8.326-7.343a1.391,1.391,0,1,0-1.816-2.108c-2.782,2.4-5.6,4.881-8.375,7.385a1.391,1.391,0,0,0,.932,2.424Zm223.917-5.3a1.393,1.393,0,0,0,1.338-1.777c-1.06-3.677-2.246-7.268-3.522-10.671a1.392,1.392,0,0,0-2.606.978c1.252,3.335,2.413,6.856,3.454,10.464A1.392,1.392,0,0,0,709.814,288.92Zm-207.044-9.234a1.385,1.385,0,0,0,.881-.315c2.882-2.364,5.8-4.7,8.669-6.926a1.392,1.392,0,0,0-1.709-2.2c-2.889,2.247-5.825,4.593-8.725,6.973a1.391,1.391,0,0,0,.883,2.467Zm199.192-11.569a1.392,1.392,0,0,0,1.251-2,106.148,106.148,0,0,0-5.424-9.882,1.391,1.391,0,1,0-2.362,1.47,103.652,103.652,0,0,1,5.281,9.622A1.394,1.394,0,0,0,701.963,268.118Zm-181.612-2.091a1.386,1.386,0,0,0,.822-.27c3.014-2.21,6.056-4.371,9.041-6.423a1.392,1.392,0,1,0-1.577-2.294c-3.009,2.068-6.074,4.246-9.11,6.473a1.392,1.392,0,0,0,.824,2.514Zm18.354-12.6a1.384,1.384,0,0,0,.748-.219c3.153-2.015,6.331-3.964,9.444-5.8a1.391,1.391,0,1,0-1.41-2.4c-3.143,1.848-6.35,3.817-9.532,5.849a1.392,1.392,0,0,0,.751,2.564Zm151.473-4.131a1.392,1.392,0,0,0,1.081-2.266,81.619,81.619,0,0,0-7.693-8.292,1.391,1.391,0,1,0-1.9,2.032,79,79,0,0,1,7.43,8.009A1.388,1.388,0,0,0,690.178,249.294ZM557.9,242.157a1.378,1.378,0,0,0,.654-.165c3.3-1.764,6.628-3.441,9.878-4.987a1.391,1.391,0,1,0-1.195-2.513c-3.29,1.565-6.652,3.262-9.993,5.046a1.392,1.392,0,0,0,.656,2.62Zm116.053-7.984a1.391,1.391,0,0,0,.789-2.538c-1.953-1.341-3.994-2.6-6.065-3.747-1.22-.674-2.48-1.324-3.742-1.931a1.391,1.391,0,1,0-1.2,2.509c1.214.584,2.426,1.209,3.6,1.858,1.994,1.1,3.957,2.314,5.836,3.605A1.384,1.384,0,0,0,673.954,234.173Zm-95.946-1.554a1.391,1.391,0,0,0,.531-.1c3.465-1.431,6.94-2.746,10.329-3.911a1.392,1.392,0,0,0-.9-2.632c-3.442,1.183-6.97,2.519-10.487,3.97a1.392,1.392,0,0,0,.532,2.678Zm21.046-7.2a1.424,1.424,0,0,0,.361-.047c3.625-.97,7.24-1.786,10.743-2.424a1.391,1.391,0,0,0-.5-2.738c-3.575.652-7.264,1.483-10.962,2.472a1.392,1.392,0,0,0,.358,2.737Zm54.915-.848a1.391,1.391,0,0,0,.4-2.723,79.863,79.863,0,0,0-11.038-2.5,1.392,1.392,0,0,0-.424,2.751,76.989,76.989,0,0,1,10.652,2.416A1.4,1.4,0,0,0,653.97,224.574Zm-33.041-3.087c.04,0,.08,0,.121,0a99.758,99.758,0,0,1,10.96-.344,1.413,1.413,0,0,0,1.427-1.355,1.392,1.392,0,0,0-1.356-1.427,101.919,101.919,0,0,0-11.268.353,1.391,1.391,0,0,0,.117,2.778Z" transform="translate(-423.199 -218.326)" fill="#ecba53"/>
      </g>
      <g id="Group_47624" data-name="Group 47624" transform="translate(245.563 65.275)">
        <path id="Path_102135" data-name="Path 102135" d="M474.36,949.5c1.683,0,3.377-.051,5.035-.151a1.392,1.392,0,1,0-.168-2.778,83.268,83.268,0,0,1-10.94-.073,1.391,1.391,0,0,0-.2,2.776C470.186,949.428,472.3,949.5,474.36,949.5Zm15.976-1.6a1.406,1.406,0,0,0,.283-.029,76.877,76.877,0,0,0,9.475-2.6q.714-.246,1.422-.506a1.392,1.392,0,1,0-.96-2.613q-.682.252-1.37.488a73.9,73.9,0,0,1-9.13,2.5,1.392,1.392,0,0,0,.28,2.755Zm20.823-7.642a1.379,1.379,0,0,0,.665-.171,80.6,80.6,0,0,0,9.521-6.111,1.392,1.392,0,0,0-1.662-2.232,77.787,77.787,0,0,1-9.191,5.9,1.392,1.392,0,0,0,.667,2.614Zm17.822-13.216a1.387,1.387,0,0,0,.968-.391,100.008,100.008,0,0,0,7.645-8.295,1.392,1.392,0,1,0-2.149-1.77,97,97,0,0,1-7.431,8.064,1.392,1.392,0,0,0,.967,2.393Zm14.174-17.11a1.39,1.39,0,0,0,1.157-.616c2.031-3.024,4-6.254,5.858-9.6a1.392,1.392,0,0,0-2.433-1.351c-1.818,3.276-3.748,6.438-5.735,9.4a1.391,1.391,0,0,0,1.154,2.167Zm10.829-19.424a1.392,1.392,0,0,0,1.264-.807c1.527-3.3,3-6.772,4.382-10.327a1.391,1.391,0,1,0-2.594-1.007c-1.36,3.5-2.811,6.919-4.314,10.164a1.392,1.392,0,0,0,1.262,1.977Zm8.083-20.732a1.393,1.393,0,0,0,1.323-.961c1.126-3.458,2.2-7.069,3.2-10.732a1.392,1.392,0,1,0-2.686-.732c-.986,3.62-2.051,7.186-3.164,10.6a1.391,1.391,0,0,0,.892,1.753A1.37,1.37,0,0,0,562.068,869.776Z" transform="translate(-180.008 -237.528)" fill="#ecba53"/>
        <path id="Path_102136" data-name="Path 102136" d="M739.454,928.3a1.392,1.392,0,0,0,.7-2.6q-.974-.564-1.95-1.144a1.392,1.392,0,1,0-1.422,2.393q.991.589,1.979,1.161A1.4,1.4,0,0,0,739.454,928.3Zm-11.367-7.109a1.392,1.392,0,0,0,.777-2.547c-2.988-2.008-6.025-4.162-9.025-6.4a1.391,1.391,0,1,0-1.663,2.231c3.036,2.264,6.11,4.443,9.135,6.477A1.391,1.391,0,0,0,728.087,921.194Zm-17.856-13.288a1.392,1.392,0,0,0,.88-2.471c-2.8-2.282-5.639-4.694-8.443-7.17a1.391,1.391,0,0,0-1.842,2.086c2.831,2.5,5.7,4.936,8.526,7.241A1.388,1.388,0,0,0,710.231,907.906Zm-16.7-14.723a1.391,1.391,0,0,0,.957-2.4c-2.631-2.5-5.3-5.106-7.92-7.759a1.391,1.391,0,0,0-1.979,1.957c2.645,2.676,5.332,5.307,7.984,7.822A1.385,1.385,0,0,0,693.536,893.183Zm-15.659-15.824a1.391,1.391,0,0,0,1.018-2.34c-2.481-2.663-4.987-5.43-7.449-8.222a1.391,1.391,0,1,0-2.087,1.841c2.478,2.811,5,5.6,7.5,8.279A1.388,1.388,0,0,0,677.877,877.359Zm-14.726-16.7a1.392,1.392,0,0,0,1.067-2.285c-2.338-2.792-4.7-5.684-7.02-8.6a1.392,1.392,0,0,0-2.177,1.734c2.336,2.931,4.712,5.84,7.063,8.65A1.39,1.39,0,0,0,663.151,860.663Zm-13.879-17.409a1.392,1.392,0,0,0,1.107-2.234c-2.2-2.895-4.431-5.893-6.626-8.91a1.392,1.392,0,1,0-2.251,1.637c2.206,3.033,4.448,6.047,6.661,8.957A1.39,1.39,0,0,0,649.273,843.255Zm-13.1-18a1.393,1.393,0,0,0,1.14-2.187c-2.092-3-4.2-6.089-6.259-9.173a1.391,1.391,0,1,0-2.314,1.546c2.072,3.1,4.188,6.2,6.289,9.219A1.392,1.392,0,0,0,636.174,825.252Z" transform="translate(-504.233 -234.416)" fill="#ecba53"/>
        <path id="Path_102137" data-name="Path 102137" d="M689.473,457.888a1.446,1.446,0,0,0,.2-.014,1.392,1.392,0,0,0,1.179-1.576q-.38-2.634-.736-5.254a1.392,1.392,0,1,0-2.758.375q.358,2.63.739,5.276A1.392,1.392,0,0,0,689.473,457.888Zm-2.145-16.308a1.429,1.429,0,0,0,.166-.009,1.392,1.392,0,0,0,1.218-1.546c-.438-3.692-.846-7.407-1.214-11.041a1.391,1.391,0,1,0-2.768.279c.368,3.65.778,7.38,1.218,11.089A1.391,1.391,0,0,0,687.328,441.58Zm-2.233-22.148c.038,0,.077,0,.116,0a1.392,1.392,0,0,0,1.273-1.5c-.305-3.691-.577-7.417-.809-11.073a1.392,1.392,0,1,0-2.778.175c.234,3.675.506,7.418.813,11.127A1.391,1.391,0,0,0,685.095,419.432Zm-1.4-22.214.061,0a1.391,1.391,0,0,0,1.33-1.45c-.161-3.721-.284-7.453-.366-11.094a1.392,1.392,0,0,0-1.391-1.361h-.032a1.39,1.39,0,0,0-1.359,1.422c.082,3.66.2,7.412.367,11.152A1.39,1.39,0,0,0,683.69,397.218Zm-.493-22.25a1.392,1.392,0,0,0,1.392-1.392v-.148c0-3.66.042-7.345.125-10.952a1.391,1.391,0,0,0-2.782-.065c-.084,3.629-.127,7.335-.126,11.017v.148A1.391,1.391,0,0,0,683.2,374.967Zm.521-22.258a1.392,1.392,0,0,0,1.389-1.325c.181-3.735.409-7.462.681-11.075a1.391,1.391,0,1,0-2.775-.208c-.274,3.638-.5,7.388-.686,11.149a1.391,1.391,0,0,0,1.323,1.456Zm1.675-22.2a1.392,1.392,0,0,0,1.382-1.248c.388-3.718.831-7.423,1.319-11.01a1.392,1.392,0,1,0-2.758-.375c-.492,3.615-.939,7.349-1.329,11.1a1.392,1.392,0,0,0,1.24,1.529C685.3,330.506,685.345,330.508,685.393,330.508ZM688.4,308.45a1.391,1.391,0,0,0,1.369-1.158c.63-3.682,1.325-7.345,2.068-10.885a1.392,1.392,0,0,0-2.724-.572c-.75,3.574-1.453,7.271-2.087,10.988a1.391,1.391,0,0,0,1.137,1.606A1.37,1.37,0,0,0,688.4,308.45Zm4.586-21.782a1.391,1.391,0,0,0,1.348-1.05c.919-3.623,1.918-7.209,2.967-10.66a1.391,1.391,0,1,0-2.662-.81c-1.062,3.493-2.073,7.121-3,10.787a1.392,1.392,0,0,0,1.35,1.734Zm6.5-21.285a1.392,1.392,0,0,0,1.308-.918c1.277-3.523,2.647-6.977,4.07-10.269a1.392,1.392,0,1,0-2.555-1.1c-1.444,3.342-2.835,6.849-4.131,10.424a1.392,1.392,0,0,0,1.308,1.867Zm8.856-20.406a1.392,1.392,0,0,0,1.238-.753c1.721-3.329,3.549-6.552,5.434-9.581a1.392,1.392,0,0,0-2.363-1.471c-1.924,3.091-3.79,6.379-5.544,9.774a1.392,1.392,0,0,0,1.235,2.031Zm11.789-18.846a1.391,1.391,0,0,0,1.109-.55,102.8,102.8,0,0,1,7.083-8.378,1.392,1.392,0,0,0-2.024-1.911,105.827,105.827,0,0,0-7.275,8.605,1.392,1.392,0,0,0,1.107,2.234Zm147.451-.107a1.391,1.391,0,0,0,.85-2.494c-3-2.312-6.04-4.54-9.028-6.624a1.392,1.392,0,0,0-1.592,2.283c2.951,2.058,5.953,4.26,8.922,6.546A1.384,1.384,0,0,0,867.581,226.025ZM849.314,213.31a1.392,1.392,0,0,0,.737-2.573c-3.231-2.008-6.493-3.9-9.7-5.636a1.391,1.391,0,0,0-1.324,2.447c3.153,1.705,6.366,3.574,9.55,5.552A1.385,1.385,0,0,0,849.314,213.31Zm-113.9-3.282a1.385,1.385,0,0,0,.887-.32,80.5,80.5,0,0,1,8.861-6.389,1.392,1.392,0,0,0-1.468-2.365,83.378,83.378,0,0,0-9.169,6.61,1.392,1.392,0,0,0,.889,2.464Zm94.315-7.27a1.392,1.392,0,0,0,.576-2.659c-3.482-1.581-6.984-3.009-10.409-4.242a1.391,1.391,0,1,0-.943,2.618c3.355,1.209,6.788,2.609,10.2,4.158A1.378,1.378,0,0,0,829.728,202.758Zm-75.463-4.392a1.381,1.381,0,0,0,.554-.116c1.744-.758,3.537-1.456,5.331-2.073,1.631-.563,3.3-1.075,4.975-1.521a1.392,1.392,0,0,0-.719-2.689c-1.734.464-3.472,1-5.165,1.58-1.86.642-3.721,1.366-5.531,2.151a1.392,1.392,0,0,0,.555,2.669Zm54.53-3.1a1.391,1.391,0,0,0,.347-2.739,104.865,104.865,0,0,0-11.051-2.24,1.392,1.392,0,0,0-.4,2.754,102.221,102.221,0,0,1,10.757,2.18A1.373,1.373,0,0,0,808.8,195.264Zm-33.1-2.639a1.369,1.369,0,0,0,.161-.009,79.65,79.65,0,0,1,9.123-.52c.594,0,1.2.007,1.8.019a1.369,1.369,0,0,0,1.421-1.361,1.392,1.392,0,0,0-1.361-1.421c-.621-.014-1.244-.017-1.86-.019a82.491,82.491,0,0,0-9.442.538,1.392,1.392,0,0,0,.159,2.774Z" transform="translate(-681.806 -189.313)" fill="#ecba53"/>
      </g>
      <ellipse id="Ellipse_4779" data-name="Ellipse 4779" cx="15.713" cy="15.713" rx="15.713" ry="15.713" transform="translate(620.513 583.613) rotate(-170.782)" fill="#fff"/>
      <ellipse id="Ellipse_4780" data-name="Ellipse 4780" cx="12.465" cy="12.465" rx="12.465" ry="12.465" transform="translate(167.999 528.593)" fill="#ecba53"/>
      <path id="Path_102138" data-name="Path 102138" d="M748.808,776.918a13.412,13.412,0,1,0,13.411-13.411A13.412,13.412,0,0,0,748.808,776.918Z" transform="translate(-405.06 -165.543)" fill="#ecba53"/>
      <ellipse id="Ellipse_4781" data-name="Ellipse 4781" cx="15.712" cy="15.712" rx="15.712" ry="15.712" transform="matrix(-0.993, -0.122, 0.122, -0.993, 384.246, 266.415)" fill="#99b9ff"/>
      <path id="Path_102139" data-name="Path 102139" d="M630.38,604.859q1.276,0,2.542-.016a1.392,1.392,0,0,0,1.374-1.409,1.408,1.408,0,0,0-1.408-1.374c-.866.01-1.738.023-2.611.016-2.779,0-5.622-.056-8.449-.163a1.392,1.392,0,1,0-.106,2.781C624.62,604.8,627.55,604.865,630.38,604.859Zm13.641-.448.093,0c3.742-.247,7.491-.6,11.145-1.053a1.391,1.391,0,1,0-.341-2.762c-3.6.444-7.3.794-10.986,1.038a1.391,1.391,0,0,0,.09,2.78ZM610.668,604a1.392,1.392,0,0,0,.118-2.778c-3.616-.309-7.32-.71-11.005-1.188a1.391,1.391,0,1,0-.359,2.759c3.727.485,7.47.89,11.127,1.2C610.588,604,610.629,604,610.668,604Zm55.4-2.328a1.406,1.406,0,0,0,.255-.023c3.679-.679,7.36-1.479,10.944-2.377a1.392,1.392,0,0,0-.676-2.7c-3.527.884-7.152,1.671-10.774,2.34a1.391,1.391,0,0,0,.25,2.76Zm-77.472-.531a1.392,1.392,0,0,0,.234-2.764c-3.574-.614-7.234-1.316-10.88-2.085a1.391,1.391,0,1,0-.574,2.723c3.679.776,7.374,1.484,10.983,2.1A1.383,1.383,0,0,0,588.6,601.146Zm-21.78-4.589a1.392,1.392,0,0,0,.335-2.742c-3.532-.878-7.136-1.837-10.712-2.851a1.392,1.392,0,0,0-.759,2.678c3.605,1.021,7.239,1.988,10.8,2.873A1.406,1.406,0,0,0,566.816,596.557Zm120.8-.281a1.413,1.413,0,0,0,.425-.067c3.552-1.138,7.1-2.406,10.553-3.769a1.392,1.392,0,1,0-1.023-2.588c-3.393,1.34-6.885,2.587-10.378,3.706a1.392,1.392,0,0,0,.424,2.718ZM545.4,590.494a1.392,1.392,0,0,0,.419-2.719c-3.464-1.1-7-2.275-10.524-3.5a1.392,1.392,0,0,0-.916,2.628c3.545,1.235,7.111,2.42,10.6,3.525A1.389,1.389,0,0,0,545.4,590.494Zm162.879-2.385a1.378,1.378,0,0,0,.6-.135c3.362-1.6,6.713-3.328,9.96-5.146a1.391,1.391,0,1,0-1.36-2.428c-3.193,1.788-6.488,3.49-9.794,5.061a1.392,1.392,0,0,0,.6,2.649Zm-183.9-4.93a1.392,1.392,0,0,0,.493-2.693c-3.4-1.287-6.876-2.651-10.33-4.055a1.392,1.392,0,1,0-1.048,2.578c3.475,1.413,6.972,2.786,10.393,4.08A1.39,1.39,0,0,0,524.373,583.179Zm203.3-5.926a1.389,1.389,0,0,0,.758-.225c3.108-2.022,6.2-4.182,9.193-6.419a1.392,1.392,0,1,0-1.666-2.229c-2.945,2.2-5.987,4.326-9.045,6.315a1.392,1.392,0,0,0,.761,2.559ZM503.749,574.8a1.392,1.392,0,0,0,.555-2.669c-3.349-1.453-6.758-2.977-10.135-4.529a1.391,1.391,0,1,0-1.162,2.528c3.394,1.561,6.822,3.093,10.19,4.554A1.376,1.376,0,0,0,503.749,574.8Zm-20.228-9.3a1.392,1.392,0,0,0,.609-2.644q-3.554-1.721-7.155-3.529a1.392,1.392,0,0,0-1.249,2.488q3.619,1.815,7.189,3.545A1.377,1.377,0,0,0,483.522,565.5Zm261.962-1.557a1.389,1.389,0,0,0,.9-.331c2.814-2.394,5.611-4.924,8.315-7.522a1.392,1.392,0,0,0-1.929-2.007c-2.663,2.559-5.419,5.051-8.19,7.409a1.391,1.391,0,0,0,.9,2.451Zm16.05-15.409a1.387,1.387,0,0,0,1.021-.445c2.506-2.7,4.992-5.542,7.389-8.432a1.392,1.392,0,0,0-2.143-1.777c-2.364,2.851-4.816,5.65-7.287,8.317a1.391,1.391,0,0,0,1.02,2.337ZM775.751,531.4a1.389,1.389,0,0,0,1.117-.56c2.2-2.958,4.378-6.039,6.467-9.156a1.392,1.392,0,0,0-2.313-1.549c-2.063,3.08-4.212,6.123-6.386,9.044a1.392,1.392,0,0,0,1.115,2.222Zm12.407-18.5a1.39,1.39,0,0,0,1.193-.673c1.907-3.16,3.782-6.432,5.575-9.725a1.392,1.392,0,1,0-2.445-1.33c-1.771,3.257-3.626,6.493-5.511,9.617a1.392,1.392,0,0,0,1.189,2.111Zm10.658-19.579a1.39,1.39,0,0,0,1.251-.781c1.628-3.326,3.214-6.748,4.715-10.171a1.391,1.391,0,1,0-2.548-1.118c-1.486,3.388-3.056,6.775-4.666,10.067a1.394,1.394,0,0,0,1.249,2Zm8.961-20.428a1.39,1.39,0,0,0,1.3-.886c1.365-3.5,2.663-7.04,3.861-10.536a1.391,1.391,0,1,0-2.633-.9c-1.186,3.459-2.471,6.967-3.821,10.427a1.391,1.391,0,0,0,1.3,1.9ZM815,451.772a1.392,1.392,0,0,0,1.335-1c1.986-6.794,2.814-10.8,2.848-10.971a1.392,1.392,0,0,0-2.727-.558c-.008.04-.843,4.078-2.793,10.749A1.395,1.395,0,0,0,815,451.772Z" transform="translate(-194.589 -142.023)" fill="#ecba53"/>
    </g>
    <g id="Group_47636" data-name="Group 47636" transform="translate(304.893 612.107)">
      <rect id="Rectangle_4000" data-name="Rectangle 4000" width="472.087" height="77.797" transform="translate(20.666 88.673)" fill="#1d1320"/>
      <g id="Group_47630" data-name="Group 47630">
        <g id="Group_47626" data-name="Group 47626" transform="translate(154.904)">
          <rect id="Rectangle_4001" data-name="Rectangle 4001" width="355.731" height="97.68" transform="translate(1.391 1.391)" fill="#915aa3"/>
          <path id="Path_102140" data-name="Path 102140" d="M267.574,879.214H623.3a1.391,1.391,0,0,0,1.392-1.392V780.144a1.391,1.391,0,0,0-1.392-1.392H267.574a1.391,1.391,0,0,0-1.392,1.392v97.679A1.391,1.391,0,0,0,267.574,879.214Zm354.339-2.783H268.965v-94.9H621.912Z" transform="translate(-266.182 -778.752)" fill="#1d1320"/>
        </g>
        <g id="Group_47627" data-name="Group 47627" transform="translate(0)">
          <rect id="Rectangle_4002" data-name="Rectangle 4002" width="355.731" height="97.68" transform="translate(1.392 1.391)" fill="#a569b9"/>
          <path id="Path_102141" data-name="Path 102141" d="M434.547,879.214H790.278a1.392,1.392,0,0,0,1.392-1.392V780.144a1.391,1.391,0,0,0-1.392-1.392H434.547a1.391,1.391,0,0,0-1.392,1.392v97.679A1.391,1.391,0,0,0,434.547,879.214Zm354.34-2.783H435.938v-94.9H788.886Z" transform="translate(-433.155 -778.752)" fill="#1d1320"/>
        </g>
        <rect id="Rectangle_4003" data-name="Rectangle 4003" width="341.152" height="83.101" rx="15.064" transform="translate(8.681 8.681)" fill="#e7c7ff"/>
        <g id="Group_47628" data-name="Group 47628" transform="translate(245.387 41.563)">
          <ellipse id="Ellipse_4782" data-name="Ellipse 4782" cx="8.668" cy="8.668" rx="8.668" ry="8.668" transform="translate(55.401)" fill="#fff"/>
          <ellipse id="Ellipse_4783" data-name="Ellipse 4783" cx="8.668" cy="8.668" rx="8.668" ry="8.668" transform="translate(27.7 0)" fill="#fff"/>
          <ellipse id="Ellipse_4784" data-name="Ellipse 4784" cx="8.668" cy="8.668" rx="8.668" ry="8.668" transform="translate(0)" fill="#fff"/>
        </g>
        <g id="Group_47629" data-name="Group 47629" transform="translate(379.348 22.544)">
          <path id="Path_102142" data-name="Path 102142" d="M399.649,807.971H294.331a2.459,2.459,0,0,1,0-4.918H399.649a2.459,2.459,0,1,1,0,4.918Z" transform="translate(-291.873 -803.053)" fill="#1d1320"/>
          <path id="Path_102143" data-name="Path 102143" d="M294.331,821.182H399.649a2.459,2.459,0,1,1,0,4.918H294.331a2.459,2.459,0,0,1,0-4.918Z" transform="translate(-291.873 -804.363)" fill="#1d1320"/>
          <path id="Path_102144" data-name="Path 102144" d="M294.331,839.311H399.649a2.459,2.459,0,1,1,0,4.918H294.331a2.459,2.459,0,0,1,0-4.918Z" transform="translate(-291.873 -805.674)" fill="#1d1320"/>
          <path id="Path_102145" data-name="Path 102145" d="M294.331,857.44H399.649a2.459,2.459,0,1,1,0,4.918H294.331a2.459,2.459,0,0,1,0-4.918Z" transform="translate(-291.873 -806.984)" fill="#1d1320"/>
        </g>
      </g>
      <g id="Group_47635" data-name="Group 47635" transform="translate(0 107.571)">
        <g id="Group_47631" data-name="Group 47631" transform="translate(154.904)">
          <rect id="Rectangle_4004" data-name="Rectangle 4004" width="355.731" height="97.68" transform="translate(1.391 1.391)" fill="#915aa3"/>
          <path id="Path_102146" data-name="Path 102146" d="M267.574,995.168H623.3a1.392,1.392,0,0,0,1.392-1.392V896.1a1.392,1.392,0,0,0-1.392-1.392H267.574a1.391,1.391,0,0,0-1.392,1.392v97.68A1.391,1.391,0,0,0,267.574,995.168Zm354.339-2.783H268.965v-94.9H621.912Z" transform="translate(-266.182 -894.705)" fill="#1d1320"/>
        </g>
        <g id="Group_47632" data-name="Group 47632" transform="translate(0)">
          <rect id="Rectangle_4005" data-name="Rectangle 4005" width="355.731" height="97.68" transform="translate(1.392 1.391)" fill="#a569b9"/>
          <path id="Path_102147" data-name="Path 102147" d="M434.547,995.168H790.278a1.392,1.392,0,0,0,1.392-1.392V896.1a1.392,1.392,0,0,0-1.392-1.392H434.547a1.392,1.392,0,0,0-1.392,1.392v97.68A1.392,1.392,0,0,0,434.547,995.168Zm354.34-2.783H435.938v-94.9H788.886Z" transform="translate(-433.155 -894.705)" fill="#1d1320"/>
        </g>
        <rect id="Rectangle_4006" data-name="Rectangle 4006" width="341.152" height="83.101" rx="15.064" transform="translate(8.681 8.681)" fill="#e7c7ff"/>
        <g id="Group_47633" data-name="Group 47633" transform="translate(245.387 41.564)">
          <ellipse id="Ellipse_4785" data-name="Ellipse 4785" cx="8.668" cy="8.668" rx="8.668" ry="8.668" transform="translate(55.401)" fill="#fff"/>
          <ellipse id="Ellipse_4786" data-name="Ellipse 4786" cx="8.668" cy="8.668" rx="8.668" ry="8.668" transform="translate(27.7)" fill="#fff"/>
          <ellipse id="Ellipse_4787" data-name="Ellipse 4787" cx="8.668" cy="8.668" rx="8.668" ry="8.668" transform="translate(0)" fill="#fff"/>
        </g>
        <g id="Group_47634" data-name="Group 47634" transform="translate(379.348 22.544)">
          <path id="Path_102148" data-name="Path 102148" d="M399.649,923.924H294.331a2.459,2.459,0,0,1,0-4.918H399.649a2.459,2.459,0,1,1,0,4.918Z" transform="translate(-291.873 -919.006)" fill="#1d1320"/>
          <path id="Path_102149" data-name="Path 102149" d="M294.331,937.136H399.649a2.458,2.458,0,1,1,0,4.917H294.331a2.458,2.458,0,1,1,0-4.917Z" transform="translate(-291.873 -920.317)" fill="#1d1320"/>
          <path id="Path_102150" data-name="Path 102150" d="M294.331,955.265H399.649a2.458,2.458,0,1,1,0,4.917H294.331a2.458,2.458,0,1,1,0-4.917Z" transform="translate(-291.873 -921.627)" fill="#1d1320"/>
          <path id="Path_102151" data-name="Path 102151" d="M294.331,973.394H399.649a2.458,2.458,0,1,1,0,4.917H294.331a2.458,2.458,0,1,1,0-4.917Z" transform="translate(-291.873 -922.937)" fill="#1d1320"/>
        </g>
      </g>
    </g>
    <g id="Group_47638" data-name="Group 47638" transform="translate(193.294 99.637)">
      <g transform="matrix(1, 0, 0, 1, -193.29, -104)" filter="url(#Path_102152)">
        <g id="Path_102152-2" data-name="Path 102152" transform="translate(-469.94 -122.35)" fill="#fff">
          <path d="M 786.8399658203125 530.5931396484375 C 784.5047607421875 530.5931396484375 782.2014770507812 530.21484375 779.9942016601562 529.4686889648438 C 777.7352905273438 528.7051391601562 775.6309814453125 527.5733032226562 773.73974609375 526.1045532226562 L 742.4747924804688 501.8253173828125 C 734.3565063476562 495.5208740234375 726.8282470703125 488.3883361816406 720.0989990234375 480.6258544921875 C 713.4320068359375 472.9351196289062 707.4874877929688 464.5551147460938 702.4305419921875 455.7186584472656 C 697.3736572265625 446.8821716308594 693.159912109375 437.5116271972656 689.9065551757812 427.8673400878906 C 686.6227416992188 418.1330261230469 684.2869873046875 408.0288696289062 682.9640502929688 397.8354797363281 L 667.4044799804688 277.9422912597656 C 666.76953125 273.0497741699219 667.93017578125 268.096923828125 670.6725463867188 263.9960021972656 C 673.4148559570312 259.8951110839844 677.5486450195312 256.9306945800781 682.3123779296875 255.6487884521484 L 760.0763549804688 234.7194976806641 C 770.845703125 231.8212432861328 781.9608154296875 230.3516998291016 793.113037109375 230.3516998291016 C 804.6141357421875 230.3516998291016 816.0640258789062 231.9129486083984 827.1445922851562 234.9920349121094 L 900.979736328125 255.5056610107422 C 905.7123413085938 256.8205871582031 909.810546875 259.8013610839844 912.51953125 263.8989868164062 C 915.228515625 267.99658203125 916.3657836914062 272.9350280761719 915.7218017578125 277.8046569824219 L 900.4237670898438 393.5055847167969 C 898.9959106445312 404.3063354492188 896.43408203125 414.9880065917969 892.8093872070312 425.2539978027344 C 889.22216796875 435.4139404296875 884.5692749023438 445.2384033203125 878.9798583984375 454.4544982910156 C 873.3905029296875 463.6705017089844 866.8287963867188 472.3373718261719 859.4769287109375 480.21435546875 C 852.0485229492188 488.1734619140625 843.76025390625 495.38232421875 834.8424072265625 501.6408386230469 L 799.1077880859375 526.7177734375 C 795.4948120117188 529.2530517578125 791.2526245117188 530.5931396484375 786.8399658203125 530.5931396484375 Z" stroke="none"/>
          <path d="M 793.1129150390625 234.3516845703125 C 782.3115844726562 234.3516845703125 771.5462646484375 235.7749633789062 761.1159057617188 238.58203125 L 683.351806640625 259.5113830566406 C 675.4713745117188 261.6319274902344 670.3208618164062 269.3341674804688 671.3712158203125 277.427490234375 L 686.9307861328125 397.3206787109375 C 692.1712646484375 437.6998291015625 712.7684326171875 473.6916198730469 744.9281616210938 498.666015625 L 776.193115234375 522.9453125 C 779.2222290039062 525.297607421875 783.0033569335938 526.5931396484375 786.8399658203125 526.5931396484375 C 790.4260864257812 526.5931396484375 793.873779296875 525.5039672851562 796.8101196289062 523.4435424804688 L 832.544677734375 498.3666381835938 C 867.556884765625 473.7953186035156 890.8525390625 435.3839111328125 896.4583129882812 392.9812622070312 L 911.75634765625 277.2802734375 C 912.8201293945312 269.2359619140625 907.726806640625 261.5318298339844 899.908935546875 259.3597106933594 L 826.0736694335938 238.8460083007812 C 815.3417358398438 235.86376953125 804.2521362304688 234.3516845703125 793.1129150390625 234.3516845703125 M 793.1129150390625 226.3516845703125 C 804.92431640625 226.3516845703125 816.7337036132812 227.9474487304688 828.215576171875 231.1380615234375 L 902.0504760742188 251.6516723632812 C 913.75732421875 254.9042663574219 921.2801513671875 266.2835693359375 919.6873168945312 278.3290405273438 L 904.3892822265625 394.0299377441406 C 898.4741821289062 438.7726135253906 874.0827026367188 478.9890747070312 837.1401977539062 504.9149780273438 L 801.405517578125 529.991943359375 C 797.0258178710938 533.065185546875 791.928955078125 534.5931396484375 786.8399658203125 534.5931396484375 C 781.34130859375 534.5931396484375 775.8519287109375 532.8093872070312 771.2863159179688 529.2637939453125 L 740.0214233398438 504.9845886230469 C 706.4094848632812 478.8823852539062 684.4745483398438 440.5538330078125 678.997314453125 398.3502807617188 L 663.437744140625 278.4570617675781 C 661.8671264648438 266.3550109863281 669.4891357421875 254.9571228027344 681.2730102539062 251.7861633300781 L 759.0368041992188 230.85693359375 C 770.1981811523438 227.8531494140625 781.6565551757812 226.3516845703125 793.1129150390625 226.3516845703125 Z" stroke="none" fill="#915aa3"/>
        </g>
      </g>
      <ellipse id="Ellipse_4788" data-name="Ellipse 4788" cx="65.138" cy="65.138" rx="65.138" ry="65.138" transform="translate(63.065 68.153)" fill="#f8f5f9"/>
      <path id="Path_102157" data-name="Path 102157" d="M780.906,375.421a5.19,5.19,0,0,1-4.47-2.553l-21.389-25.219a5.19,5.19,0,0,1,8.941-5.273l18.032,19.184,46.193-48.59a5.19,5.19,0,1,1,9.1,4.988l-51.858,54.767a5.189,5.189,0,0,1-4.469,2.7Z" transform="translate(-668.522 -202.396)" fill="#915aa3"/>
    </g>
    <g id="Group_47658" data-name="Group 47658" transform="translate(291.207 269.267)">
      <g id="Group_47653" data-name="Group 47653">
        <g id="Group_47643" data-name="Group 47643" transform="translate(0 269.477)">
          <g id="Group_47639" data-name="Group 47639" transform="translate(164.398 193.462)">
            <path id="Path_102158" data-name="Path 102158" d="M652.339,954.03c-2.334-2.361-15.823-44.322-15.823-44.322l-26.654,19.018L639.084,968Z" transform="translate(-608.471 -908.317)" fill="#fff"/>
            <path id="Path_102159" data-name="Path 102159" d="M638.975,969.282a1.393,1.393,0,0,0,1.009-.433L653.24,954.88a1.392,1.392,0,0,0-.007-1.923c-1.7-2.063-10.408-27.941-15.5-43.783a1.393,1.393,0,0,0-2.134-.707l-26.654,19.018a1.392,1.392,0,0,0-.308,1.963l29.221,39.273a1.4,1.4,0,0,0,1.034.559ZM650.5,953.727,639.1,965.733l-27.387-36.807,23.95-17.088C639.075,922.394,647.367,947.68,650.5,953.727Z" transform="translate(-608.362 -908.209)" fill="#1d1320"/>
          </g>
          <g id="Group_47640" data-name="Group 47640" transform="translate(154.523 218.922)">
            <path id="Path_102160" data-name="Path 102160" d="M595.458,1008.962l17.726-.106A34.882,34.882,0,0,0,642.215,993l17.526-27.75a15.584,15.584,0,0,0-5.875-22.085c-7.315-3.888-14.98-7.676-16.777-7.505-3.647.348-5.119,17.6-5.119,17.6l-15.792.609s-7.8,32.442-14.666,36.129a30.143,30.143,0,0,0-10.841,10.233A5.657,5.657,0,0,0,595.458,1008.962Z" transform="translate(-589.747 -935.652)" fill="#1d1320"/>
            <path id="Path_102161" data-name="Path 102161" d="M596.31,1004.74a1.46,1.46,0,0,0,.21-.015l24.246-3.651a19.731,19.731,0,0,0,14.036-9.408l21.424-35.791a1.392,1.392,0,1,0-2.388-1.43l-21.424,35.791a16.954,16.954,0,0,1-12.063,8.085l-24.246,3.651a1.391,1.391,0,0,0,.205,2.767Z" transform="translate(-588.818 -936.962)" fill="#fff"/>
            <path id="Path_102162" data-name="Path 102162" d="M640.857,979.2a1.391,1.391,0,0,0,.365-2.734l-13.508-3.678a1.391,1.391,0,0,0-.731,2.685l13.508,3.678A1.4,1.4,0,0,0,640.857,979.2Z" transform="translate(-603.436 -938.332)" fill="#fff"/>
            <path id="Path_102163" data-name="Path 102163" d="M643.989,986.788a1.392,1.392,0,0,0,.33-2.744l-9.057-2.215a1.392,1.392,0,0,0-.661,2.7l9.057,2.215A1.359,1.359,0,0,0,643.989,986.788Z" transform="translate(-613.604 -938.987)" fill="#fff"/>
          </g>
          <g id="Group_47641" data-name="Group 47641" transform="translate(68.577 215.066)">
            <path id="Path_102164" data-name="Path 102164" d="M755.247,947.707,724.3,978.8,707.9,972.775,736.422,933Z" transform="translate(-706.504 -931.605)" fill="#fff"/>
            <path id="Path_102165" data-name="Path 102165" d="M724.192,980.083a1.391,1.391,0,0,0,.986-.41l30.946-31.092A1.393,1.393,0,0,0,756,946.5l-18.824-14.71a1.392,1.392,0,0,0-1.988.286l-28.526,39.779a1.392,1.392,0,0,0,.651,2.117l16.4,6.024A1.383,1.383,0,0,0,724.192,980.083Zm28.853-32.354-29.21,29.349-13.851-5.088L736.6,934.878Z" transform="translate(-706.396 -931.496)" fill="#1d1320"/>
          </g>
          <g id="Group_47642" data-name="Group 47642" transform="translate(0 249.001)">
            <path id="Path_102166" data-name="Path 102166" d="M826.392,976.471s1.5,13.227-1.042,24.917a13.6,13.6,0,0,1-13.34,10.61H736.063a5.808,5.808,0,0,1-3.729-10.262c13.5-11.314,38.346-28.589,68.888-33.66L809.742,980Z" transform="translate(-730.242 -968.075)" fill="#1d1320"/>
            <path id="Path_102167" data-name="Path 102167" d="M739.238,1005.448h78.71a1.392,1.392,0,0,0,0-2.783h-78.71a1.392,1.392,0,0,0,0,2.783Z" transform="translate(-729.806 -970.575)" fill="#fff"/>
            <path id="Path_102168" data-name="Path 102168" d="M780.908,989.589a1.373,1.373,0,0,0,.53-.106,1.391,1.391,0,0,0,.756-1.817l-4.167-10.106a1.391,1.391,0,1,0-2.573,1.06l4.167,10.107A1.391,1.391,0,0,0,780.908,989.589Z" transform="translate(-727.557 -968.698)" fill="#fff"/>
            <path id="Path_102169" data-name="Path 102169" d="M794.521,992.531a1.395,1.395,0,0,0,1.321-1.829l-3.015-9.118a1.392,1.392,0,0,0-2.643.875l3.015,9.117A1.394,1.394,0,0,0,794.521,992.531Z" transform="translate(-754.869 -968.983)" fill="#fff"/>
          </g>
          <path id="Path_102170" data-name="Path 102170" d="M707.9,714.038S566.472,697.574,524.417,733.98,590.8,926.933,590.8,926.933L625.1,901.5l-32.53-110.648L723.3,753.725Z" transform="translate(-426.779 -700.442)" fill="#1d1320"/>
          <path id="Path_102171" data-name="Path 102171" d="M688.295,785.321c-20.543,6.52-57.3,14.949-108.679,14.249a38.342,38.342,0,0,0-34.706,20.872C529.692,850.286,496.755,904.02,443.1,938.848l-25.624-13.806,65.4-147.222a54.328,54.328,0,0,1,30.948-28.952l129.617-47.53s40.191-11.234,59.9,24.645c3.519,6.407,10.054-5.047,11.609.123C720.286,743.832,705.939,779.722,688.295,785.321Z" transform="translate(-329.337 -699.672)" fill="#1d1320"/>
          <path id="Path_102172" data-name="Path 102172" d="M568.472,847.692a1.393,1.393,0,0,0,1.273-.828L599.3,780.336a53.22,53.22,0,0,1,30.155-28.211l62.072-22.761a1.391,1.391,0,1,0-.958-2.612L628.5,749.513a56.016,56.016,0,0,0-31.74,29.693L567.2,845.734a1.393,1.393,0,0,0,1.271,1.957Z" transform="translate(-444.484 -701.624)" fill="#fff"/>
          <path id="Path_102173" data-name="Path 102173" d="M644.725,917.02a1.386,1.386,0,0,0,1-.427c5.952-6.191,11.809-12.838,17.407-19.758a1.392,1.392,0,0,0-2.163-1.751c-5.549,6.86-11.351,13.446-17.249,19.579a1.392,1.392,0,0,0,1,2.356Z" transform="translate(-486.23 -713.761)" fill="#fff"/>
          <path id="Path_102174" data-name="Path 102174" d="M635.981,896.537a1.386,1.386,0,0,0,1.083-.517c2.753-3.4,5.492-6.932,8.145-10.493a1.392,1.392,0,1,0-2.232-1.662c-2.631,3.532-5.348,7.033-8.077,10.405a1.392,1.392,0,0,0,1.081,2.267Z" transform="translate(-460.159 -712.946)" fill="#fff"/>
        </g>
        <g id="Group_47650" data-name="Group 47650" transform="translate(94.846 74.817)">
          <g id="Group_47645" data-name="Group 47645" transform="translate(0)">
            <g id="Group_47644" data-name="Group 47644">
              <path id="Path_102175" data-name="Path 102175" d="M539.21,491.346l36.844,19.887s22.585,58.9,54.915,62.449,64.31-41.168,64.31-41.168l21.46,45.914s-31.512,48.726-81.485,40.872-63.592-82.923-63.592-82.923c.023.05-11.829,1.171-16.293-10.368-3.8-9.824-2.214-15.606-2.214-15.606S535.4,500.927,539.21,491.346Z" transform="translate(-537.277 -489.954)" fill="#fff"/>
              <path id="Path_102176" data-name="Path 102176" d="M645.9,621.43c21.232,0,38.366-9.733,49.6-18.639a109.788,109.788,0,0,0,22.307-23.715,1.393,1.393,0,0,0,.092-1.345l-21.461-45.914a1.39,1.39,0,0,0-2.392-.22c-.316.44-31.884,44.018-63.027,40.594-31.113-3.413-53.544-60.982-53.767-61.564a1.394,1.394,0,0,0-.638-.726l-36.845-19.887a1.393,1.393,0,0,0-1.955.71c-3.733,9.392,9.955,18.127,13.691,20.3-.306,2.2-.549,7.6,2.464,15.382a17.085,17.085,0,0,0,14.164,11.141,19.165,19.165,0,0,0,2.3.19A170.96,170.96,0,0,0,583.364,575.4c12.837,26.266,30.669,41.885,51.571,45.17A70.61,70.61,0,0,0,645.9,621.43Zm69.139-43.237c-3.911,5.625-34.26,46.765-79.673,39.625-48.437-7.612-62.305-81.055-62.439-81.8a1.392,1.392,0,0,0-1.144-1.125,1.344,1.344,0,0,0-.483.006c-.633.055-10.765.764-14.738-9.5-3.557-9.195-2.182-14.689-2.168-14.743a1.4,1.4,0,0,0-.687-1.588c-4.287-2.292-14.388-9.264-13.695-15.76l34.826,18.8c2.4,6.079,24.278,59.385,55.874,62.851a35.556,35.556,0,0,0,3.89.211c27.867,0,53.973-31.787,60.3-40.062Z" transform="translate(-537.174 -489.846)" fill="#1d1320"/>
            </g>
            <path id="Path_102177" data-name="Path 102177" d="M707.777,532.662a1.392,1.392,0,0,0,.408-2.722c-.057-.018-6.042-1.942-6.7-6.722a13.763,13.763,0,0,0-4.092-7.709,7.383,7.383,0,0,1-2.159-4.647l10.492,4.184a1.392,1.392,0,1,0,1.031-2.586l-12.425-4.955a1.392,1.392,0,0,0-1.907,1.293v1.426a10.161,10.161,0,0,0,3,7.257,11.013,11.013,0,0,1,3.3,6.118c.905,6.549,8.326,8.9,8.642,9A1.4,1.4,0,0,0,707.777,532.662Z" transform="translate(-672.341 -491.115)" fill="#1d1320"/>
          </g>
          <path id="Path_102178" data-name="Path 102178" d="M541.768,513.569c-16.2-3.809-22.964-3.86-81.866-1.727-14.4.521-31.52,18.59-33.214,32.9,4.576,13.722,25.693,81.474-11.172,134.408a114.5,114.5,0,0,1-22.106,23.646A74.1,74.1,0,0,0,418.864,716.4c19,5.643,28.561-.456,43.875,0,40.511,1.209,55.366,46.326,81.532,40.661,6.986-1.513,16.247-6.963,24.929-25.243a281.408,281.408,0,0,0,11.737-53.073c6.611-54.53-4.2-99.933-13.867-128.427C564.2,541.322,560.871,518.06,541.768,513.569Z" transform="translate(-268.744 -491.333)" fill="#915aa3"/>
          <path id="Path_102179" data-name="Path 102179" d="M530.246,554.622s30.941-38.974,58.221-42.084l-13.444,103.2Z" transform="translate(-401.186 -491.486)" fill="#915aa3"/>
          <g id="Group_47649" data-name="Group 47649" transform="translate(172.809 53.352)">
            <g id="Group_47646" data-name="Group 47646">
              <path id="Path_102180" data-name="Path 102180" d="M378.024,625.648l17.235,1.884a2.873,2.873,0,0,1,1.047.325L432.078,647.1a2.874,2.874,0,0,0,1.7.322l37.994-4.6a11.6,11.6,0,0,0,9.942-13.982l-8.137-37.43a2.869,2.869,0,0,1,.676-2.534L509.649,549.8a2.866,2.866,0,0,1,4.928,1.314c3.643,16.87,28.321,81.9,10.463,112.343-18.935,32.282-90.807,9.736-90.807,9.736a1.054,1.054,0,0,1-.7-.088s-9.07-4.085-14.323-6.331c-5.068-2.168-10.639-10.24-13.316-14.51a2.866,2.866,0,0,0-4.158-.766l-6.662,5.03a10.567,10.567,0,0,1-14.888-2.205c-2.336-3.182-4.3-6.291-4.2-7.241.5-4.784,1.851-6.68,6.17-8.559a2.928,2.928,0,0,0,.453-.246l1.025-.692a2.87,2.87,0,0,0-1.3-5.233,14.357,14.357,0,0,0-9.507,1.993,20.4,20.4,0,0,1-2.747,1.525c-3.323,1.488-5.679-3.435-2.475-5.166l8.75-4.729A2.865,2.865,0,0,1,378.024,625.648Z" transform="translate(-364.688 -547.464)" fill="#fff"/>
              <path id="Path_102181" data-name="Path 102181" d="M482.618,682.221c17.66,0,35.26-4.086,43.518-18.166,14.979-25.537.855-74.167-6.733-100.293-1.637-5.637-2.93-10.089-3.569-13.048a4.257,4.257,0,0,0-7.319-1.954l-35.393,39.079a4.269,4.269,0,0,0-1,3.764l8.137,37.43a10.21,10.21,0,0,1-8.749,12.3l-37.994,4.6a1.47,1.47,0,0,1-.877-.165l-35.772-19.249a4.243,4.243,0,0,0-1.557-.483l-17.234-1.883h0a4.25,4.25,0,0,0-2.488.487l-8.75,4.729a4.173,4.173,0,0,0-1.779,5.666,4.1,4.1,0,0,0,5.485,2,21.891,21.891,0,0,0,2.937-1.629,12.842,12.842,0,0,1,8.6-1.776,1.479,1.479,0,0,1,.675,2.7l-1.025.692a1.477,1.477,0,0,1-.229.124c-4.745,2.063-6.447,4.418-7,9.69-.058.557-.195,1.861,4.466,8.209a11.96,11.96,0,0,0,16.848,2.493l6.662-5.031a1.474,1.474,0,0,1,2.14.4c2.906,4.637,8.585,12.757,13.948,15.05,5.18,2.215,14.209,6.28,14.3,6.321a2.69,2.69,0,0,0,1.128.233C437.156,675.475,459.935,682.221,482.618,682.221Zm29.045-132.083a1.475,1.475,0,0,1,.393.053,1.444,1.444,0,0,1,1.057,1.109c.661,3.055,1.965,7.549,3.617,13.238,7.471,25.724,21.378,73.6,7.006,98.109-18.157,30.957-88.482,9.335-89.19,9.113l-.417-.131-.207.065c-.893-.4-9.319-4.189-14.266-6.3-3.408-1.457-8.032-6.55-12.685-13.971a4.258,4.258,0,0,0-6.176-1.137l-6.662,5.03a9.175,9.175,0,0,1-12.928-1.918c-2.9-3.95-3.831-5.852-3.933-6.351.456-4.239,1.514-5.689,5.333-7.349a4.308,4.308,0,0,0,.676-.369l1.025-.691a4.263,4.263,0,0,0-1.932-7.771,15.546,15.546,0,0,0-10.415,2.21,19.208,19.208,0,0,1-2.559,1.422,1.329,1.329,0,0,1-1.85-.687,1.421,1.421,0,0,1,.607-1.985l8.749-4.729a1.45,1.45,0,0,1,.862-.169h0L395,628.807a1.466,1.466,0,0,1,.539.167l35.772,19.248a4.244,4.244,0,0,0,2.53.478l37.994-4.6a12.992,12.992,0,0,0,11.135-15.659l-8.137-37.43a1.478,1.478,0,0,1,.348-1.3l35.392-39.08A1.454,1.454,0,0,1,511.663,550.138Z" transform="translate(-364.584 -547.355)" fill="#1d1320"/>
            </g>
            <g id="Group_47647" data-name="Group 47647" transform="translate(11.944 89.012)">
              <path id="Path_102182" data-name="Path 102182" d="M529.96,644.8l-19.392,13.412Z" transform="translate(-509.176 -643.411)" fill="#fff"/>
              <path id="Path_102183" data-name="Path 102183" d="M510.461,659.5a1.389,1.389,0,0,0,.789-.247l19.393-13.412a1.392,1.392,0,0,0-1.583-2.29l-19.393,13.412a1.392,1.392,0,0,0,.793,2.536Z" transform="translate(-509.067 -643.303)" fill="#1d1320"/>
            </g>
            <g id="Group_47648" data-name="Group 47648" transform="translate(16.364 95.821)">
              <path id="Path_102184" data-name="Path 102184" d="M525.377,652.144l-17.065,12.431Z" transform="translate(-506.92 -650.751)" fill="#fff"/>
              <path id="Path_102185" data-name="Path 102185" d="M508.2,665.858a1.378,1.378,0,0,0,.818-.267l17.066-12.431a1.392,1.392,0,0,0-1.639-2.25l-17.065,12.432a1.392,1.392,0,0,0,.82,2.516Z" transform="translate(-506.811 -650.643)" fill="#1d1320"/>
            </g>
          </g>
          <path id="Path_102186" data-name="Path 102186" d="M437.844,590.719s-10.254-25.131-16.974-41.792c-14.913-36.974-61.832-36.974-61.832-36.974l10.682,97.668Z" transform="translate(-91.729 -491.444)" fill="#915aa3"/>
        </g>
        <g id="Group_47652" data-name="Group 47652" transform="translate(290.931)">
          <path id="Path_102187" data-name="Path 102187" d="M484.593,470.714a18.636,18.636,0,0,0,9.708,2.3c8.3-.477,13.617-7.163,14.682-8.5,5.5-6.912,8.15-18.264,3.488-24.93-3.356-4.8-7.582-2.991-11.447-8.359-4.388-6.093.111-11.065-3.937-16.4-4.661-6.141-14.93-5.672-16.777-5.589-6.336.29-7.091,3.434-13.083,3.271-6.115-.166-6.924-3.239-12.537-3.271-4.459-.025-10.958,1.873-13.87,7.03-3.654,6.473.083,15,4.421,19.5,5.209,5.4,8.876,2.5,16.172,6.9C474.056,450.3,471.034,463.883,484.593,470.714Z" transform="translate(-439.339 -409.199)" fill="#1d1320"/>
          <g id="Group_47651" data-name="Group 47651" transform="translate(1.851 22.965)">
            <path id="Path_102188" data-name="Path 102188" d="M461.117,501.387l3.422-21.294a76.1,76.1,0,0,1-7.778-1.543c-5.838-2.906-4.216-17.558-4.216-17.558l-3.244-3.876,9.679-21.662c10.28,8.566,13.947.154,24.122,4.37s4.653,15.543,4.653,15.543,8.315-3.663,6.538,4.379c-1.342,6.073-5.767,6.453-8.68,6.208l5.422,36.515s17.456,4.96,20.831,5.853c-4.393-.208-34.766,13-69.217-1.433Z" transform="translate(-441.258 -434.062)" fill="#fff"/>
            <path id="Path_102189" data-name="Path 102189" d="M476.652,514.921a119.011,119.011,0,0,0,30.17-4.279,29.953,29.953,0,0,1,4.87-1.039,1.392,1.392,0,0,0,.422-2.736c-2.894-.765-16.38-4.59-19.943-5.6l-5.048-33.989c5.612-.2,7.684-4.012,8.42-7.34.617-2.791.213-4.793-1.2-5.951a5.564,5.564,0,0,0-4.462-.825,14.149,14.149,0,0,0-.063-8.64,10.7,10.7,0,0,0-6.293-6.092c-4.757-1.971-8.259-1.385-11.348-.869-3.945.66-7.059,1.179-12.415-3.284a1.391,1.391,0,0,0-2.162.5l-9.68,21.662a1.393,1.393,0,0,0,.2,1.461l2.869,3.427c-.284,3.152-.969,15.369,5.037,18.36a50.605,50.605,0,0,0,6.8,1.451l-3.063,19.055-17.629,5.252a1.391,1.391,0,0,0-.14,2.616A89,89,0,0,0,476.652,514.921Zm29.19-6.9c-10.338,2.614-33.375,8.29-59.028-1.061l14.591-4.346a1.393,1.393,0,0,0,.977-1.112l3.422-21.295a1.392,1.392,0,0,0-1.218-1.6c-.82-.093-6.577-1.12-7.356-1.424-4.013-2-3.8-12.59-3.41-16.14a1.391,1.391,0,0,0-.316-1.046l-2.686-3.209,8.6-19.245c5.554,4.049,9.446,3.4,13.22,2.768,2.984-.5,5.8-.969,9.824.7a8.034,8.034,0,0,1,4.751,4.495c1.571,4.124-.792,9.1-.816,9.155a1.392,1.392,0,0,0,1.813,1.88c1.277-.557,3.551-1.067,4.372-.392.512.421.6,1.587.245,3.2-.859,3.89-3.08,5.47-7.2,5.121a1.391,1.391,0,0,0-1.494,1.591l5.422,36.515a1.392,1.392,0,0,0,1,1.134C491.054,503.842,499.689,506.3,505.842,508.02Z" transform="translate(-441.149 -433.954)" fill="#1d1320"/>
          </g>
          <path id="Path_102190" data-name="Path 102190" d="M480.361,484.53a15.7,15.7,0,0,0,13.269-7.125,1.391,1.391,0,0,0-2.4-1.413,13.063,13.063,0,0,1-13.06,5.6,1.392,1.392,0,0,0-.377,2.758A18.919,18.919,0,0,0,480.361,484.53Z" transform="translate(-452.852 -413.978)" fill="#1d1320"/>
        </g>
      </g>
      <g id="Group_47657" data-name="Group 47657" transform="translate(44.023 172.701)">
        <g id="Group_47656" data-name="Group 47656">
          <g id="Group_47654" data-name="Group 47654" transform="translate(35.914 115.606)">
            <path id="Rectangle_4007" data-name="Rectangle 4007" d="M0,0H206.042a0,0,0,0,1,0,0V3.1a7.96,7.96,0,0,1-7.96,7.96H7.96A7.96,7.96,0,0,1,0,3.1V0A0,0,0,0,1,0,0Z" transform="translate(1.391 1.391)" fill="#915aa3"/>
            <path id="Path_102191" data-name="Path 102191" d="M531.871,733.815H723.145a8.785,8.785,0,0,0,8.775-8.775v-3.678a1.391,1.391,0,0,0-1.392-1.392H524.488a1.391,1.391,0,0,0-1.392,1.392v3.678A8.785,8.785,0,0,0,531.871,733.815Zm197.266-11.062v2.287a6,6,0,0,1-5.992,5.992H531.871a6,6,0,0,1-5.992-5.992v-2.287Z" transform="translate(-523.096 -719.97)" fill="#1d1320"/>
          </g>
          <g id="Group_47655" data-name="Group 47655" transform="translate(0)">
            <path id="Path_102192" data-name="Path 102192" d="M655.525,712.661h117.9L735.963,602.4a12.322,12.322,0,0,0-10.344-5.542H625.956A6.186,6.186,0,0,0,620,605.118c.586,1.54,1.22,3.062,1.734,4.628Z" transform="translate(-618.223 -595.464)" fill="#915aa3"/>
            <path id="Path_102193" data-name="Path 102193" d="M655.413,713.945h117.9a1.392,1.392,0,0,0,1.317-1.84L737.17,601.843a1.357,1.357,0,0,0-.151-.311,13.645,13.645,0,0,0-11.511-6.176H625.844a7.656,7.656,0,0,0-6.4,3.323,7.4,7.4,0,0,0-.855,6.826c.168.441.34.88.511,1.319.416,1.064.845,2.163,1.2,3.249L654.09,712.987A1.394,1.394,0,0,0,655.413,713.945Zm115.955-2.783H656.42L622.943,609.2c-.38-1.159-.825-2.3-1.253-3.393-.17-.432-.339-.865-.5-1.3a4.611,4.611,0,0,1,.546-4.256,4.909,4.909,0,0,1,4.111-2.119h99.664a10.875,10.875,0,0,1,9.084,4.768Z" transform="translate(-618.111 -595.356)" fill="#1d1320"/>
          </g>
          <path id="Path_102194" data-name="Path 102194" d="M714.178,657.158c1.4,4.662-.742,9.433-4.8,10.656s-8.477-1.564-9.882-6.226.742-9.433,4.8-10.656S712.774,652.5,714.178,657.158Z" transform="translate(-633.124 -599.353)" fill="#fff"/>
          <path id="Path_102195" data-name="Path 102195" d="M638.4,722.968h64.953a1.392,1.392,0,0,0,0-2.783H638.4a1.392,1.392,0,0,0,0,2.783Z" transform="translate(-565.681 -604.379)" fill="#fff"/>
          <path id="Path_102196" data-name="Path 102196" d="M731.651,722.968h11.512a1.392,1.392,0,0,0,0-2.783H731.651a1.392,1.392,0,1,0,0,2.783Z" transform="translate(-692.005 -604.379)" fill="#fff"/>
        </g>
      </g>
    </g>
  </g>
</svg>
