<svg xmlns="http://www.w3.org/2000/svg" width="637.716" height="635" viewBox="0 0 637.716 635">
  <g id="Group_48173" data-name="Group 48173" transform="translate(-988.784 -146.5)">
    <circle id="Ellipse_4837" data-name="Ellipse 4837" cx="317" cy="317" r="317" transform="translate(992 147)" fill="#faf0fd" stroke="rgba(0,0,0,0)" stroke-width="1"/>
    <g id="Group_48169" data-name="Group 48169" transform="translate(-5279.266 -5140.412)">
      <g id="Group_47756" data-name="Group 47756" transform="translate(6397.678 5350.759)">
        <path id="Rectangle_4010" data-name="Rectangle 4010" d="M7.745,0H98.852a0,0,0,0,1,0,0V535.85a0,0,0,0,1,0,0H8.142A8.142,8.142,0,0,1,0,527.708V7.745A7.745,7.745,0,0,1,7.745,0Z" fill="#724780"/>
        <rect id="Rectangle_4011" data-name="Rectangle 4011" width="277.011" height="473.727" transform="translate(69.543 41.707)" fill="#1d1320"/>
        <g id="Group_47740" data-name="Group 47740" transform="translate(56.16)">
          <rect id="Rectangle_4012" data-name="Rectangle 4012" width="303.778" height="83.414" fill="#915aa3"/>
          <rect id="Rectangle_4013" data-name="Rectangle 4013" width="291.328" height="70.965" rx="15.211" transform="translate(6.225 6.225)" fill="#fff1d5"/>
          <g id="Group_47738" data-name="Group 47738" transform="translate(31.801 31.24)">
            <circle id="Ellipse_4792" data-name="Ellipse 4792" cx="7.402" cy="7.402" r="7.402" transform="translate(0 15.971) rotate(-76.717)" fill="#e7c7ff"/>
            <circle id="Ellipse_4793" data-name="Ellipse 4793" cx="7.402" cy="7.402" r="7.402" transform="translate(23.655 15.971) rotate(-76.717)" fill="#fff"/>
            <circle id="Ellipse_4794" data-name="Ellipse 4794" cx="7.402" cy="7.402" r="7.402" transform="translate(45.746 10.468) rotate(-45)" fill="#fff"/>
          </g>
          <g id="Group_47739" data-name="Group 47739" transform="translate(116.61 17.306)">
            <rect id="Rectangle_4014" data-name="Rectangle 4014" width="12.138" height="48.802" fill="#fff"/>
            <rect id="Rectangle_4015" data-name="Rectangle 4015" width="12.138" height="48.802" transform="translate(17.74)" fill="#fff"/>
            <rect id="Rectangle_4016" data-name="Rectangle 4016" width="12.138" height="48.802" transform="translate(35.48)" fill="#fff"/>
            <rect id="Rectangle_4017" data-name="Rectangle 4017" width="12.138" height="48.802" transform="translate(53.221)" fill="#e7c7ff"/>
            <rect id="Rectangle_4018" data-name="Rectangle 4018" width="12.138" height="48.802" transform="translate(70.961)" fill="#e7c7ff"/>
            <rect id="Rectangle_4019" data-name="Rectangle 4019" width="12.138" height="48.802" transform="translate(88.701)" fill="#fff"/>
            <rect id="Rectangle_4020" data-name="Rectangle 4020" width="12.138" height="48.802" transform="translate(106.441)" fill="#fff"/>
            <rect id="Rectangle_4021" data-name="Rectangle 4021" width="12.138" height="48.802" transform="translate(124.182)" fill="#fff"/>
            <rect id="Rectangle_4022" data-name="Rectangle 4022" width="12.138" height="48.802" transform="translate(141.922)" fill="#e7c7ff"/>
          </g>
        </g>
        <g id="Group_47743" data-name="Group 47743" transform="translate(56.16 90.381)">
          <rect id="Rectangle_4023" data-name="Rectangle 4023" width="303.778" height="83.415" fill="#915aa3"/>
          <rect id="Rectangle_4024" data-name="Rectangle 4024" width="291.328" height="70.965" rx="15.211" transform="translate(6.225 6.225)" fill="#fff1d5"/>
          <g id="Group_47741" data-name="Group 47741" transform="translate(30.238 31.24)">
            <circle id="Ellipse_4795" data-name="Ellipse 4795" cx="7.402" cy="7.402" r="7.402" transform="translate(0 10.468) rotate(-45)" fill="#fff"/>
            <circle id="Ellipse_4796" data-name="Ellipse 4796" cx="7.402" cy="7.402" r="7.402" transform="translate(23.655 10.468) rotate(-45)" fill="#fff"/>
            <circle id="Ellipse_4797" data-name="Ellipse 4797" cx="7.402" cy="7.402" r="7.402" transform="translate(48.873 15.971) rotate(-76.718)" fill="#e7c7ff"/>
          </g>
          <g id="Group_47742" data-name="Group 47742" transform="translate(116.61 17.306)">
            <rect id="Rectangle_4025" data-name="Rectangle 4025" width="12.138" height="48.802" fill="#fff"/>
            <rect id="Rectangle_4026" data-name="Rectangle 4026" width="12.138" height="48.802" transform="translate(17.74)" fill="#fff"/>
            <rect id="Rectangle_4027" data-name="Rectangle 4027" width="12.138" height="48.802" transform="translate(35.48)" fill="#fff"/>
            <rect id="Rectangle_4028" data-name="Rectangle 4028" width="12.138" height="48.802" transform="translate(53.221)" fill="#e7c7ff"/>
            <rect id="Rectangle_4029" data-name="Rectangle 4029" width="12.138" height="48.802" transform="translate(70.961)" fill="#fff"/>
            <rect id="Rectangle_4030" data-name="Rectangle 4030" width="12.138" height="48.802" transform="translate(88.701)" fill="#fff"/>
            <rect id="Rectangle_4031" data-name="Rectangle 4031" width="12.138" height="48.802" transform="translate(106.441)" fill="#e7c7ff"/>
            <rect id="Rectangle_4032" data-name="Rectangle 4032" width="12.138" height="48.802" transform="translate(124.182)" fill="#fff"/>
            <rect id="Rectangle_4033" data-name="Rectangle 4033" width="12.138" height="48.802" transform="translate(141.922)" fill="#fff"/>
          </g>
        </g>
        <g id="Group_47746" data-name="Group 47746" transform="translate(56.16 180.763)">
          <rect id="Rectangle_4034" data-name="Rectangle 4034" width="303.778" height="83.414" fill="#915aa3"/>
          <rect id="Rectangle_4035" data-name="Rectangle 4035" width="291.328" height="70.965" rx="15.211" transform="translate(6.225 6.225)" fill="#fff1d5"/>
          <g id="Group_47744" data-name="Group 47744" transform="translate(33.303 34.305)">
            <circle id="Ellipse_4798" data-name="Ellipse 4798" cx="7.402" cy="7.402" r="7.402" fill="#fff"/>
            <circle id="Ellipse_4799" data-name="Ellipse 4799" cx="7.402" cy="7.402" r="7.402" transform="translate(23.655)" fill="#ecba53"/>
            <circle id="Ellipse_4800" data-name="Ellipse 4800" cx="7.402" cy="7.402" r="7.402" transform="translate(47.31)" fill="#e7c7ff"/>
          </g>
          <g id="Group_47745" data-name="Group 47745" transform="translate(116.61 17.306)">
            <rect id="Rectangle_4036" data-name="Rectangle 4036" width="12.138" height="48.802" fill="#fff"/>
            <rect id="Rectangle_4037" data-name="Rectangle 4037" width="12.138" height="48.802" transform="translate(17.74)" fill="#fff"/>
            <rect id="Rectangle_4038" data-name="Rectangle 4038" width="12.138" height="48.802" transform="translate(35.48)" fill="#e7c7ff"/>
            <rect id="Rectangle_4039" data-name="Rectangle 4039" width="12.138" height="48.802" transform="translate(53.221)" fill="#fff"/>
            <rect id="Rectangle_4040" data-name="Rectangle 4040" width="12.138" height="48.802" transform="translate(70.961)" fill="#fff"/>
            <rect id="Rectangle_4041" data-name="Rectangle 4041" width="12.138" height="48.802" transform="translate(88.701)" fill="#fff"/>
            <rect id="Rectangle_4042" data-name="Rectangle 4042" width="12.138" height="48.802" transform="translate(106.441)" fill="#e7c7ff"/>
            <rect id="Rectangle_4043" data-name="Rectangle 4043" width="12.138" height="48.802" transform="translate(124.182)" fill="#fff"/>
            <rect id="Rectangle_4044" data-name="Rectangle 4044" width="12.138" height="48.802" transform="translate(141.922)" fill="#fff"/>
          </g>
        </g>
        <g id="Group_47749" data-name="Group 47749" transform="translate(56.16 271.144)">
          <rect id="Rectangle_4045" data-name="Rectangle 4045" width="303.778" height="83.414" fill="#915aa3"/>
          <rect id="Rectangle_4046" data-name="Rectangle 4046" width="291.328" height="70.965" rx="15.211" transform="translate(6.225 6.225)" fill="#fff1d5"/>
          <g id="Group_47747" data-name="Group 47747" transform="translate(31.801 31.24)">
            <circle id="Ellipse_4801" data-name="Ellipse 4801" cx="7.402" cy="7.402" r="7.402" transform="translate(0 15.971) rotate(-76.717)" fill="#e7c7ff"/>
            <circle id="Ellipse_4802" data-name="Ellipse 4802" cx="7.402" cy="7.402" r="7.402" transform="translate(23.655 15.971) rotate(-76.717)" fill="#e7c7ff"/>
            <circle id="Ellipse_4803" data-name="Ellipse 4803" cx="7.402" cy="7.402" r="7.402" transform="translate(45.746 10.468) rotate(-45)" fill="#ecba53"/>
          </g>
          <g id="Group_47748" data-name="Group 47748" transform="translate(116.61 17.306)">
            <rect id="Rectangle_4047" data-name="Rectangle 4047" width="12.138" height="48.802" fill="#fff"/>
            <rect id="Rectangle_4048" data-name="Rectangle 4048" width="12.138" height="48.802" transform="translate(17.74)" fill="#fff"/>
            <rect id="Rectangle_4049" data-name="Rectangle 4049" width="12.138" height="48.802" transform="translate(35.48)" fill="#fff"/>
            <rect id="Rectangle_4050" data-name="Rectangle 4050" width="12.138" height="48.802" transform="translate(53.221)" fill="#e7c7ff"/>
            <rect id="Rectangle_4051" data-name="Rectangle 4051" width="12.138" height="48.802" transform="translate(70.961)" fill="#fff"/>
            <rect id="Rectangle_4052" data-name="Rectangle 4052" width="12.138" height="48.802" transform="translate(88.701)" fill="#fff"/>
            <rect id="Rectangle_4053" data-name="Rectangle 4053" width="12.138" height="48.802" transform="translate(106.441)" fill="#fff"/>
            <rect id="Rectangle_4054" data-name="Rectangle 4054" width="12.138" height="48.802" transform="translate(124.182)" fill="#fff"/>
            <rect id="Rectangle_4055" data-name="Rectangle 4055" width="12.138" height="48.802" transform="translate(141.922)" fill="#fff"/>
          </g>
        </g>
        <g id="Group_47752" data-name="Group 47752" transform="translate(56.53 361.509)">
          <rect id="Rectangle_4056" data-name="Rectangle 4056" width="303.778" height="83.414" fill="#915aa3"/>
          <rect id="Rectangle_4057" data-name="Rectangle 4057" width="291.328" height="70.965" rx="15.211" transform="translate(6.225 6.225)" fill="#fff1d5"/>
          <g id="Group_47750" data-name="Group 47750" transform="translate(33.303 34.305)">
            <circle id="Ellipse_4804" data-name="Ellipse 4804" cx="7.402" cy="7.402" r="7.402" transform="translate(0 0)" fill="#e7c7ff"/>
            <circle id="Ellipse_4805" data-name="Ellipse 4805" cx="7.402" cy="7.402" r="7.402" transform="translate(23.655)" fill="#ecba53"/>
            <circle id="Ellipse_4806" data-name="Ellipse 4806" cx="7.402" cy="7.402" r="7.402" transform="translate(47.31)" fill="#e7c7ff"/>
          </g>
          <g id="Group_47751" data-name="Group 47751" transform="translate(116.61 17.306)">
            <rect id="Rectangle_4058" data-name="Rectangle 4058" width="12.138" height="48.802" fill="#fff"/>
            <rect id="Rectangle_4059" data-name="Rectangle 4059" width="12.138" height="48.802" transform="translate(17.74)" fill="#fff"/>
            <rect id="Rectangle_4060" data-name="Rectangle 4060" width="12.138" height="48.802" transform="translate(35.481)" fill="#fff"/>
            <rect id="Rectangle_4061" data-name="Rectangle 4061" width="12.138" height="48.802" transform="translate(53.221)" fill="#e7c7ff"/>
            <rect id="Rectangle_4062" data-name="Rectangle 4062" width="12.138" height="48.802" transform="translate(70.961)" fill="#fff"/>
            <rect id="Rectangle_4063" data-name="Rectangle 4063" width="12.138" height="48.802" transform="translate(88.701)" fill="#fff"/>
            <rect id="Rectangle_4064" data-name="Rectangle 4064" width="12.138" height="48.802" transform="translate(106.442)" fill="#e7c7ff"/>
            <rect id="Rectangle_4065" data-name="Rectangle 4065" width="12.138" height="48.802" transform="translate(124.182)" fill="#e7c7ff"/>
            <rect id="Rectangle_4066" data-name="Rectangle 4066" width="12.138" height="48.802" transform="translate(141.922)" fill="#fff"/>
          </g>
        </g>
        <g id="Group_47755" data-name="Group 47755" transform="translate(56.53 451.89)">
          <rect id="Rectangle_4067" data-name="Rectangle 4067" width="303.778" height="83.414" fill="#915aa3"/>
          <rect id="Rectangle_4068" data-name="Rectangle 4068" width="291.328" height="70.965" rx="15.211" transform="translate(6.225 6.225)" fill="#fff1d5"/>
          <g id="Group_47753" data-name="Group 47753" transform="translate(30.238 31.24)">
            <circle id="Ellipse_4807" data-name="Ellipse 4807" cx="7.402" cy="7.402" r="7.402" transform="translate(0 10.468) rotate(-45)" fill="#e7c7ff"/>
            <circle id="Ellipse_4808" data-name="Ellipse 4808" cx="7.402" cy="7.402" r="7.402" transform="translate(25.631 16.588) rotate(-80.783)" fill="#ecba53"/>
            <circle id="Ellipse_4809" data-name="Ellipse 4809" cx="7.402" cy="7.402" r="7.402" transform="translate(48.873 15.971) rotate(-76.717)" fill="#e7c7ff"/>
          </g>
          <g id="Group_47754" data-name="Group 47754" transform="translate(116.61 17.306)">
            <rect id="Rectangle_4069" data-name="Rectangle 4069" width="12.138" height="48.802" fill="#fff"/>
            <rect id="Rectangle_4070" data-name="Rectangle 4070" width="12.138" height="48.802" transform="translate(17.74)" fill="#e7c7ff"/>
            <rect id="Rectangle_4071" data-name="Rectangle 4071" width="12.138" height="48.802" transform="translate(35.481)" fill="#e7c7ff"/>
            <rect id="Rectangle_4072" data-name="Rectangle 4072" width="12.138" height="48.802" transform="translate(53.221)" fill="#e7c7ff"/>
            <rect id="Rectangle_4073" data-name="Rectangle 4073" width="12.138" height="48.802" transform="translate(70.961)" fill="#fff"/>
            <rect id="Rectangle_4074" data-name="Rectangle 4074" width="12.138" height="48.802" transform="translate(88.701)" fill="#fff"/>
            <rect id="Rectangle_4075" data-name="Rectangle 4075" width="12.138" height="48.802" transform="translate(106.442)" fill="#e7c7ff"/>
            <rect id="Rectangle_4076" data-name="Rectangle 4076" width="12.138" height="48.802" transform="translate(124.182)" fill="#fff"/>
            <rect id="Rectangle_4077" data-name="Rectangle 4077" width="12.138" height="48.802" transform="translate(141.922)" fill="#e7c7ff"/>
          </g>
        </g>
      </g>
      <g id="Group_47767" data-name="Group 47767" transform="translate(6268.049 5290.271)">
        <g id="Group_47763" data-name="Group 47763" transform="translate(0 142.916)">
          <g id="Group_47762" data-name="Group 47762" transform="translate(5.023)">
            <g id="Group_47761" data-name="Group 47761">
              <path id="Path_102349" data-name="Path 102349" d="M1370.234,546.551a1.209,1.209,0,0,1-.224-.021,1.178,1.178,0,0,1-.934-1.378,256.586,256.586,0,0,1,51.054-111.044,1.177,1.177,0,0,1,1.841,1.469A254.224,254.224,0,0,0,1371.389,545.6,1.178,1.178,0,0,1,1370.234,546.551Z" transform="translate(-1365.704 -397.818)" fill="#1d1320"/>
              <path id="Path_102350" data-name="Path 102350" d="M1437.232,398.271a1.177,1.177,0,0,1-.863-1.976c2.5-2.7,5.092-5.388,7.694-7.978a1.177,1.177,0,1,1,1.66,1.669c-2.58,2.567-5.146,5.227-7.628,7.907A1.175,1.175,0,0,1,1437.232,398.271Z" transform="translate(-1380.137 -387.975)" fill="#1d1320"/>
              <path id="Path_102351" data-name="Path 102351" d="M1365.961,493.428a1.178,1.178,0,0,1-1.111-1.568c1.144-3.258,2.365-6.532,3.628-9.734a266.819,266.819,0,0,1,52.538-83.651,1.177,1.177,0,0,1,1.728,1.6,264.466,264.466,0,0,0-52.076,82.917c-1.253,3.174-2.463,6.419-3.6,9.65A1.177,1.177,0,0,1,1365.961,493.428Z" transform="translate(-1364.783 -390.156)" fill="#1d1320"/>
            </g>
          </g>
          <path id="Path_102352" data-name="Path 102352" d="M1362.731,593.7l-4.35-13.915,17.236,3.852Zm-.888-10.729,2.12,6.78,6.278-4.9Z" transform="translate(-1358.381 -429.295)" fill="#1d1320"/>
        </g>
        <g id="Group_47764" data-name="Group 47764" transform="translate(421.934)">
          <path id="Path_102353" data-name="Path 102353" d="M2003.448,246.278a1.173,1.173,0,0,1-.5-.11c-25.085-11.657-63.762-25.233-105.568-23.748a1.177,1.177,0,0,1-.085-2.352c42.28-1.5,81.329,12.2,106.645,23.966a1.177,1.177,0,0,1-.5,2.244Z" transform="translate(-1896.165 -208.864)" fill="#1d1320"/>
          <path id="Path_102354" data-name="Path 102354" d="M1990.417,226.123a1.171,1.171,0,0,1-.518-.12c-.392-.192-39.568-19.239-75.541-17.75a1.161,1.161,0,0,1-1.224-1.128,1.177,1.177,0,0,1,1.127-1.224c36.588-1.488,76.278,17.793,76.675,17.99a1.177,1.177,0,0,1-.52,2.233Z" transform="translate(-1899.821 -205.819)" fill="#1d1320"/>
        </g>
        <g id="Group_47765" data-name="Group 47765" transform="translate(543.651 207.98)">
          <path id="Path_102355" data-name="Path 102355" d="M2069.162,477.13a1.177,1.177,0,0,1-.851-1.99l3.7-3.872a1.177,1.177,0,0,1,1.7,1.627l-3.7,3.872A1.175,1.175,0,0,1,2069.162,477.13Z" transform="translate(-2054.897 -470.904)" fill="#1d1320"/>
          <path id="Path_102356" data-name="Path 102356" d="M2052.64,494.4a1.177,1.177,0,0,1-.85-1.99l3.7-3.87a1.177,1.177,0,1,1,1.7,1.627l-3.7,3.871A1.178,1.178,0,0,1,2052.64,494.4Z" transform="translate(-2051.337 -474.624)" fill="#1d1320"/>
          <path id="Path_102357" data-name="Path 102357" d="M2056.24,477.44a1.174,1.174,0,0,1-.826-.339l-3.76-3.706a1.177,1.177,0,1,1,1.652-1.676l3.76,3.7a1.177,1.177,0,0,1-.825,2.016Z" transform="translate(-2051.303 -471.007)" fill="#1d1320"/>
          <path id="Path_102358" data-name="Path 102358" d="M2073.011,493.968a1.171,1.171,0,0,1-.825-.339l-3.76-3.706a1.177,1.177,0,0,1,1.652-1.676l3.76,3.706a1.176,1.176,0,0,1-.826,2.015Z" transform="translate(-2054.916 -474.567)" fill="#1d1320"/>
        </g>
        <g id="Group_47766" data-name="Group 47766" transform="translate(304.067 610.365)">
          <path id="Path_102359" data-name="Path 102359" d="M1763.8,990a1.177,1.177,0,0,1-.85-1.99l3.7-3.872a1.177,1.177,0,0,1,1.7,1.628l-3.7,3.871A1.173,1.173,0,0,1,1763.8,990Z" transform="translate(-1749.53 -983.771)" fill="#1d1320"/>
          <path id="Path_102360" data-name="Path 102360" d="M1747.273,1007.267a1.176,1.176,0,0,1-.85-1.99l3.7-3.871a1.177,1.177,0,1,1,1.7,1.627l-3.7,3.871A1.177,1.177,0,0,1,1747.273,1007.267Z" transform="translate(-1745.971 -987.492)" fill="#1d1320"/>
          <path id="Path_102361" data-name="Path 102361" d="M1750.873,990.308a1.174,1.174,0,0,1-.826-.339l-3.76-3.706a1.177,1.177,0,1,1,1.652-1.676l3.759,3.7a1.177,1.177,0,0,1-.825,2.016Z" transform="translate(-1745.936 -983.874)" fill="#1d1320"/>
          <path id="Path_102362" data-name="Path 102362" d="M1767.645,1006.836a1.174,1.174,0,0,1-.826-.339l-3.76-3.7a1.177,1.177,0,0,1,1.652-1.677l3.76,3.706a1.177,1.177,0,0,1-.826,2.015Z" transform="translate(-1749.549 -987.435)" fill="#1d1320"/>
        </g>
        <path id="Path_102363" data-name="Path 102363" d="M2086.671,456.234a7.9,7.9,0,1,1,2.05-.271A7.938,7.938,0,0,1,2086.671,456.234Zm.019-13.405a5.524,5.524,0,1,0,2.756.74A5.527,5.527,0,0,0,2086.69,442.829Z" transform="translate(-1513.576 -256.369)" fill="#1d1320"/>
        <path id="Path_102364" data-name="Path 102364" d="M1717.1,1001.323a7.9,7.9,0,1,1,2.05-.271A7.934,7.934,0,0,1,1717.1,1001.323Zm.019-13.405a5.525,5.525,0,1,0,2.755.74A5.527,5.527,0,0,0,1717.117,987.918Z" transform="translate(-1433.962 -373.793)" fill="#1d1320"/>
      </g>
    </g>
  </g>
</svg>
