<svg xmlns="http://www.w3.org/2000/svg" xmlns:xlink="http://www.w3.org/1999/xlink" width="572" height="572" viewBox="0 0 572 572">
  <defs>
    <linearGradient id="linear-gradient" x1="0.5" y1="1" x2="0.5" gradientUnits="objectBoundingBox">
      <stop offset="0" stop-color="#915aa3"/>
      <stop offset="1" stop-color="#b93974"/>
    </linearGradient>
    <filter id="Path_102908" x="0" y="0" width="572" height="572" filterUnits="userSpaceOnUse">
      <feOffset dx="10" dy="10" input="SourceAlpha"/>
      <feGaussianBlur stdDeviation="10" result="blur"/>
      <feFlood flood-color="#915aa3" flood-opacity="0.102"/>
      <feComposite operator="in" in2="blur"/>
      <feComposite in="SourceGraphic"/>
    </filter>
    <linearGradient id="linear-gradient-2" x1="0.5" y1="1.633" x2="0.5" y2="0.654" gradientUnits="objectBoundingBox">
      <stop offset="0" stop-color="#dd83fa"/>
      <stop offset="1" stop-color="#f5e5fa"/>
    </linearGradient>
  </defs>
  <g id="Social_Group_2_" transform="translate(20 20)">
    <g id="Group_48140" data-name="Group 48140">
      <g id="Group_48139" data-name="Group 48139">
        <g transform="matrix(1, 0, 0, 1, -20, -20)" filter="url(#Path_102908)">
          <path id="Path_102908-2" data-name="Path 102908" d="M316,60a60,60,0,1,0-60,60A60.069,60.069,0,0,0,316,60ZM166,240H346a14.991,14.991,0,0,0,15-15V182.388C361,136.333,304.428,120,256,120s-105,16.333-105,62.388V225A14.991,14.991,0,0,0,166,240Zm-1,92a60,60,0,1,0-60,60A60.069,60.069,0,0,0,165,332Zm-60,60C56.572,392,0,408.333,0,454.388V497a14.991,14.991,0,0,0,15,15H195a14.991,14.991,0,0,0,15-15V454.388C210,408.333,153.428,392,105,392Zm362-60a60,60,0,1,0-60,60A60.069,60.069,0,0,0,467,332Zm-60,60c-48.428,0-105,16.333-105,62.388V497a14.991,14.991,0,0,0,15,15H497a14.991,14.991,0,0,0,15-15V454.388C512,408.333,455.428,392,407,392Z" transform="translate(20 20)" fill="url(#linear-gradient)"/>
        </g>
      </g>
    </g>
    <g id="Group_48142" data-name="Group 48142">
      <g id="Group_48141" data-name="Group 48141">
        <path id="Path_102909" data-name="Path 102909" d="M309.32,348.52,271,322.973V286a15,15,0,0,0-30,0v36.973L202.68,348.52a15,15,0,0,0,16.641,24.961L256,349.027l36.68,24.454a15,15,0,1,0,16.64-24.961Z" fill="url(#linear-gradient-2)"/>
      </g>
    </g>
  </g>
</svg>
