<svg id="space-robot" xmlns="http://www.w3.org/2000/svg" xmlns:xlink="http://www.w3.org/1999/xlink" width="67.426" height="67.427" viewBox="0 0 67.426 67.427">
  <defs>
    <linearGradient id="linear-gradient" x1="0.5" y1="1.633" x2="0.5" y2="0.654" gradientUnits="objectBoundingBox">
      <stop offset="0" stop-color="#dd83fa"/>
      <stop offset="1" stop-color="#f5e5fa"/>
    </linearGradient>
    <linearGradient id="linear-gradient-2" x1="0.5" y1="1" x2="0.5" gradientUnits="objectBoundingBox">
      <stop offset="0" stop-color="#915aa3"/>
      <stop offset="1" stop-color="#b93974"/>
    </linearGradient>
  </defs>
  <g id="Group_47472" data-name="Group 47472" transform="translate(3.951 0)">
    <g id="Group_47471" data-name="Group 47471">
      <path id="Path_101855" data-name="Path 101855" d="M45.757,51.624l-7.743,3.951v3.951l7.9,3.951,11.852-5.908-3.951-1.993Zm15.961,6L73.65,63.477l7.823-3.951V55.575l-8.1-3.951ZM73.571,33.582l-5.926-5.926h-15.8l-5.926,5.926,3.951,9.877h7.9l1.945,4.214,2.006-4.214h7.9ZM43.564,29.615a1.974,1.974,0,0,0-1.975-1.975H31.975A1.974,1.974,0,0,0,30,29.615v7.9a1.975,1.975,0,1,0,3.951,0V31.59h7.638a1.974,1.974,0,0,0,1.975-1.975ZM87.55,27.639H77.936a1.975,1.975,0,0,0,0,3.951h7.638v5.926a1.975,1.975,0,1,0,3.951,0v-7.9a1.974,1.974,0,0,0-1.975-1.975ZM43.94,23.706H75.546a1.974,1.974,0,0,0,1.975-1.975V17.78a17.778,17.778,0,1,0-35.557,0V21.73A1.974,1.974,0,0,0,43.94,23.706Z" transform="translate(-30 -0.001)" fill="url(#linear-gradient)"/>
    </g>
  </g>
  <g id="Group_47474" data-name="Group 47474" transform="translate(0 11.835)">
    <g id="Group_47473" data-name="Group 47473">
      <path id="Path_101856" data-name="Path 101856" d="M35.669,121.492H31.719v12.116H27.768v3.951H39.62v-3.951H35.669Zm-19.714-1.58a1.987,1.987,0,0,0,1.936,1.58h5.926v-9.877a1.956,1.956,0,0,1,1.975-1.975H41.6a1.956,1.956,0,0,1,1.975,1.975v9.877H49.5a1.987,1.987,0,0,0,1.936-1.58l3.951-19.754a2.077,2.077,0,0,0-.4-1.659,2.1,2.1,0,0,0-1.541-.711H13.94A2.1,2.1,0,0,0,12.4,98.5,2.076,2.076,0,0,0,12,100.158ZM5.926,113.574A5.933,5.933,0,0,0,0,119.5a1.975,1.975,0,1,0,3.951,0,1.975,1.975,0,1,1,3.951,0,1.975,1.975,0,1,0,3.951,0A5.933,5.933,0,0,0,5.926,113.574Zm55.574,0a5.933,5.933,0,0,0-5.926,5.926,1.975,1.975,0,1,0,3.951,0,1.975,1.975,0,1,1,3.951,0,1.975,1.975,0,1,0,3.951,0A5.933,5.933,0,0,0,61.5,113.574ZM29.762,93.82h7.9a1.975,1.975,0,0,0,0-3.951h-7.9a1.975,1.975,0,0,0,0,3.951Zm-17.8,49.665a2.007,2.007,0,0,0,1.975,1.975H25.792a1.981,1.981,0,0,0,1.975-1.975v-5.926h-15.8Zm13.828-17.779H13.94a1.981,1.981,0,0,0-1.975,1.975v5.926h15.8v-5.926A1.956,1.956,0,0,0,25.792,125.707Zm27.655,0H41.6a1.981,1.981,0,0,0-1.975,1.975v5.926h15.8v-5.926A1.956,1.956,0,0,0,53.448,125.707ZM41.6,145.46H53.448a1.981,1.981,0,0,0,1.975-1.975v-5.926H39.62v5.926A2.007,2.007,0,0,0,41.6,145.46Z" transform="translate(0 -89.869)" fill="url(#linear-gradient-2)"/>
    </g>
  </g>
</svg>
