<svg id="wifi" xmlns="http://www.w3.org/2000/svg" xmlns:xlink="http://www.w3.org/1999/xlink" width="51.579" height="80.026" viewBox="0 0 51.579 80.026">
  <defs>
    <linearGradient id="linear-gradient" x1="0.5" y1="1" x2="0.5" gradientUnits="objectBoundingBox">
      <stop offset="0" stop-color="#915aa3"/>
      <stop offset="1" stop-color="#b93974"/>
    </linearGradient>
    <linearGradient id="linear-gradient-2" x1="0.5" y1="1.633" x2="0.5" y2="0.654" gradientUnits="objectBoundingBox">
      <stop offset="0" stop-color="#dd83fa"/>
      <stop offset="1" stop-color="#f5e5fa"/>
    </linearGradient>
  </defs>
  <g id="Group_47966" data-name="Group 47966" transform="translate(0)">
    <g id="Group_47965" data-name="Group 47965">
      <path id="Path_102758" data-name="Path 102758" d="M135.546,0H98.034A7.041,7.041,0,0,0,91,7.034V72.992a7.041,7.041,0,0,0,7.034,7.034h37.512a7.041,7.041,0,0,0,7.034-7.034V7.034A7.041,7.041,0,0,0,135.546,0Z" transform="translate(-91 0)" fill="url(#linear-gradient)"/>
    </g>
  </g>
  <g id="Group_47968" data-name="Group 47968" transform="translate(10.184 9.378)">
    <g id="Group_47967" data-name="Group 47967">
      <path id="Path_102759" data-name="Path 102759" d="M171.762,97.668a2.345,2.345,0,1,0,2.345,2.344A2.344,2.344,0,0,0,171.762,97.668Zm14.919-12.577a21.1,21.1,0,0,0-29.837,0,2.344,2.344,0,0,0,3.315,3.315,16.8,16.8,0,0,1,23.207,0,2.344,2.344,0,1,0,3.315-3.315Zm-23.207,6.635a2.344,2.344,0,1,0,3.315,3.315,7.2,7.2,0,0,1,9.946,0,2.344,2.344,0,1,0,3.315-3.315A11.994,11.994,0,0,0,163.474,91.727Zm8.288,24.854a2.345,2.345,0,1,0,2.345,2.345A2.344,2.344,0,0,0,171.762,116.581Zm-2.345-51.892h4.689a2.345,2.345,0,0,0,0-4.689h-4.689a2.345,2.345,0,0,0,0,4.689Z" transform="translate(-156.157 -60)" fill="url(#linear-gradient-2)"/>
    </g>
  </g>
</svg>
