<svg xmlns="http://www.w3.org/2000/svg" width="654.567" height="686.4" viewBox="0 0 654.567 686.4">
  <g id="Franchising" transform="translate(-2428 -186.228)">
    <path id="Path_102584" data-name="Path 102584" d="M2808.911,241.427c-151.792-26.289-267.416,72-275.988,79.527-13.586,11.933-109.222,98.773-104.772,234.965,3.92,120.018,84.055,232.195,197.461,274.879,176.914,66.587,418.559-42.054,452.9-235.115C3108.041,429.663,2972.091,269.687,2808.911,241.427Z" transform="translate(0 -10.725)" fill="#e7c7ff"/>
    <g id="Group_47920" data-name="Group 47920" transform="translate(2492.098 186.228)">
      <path id="Path_102585" data-name="Path 102585" d="M2557.36,585.217s-30.418-76.447-12.5-92.579c.938-.845,13.044-2.081,25.442,9.262,11.7,10.709,23.763,34.012,23.763,34.012l3.976,52.774Z" transform="translate(-2515.604 -250.883)" fill="#1d1320"/>
      <g id="Group_47911" data-name="Group 47911" transform="translate(424.229 46.575)">
        <g id="Group_47908" data-name="Group 47908">
          <g id="Group_47907" data-name="Group 47907">
            <g id="Group_47906" data-name="Group 47906">
              <circle id="Ellipse_4822" data-name="Ellipse 4822" cx="55.444" cy="55.444" r="55.444" transform="translate(0 109.457) rotate(-80.783)" fill="#1d1320"/>
            </g>
          </g>
        </g>
        <g id="Group_47909" data-name="Group 47909" transform="translate(7.928 3.911)">
          <circle id="Ellipse_4823" data-name="Ellipse 4823" cx="53.798" cy="53.798" r="53.798" transform="translate(0 107.23) rotate(-85.269)" fill="#fff1d5"/>
          <path id="Path_102586" data-name="Path 102586" d="M3116.132,364.1a54.981,54.981,0,1,1,54.982-54.981A55.043,55.043,0,0,1,3116.132,364.1Zm0-107.6a52.615,52.615,0,1,0,52.616,52.615A52.674,52.674,0,0,0,3116.132,256.506Z" transform="translate(-3058.08 -251.068)" fill="#1d1320"/>
        </g>
        <circle id="Ellipse_4824" data-name="Ellipse 4824" cx="45.148" cy="45.148" r="45.148" transform="translate(6.992 37.53) rotate(-22.5)" fill="#fff"/>
        <path id="Path_102587" data-name="Path 102587" d="M3178.68,352.6a1.183,1.183,0,0,1-.993-1.824,43.719,43.719,0,0,0,5.219-11.383,1.183,1.183,0,0,1,2.271.667,46.118,46.118,0,0,1-5.5,12A1.181,1.181,0,0,1,3178.68,352.6Z" transform="translate(-3074.744 -264.997)" fill="#1d1320"/>
        <path id="Path_102588" data-name="Path 102588" d="M3161.425,292.929a1.184,1.184,0,0,1-1.065-.666,43.683,43.683,0,0,0-39.574-24.789,44.155,44.155,0,0,0-35.479,18,1.183,1.183,0,0,1-1.908-1.4,46.344,46.344,0,0,1,79.09,7.158,1.184,1.184,0,0,1-1.064,1.7Z" transform="translate(-3054.807 -249.475)" fill="#1d1320"/>
        <path id="Path_102589" data-name="Path 102589" d="M3118.451,363.955a46.345,46.345,0,0,1-40.428-68.976,1.183,1.183,0,1,1,2.063,1.158,43.979,43.979,0,0,0,38.365,65.452,1.183,1.183,0,0,1,0,2.366Z" transform="translate(-3052.471 -255.661)" fill="#1d1320"/>
        <g id="man-user" transform="translate(5.814 38.94)">
          <path id="Path_102760" data-name="Path 102760" d="M114.4,23.966c5.448,0,9.866-5.365,9.866-11.983S122.816,0,114.4,0s-9.866,5.365-9.866,11.983S108.952,23.966,114.4,23.966Z" transform="translate(-53.869)" fill="#ecba53"/>
          <path id="Path_102761" data-name="Path 102761" d="M41.9,300.579c0-.4,0-.114,0,0Z" transform="translate(0 -258.316)" fill="#ecba53"/>
          <path id="Path_102762" data-name="Path 102762" d="M308.085,301.853c.005-.11,0-.766,0,0Z" transform="translate(-228.92 -259.274)" fill="#ecba53"/>
          <path id="Path_102763" data-name="Path 102763" d="M79.155,194.634c-.183-11.529-1.688-14.814-13.21-16.894,0,0-1.622,2.067-5.4,2.067s-5.4-2.067-5.4-2.067c-11.4,2.057-12.994,5.293-13.2,16.519-.017.917-.025.965-.028.858,0,.2,0,.568,0,1.211,0,0,2.743,5.53,18.633,5.53s18.633-5.53,18.633-5.53c0-.413,0-.7,0-.9A7.426,7.426,0,0,1,79.155,194.634Z" transform="translate(-0.011 -152.854)" fill="#ecba53"/>
        </g>
      </g>
      <path id="Path_102591" data-name="Path 102591" d="M2599.784,919.671c6.91-43.421,19.03-75.8,29.472-98.171,0,0,3.369-7.217,33.115-64.168l170.493-33.37s58.906,118.152,70.426,221.028a578.713,578.713,0,0,1-80.565,8.983C2731.021,957.718,2654.2,938.906,2599.784,919.671Z" transform="translate(-2528.407 -299.887)" fill="#1d1320"/>
      <g id="Group_47912" data-name="Group 47912" transform="translate(265.594 150.85)">
        <path id="Path_102592" data-name="Path 102592" d="M2853.887,422.55s11.853,2.554,21.173,16.944c18.594,28.711,47.331,80.929,93.309,88.731,69.024,11.712,110.842-72.267,104.909-91.079,0,0-9.91-13.169-26.2-17.139,0,0-.171-13.124,13.987-6.908s19.828,2.42,26.157.935c11.128-2.61,34.772-29.34,43.582-32.739s6.057,3.947,6.057,3.947,8.633-9.714,14.577-4.845l-12.681,16.758s10.258-13.555,16.2-6.744l-26.534,31.048,19.445-15.268s2.7,2.98-2.377,8.266-25.758,34.112-45.554,34.112c0,0,10.662,159.032-108.418,165.49-102.307,5.549-143.968-76.983-143.968-76.983Z" transform="translate(-2846.371 -377.83)" fill="#fff"/>
        <path id="Path_102593" data-name="Path 102593" d="M2981.563,615.183c-48.014,0-81.464-19.762-101.478-36.959-23.115-19.863-33.8-40.728-33.9-40.937a1.18,1.18,0,0,1-.126-.6l6.332-114.526a1.184,1.184,0,0,1,1.431-1.091c.5.109,12.441,2.826,21.916,17.458,1.757,2.712,3.6,5.622,5.544,8.7,18.256,28.881,45.847,72.527,86.97,79.5,38.005,6.449,65.125-17.2,77.907-31.871,19.806-22.732,28.278-48.642,25.736-57.488-1.181-1.487-10.7-12.957-25.411-16.545a1.182,1.182,0,0,1-.9-1.133c0-.239-.03-5.873,3.94-8.5,2.8-1.853,6.735-1.686,11.706.5,11.405,5.005,16.889,3.356,22.194,1.763,1.047-.315,2.128-.64,3.218-.9,5.959-1.4,16.2-10.511,25.235-18.551,7.582-6.746,14.129-12.573,18.191-14.139,3.4-1.312,5.71-1.305,7.05.023a3.454,3.454,0,0,1,.953,1.926c3.229-2.759,9.089-6.524,13.807-2.657a1.183,1.183,0,0,1,.194,1.629l-5.533,7.311A9.544,9.544,0,0,1,3150.42,387a6.313,6.313,0,0,1,5.115,2.315,1.182,1.182,0,0,1,.009,1.547l-18.8,21.992,10.077-7.912a1.181,1.181,0,0,1,1.606.136c.14.155,3.381,3.867-2.4,9.881-.748.777-1.872,2.116-3.3,3.811-8.166,9.716-24.95,29.679-41.864,30.629a263.408,263.408,0,0,1-2.6,47.179c-3.619,24.886-12.616,59.839-34.931,85.035-18.151,20.494-42.4,31.7-72.064,33.31Q2986.322,615.185,2981.563,615.183Zm-133.126-78.689c1.331,2.5,11.909,21.67,33.266,40,21,18.02,57.016,38.906,109.439,36.062,29.01-1.573,52.7-12.512,70.416-32.51,21.919-24.744,30.783-59.205,34.359-83.757a254.831,254.831,0,0,0,2.527-47.962,1.184,1.184,0,0,1,1.181-1.263c16.229,0,33.161-20.142,41.3-29.821,1.453-1.729,2.6-3.095,3.4-3.929,2.523-2.624,2.875-4.482,2.744-5.56l-18.228,14.313a1.183,1.183,0,0,1-1.63-1.7l25.809-30.2a3.707,3.707,0,0,0-2.517-.808c-4.149.145-9.432,5.958-11.118,8.186a1.183,1.183,0,1,1-1.887-1.428h0l11.916-15.744c-4.986-2.43-11.913,5.25-11.986,5.333a1.183,1.183,0,0,1-1.991-1.2c.248-.674.6-2.353.01-2.933-.214-.21-1.17-.793-4.533.5-3.661,1.412-10.368,7.38-17.47,13.7-9.7,8.628-19.724,17.552-26.267,19.087-1.018.239-2.019.54-3.078.858-5.449,1.638-11.625,3.494-23.825-1.862-4.187-1.836-7.365-2.069-9.448-.69-2.117,1.4-2.678,4.184-2.828,5.611,15.938,4.281,25.5,16.792,25.909,17.332a1.21,1.21,0,0,1,.183.356c3.278,10.4-6.653,37.577-26.149,59.952-11.583,13.295-34.669,33.775-66.894,33.776a78.7,78.7,0,0,1-13.193-1.127c-42.164-7.155-70.093-51.337-88.574-80.574-1.944-3.074-3.779-5.979-5.529-8.68-7.1-10.97-15.791-14.875-19.082-16.022Z" transform="translate(-2846.054 -377.508)" fill="#1d1320"/>
      </g>
      <path id="Path_102594" data-name="Path 102594" d="M3185.873,410.45a1.183,1.183,0,0,1-.844-2.012l22.247-22.678a1.183,1.183,0,0,1,1.688,1.658L3186.718,410.1A1.178,1.178,0,0,1,3185.873,410.45Z" transform="translate(-2652.036 -228.327)" fill="#1d1320"/>
      <path id="Path_102595" data-name="Path 102595" d="M3197.356,418.231a1.182,1.182,0,0,1-.844-2.012l15.087-15.354a1.184,1.184,0,1,1,1.688,1.659L3198.2,417.878A1.181,1.181,0,0,1,3197.356,418.231Z" transform="translate(-2654.463 -231.52)" fill="#1d1320"/>
      <path id="Path_102596" data-name="Path 102596" d="M3147.033,450.251a1.184,1.184,0,0,1-1.078-1.67c.277-.614,6.91-15,17.759-12.787,9.6,1.968,16.385-.5,16.453-.525a1.183,1.183,0,0,1,.827,2.217c-.3.113-7.5,2.729-17.755.627-9-1.844-15.067,11.31-15.127,11.442A1.183,1.183,0,0,1,3147.033,450.251Z" transform="translate(-2643.827 -238.851)" fill="#1d1320"/>
      <path id="Path_102597" data-name="Path 102597" d="M2546.378,478.77S2755.9,420.041,2798.25,427.1l14.811,98.723,28.02,75.524a61.9,61.9,0,0,1-12.128,63.29c-17.462,19.1-46.492,39.287-91.967,41.335-88.288,3.977-131.236,25.736-135.917-13.279s-10.244-132.6-10.244-132.6C2576.711,522.86,2559.535,479.843,2546.378,478.77Z" transform="translate(-2517.119 -237.016)" fill="#915aa3"/>
      <g id="Group_47914" data-name="Group 47914">
        <path id="Path_102598" data-name="Path 102598" d="M2661.464,340.551c-8.648,9.235-19.908,11.483-25.349,12.565-11.374,2.26-60.234,7.218-94.916-28.16-33.96-34.641-39.966-93.3-22.09-106.153,12.834-9.225,34.675,7.546,54-6.749,8.557-6.331,6.246-11.078,15.341-17.795,15.318-11.314,35.832-8.157,51.542-5.522,28.683,4.81,28.115,12.7,53.383,17.794,35.986,7.258,55.7-5,63.2,6.136,5.973,8.871-.357,25.847-9.511,35.947-18.938,20.9-44.342,5.154-58.769,24.3-8.961,11.889-6.876,27.52-19.695,56.544A38.047,38.047,0,0,1,2661.464,340.551Z" transform="translate(-2509.277 -186.228)" fill="#1d1320"/>
        <g id="Group_47913" data-name="Group 47913" transform="translate(80.288 62.368)">
          <path id="Path_102599" data-name="Path 102599" d="M2696.212,388.328c-1.26-3.684-2.6-7.781-3.9-12.063,8.375,3,17.014,3.15,21.98.121,6.123-3.734,6.95-10.583,9.11-18.822.9-3.444,1.681-7.452,5.069-11.072a18.359,18.359,0,0,1,5.845-4.136,5.351,5.351,0,0,0,2.838-6.473l-.726-1.514a101.233,101.233,0,0,1-9.8-38.015l-1.49-26.045c-14.482-4.987-19.621-3.79-21.454-1.446-.675.864-1.7,1.459-1.468,5.468,1.132,19.348-16.362,18.161-31.092,15.273s-8.368,23.877-8.368,23.877-9.579-11.259-19.161-.654c-6.866,7.6,7.7,18.85,16.505,24.615l-3.178,56.229a38.78,38.78,0,0,1-23.7,33.567l-20.638,8.666s85.07,2.409,144.072-31.215h-37.583A24.165,24.165,0,0,1,2696.212,388.328Z" transform="translate(-2611.4 -265.634)" fill="#fff"/>
          <path id="Path_102600" data-name="Path 102600" d="M2615.535,436.793c-2.055,0-3.206-.028-3.3-.031a1.183,1.183,0,0,1-.424-2.273l20.638-8.666a37.825,37.825,0,0,0,22.981-32.543l3.14-55.548c-7.937-5.26-17.293-12.829-18.183-19.728a7.593,7.593,0,0,1,2.019-6.293c3.008-3.33,6.32-4.991,9.932-4.938a14.464,14.464,0,0,1,8.276,3.126c-.859-5.355-1.748-15.334,2.51-19.764,1.914-1.991,4.577-2.667,7.916-2.015,9.026,1.771,20.116,3.162,25.817-1.817,2.933-2.561,4.2-6.561,3.866-12.226-.216-3.695.583-4.946,1.5-6,.077-.088.152-.175.223-.265,2.852-3.648,10.088-3.311,22.771,1.057a1.183,1.183,0,0,1,.8,1.05l1.491,26.045a99.536,99.536,0,0,0,9.686,37.571l.726,1.515a1.22,1.22,0,0,1,.063.159,6.536,6.536,0,0,1-3.476,7.9,17.208,17.208,0,0,0-5.473,3.869c-2.875,3.073-3.724,6.4-4.544,9.613l-.245.95c-.3,1.153-.578,2.278-.846,3.371-1.671,6.813-3.114,12.7-8.792,16.16-4.809,2.934-12.627,3.169-20.8.708.99,3.189,2.068,6.49,3.213,9.841a22.989,22.989,0,0,0,21.742,15.559h37.583a1.182,1.182,0,0,1,.586,2.21C2704.874,435.057,2631.833,436.793,2615.535,436.793Zm36.638-127.656c-2.824,0-5.518,1.4-8.013,4.16a5.247,5.247,0,0,0-1.427,4.4c.621,4.817,6.908,11.361,17.7,18.428a1.183,1.183,0,0,1,.534,1.057l-3.178,56.229A40.207,40.207,0,0,1,2633.363,428l-15.264,6.41c19.593-.193,84.8-2.88,133.639-28.866h-32.982a25.352,25.352,0,0,1-23.98-17.159c-1.419-4.15-2.734-8.222-3.909-12.1a1.183,1.183,0,0,1,1.531-1.456c8.162,2.926,16.392,3.015,20.965.226,4.846-2.955,6.118-8.14,7.728-14.7.271-1.1.55-2.242.855-3.408l.241-.935c.853-3.341,1.819-7.129,5.107-10.644a19.567,19.567,0,0,1,6.218-4.405,4.164,4.164,0,0,0,2.224-4.967l-.688-1.433a101.939,101.939,0,0,1-9.915-38.459l-1.444-25.25c-13.465-4.539-17.979-3.38-19.387-1.58-.094.121-.194.237-.3.355-.541.626-1.1,1.274-.924,4.315.373,6.356-1.2,11.116-4.672,14.147-6.475,5.654-18.272,4.231-27.828,2.356-2.534-.5-4.415-.061-5.754,1.332-4.109,4.273-2.285,16.687-1.236,21.11a1.183,1.183,0,0,1-2.051,1.039c-.04-.045-4.1-4.716-9.255-4.785Z" transform="translate(-2611.083 -265.311)" fill="#1d1320"/>
        </g>
        <path id="Path_102601" data-name="Path 102601" d="M2707.053,399.252a1.177,1.177,0,0,1-.336-.049c-16.346-4.822-24.034-26.713-24.353-27.643a1.183,1.183,0,0,1,2.238-.768c.074.215,7.617,21.668,22.785,26.142a1.183,1.183,0,0,1-.334,2.318Z" transform="translate(-2545.848 -225.07)" fill="#1d1320"/>
      </g>
      <g id="Group_47918" data-name="Group 47918" transform="translate(307.423 220.842)">
        <path id="Path_102602" data-name="Path 102602" d="M2994.04,514.767c0,41.935-47.473,84.639-47.473,84.639s-47.473-40.844-47.473-84.639c0-26.79,21.255-48.508,47.473-48.508S2994.04,487.977,2994.04,514.767Z" transform="translate(-2899.094 -466.259)" fill="#915aa3"/>
        <circle id="Ellipse_4825" data-name="Ellipse 4825" cx="35.631" cy="35.631" r="35.631" transform="translate(6.594 76.131) rotate(-80.783)" fill="#fff"/>
      </g>
      <g id="Group_47919" data-name="Group 47919" transform="translate(10.527 193.802)">
        <path id="Path_102620" data-name="Path 102620" d="M2546.8,494l39.325,67.562s12.8,41.158,50.792,45.181,102.25-58.262,125.908-92.978,63.659-80.839,71.794-80.29,63.538,32.34,63.538,32.34-.186,7.261-14.6,3.223l7.412,5.2s-4.016,4.918-14.336,1.57-26.022-9.218-26.022-9.218l16.309,11.771s-1.17,5.11-10,1.877-24.935-6.722-33.4-6.722S2752.368,755.265,2635.788,738.7,2502.17,567.483,2546.8,494Z" transform="translate(-2522.942 -432.288)" fill="#fff"/>
        <path id="Path_102621" data-name="Path 102621" d="M2645.368,740.276a71.3,71.3,0,0,1-10.063-.717c-54.051-7.677-81.572-43.474-95.142-72.15-12.485-26.387-18.654-58.805-17.371-91.282,1.245-31.532,9.3-61.029,22.677-83.057a1.2,1.2,0,0,1,1.022-.569,1.185,1.185,0,0,1,1.012.588l39.323,67.562a1.147,1.147,0,0,1,.108.243c.126.4,13.029,40.464,49.788,44.356,16.336,1.727,40.3-9.529,67.457-31.7,21.829-17.821,44.339-41.673,57.351-60.766,21.911-32.154,62.932-80.81,72.666-80.81.063,0,.124,0,.185.006,8.314.561,61.776,31.19,64.047,32.495a1.181,1.181,0,0,1,.594,1.055,5.473,5.473,0,0,1-2.293,3.988c-1.863,1.377-4.6,1.871-8.184,1.483l2.786,1.957a1.182,1.182,0,0,1,.237,1.716c-.185.226-4.654,5.5-15.617,1.947-5.5-1.785-12.59-4.307-17.986-6.264l9.33,6.734a1.182,1.182,0,0,1,.46,1.222,4.989,4.989,0,0,1-2.514,3.065c-2.168,1.177-5.213,1.063-9.049-.341-8.5-3.11-24.213-6.585-32.757-6.65-1.71,1.655-6.241,15.117-11.472,30.655C2787.917,576.475,2732.776,740.264,2645.368,740.276Zm-98.9-244.261c-26.783,45.823-28.655,118.626-4.166,170.382,13.321,28.151,40.327,63.29,93.336,70.819a68.23,68.23,0,0,0,9.6.685c35.642,0,70-28.423,102.279-84.667,29.176-50.842,49.848-112.255,62.2-148.948,9.081-26.98,11.07-32.267,13.475-32.267,8.726,0,25.047,3.588,33.809,6.795,3.9,1.427,5.988,1.065,7.053.511a2.971,2.971,0,0,0,1.052-.894l-15.51-11.2a1.183,1.183,0,0,1,1.107-2.066c.156.058,15.8,5.9,25.972,9.2,6.654,2.158,10.39.711,12.037-.358l-6.158-4.322a1.183,1.183,0,0,1,1-2.107c7.077,1.983,10.3,1.111,11.767.032a3.384,3.384,0,0,0,1.176-1.519c-15.894-9.1-55.93-31.328-62.279-31.755-.037,0-.075,0-.115,0-7.322,0-46.043,43.712-70.622,79.78-22.975,33.714-84.235,93.673-123.287,93.68a35.23,35.23,0,0,1-3.724-.192c-37.228-3.941-50.884-43.244-51.753-45.87Z" transform="translate(-2522.626 -431.972)" fill="#1d1320"/>
      </g>
    </g>
    <g id="Group_47922" data-name="Group 47922" transform="translate(2677.7 487.56)">
      <g id="Group_47921" data-name="Group 47921">
        <circle id="Ellipse_4826" data-name="Ellipse 4826" cx="136.142" cy="136.142" r="136.142" transform="translate(0 192.534) rotate(-45)" fill="#fff"/>
        <path id="Path_102622" data-name="Path 102622" d="M2951.954,912.977c-75.722,0-137.326-61.6-137.326-137.325s61.6-137.326,137.326-137.326,137.326,61.6,137.326,137.326S3027.675,912.977,2951.954,912.977Zm0-272.285c-74.418,0-134.96,60.543-134.96,134.96s60.542,134.959,134.96,134.959,134.96-60.543,134.96-134.959S3026.371,640.692,2951.954,640.692Z" transform="translate(-2759.419 -583.117)" fill="#1d1320"/>
      </g>
      <path id="Path_102623" data-name="Path 102623" d="M2924.518,830.922c-8.674-18.7-28.245-15.426-32.5-28.532-9.369-28.883,77.048-71.447,68.954-94.315-6.334-17.893-63.384-3.541-73.709-24.57-3.349-6.821-1.03-15.841,4.668-25.828a136.187,136.187,0,0,0,10.721,248.881,112.955,112.955,0,0,0,12.351-19.363C2921.713,873.837,2933.517,850.329,2924.518,830.922Z" transform="translate(-2759.736 -587.207)" fill="#fff1d5"/>
      <path id="Path_102624" data-name="Path 102624" d="M3126.787,785.045A135.805,135.805,0,0,0,3080.637,682.9c-11.841-.795-18.934,2.156-23.431,5.909-9.091,7.587-5.292,16.5-16.644,32.5-13.315,18.762-25.3,16.023-34.873,30.91-9.9,15.4-11.15,40.238-.792,56.272,17.224,26.664,55.7,12.208,73.709,34.873,5.873,7.392,9.969,19.255,6.781,39.442A135.729,135.729,0,0,0,3126.787,785.045Z" transform="translate(-2798.109 -592.511)" fill="#fff1d5"/>
      <path id="Path_102625" data-name="Path 102625" d="M2951.954,912.977c-75.722,0-137.326-61.6-137.326-137.325s61.6-137.326,137.326-137.326,137.326,61.6,137.326,137.326S3027.675,912.977,2951.954,912.977Zm0-272.285c-74.418,0-134.96,60.543-134.96,134.96s60.542,134.959,134.96,134.959,134.96-60.543,134.96-134.959S3026.371,640.692,2951.954,640.692Z" transform="translate(-2759.419 -583.117)" fill="#1d1320"/>
    </g>
    <g id="Group_47926" data-name="Group 47926" transform="translate(2913.802 541.268)">
      <path id="Path_102626" data-name="Path 102626" d="M3138.949,684.931c0,41.935-47.473,84.639-47.473,84.639S3044,728.727,3044,684.931c0-26.79,21.255-48.507,47.473-48.507S3138.949,658.141,3138.949,684.931Z" transform="translate(-3044.004 -636.424)" fill="#915aa3"/>
      <circle id="Ellipse_4827" data-name="Ellipse 4827" cx="35.631" cy="35.631" r="35.631" transform="matrix(0.122, -0.993, 0.993, 0.122, 7.755, 77.678)" fill="#fff"/>
    </g>
    <g id="Group_47930" data-name="Group 47930" transform="translate(2753.063 602.792)">
      <path id="Path_102644" data-name="Path 102644" d="M2935.13,762.945c0,41.934-47.472,84.638-47.472,84.638s-47.473-40.843-47.473-84.638c0-26.791,21.254-48.508,47.473-48.508S2935.13,736.154,2935.13,762.945Z" transform="translate(-2840.185 -714.437)" fill="#915aa3"/>
      <circle id="Ellipse_4828" data-name="Ellipse 4828" cx="35.631" cy="35.631" r="35.631" transform="translate(6.594 76.131) rotate(-80.783)" fill="#fff"/>
    </g>
    <g id="Group_47933" data-name="Group 47933" transform="translate(2453.199 667.234)">
      <g id="Group_47931" data-name="Group 47931">
        <circle id="Ellipse_4829" data-name="Ellipse 4829" cx="31.091" cy="31.091" r="31.091" transform="translate(1.183 1.183)" fill="#fff"/>
        <path id="Path_102662" data-name="Path 102662" d="M2492.228,860.7a32.274,32.274,0,1,1,32.274-32.274A32.311,32.311,0,0,1,2492.228,860.7Zm0-62.183a29.909,29.909,0,1,0,29.908,29.909A29.943,29.943,0,0,0,2492.228,798.516Z" transform="translate(-2459.953 -796.15)" fill="#1d1320"/>
      </g>
      <g id="Group_47932" data-name="Group 47932" transform="translate(15.639 15.64)">
        <path id="Path_102663" data-name="Path 102663" d="M2500.561,849.251a1.183,1.183,0,0,1-1.183-1.183v-30.9a1.183,1.183,0,1,1,2.366,0v30.9A1.183,1.183,0,0,1,2500.561,849.251Z" transform="translate(-2483.926 -815.982)" fill="#1d1320"/>
        <path id="Path_102664" data-name="Path 102664" d="M2511.871,837.941h-30.9a1.183,1.183,0,0,1,0-2.366h30.9a1.183,1.183,0,1,1,0,2.366Z" transform="translate(-2479.784 -820.123)" fill="#1d1320"/>
      </g>
    </g>
    <path id="Path_102665" data-name="Path 102665" d="M2615.839,922.3h-.422c-2.157-.008-4.335-.078-6.47-.21a1.183,1.183,0,0,1,.147-2.362c2.089.129,4.221.2,6.334.206h.411q1.312,0,2.611-.031a1.215,1.215,0,0,1,1.21,1.155,1.183,1.183,0,0,1-1.155,1.21Q2617.178,922.3,2615.839,922.3Zm12.076-.655a1.183,1.183,0,0,1-.126-2.359c3.087-.337,6.2-.812,9.25-1.412a1.183,1.183,0,1,1,.457,2.321c-3.118.614-6.3,1.1-9.452,1.442A1.165,1.165,0,0,1,2627.916,921.644Zm-28.3-.546a1.145,1.145,0,0,1-.178-.013c-3.146-.473-6.3-1.094-9.383-1.842a1.183,1.183,0,0,1,.559-2.3c3.013.733,6.1,1.338,9.176,1.8a1.183,1.183,0,0,1-.175,2.353Zm46.844-3.1a1.183,1.183,0,0,1-.325-2.319c2.981-.857,5.967-1.856,8.876-2.968a1.183,1.183,0,0,1,.845,2.211c-2.972,1.136-6.022,2.156-9.068,3.031A1.178,1.178,0,0,1,2646.463,918Zm-65.206-1.36a1.162,1.162,0,0,1-.38-.064c-3-1.019-6-2.188-8.912-3.474a1.183,1.183,0,1,1,.955-2.164c2.852,1.259,5.785,2.4,8.717,3.4a1.183,1.183,0,0,1-.38,2.3Zm82.863-5.4a1.183,1.183,0,0,1-.517-2.248c2.809-1.361,5.58-2.856,8.235-4.443a1.184,1.184,0,0,1,1.215,2.032c-2.716,1.621-5.548,3.149-8.418,4.539A1.171,1.171,0,0,1,2664.121,911.24Zm-100.162-2.229a1.176,1.176,0,0,1-.568-.146c-2.774-1.52-5.529-3.181-8.188-4.94a1.183,1.183,0,0,1,1.3-1.973c2.605,1.722,5.3,3.35,8.02,4.838a1.183,1.183,0,0,1-.569,2.221Zm138.775-1.365h-.033a57.555,57.555,0,0,1-6.5-.539c-.992-.142-2.03-.314-3.084-.513a1.182,1.182,0,1,1,.438-2.324c1.021.192,2.023.359,2.979.495a55.237,55.237,0,0,0,6.232.518,1.183,1.183,0,0,1-.032,2.365Zm9.449-.434a1.183,1.183,0,0,1-.132-2.358,82.669,82.669,0,0,0,9.188-1.6,1.183,1.183,0,0,1,.533,2.3,84.852,84.852,0,0,1-9.453,1.649A1.317,1.317,0,0,1,2712.182,907.212Zm-28.037-2.861a1.177,1.177,0,0,1-.339-.049c-4.715-1.405-7.953-2.714-8.088-2.769l-.965-.4a1.182,1.182,0,1,1,.9-2.185l.96.4c.013.005.958.387,2.547.953a1.175,1.175,0,0,1,.486-.9c2.549-1.854,5-3.823,7.288-5.853a1.183,1.183,0,1,1,1.571,1.77c-2.241,1.989-4.636,3.919-7.125,5.746.933.309,1.976.64,3.1.975a1.183,1.183,0,0,1-.337,2.316Zm46.469-1.339a1.183,1.183,0,0,1-.373-2.306c2.887-.958,5.836-2.074,8.767-3.315a1.183,1.183,0,0,1,.923,2.178c-2.988,1.265-6,2.4-8.945,3.382A1.177,1.177,0,0,1,2730.614,903.012Zm-182.44-4.424a1.179,1.179,0,0,1-.729-.252c-2.5-1.962-4.956-4.045-7.288-6.193a1.183,1.183,0,1,1,1.6-1.74c2.285,2.106,4.688,4.149,7.144,6.072a1.183,1.183,0,0,1-.73,2.114Zm118.392-1.233a1.166,1.166,0,0,1-.539-.13,37.08,37.08,0,0,1-8.127-5.382,1.183,1.183,0,1,1,1.59-1.752,34.869,34.869,0,0,0,7.614,5.028,1.183,1.183,0,0,1-.539,2.236Zm81.484-1.706a1.183,1.183,0,0,1-.541-2.235c3.7-1.9,6.175-3.4,7.066-3.961a1.182,1.182,0,1,1,1.253,2.005c-.916.573-3.455,2.116-7.238,4.059A1.165,1.165,0,0,1,2748.051,895.648Zm-53.6-6.685a1.182,1.182,0,0,1-.877-1.976c.992-1.1,1.95-2.222,2.847-3.342l.658-.819c.731-.908,1.565-1.943,2.447-3.083a1.183,1.183,0,0,1,1.872,1.448c-.893,1.153-1.736,2.2-2.476,3.12l-.655.815c-.926,1.155-1.916,2.316-2.939,3.449A1.182,1.182,0,0,1,2694.454,888.963Zm-160.193-3.208a1.178,1.178,0,0,1-.871-.382,75.907,75.907,0,0,1-6.143-7.443,1.183,1.183,0,1,1,1.944-1.347,74.685,74.685,0,0,0,5.941,7.19,1.183,1.183,0,0,1-.871,1.983Zm118.494-.941a1.18,1.18,0,0,1-1-.548,38.319,38.319,0,0,1-4.176-8.8,1.183,1.183,0,0,1,2.252-.724,35.95,35.95,0,0,0,3.92,8.252,1.183,1.183,0,0,1-1,1.818Zm53.082-10.957a1.169,1.169,0,0,1-.6-.164,1.182,1.182,0,0,1-.418-1.619,36.094,36.094,0,0,0,3.728-8.343,1.183,1.183,0,1,1,2.277.644,38.445,38.445,0,0,1-3.967,8.9A1.181,1.181,0,0,1,2705.836,873.857Zm-58.572-6.875h-.02a1.185,1.185,0,0,1-1.164-1.2,26.175,26.175,0,0,1,1.992-9.646,1.183,1.183,0,1,1,2.186.905,23.846,23.846,0,0,0-1.812,8.779A1.183,1.183,0,0,1,2647.264,866.981Zm62.827-11.094a1.185,1.185,0,0,1-1.148-.9,13.651,13.651,0,0,0-2.258-4.813,20.3,20.3,0,0,0-2.268-2.593,1.183,1.183,0,1,1,1.648-1.7,22.709,22.709,0,0,1,2.532,2.9,16.029,16.029,0,0,1,2.644,5.644,1.182,1.182,0,0,1-.868,1.43A1.156,1.156,0,0,1,2710.091,855.887Zm-55.8-6.018a1.183,1.183,0,0,1-.869-1.985,38.025,38.025,0,0,1,7.5-6.218,1.183,1.183,0,1,1,1.272,1.995,35.729,35.729,0,0,0-7.037,5.829A1.178,1.178,0,0,1,2654.286,849.869Zm43.217-7.347a1.183,1.183,0,0,1-.537-.129,43.8,43.8,0,0,0-8.6-3.282,1.184,1.184,0,0,1,.614-2.286,46.335,46.335,0,0,1,9.06,3.461,1.183,1.183,0,0,1-.54,2.237Zm-27.44-2.774a1.183,1.183,0,0,1-.38-2.3,34.254,34.254,0,0,1,9.6-1.839,1.183,1.183,0,1,1,.1,2.364,31.874,31.874,0,0,0-8.932,1.715A1.177,1.177,0,0,1,2670.063,839.747Z" transform="translate(-20.932 -137.255)" fill="#ecba53"/>
    <path id="Path_102666" data-name="Path 102666" d="M3161.392,981.78a1.181,1.181,0,0,1-1.03-.6l-25.789-45.628a1.183,1.183,0,1,1,2.06-1.164l25.788,45.627a1.184,1.184,0,0,1-1.029,1.766Z" transform="translate(-149.313 -158.008)" fill="#1d1320"/>
    <path id="Path_102667" data-name="Path 102667" d="M3180.836,951.962a1.173,1.173,0,0,1-.773-.289l-31.774-27.5a1.183,1.183,0,0,1,1.548-1.788l31.773,27.5a1.183,1.183,0,0,1-.774,2.077Z" transform="translate(-152.158 -155.537)" fill="#1d1320"/>
    <path id="Path_102668" data-name="Path 102668" d="M2498.917,699.672a1.182,1.182,0,0,1-1.117-.8c-23.057-66.594-20.347-117.971-14.012-149.344,6.879-34.07,19.439-52.653,19.564-52.837a1.183,1.183,0,0,1,1.952,1.337c-.125.181-12.456,18.463-19.225,52.109-6.249,31.06-8.9,81.944,13.957,147.96a1.182,1.182,0,0,1-.73,1.5A1.166,1.166,0,0,1,2498.917,699.672Z" transform="translate(-10.852 -65.513)" fill="#1d1320"/>
    <path id="Path_102669" data-name="Path 102669" d="M2471.923,668.631a1.182,1.182,0,0,1-1.148-.9c-16.663-68.315-9.517-118.626-.587-148.8,9.7-32.777,23.587-49.63,23.727-49.8a1.183,1.183,0,0,1,1.814,1.517c-.137.163-13.766,16.735-23.316,49.095-8.817,29.876-15.859,79.7.659,147.427a1.184,1.184,0,0,1-1.15,1.464Z" transform="translate(-6.918 -59.705)" fill="#1d1320"/>
    <path id="Path_102670" data-name="Path 102670" d="M3041.168,255.627a6.072,6.072,0,0,1-3.379-.927,5.56,5.56,0,0,1-2.192-3.072,4.424,4.424,0,0,0-1.161-1.972c-1.151-1.025-2.518-.865-4.655-.519-1.956.318-4.173.678-6.23-.606-2.509-1.567-2.758-4.3-2.978-6.719-.193-2.109-.375-4.1-1.9-5.313-1.74-1.386-4.166-.884-6.737-.353-2.863.593-6.107,1.265-8.707-.856-2.177-1.778-2.49-4.324-2.767-6.569-.23-1.873-.43-3.491-1.633-4.283-1.763-1.162-5.116-.353-9.7,2.334a1.183,1.183,0,0,1-1.2-2.039c5.562-3.268,9.553-4.009,12.195-2.271,2.116,1.394,2.416,3.825,2.68,5.97.244,1.979.473,3.849,1.914,5.025,1.727,1.41,4.158.906,6.731.373,2.851-.59,6.082-1.259,8.691.819,2.313,1.843,2.561,4.555,2.778,6.949.195,2.137.363,3.983,1.875,4.927,1.3.812,2.9.554,4.6.278,2.133-.345,4.553-.739,6.606,1.086a6.664,6.664,0,0,1,1.8,2.912,3.318,3.318,0,0,0,1.263,1.916c1.215.786,3.074.726,5.524-.182a1.183,1.183,0,1,1,.823,2.218A12.4,12.4,0,0,1,3041.168,255.627Z" transform="translate(-118.228 -7.466)" fill="#1d1320"/>
    <path id="Path_102671" data-name="Path 102671" d="M2472.208,478a1.182,1.182,0,0,1-1.094-.731c-1.227-2.964-1.3-5.388-.215-7.2a5.26,5.26,0,0,1,2.829-2.188,4.09,4.09,0,0,0,1.773-1.132c.895-1.086.7-2.343.3-4.3-.368-1.831-.785-3.905.356-5.9,1.394-2.432,3.964-2.764,6.23-3.058,1.946-.252,3.785-.49,4.844-1.928,1.213-1.647.663-3.879.08-6.243-.659-2.671-1.406-5.7.506-8.23,1.6-2.121,3.986-2.507,6.09-2.845,1.723-.279,3.211-.519,3.891-1.64.7-1.159.835-3.643-2.521-8.9a1.183,1.183,0,0,1,1.993-1.274c3.267,5.11,4.1,8.837,2.552,11.395-1.245,2.058-3.526,2.426-5.536,2.75-1.826.295-3.549.573-4.579,1.937-1.233,1.632-.707,3.767-.1,6.237.656,2.659,1.4,5.673-.472,8.212-1.659,2.252-4.2,2.58-6.445,2.871-2.276.295-3.711.543-4.48,1.888-.7,1.221-.417,2.626-.09,4.254.4,2,.859,4.264-.8,6.274a6.3,6.3,0,0,1-2.686,1.811,2.965,2.965,0,0,0-1.709,1.216c-.681,1.14-.555,2.851.369,5.087a1.183,1.183,0,0,1-1.092,1.635Z" transform="translate(-8.906 -49.809)" fill="#1d1320"/>
    <path id="Path_102672" data-name="Path 102672" d="M2837.662,289.279a9.413,9.413,0,1,1,9.412-9.412A9.423,9.423,0,0,1,2837.662,289.279Zm0-16.46a7.047,7.047,0,1,0,7.046,7.047A7.056,7.056,0,0,0,2837.662,272.819Z" transform="translate(-84.599 -17.802)" fill="#1d1320"/>
    <g id="Group_47934" data-name="Group 47934" transform="translate(2929.641 225.062)">
      <path id="Path_102673" data-name="Path 102673" d="M3078.182,243.953A1.183,1.183,0,0,1,3077,242.77v-6.117a1.183,1.183,0,0,1,2.366,0v6.117A1.184,1.184,0,0,1,3078.182,243.953Z" transform="translate(-3066.817 -235.47)" fill="#1d1320"/>
      <path id="Path_102674" data-name="Path 102674" d="M3078.182,262.018a1.183,1.183,0,0,1-1.183-1.183v-6.116a1.183,1.183,0,0,1,2.366,0v6.116A1.184,1.184,0,0,1,3078.182,262.018Z" transform="translate(-3066.817 -239.289)" fill="#1d1320"/>
      <path id="Path_102675" data-name="Path 102675" d="M3071.387,250.747h-6.116a1.183,1.183,0,0,1,0-2.366h6.116a1.183,1.183,0,0,1,0,2.366Z" transform="translate(-3064.088 -238.199)" fill="#1d1320"/>
      <path id="Path_102676" data-name="Path 102676" d="M3089.453,250.747h-6.116a1.183,1.183,0,0,1,0-2.366h6.116a1.183,1.183,0,1,1,0,2.366Z" transform="translate(-3067.906 -238.199)" fill="#1d1320"/>
    </g>
    <path id="Path_102677" data-name="Path 102677" d="M3022.047,270.165a1.179,1.179,0,0,1-.7-.229c-55.809-41.076-129.322-40.888-130.048-40.858h-.011a1.183,1.183,0,0,1-.011-2.366c.767,0,75.029-.225,131.473,41.319a1.183,1.183,0,0,1-.7,2.135Z" transform="translate(-97.673 -8.557)" fill="#1d1320"/>
    <g id="Group_47935" data-name="Group 47935" transform="translate(2845.723 301.517)">
      <path id="Path_102678" data-name="Path 102678" d="M3036.27,364.971l-2.024-7.393-8.364.38a31.876,31.876,0,0,0-2.688-4.615l4.428-7.093-5.45-5.391-7.055,4.512a32.162,32.162,0,0,0-4.634-2.641l.289-8.37-7.415-1.943-3.849,7.424a31.81,31.81,0,0,0-5.341.038l-3.933-7.39-7.393,2.024.379,8.363a31.771,31.771,0,0,0-4.615,2.688l-7.093-4.428-5.39,5.45,4.512,7.055a32.069,32.069,0,0,0-2.642,4.633l-8.369-.289-1.944,7.416,7.424,3.848a31.8,31.8,0,0,0,.038,5.341l-7.39,3.934,2.024,7.393,8.364-.38a31.767,31.767,0,0,0,2.688,4.615l-4.428,7.094,5.45,5.39,7.055-4.512a32.172,32.172,0,0,0,4.634,2.642l-.289,8.369,7.415,1.943,3.848-7.423a31.732,31.732,0,0,0,5.341-.039l3.934,7.39,7.394-2.024-.38-8.364a31.732,31.732,0,0,0,4.616-2.688l7.093,4.428,5.39-5.449-4.512-7.055a32.167,32.167,0,0,0,2.642-4.634l8.369.289,1.944-7.415-7.424-3.849a31.721,31.721,0,0,0-.039-5.341Zm-34.049,25.809a19.733,19.733,0,1,1,13.822-24.244A19.733,19.733,0,0,1,3002.221,390.78Z" transform="translate(-2957.679 -332.416)" fill="#fff"/>
    </g>
    <g id="Group_47936" data-name="Group 47936" transform="translate(2817.613 261.536)">
      <path id="Path_102679" data-name="Path 102679" d="M2969.053,301.2l-1.21-4.423-5,.228a19.028,19.028,0,0,0-1.607-2.762l2.649-4.244-3.261-3.225-4.221,2.7a19.322,19.322,0,0,0-2.772-1.58l.172-5.007-4.436-1.162-2.3,4.442a18.976,18.976,0,0,0-3.195.023l-2.354-4.422-4.423,1.211.228,5a19.044,19.044,0,0,0-2.762,1.608l-4.243-2.65-3.225,3.261,2.7,4.221a19.3,19.3,0,0,0-1.581,2.772l-5.007-.172-1.163,4.436,4.442,2.3a18.943,18.943,0,0,0,.023,3.2l-4.422,2.353,1.212,4.423,5-.227a18.981,18.981,0,0,0,1.608,2.761l-2.65,4.244,3.261,3.226,4.221-2.7a19.269,19.269,0,0,0,2.772,1.58l-.172,5.007,4.436,1.163,2.3-4.442a18.985,18.985,0,0,0,3.2-.023l2.353,4.422,4.424-1.211-.228-5a18.984,18.984,0,0,0,2.761-1.608l4.244,2.65,3.226-3.261-2.7-4.221a19.3,19.3,0,0,0,1.581-2.772l5.007.173,1.164-4.437-4.442-2.3a19,19,0,0,0-.023-3.2Zm-20.371,15.441a11.806,11.806,0,1,1,8.269-14.5A11.8,11.8,0,0,1,2948.683,316.638Z" transform="translate(-2922.034 -281.72)" fill="#fff"/>
    </g>
  </g>
</svg>
